<svg xmlns="http://www.w3.org/2000/svg" fill="none" viewBox="0 0 12 12"><path fill="currentColor" fill-rule="evenodd" d="M4.75 2a1.5 1.5 0 1 0 0 3 1.5 1.5 0 0 0 0-3m-2.5 1.5a2.5 2.5 0 1 1 5 0 2.5 2.5 0 0 1-5 0m5.037-2.042a.5.5 0 0 1 .65-.276 2.5 2.5 0 0 1 0 4.636.5.5 0 0 1-.375-.927 1.5 1.5 0 0 0 0-2.782.5.5 0 0 1-.275-.651M3.982 7H6a.5.5 0 0 1 0 1H4c-.473 0-.802 0-1.06.018-.254.017-.401.05-.514.096a1.5 1.5 0 0 0-.812.812c-.047.113-.079.26-.096.514-.018.258-.018.587-.018 1.06a.5.5 0 0 1-1 0v-.018c0-.45 0-.814.02-1.11a2.6 2.6 0 0 1 .17-.829A2.5 2.5 0 0 1 2.043 7.19a2.6 2.6 0 0 1 .829-.17C3.168 7 3.532 7 3.982 7m6.664.646a.5.5 0 0 1 .708.708l-2 2a.5.5 0 0 1-.708 0l-1-1a.5.5 0 1 1 .708-.708L9 9.293z" clip-rule="evenodd"/></svg>