<svg xmlns="http://www.w3.org/2000/svg" fill="none" viewBox="0 0 28 28"><path fill="#3c6ce7" fill-rule="evenodd" d="M7.885 3.5h12.23c.939 0 1.714 0 2.345.052.656.053 1.259.168 1.825.457a4.67 4.67 0 0 1 2.04 2.039c.278.546.395 1.127.45 1.756.063.19.074.392.037.584.021.525.021 1.132.021 1.83v7.564c0 .939 0 1.714-.051 2.345-.054.656-.169 1.259-.457 1.825a4.67 4.67 0 0 1-2.04 2.04c-.566.288-1.169.403-1.825.456-.631.052-1.406.052-2.345.052H7.885c-.94 0-1.714 0-2.346-.052-.655-.053-1.258-.168-1.824-.457a4.67 4.67 0 0 1-2.04-2.039c-.288-.566-.403-1.17-.457-1.825-.051-.631-.051-1.406-.051-2.345v-7.563c0-.699 0-1.306.02-1.831a1.2 1.2 0 0 1 .037-.584c.056-.63.173-1.21.451-1.756a4.67 4.67 0 0 1 2.04-2.04c.566-.288 1.169-.403 1.824-.456C6.171 3.5 6.946 3.5 7.885 3.5M3.5 10.407v7.326c0 1 0 1.679.044 2.204.042.512.117.773.21.956.224.439.58.796 1.02 1.02.182.092.444.168.955.21.526.043 1.205.044 2.204.044h12.134c.999 0 1.678-.001 2.203-.044.512-.042.773-.118.956-.21a2.34 2.34 0 0 0 1.02-1.02c.093-.183.168-.444.21-.956.043-.525.044-1.204.044-2.204v-7.326l-7.69 5.384-.135.094c-.635.446-1.193.838-1.828.996a3.5 3.5 0 0 1-1.694 0c-.635-.158-1.193-.55-1.828-.996l-.135-.095zm20.903-2.78-8.931 6.252c-.85.595-1.03.699-1.19.738a1.2 1.2 0 0 1-.564 0c-.16-.04-.34-.143-1.19-.738L3.597 7.627a1.8 1.8 0 0 1 .157-.52c.224-.439.58-.796 1.02-1.02.182-.092.444-.168.955-.21.526-.043 1.205-.044 2.204-.044h12.134c.999 0 1.678.001 2.203.044.512.042.773.118.956.21.439.224.796.581 1.02 1.02.062.122.116.278.157.52" clip-rule="evenodd"/></svg>