<svg xmlns="http://www.w3.org/2000/svg" fill="none" viewBox="0 0 28 28"><path fill="#3c6ce7" fill-rule="evenodd" d="M9.522 1.167h8.956c.615 0 1.146 0 1.583.035.461.038.92.121 1.361.346a3.5 3.5 0 0 1 1.53 1.53c.225.441.308.9.346 1.361.036.437.035.968.035 1.583v15.956c0 .615 0 1.146-.035 1.583-.038.46-.121.92-.346 1.361a3.5 3.5 0 0 1-1.53 1.53c-.441.225-.9.308-1.361.345-.437.036-.968.036-1.583.036H9.522c-.615 0-1.146 0-1.583-.035-.461-.038-.92-.121-1.361-.346a3.5 3.5 0 0 1-1.53-1.53c-.225-.441-.308-.9-.346-1.361-.035-.437-.035-.968-.035-1.583V6.022c0-.615 0-1.146.035-1.583.038-.461.121-.92.346-1.361a3.5 3.5 0 0 1 1.53-1.53c.441-.225.9-.308 1.361-.346.437-.036.968-.036 1.583-.035m-1.393 2.36c-.317.027-.434.07-.492.1-.22.112-.398.29-.51.51-.03.058-.073.175-.099.492-.027.33-.028.765-.028 1.438v15.866c0 .673.001 1.107.028 1.438.026.317.07.434.1.492.111.22.29.398.51.51.057.03.174.073.491.099.33.027.765.028 1.438.028h8.866c.673 0 1.107-.001 1.438-.028.317-.026.434-.07.492-.1.22-.111.398-.29.51-.51.03-.057.073-.174.1-.491.026-.33.027-.765.027-1.438V6.067c0-.673 0-1.107-.028-1.438-.026-.317-.07-.434-.1-.492a1.17 1.17 0 0 0-.509-.51c-.058-.03-.175-.073-.492-.1-.33-.026-.765-.027-1.438-.027H9.567c-.673 0-1.107 0-1.438.028m4.121 16.89a1.75 1.75 0 1 1 3.5 0 1.75 1.75 0 0 1-3.5 0" clip-rule="evenodd"/></svg>