<svg xmlns="http://www.w3.org/2000/svg" fill="none" viewBox="0 0 28 28"><path fill="#3c6ce7" fill-rule="evenodd" d="M9.333 1.167c.645 0 1.167.522 1.167 1.166V3.5h7V2.333a1.167 1.167 0 0 1 2.333 0v1.169c.555.004 1.04.015 1.46.05.657.053 1.26.168 1.826.457a4.67 4.67 0 0 1 2.039 2.039c.288.566.403 1.17.457 1.825.033.401.045.86.05 1.384a1 1 0 0 1 0 .136q.002.39.002.825v9.897c0 .939 0 1.714-.052 2.345-.054.656-.168 1.259-.457 1.825a4.67 4.67 0 0 1-2.04 2.04c-.566.288-1.168.403-1.824.457-.632.051-1.407.051-2.346.051H9.052c-.94 0-1.714 0-2.346-.051-.656-.054-1.258-.169-1.825-.457a4.67 4.67 0 0 1-2.04-2.04c-.288-.566-.403-1.169-.456-1.825-.052-.631-.052-1.406-.052-2.345v-9.897q0-.435.002-.825a1 1 0 0 1 0-.136c.005-.523.017-.983.05-1.384.053-.656.168-1.259.457-1.825a4.67 4.67 0 0 1 2.04-2.04c.566-.288 1.168-.403 1.824-.456.421-.035.906-.046 1.46-.05V2.333c0-.644.523-1.166 1.167-1.166M8.167 5.835c-.52.004-.928.014-1.27.042-.512.042-.774.118-.956.21-.44.224-.796.581-1.02 1.02-.093.183-.169.444-.21.956l-.008.104h18.594l-.008-.104c-.041-.512-.117-.773-.21-.956a2.33 2.33 0 0 0-1.02-1.02c-.182-.092-.444-.168-.955-.21a18 18 0 0 0-1.27-.042 1.167 1.167 0 0 1-2.334-.002h-7a1.167 1.167 0 0 1-2.333.002M23.333 10.5H4.667v9.567c0 .999 0 1.678.043 2.203.042.512.118.774.21.956.225.439.582.796 1.02 1.02.183.093.445.168.956.21.525.043 1.205.044 2.204.044h9.8c1 0 1.679 0 2.204-.044.511-.042.773-.117.955-.21.44-.224.796-.581 1.02-1.02.093-.182.169-.444.21-.956.043-.525.044-1.204.044-2.203zM14 12.833c.644 0 1.167.523 1.167 1.167v2.333H17.5a1.167 1.167 0 1 1 0 2.334h-2.333V21a1.167 1.167 0 0 1-2.334 0v-2.333H10.5a1.167 1.167 0 1 1 0-2.334h2.333V14c0-.644.523-1.167 1.167-1.167" clip-rule="evenodd"/></svg>