<svg xmlns="http://www.w3.org/2000/svg" fill="none" viewBox="0 0 28 28"><path fill="#3c6ce7" fill-rule="evenodd" d="M11.163 1.167h5.674c.295 0 .582 0 .824.02.267.021.582.073.898.234.44.224.796.58 1.02 1.02.162.316.213.631.235.898q.006.081.01.17c.461.015.856.053 1.217.15a4.67 4.67 0 0 1 3.3 3.3c.16.597.16 1.286.16 2.214v10.942c0 .939 0 1.714-.052 2.345-.054.656-.169 1.259-.458 1.825a4.67 4.67 0 0 1-2.039 2.04c-.566.288-1.169.403-1.825.457-.631.051-1.406.051-2.345.051h-7.563c-.94 0-1.715 0-2.346-.051-.656-.054-1.259-.169-1.825-.457a4.67 4.67 0 0 1-2.04-2.04c-.288-.566-.403-1.169-.456-1.825-.052-.631-.052-1.406-.052-2.345V9.173c0-.928 0-1.617.16-2.214a4.67 4.67 0 0 1 3.299-3.3c.361-.097.756-.135 1.217-.15l.01-.17c.022-.267.074-.582.235-.898.224-.44.58-.796 1.02-1.02.316-.161.631-.213.898-.235.243-.02.53-.02.824-.02M8.177 5.844c-.307.011-.474.031-.614.069a2.33 2.33 0 0 0-1.65 1.65c-.07.26-.08.61-.08 1.77v10.734c0 .999.001 1.678.044 2.203.042.512.118.774.21.956.224.439.581.796 1.02 1.02.183.093.445.168.956.21.525.043 1.204.044 2.204.044h7.466c1 0 1.68 0 2.204-.044.512-.042.773-.117.956-.21a2.34 2.34 0 0 0 1.02-1.02c.092-.182.168-.444.21-.956.043-.525.044-1.204.044-2.203V9.333c0-1.16-.01-1.511-.08-1.77a2.33 2.33 0 0 0-1.65-1.65c-.14-.038-.307-.058-.614-.069l-.01.15a2.4 2.4 0 0 1-.234.899c-.224.439-.58.796-1.02 1.02a2.4 2.4 0 0 1-.898.234c-.242.02-.53.02-.824.02h-5.674c-.295 0-.581 0-.824-.02a2.4 2.4 0 0 1-.898-.235 2.33 2.33 0 0 1-1.02-1.02 2.4 2.4 0 0 1-.234-.897zM17.5 4.2c0-.346 0-.535-.012-.671l-.001-.016-.016-.001a10 10 0 0 0-.67-.012h-5.6a10 10 0 0 0-.687.013l-.002.016a10 10 0 0 0-.012.671v.933c0 .346.001.536.012.672l.002.015.015.001c.136.011.325.012.671.012h5.6a10 10 0 0 0 .687-.013l.001-.015c.011-.136.012-.326.012-.672zM14 11.667c.644 0 1.167.522 1.167 1.166v2.334H17.5a1.167 1.167 0 0 1 0 2.333h-2.333v2.333a1.167 1.167 0 0 1-2.334 0V17.5H10.5a1.167 1.167 0 0 1 0-2.333h2.333v-2.334c0-.644.523-1.166 1.167-1.166" clip-rule="evenodd"/></svg>