<svg xmlns="http://www.w3.org/2000/svg" fill="none" viewBox="0 0 28 28"><path fill="#3c6ce7" fill-rule="evenodd" d="M16.587 2.361c.628.14 1.025.763.885 1.392l-4.666 21a1.167 1.167 0 1 1-2.278-.506l4.666-21a1.167 1.167 0 0 1 1.393-.886m-7.595 4.98a1.167 1.167 0 0 1 0 1.65L3.983 14l5.009 5.008a1.167 1.167 0 1 1-1.65 1.65l-5.834-5.833a1.167 1.167 0 0 1 0-1.65l5.834-5.833a1.167 1.167 0 0 1 1.65 0m10.017 0a1.167 1.167 0 0 1 1.65 0l5.833 5.834a1.167 1.167 0 0 1 0 1.65l-5.834 5.833a1.167 1.167 0 0 1-1.65-1.65L24.018 14 19.01 8.992a1.166 1.166 0 0 1 0-1.65" clip-rule="evenodd"/></svg>