<svg xmlns="http://www.w3.org/2000/svg" fill="none" viewBox="0 0 28 28"><path fill="#3c6ce7" fill-rule="evenodd" d="M10.219 1.167h7.563c.939 0 1.714 0 2.345.051.656.054 1.259.169 1.825.457a4.67 4.67 0 0 1 2.04 2.04c.288.566.403 1.169.456 1.825.052.63.052 1.406.052 2.345v3.782a1.167 1.167 0 0 1-2.333 0V7.933c0-.999-.001-1.678-.044-2.203-.042-.512-.118-.774-.21-.956a2.33 2.33 0 0 0-1.02-1.02c-.183-.093-.444-.168-.956-.21-.525-.043-1.204-.044-2.204-.044h-7.466c-1 0-1.679 0-2.204.044-.512.042-.773.117-.956.21a2.34 2.34 0 0 0-1.02 1.02c-.092.182-.168.444-.21.956-.043.525-.044 1.204-.044 2.203v12.134c0 .999.001 1.678.044 2.203.042.512.118.774.21.956.224.439.581.796 1.02 1.02.183.093.444.168.956.21.525.043 1.204.044 2.204.044h4.316a1.167 1.167 0 1 1 0 2.333H10.22c-.94 0-1.715 0-2.346-.051-.656-.054-1.259-.169-1.825-.457a4.67 4.67 0 0 1-2.04-2.04c-.288-.566-.403-1.169-.456-1.825-.052-.63-.052-1.406-.052-2.345V7.885c0-.939 0-1.714.052-2.345.053-.656.168-1.26.457-1.825a4.67 4.67 0 0 1 2.039-2.04c.566-.288 1.17-.403 1.825-.457.631-.051 1.406-.051 2.346-.051m-2.052 7A1.165 1.165 0 0 1 9.333 7h9.334a1.167 1.167 0 0 1 0 2.333H9.333a1.167 1.167 0 0 1-1.166-1.166m0 4.666c0-.644.522-1.166 1.166-1.166h7a1.167 1.167 0 1 1 0 2.333h-7a1.167 1.167 0 0 1-1.166-1.167M22.34 15.4l2.552.911c.464.166.774.606.774 1.099v2.92c0 1.795-1.233 3.138-2.17 3.919a10.6 10.6 0 0 1-1.936 1.275l-.04.02-.012.006-.004.002h-.002s-.001.001-.503-1.052l-.503 1.053-.002-.001-.004-.002-.013-.006-.04-.02-.133-.069a10.6 10.6 0 0 1-1.802-1.206c-.937-.781-2.17-2.124-2.17-3.92V17.41c0-.493.31-.933.774-1.099l2.55-.911a3.98 3.98 0 0 1 2.684 0M21 24.5l-.503 1.053c.318.151.687.151 1.005 0zm0-1.332a8 8 0 0 0 1.003-.71c.813-.68 1.33-1.422 1.33-2.129v-2.097l-1.778-.635a1.65 1.65 0 0 0-1.11 0l-1.778.635v2.097c0 .707.517 1.45 1.33 2.128.357.297.718.538 1.003.71M8.167 17.5c0-.644.522-1.167 1.166-1.167h2.334a1.167 1.167 0 0 1 0 2.334H9.333A1.167 1.167 0 0 1 8.167 17.5" clip-rule="evenodd"/></svg>