<svg xmlns="http://www.w3.org/2000/svg" fill="none" viewBox="0 0 28 28"><path fill="#3c6ce7" fill-rule="evenodd" d="M20.458 2.69c-1.117-1.296-2.945-1.905-4.766-1.036-2.118 1.01-3.044 3.437-2.146 5.569.452 1.072 1.675 3.028 2.48 4.28l.02.03c.136.211.273.425.407.6.151.197.345.409.619.579.387.24.854.366 1.31.35.322-.01.595-.096.825-.192.203-.084.429-.2.652-.315l.031-.016c1.325-.682 3.361-1.764 4.289-2.467 1.83-1.387 2.295-3.961.917-5.908-1.159-1.64-3.025-2.038-4.638-1.474m-1.454 2.004c-.469-.98-1.427-1.354-2.308-.934-1.004.48-1.409 1.586-1 2.557.356.845 1.449 2.612 2.293 3.924.163.252.247.383.316.472l.003.004.005-.002c.104-.043.242-.113.51-.25 1.387-.715 3.216-1.7 3.947-2.253.853-.646 1.053-1.808.421-2.701-.583-.824-1.59-.965-2.474-.358a1.167 1.167 0 0 1-1.713-.459M4.163 14H5.17c.294 0 .58 0 .824.02.266.021.581.073.898.234.439.224.796.581 1.02 1.02.092.18.148.361.183.532l1.86-.777.01-.005a10 10 0 0 1 .34-.147c.222-.093.531-.218.88-.343.646-.23 1.61-.534 2.398-.534.559 0 1.115.067 1.658.198l2.783.677c1.276.31 2.216 1.409 2.28 2.723l1.73-1.262a3.045 3.045 0 0 1 3.906.273 2.92 2.92 0 0 1 0 4.203l-2.517 2.448a6.07 6.07 0 0 1-3.072 1.601l-3.558.692a6.2 6.2 0 0 1-2.63-.06l-3.217-.783h-.003a3.8 3.8 0 0 0-.899-.108H8.151q0 .03-.004.06a2.4 2.4 0 0 1-.235.897c-.223.44-.58.796-1.02 1.02a2.4 2.4 0 0 1-.897.235c-.243.02-.53.02-.824.02H4.163c-.295 0-.581 0-.824-.02a2.4 2.4 0 0 1-.898-.235 2.33 2.33 0 0 1-1.02-1.02 2.4 2.4 0 0 1-.234-.898c-.02-.243-.02-.53-.02-.824v-6.84c0-.295 0-.582.02-.825a2.4 2.4 0 0 1 .234-.898c.224-.439.58-.796 1.02-1.02.316-.161.631-.213.898-.234.243-.02.53-.02.824-.02m4.004 8.268h1.878q.737 0 1.454.175h.001l3.215.782c.534.13 1.092.143 1.633.038m0 0 3.558-.692a3.74 3.74 0 0 0 1.891-.983l2.517-2.449a.59.59 0 0 0 0-.857.71.71 0 0 0-.903-.06l-2.933 2.139a3.64 3.64 0 0 1-2.145.697H15.5a1.167 1.167 0 0 1 0-2.333h1.803c.402 0 .673-.309.673-.623v-.358a.63.63 0 0 0-.501-.601l-2.783-.677a4.7 4.7 0 0 0-1.108-.133c-.338 0-.955.163-1.61.398a16 16 0 0 0-.994.395l-.058.026-.014.006-.002.002-.035.015-2.704 1.13v3.963m-2.334-4.712V23.8a10 10 0 0 1-.013.687l-.015.001a10 10 0 0 1-.672.012H4.2c-.346 0-.535 0-.671-.012l-.016-.001v-.016A10 10 0 0 1 3.5 23.8v-6.767a10 10 0 0 1 .013-.686l.016-.002c.136-.01.325-.012.671-.012h.933c.346 0 .536.001.672.012l.015.002.001.015c.012.136.012.325.012.671z" clip-rule="evenodd"/></svg>