<svg xmlns="http://www.w3.org/2000/svg" fill="none" viewBox="0 0 28 28"><path fill="#3c6ce7" fill-rule="evenodd" d="M14 3.5a8.167 8.167 0 0 0-8.167 8.167c0 2.207.996 4.29 2.675 6.47 1.417 1.842 3.232 3.642 5.18 5.573l.312.31.312-.31c1.948-1.931 3.763-3.731 5.18-5.572 1.68-2.18 2.675-4.264 2.675-6.471A8.167 8.167 0 0 0 14 3.5M3.5 11.667c0-5.8 4.701-10.5 10.5-10.5s10.5 4.7 10.5 10.5c0 2.947-1.338 5.53-3.159 7.894-1.522 1.976-3.47 3.907-5.415 5.836q-.553.547-1.101 1.095a1.167 1.167 0 0 1-1.65 0q-.548-.547-1.101-1.095c-1.946-1.929-3.893-3.86-5.415-5.835C4.838 17.197 3.5 14.613 3.5 11.667M14 9.333A2.333 2.333 0 1 0 14 14a2.333 2.333 0 0 0 0-4.667m-4.667 2.334a4.667 4.667 0 1 1 9.334 0 4.667 4.667 0 0 1-9.334 0" clip-rule="evenodd"/></svg>