<svg xmlns="http://www.w3.org/2000/svg" fill="none" viewBox="0 0 28 28"><path fill="#3c6ce7" fill-rule="evenodd" d="M9.052 2.333h9.896c.94 0 1.714 0 2.346.052.656.053 1.258.168 1.825.457a4.67 4.67 0 0 1 2.04 2.04c.288.566.403 1.168.456 1.824.052.632.052 1.407.052 2.346v6.396c0 .94 0 1.714-.052 2.346-.053.656-.168 1.258-.457 1.825a4.67 4.67 0 0 1-2.04 2.039c-.566.288-1.168.403-1.824.457-.632.052-1.407.052-2.346.052h-2.984c-.774 0-1 .005-1.205.047a2.3 2.3 0 0 0-.593.208c-.186.095-.366.232-.971.716L10.38 25.39c-.215.172-.433.347-.625.474-.184.121-.54.338-1.003.339a1.75 1.75 0 0 1-1.37-.658c-.289-.362-.341-.776-.361-.995C7 24.32 7 24.04 7 23.766v-1.609c-.457-.015-.85-.053-1.208-.15a4.67 4.67 0 0 1-3.3-3.3c-.16-.596-.16-1.285-.159-2.213V9.052c0-.94 0-1.714.052-2.346.054-.656.168-1.258.457-1.825a4.67 4.67 0 0 1 2.04-2.039c.566-.289 1.168-.404 1.824-.457.632-.052 1.407-.052 2.346-.052M6.896 4.71c-.511.042-.773.118-.955.211-.44.224-.796.58-1.02 1.02-.093.182-.169.444-.21.955-.043.525-.044 1.205-.044 2.204v7.233c0 1.16.01 1.512.08 1.77a2.33 2.33 0 0 0 1.65 1.65c.258.07.61.08 1.77.08.644 0 1.166.523 1.166 1.167v2.24l2.404-1.924.079-.063c.492-.394.864-.692 1.289-.909a4.7 4.7 0 0 1 1.185-.415c.466-.096.943-.096 1.574-.096H18.9c1 0 1.679 0 2.204-.043.511-.042.773-.118.955-.211.44-.224.796-.58 1.02-1.02.093-.182.169-.444.21-.955.043-.525.044-1.205.044-2.204V9.1c0-1 0-1.679-.043-2.204-.042-.511-.118-.773-.211-.955a2.33 2.33 0 0 0-1.02-1.02c-.182-.093-.444-.169-.955-.21-.525-.043-1.205-.044-2.204-.044H9.1c-1 0-1.679 0-2.204.043m7.491 4.061a1.456 1.456 0 0 0-1.62.952 1.167 1.167 0 0 1-2.2-.774 3.79 3.79 0 0 1 7.364 1.262c0 1.493-1.105 2.453-1.831 2.937a7.3 7.3 0 0 1-1.539.774l-.033.012-.01.004-.005.001h-.002s-.001.001-.37-1.106l.369 1.107a1.167 1.167 0 0 1-.74-2.213l.01-.003.059-.022a5 5 0 0 0 .967-.495c.585-.39.792-.742.792-.997v-.001a1.456 1.456 0 0 0-1.21-1.438m-1.379 7.562c0-.644.523-1.166 1.167-1.166h.012a1.167 1.167 0 1 1 0 2.333h-.012a1.167 1.167 0 0 1-1.167-1.167" clip-rule="evenodd"/></svg>