<svg xmlns="http://www.w3.org/2000/svg" fill="none" viewBox="0 0 24 24"><path stroke="#175cd3" stroke-linecap="round" stroke-linejoin="round" stroke-width="2" d="M22 10V7.2c0-1.12 0-1.68-.218-2.108a2 2 0 0 0-.874-.874C20.48 4 19.92 4 18.8 4H5.2c-1.12 0-1.68 0-2.108.218a2 2 0 0 0-.874.874C2 5.52 2 6.08 2 7.2v3.6c0 1.12 0 1.68.218 2.108a2 2 0 0 0 .874.874C3.52 14 4.08 14 5.2 14H11m1-5h.005M17 9h.005M7 9h.005m12.245 7v-1.75a1.75 1.75 0 1 0-3.5 0V16m-3.5-7a.25.25 0 1 1-.5 0 .25.25 0 0 1 .5 0m5 0a.25.25 0 1 1-.5 0 .25.25 0 0 1 .5 0m-10 0a.25.25 0 1 1-.5 0 .25.25 0 0 1 .5 0m8.35 11h3.8c.56 0 .84 0 1.054-.109a1 1 0 0 0 .437-.437C21 19.24 21 18.96 21 18.4v-.8c0-.56 0-.84-.109-1.054a1 1 0 0 0-.437-.437C20.24 16 19.96 16 19.4 16h-3.8c-.56 0-.84 0-1.054.109a1 1 0 0 0-.437.437C14 16.76 14 17.04 14 17.6v.8c0 .56 0 .84.109 1.054a1 1 0 0 0 .437.437C14.76 20 15.04 20 15.6 20"/></svg>