<svg xmlns="http://www.w3.org/2000/svg" fill="none" viewBox="0 0 28 28"><path fill="#3c6ce7" fill-rule="evenodd" d="M14 4.667a4.083 4.083 0 1 0 0 8.166 4.083 4.083 0 0 0 0-8.166M7.583 8.75a6.417 6.417 0 1 1 12.834 0 6.417 6.417 0 0 1-12.834 0m3.298 8.167h6.238c1.432 0 2.41-.001 3.241.25a5.83 5.83 0 0 1 3.889 3.89c.252.83.252 1.809.251 3.24v.203a1.167 1.167 0 1 1-2.333 0c0-1.713-.013-2.31-.15-2.766a3.5 3.5 0 0 0-2.334-2.333c-.455-.138-1.053-.151-2.766-.151h-5.834c-1.713 0-2.31.013-2.766.15a3.5 3.5 0 0 0-2.333 2.334c-.138.455-.15 1.053-.15 2.766a1.167 1.167 0 1 1-2.334 0v-.203c0-1.431 0-2.41.251-3.24a5.83 5.83 0 0 1 3.89-3.89c.83-.251 1.808-.25 3.24-.25" clip-rule="evenodd"/></svg>