<svg xmlns="http://www.w3.org/2000/svg" fill="none" viewBox="0 0 28 28"><path fill="#3c6ce7" fill-rule="evenodd" d="M11.972 1.167h4.056c.83-.002 1.56-.003 2.202.26a3.5 3.5 0 0 1 1.429 1.077c.428.546.628 1.247.855 2.046l.048.17.258.902.019.01a3.5 3.5 0 0 1 1.53 1.53c.224.44.308.9.345 1.36.036.437.036.968.036 1.583v7.79c0 .615 0 1.146-.036 1.582-.037.462-.12.92-.345 1.362a3.5 3.5 0 0 1-1.53 1.53l-.02.01-.257.9-.048.17c-.227.8-.427 1.501-.855 2.047a3.5 3.5 0 0 1-1.429 1.078c-.643.262-1.371.26-2.202.26h-4.056c-.83 0-1.56.002-2.202-.26a3.5 3.5 0 0 1-1.429-1.078c-.428-.546-.628-1.247-.855-2.046l-.048-.17-.258-.902-.019-.01a3.5 3.5 0 0 1-1.53-1.529c-.224-.441-.308-.9-.345-1.361-.036-.437-.036-.968-.036-1.583v-7.79c0-.615 0-1.146.036-1.583.037-.46.12-.92.345-1.36a3.5 3.5 0 0 1 1.55-1.54l.257-.901.048-.17c.227-.8.427-1.501.855-2.047A3.5 3.5 0 0 1 9.77 1.427c.643-.263 1.371-.262 2.202-.26M9.713 5.25h8.574c-.28-.974-.36-1.173-.463-1.304a1.2 1.2 0 0 0-.476-.36c-.16-.065-.383-.086-1.497-.086h-3.702c-1.113 0-1.336.021-1.497.087-.187.076-.351.2-.476.359-.103.131-.183.33-.463 1.304m0 17.5c.28.974.36 1.173.463 1.304.125.16.29.283.476.36.16.065.384.086 1.497.086h3.702c1.114 0 1.336-.021 1.497-.087.187-.076.351-.2.476-.359.103-.131.183-.33.463-1.304zm-1-15.139c-.317.026-.435.07-.493.1-.22.111-.398.29-.51.51-.029.057-.073.175-.099.491-.027.331-.028.765-.028 1.438v7.7c0 .673.001 1.107.028 1.438.026.317.07.434.1.492.111.22.29.398.51.51.057.029.175.073.491.099.331.027.765.028 1.438.028h7.7c.673 0 1.107-.001 1.438-.028.317-.026.434-.07.492-.1.22-.111.398-.29.51-.51.029-.057.073-.174.099-.491.027-.331.028-.765.028-1.438v-7.7c0-.673-.001-1.107-.028-1.438-.026-.316-.07-.434-.1-.492a1.17 1.17 0 0 0-.51-.51c-.057-.029-.174-.073-.491-.099-.331-.027-.765-.028-1.438-.028h-7.7c-.673 0-1.107.001-1.438.028M14 9.333c.644 0 1.167.523 1.167 1.167v3.017l1.408 1.408a1.167 1.167 0 1 1-1.65 1.65l-1.75-1.75a1.17 1.17 0 0 1-.342-.825v-3.5c0-.644.523-1.167 1.167-1.167" clip-rule="evenodd"/></svg>