<svg width="48" height="48" viewBox="0 0 48 48" fill="none" xmlns="http://www.w3.org/2000/svg">
<path d="M0 24C0 10.7452 10.7452 0 24 0C37.2548 0 48 10.7452 48 24C48 37.2548 37.2548 48 24 48C10.7452 48 0 37.2548 0 24Z" fill="#464646"/>
<path fill-rule="evenodd" clip-rule="evenodd" d="M24.0001 13.5C20.7784 13.5 18.1667 16.1117 18.1667 19.3333C18.1667 21.2256 19.1947 22.6881 20.6854 24.2407C21.0415 24.6116 21.4113 24.9753 21.7927 25.3504L21.8343 25.3913C22.2257 25.7763 22.6293 26.174 23.0144 26.5798C23.3523 26.9359 23.6872 27.3096 24.0001 27.7045C24.313 27.3096 24.6479 26.9359 24.9858 26.5798C25.3709 26.174 25.7744 25.7763 26.1659 25.3913L26.2075 25.3503C26.5889 24.9753 26.9587 24.6116 27.3148 24.2407C28.8054 22.6881 29.8334 21.2256 29.8334 19.3333C29.8334 16.1117 27.2217 13.5 24.0001 13.5ZM15.8334 19.3333C15.8334 14.823 19.4898 11.1667 24.0001 11.1667C28.5104 11.1667 32.1667 14.823 32.1667 19.3333C32.1667 22.1821 30.5697 24.2196 28.9979 25.8567C28.6181 26.2523 28.2267 26.6372 27.8517 27.006L27.8021 27.0548C27.4074 27.443 27.0316 27.8136 26.6784 28.1859C25.9671 28.9356 25.4041 29.6341 25.0436 30.3551C24.846 30.7503 24.442 31 24.0001 31C23.5582 31 23.1542 30.7503 22.9566 30.3551C22.5961 29.6341 22.0331 28.9356 21.3217 28.1859C20.9685 27.8136 20.5928 27.443 20.1981 27.0548L20.1484 27.0059C19.7734 26.6371 19.3821 26.2523 19.0023 25.8567C17.4304 24.2196 15.8334 22.1821 15.8334 19.3333ZM21.6667 19.3333C21.6667 18.0447 22.7114 17 24.0001 17C25.2887 17 26.3334 18.0447 26.3334 19.3333C26.3334 20.622 25.2887 21.6667 24.0001 21.6667C22.7114 21.6667 21.6667 20.622 21.6667 19.3333ZM16.9008 26.1965C17.1609 26.7861 16.8938 27.4748 16.3043 27.7348C15.3144 28.1715 14.5845 28.6642 14.1179 29.1536C13.657 29.6371 13.5001 30.0621 13.5001 30.4167C13.5001 31.1214 14.191 32.1479 16.2293 33.0651C18.158 33.933 20.9043 34.5 24.0001 34.5C27.0958 34.5 29.8422 33.933 31.7709 33.0651C33.8091 32.1479 34.5001 31.1214 34.5001 30.4167C34.5001 30.0621 34.3432 29.6371 33.8823 29.1536C33.4157 28.6642 32.6857 28.1715 31.6959 27.7348C31.1063 27.4748 30.8393 26.7861 31.0993 26.1965C31.3594 25.607 32.0481 25.3399 32.6376 25.6C33.8077 26.1162 34.8277 26.7638 35.5711 27.5436C36.3203 28.3294 36.8334 29.3026 36.8334 30.4167C36.8334 32.6115 34.9127 34.21 32.7284 35.1929C30.4346 36.2251 27.3476 36.8333 24.0001 36.8333C20.6525 36.8333 17.5655 36.2251 15.2717 35.1929C13.0875 34.21 11.1667 32.6115 11.1667 30.4167C11.1667 29.3026 11.6799 28.3294 12.429 27.5436C13.1724 26.7638 14.1925 26.1162 15.3625 25.6C15.952 25.3399 16.6408 25.607 16.9008 26.1965Z" fill="white"/>
</svg>
