<svg xmlns="http://www.w3.org/2000/svg" fill="none" viewBox="0 0 32 37"><path fill="#e26584" d="M15.973 13.365c.375-.276.732-.584 1.132-.834 2.333-1.404 4.841-.167 5.602 2.103.54 1.62.194 3.128-.684 4.558a8.6 8.6 0 0 1-1.897 2.1c-.92.75-1.843 1.497-2.806 2.189-1.072.767-1.474.81-2.565.031-1.428-1.024-2.862-2.054-4.047-3.373a6.07 6.07 0 0 1-1.593-3.25c-.19-1.34.067-2.59 1-3.633 1.298-1.46 3.216-1.687 4.87-.625.352.22.673.496.988.734"/><path fill="#53c8b1" d="M5.59 15.93c-.288-2 .1-3.84 1.499-5.37 1.95-2.135 4.829-2.483 7.297-.92q.313.208.626.439V7.337C15.012 3.286 11.655 0 7.506 0 3.356 0 0 3.286 0 7.337v9.653h5.798a8 8 0 0 1-.208-1.06"/><path fill="#034b7b" d="M.023 28.672c0 4.066 3.357 7.362 7.506 7.362s7.506-3.296 7.506-7.362v-1.555a7 7 0 0 1-.968-.592c-2.145-1.51-4.297-3.032-6.077-4.977a9.9 9.9 0 0 1-1.723-2.56H.023z"/><path fill="#53c8b1" d="M25.122 20.151a12.7 12.7 0 0 1-2.852 3.098c-1.377 1.108-2.761 2.21-4.204 3.23q-.495.366-1.042.648v1.545c0 4.066 3.35 7.362 7.485 7.362s7.487-3.296 7.487-7.362v-9.684H25.76q-.285.6-.638 1.163"/><path fill="#034b7b" d="M32 7.337C32 3.286 28.647 0 24.513 0s-7.485 3.286-7.485 7.337v2.67a9 9 0 0 1 .723-.487c3.497-2.064 7.256-.246 8.394 3.094a6.96 6.96 0 0 1 .067 4.378H32z"/></svg>