<svg xmlns="http://www.w3.org/2000/svg" fill="none" viewBox="0 0 29 28"><path fill="currentColor" fill-rule="evenodd" d="M5.933 1.167c.645 0 1.167.522 1.167 1.166v2.334h2.333a1.167 1.167 0 0 1 0 2.333H7.1v2.333a1.167 1.167 0 1 1-2.333 0V7H2.433a1.167 1.167 0 1 1 0-2.333h2.334V2.333c0-.644.522-1.166 1.166-1.166m15.27 3.543C20.68 4.668 20 4.667 19 4.667h-4.9a1.167 1.167 0 0 1 0-2.334h4.948c.94 0 1.714 0 2.346.052.656.053 1.258.168 1.825.457a4.67 4.67 0 0 1 2.039 2.04c.289.566.404 1.168.457 1.824.052.632.052 1.407.052 2.346v9.896c0 .94 0 1.714-.052 2.346-.053.656-.168 1.258-.457 1.825a4.67 4.67 0 0 1-2.04 2.039c-.566.288-1.168.403-1.824.457-.632.052-1.407.052-2.346.052H9.152c-.94 0-1.714 0-2.346-.052-.656-.053-1.258-.168-1.825-.457a4.67 4.67 0 0 1-2.039-2.04c-.289-.566-.404-1.168-.457-1.824-.052-.632-.052-1.407-.052-2.346V14a1.167 1.167 0 0 1 2.334 0v4.9c0 1 0 1.679.043 2.204.042.511.118.773.211.955.224.44.58.796 1.02 1.02.182.093.444.169.955.21.525.043 1.205.044 2.204.044H19c1 0 1.679 0 2.204-.043.511-.042.773-.118.955-.211.44-.224.796-.58 1.02-1.02.093-.182.169-.444.21-.955.043-.525.044-1.205.044-2.204V9.1c0-1 0-1.679-.043-2.204-.042-.511-.118-.773-.211-.955a2.33 2.33 0 0 0-1.02-1.02c-.182-.093-.444-.169-.955-.21M14.1 7c.644 0 1.167.522 1.167 1.167v11.666a1.167 1.167 0 0 1-2.334 0V8.167c0-.645.523-1.167 1.167-1.167m4.667 4.667c.644 0 1.166.522 1.166 1.166v7a1.167 1.167 0 1 1-2.333 0v-7c0-.644.522-1.166 1.167-1.166M9.433 14c.645 0 1.167.522 1.167 1.167v4.666a1.167 1.167 0 1 1-2.333 0v-4.666c0-.645.522-1.167 1.166-1.167" clip-rule="evenodd"/></svg>