<svg xmlns="http://www.w3.org/2000/svg" fill="none" viewBox="0 0 29 28"><path fill="currentColor" fill-rule="evenodd" d="M13.69 1.56c.4-.109.82-.109 1.22 0 .463.125.854.431 1.165.676l.087.068 7.913 6.154.09.07c.44.341.827.642 1.116 1.032.253.342.441.728.556 1.138.13.467.13.957.13 1.513v8.601c0 .615 0 1.145-.036 1.582-.038.461-.12.92-.346 1.362a3.5 3.5 0 0 1-1.53 1.53c-.44.224-.9.307-1.36.345-.438.036-.968.036-1.583.036H7.488c-.615 0-1.145 0-1.582-.036-.461-.038-.92-.12-1.362-.346a3.5 3.5 0 0 1-1.53-1.53c-.224-.44-.307-.9-.345-1.36-.036-.438-.036-.968-.036-1.583V12.21c0-.556 0-1.046.13-1.513a3.5 3.5 0 0 1 .556-1.138c.289-.39.676-.69 1.115-1.032l.091-.07 7.913-6.154.087-.068c.311-.245.702-.551 1.165-.677m.601 2.268a9 9 0 0 0-.42.318L5.957 10.3c-.582.452-.69.549-.763.647a1.2 1.2 0 0 0-.185.38c-.033.118-.043.263-.043.999v8.44c0 .673 0 1.108.028 1.438.025.317.07.435.099.492.112.22.29.398.51.51.057.03.175.073.492.1.33.026.765.027 1.437.027h13.534c.672 0 1.107 0 1.437-.028.317-.026.435-.07.492-.099.22-.112.398-.29.51-.51.03-.057.073-.175.1-.492.026-.33.027-.765.027-1.437v-8.441c0-.736-.01-.881-.043-1a1.2 1.2 0 0 0-.185-.379c-.073-.098-.181-.195-.763-.647L14.73 4.146a9 9 0 0 0-.421-.318l-.009-.005zM8.468 19.833c0-.644.522-1.166 1.166-1.166h9.334a1.167 1.167 0 1 1 0 2.333H9.633a1.167 1.167 0 0 1-1.166-1.167" clip-rule="evenodd"/></svg>