<svg xmlns="http://www.w3.org/2000/svg" fill="none" viewBox="0 0 29 28"><path fill="currentColor" fill-rule="evenodd" d="M14.9 3.5C9.101 3.5 4.4 8.201 4.4 14s4.701 10.5 10.5 10.5S25.4 19.799 25.4 14 20.699 3.5 14.9 3.5M2.067 14c0-7.088 5.745-12.833 12.833-12.833S27.733 6.912 27.733 14 21.988 26.833 14.9 26.833 2.067 21.088 2.067 14m11.6-7.583h2.466c.139 0 .305 0 .45.011.17.014.413.05.667.18.33.167.597.435.765.764.13.254.165.497.179.667.012.146.012.312.012.45v2.206h2.204c.14 0 .305 0 .451.011.17.014.413.05.667.18.33.167.597.435.765.764.13.254.165.497.178.666.012.146.012.313.012.451v2.466c0 .138 0 .304-.012.45-.013.17-.049.413-.178.667a1.75 1.75 0 0 1-.765.765c-.254.13-.497.165-.666.179-.147.012-.313.012-.452.012h-2.204v2.204c0 .14 0 .305-.012.451-.014.17-.05.413-.18.667a1.75 1.75 0 0 1-.764.765 1.7 1.7 0 0 1-.666.178 6 6 0 0 1-.451.012h-2.466c-.139 0-.304 0-.45-.011a1.8 1.8 0 0 1-.667-.18 1.75 1.75 0 0 1-.765-.764 1.8 1.8 0 0 1-.179-.666c-.012-.147-.012-.313-.012-.452v-2.204H9.39c-.14 0-.305 0-.451-.012a1.8 1.8 0 0 1-.667-.18 1.75 1.75 0 0 1-.765-.764 1.8 1.8 0 0 1-.178-.666 6 6 0 0 1-.012-.451v-2.465c0-.14 0-.306.011-.452.014-.17.05-.412.18-.666a1.75 1.75 0 0 1 .764-.765c.254-.13.497-.165.667-.179.146-.012.312-.012.45-.012h2.206V8.49c0-.14 0-.305.011-.451.014-.17.05-.413.18-.667a1.75 1.75 0 0 1 .764-.765c.254-.13.497-.165.666-.179.147-.011.313-.011.452-.011m.26 2.333v2.205c0 .139 0 .305-.011.45a1.8 1.8 0 0 1-.179.667c-.168.33-.435.597-.765.765a1.8 1.8 0 0 1-.666.179c-.146.012-.312.012-.451.012H9.65v1.944h2.205c.139 0 .305 0 .45.012.17.014.413.05.667.179.33.168.597.435.765.765.13.254.165.497.179.666.012.146.012.312.012.451v2.205h1.944v-2.205c0-.139 0-.305.012-.45.014-.17.05-.413.179-.667a1.75 1.75 0 0 1 .765-.765c.254-.13.497-.165.666-.179.146-.012.312-.012.451-.012h2.205v-1.944h-2.205c-.139 0-.305 0-.45-.012a1.8 1.8 0 0 1-.667-.179 1.75 1.75 0 0 1-.765-.765 1.8 1.8 0 0 1-.179-.666c-.012-.146-.012-.312-.012-.451V8.75z" clip-rule="evenodd"/></svg>