<svg xmlns="http://www.w3.org/2000/svg" fill="none" viewBox="0 0 20 20"><path fill="#464646" fill-rule="evenodd" d="M5.759 0h8.482c.805 0 1.47 0 2.01.044.563.046 1.08.145 1.565.392a4 4 0 0 1 1.748 1.748c.247.485.346 1.002.392 1.564C20 4.29 20 4.954 20 5.758v8.483c0 .805 0 1.47-.044 2.01-.046.563-.145 1.08-.392 1.565a4 4 0 0 1-1.748 1.748c-.485.247-1.002.346-1.564.392-.541.044-1.206.044-2.01.044H4.893c-.27 0-.536 0-.75-.019l-.025-.002q-.195-.01-.37-.023c-.563-.046-1.08-.145-1.565-.392a4 4 0 0 1-1.748-1.748c-.247-.485-.346-1.002-.392-1.564C0 15.71 0 15.046 0 14.242V5.758c0-.805 0-1.47.044-2.01.046-.563.145-1.08.392-1.565A4 4 0 0 1 2.184.436C2.669.189 3.186.09 3.748.044 4.29 0 4.954 0 5.758 0M5.8 18h-.386l8.162-8.162A8 8 0 0 1 14 9.43l.01.009c.09.076.205.19.414.4L18 13.413v.786c0 .857 0 1.439-.038 1.889-.035.438-.1.663-.18.819a2 2 0 0 1-.874.874c-.156.08-.38.145-.819.18-.45.037-1.032.038-1.889.038zM18 10.586l-2.184-2.184a9 9 0 0 0-.511-.488 2 2 0 0 0-.687-.402 2 2 0 0 0-1.236 0c-.29.094-.512.254-.687.402-.159.135-.332.31-.51.488l-8.553 8.551c-.19.192-.379.38-.517.544-.042.051-.1.122-.158.21a2 2 0 0 1-.739-.799c-.08-.156-.145-.38-.18-.819C2 15.639 2 15.057 2 14.2V5.8c0-.857 0-1.439.038-1.889.035-.438.1-.663.18-.819a2 2 0 0 1 .874-.874c.156-.08.38-.145.819-.18C4.361 2 4.943 2 5.8 2h8.4c.857 0 1.439 0 1.889.038.438.035.663.1.819.18a2 2 0 0 1 .874.874c.08.156.145.38.18.819C18 4.361 18 4.943 18 5.8zM6.5 5.5a1 1 0 1 0 0 2 1 1 0 0 0 0-2m-3 1a3 3 0 1 1 6 0 3 3 0 0 1-6 0" clip-rule="evenodd"/></svg>