<svg xmlns="http://www.w3.org/2000/svg" fill="none" viewBox="0 0 23 21"><path fill="#376eb6" d="M9.395 16.573a.7.7 0 0 1-.384-.113C.75 11.187.793 6.823.84 6.227a5.57 5.57 0 0 1 1.466-3.764C3.297 1.394 4.637.827 6.04.88c1.232.042 2.423.548 3.356 1.415.933-.867 2.123-1.373 3.356-1.415 1.411-.056 2.742.515 3.731 1.584a5.57 5.57 0 0 1 1.468 3.764c.047.596.089 4.955-8.17 10.233a.7.7 0 0 1-.385.113"/><path fill="#48b8b9" d="M16.328 20.299a.9.9 0 0 1-.47-.136c-4.879-3.117-4.926-5.78-4.888-6.281a3.62 3.62 0 0 1 .96-2.428c.634-.68 1.477-1.055 2.373-1.055h.117c.68.024 1.345.258 1.903.675a3.43 3.43 0 0 1 1.903-.675h.127c.895 0 1.734.375 2.362 1.06.614.665.956 1.537.961 2.465.038.469-.005 3.127-4.889 6.249a.9.9 0 0 1-.46.126"/><path fill="#fff" d="M18.357 10.854c.769 0 1.486.323 2.025.91.54.58.835 1.344.84 2.15.027.338.05 2.837-4.674 5.855a.4.4 0 0 1-.22.066.4.4 0 0 1-.22-.066c-4.73-3.018-4.702-5.517-4.674-5.854a3.18 3.18 0 0 1 .839-2.152 2.77 2.77 0 0 1 2.034-.91h.099a2.97 2.97 0 0 1 1.922.812 2.98 2.98 0 0 1 1.922-.811zm0-.924q-.072-.001-.145.005a3.9 3.9 0 0 0-1.884.576 3.8 3.8 0 0 0-1.89-.576h-.13c-1.032 0-1.993.426-2.715 1.205a4.1 4.1 0 0 0-1.083 2.742c-.051.816.202 3.539 5.1 6.67.216.136.465.211.718.211s.501-.07.717-.21c4.898-3.132 5.156-5.856 5.1-6.671a4.1 4.1 0 0 0-1.083-2.742c-.722-.779-1.678-1.21-2.705-1.21"/><path fill="#fff" d="M19.501 14.72h-1.336l-.825-1.134a.31.31 0 0 0-.262-.14.32.32 0 0 0-.267.136l-1.327 1.86-.38-.571a.32.32 0 0 0-.267-.14H12.92a.324.324 0 0 0 0 .646h1.017c.005 0 .01-.005.019-.005h.712l.544.816c.056.09.155.14.263.14h.004a.31.31 0 0 0 .258-.135l1.327-1.861.675.895c.065.099.173.14.28.136.01 0 .02.005.029.005h1.453a.324.324 0 0 0 0-.647"/></svg>