<svg xmlns="http://www.w3.org/2000/svg" fill="none" viewBox="0 0 20 18"><path fill="#376eb6" d="M19.343 5.892a6.12 6.12 0 0 0-1.618-4.144C16.633.572 15.171-.06 13.62.005c-1.36.047-2.667.604-3.694 1.56C8.9.61 7.591.053 6.232.006 4.69-.052 3.213.572 2.125 1.748A6.13 6.13 0 0 0 .508 5.892c-.018.216-.033.886.282 1.899h3.248c.187 0 .36.093.46.248l.665.994 2.306-3.23a.57.57 0 0 1 .46-.234.56.56 0 0 1 .454.248l1.435 1.974h2.015a1.39 1.39 0 0 1 1.313-.938 1.397 1.397 0 0 1 0 2.794c-.535 0-.994-.305-1.228-.745H9.616c-.019 0-.033-.01-.051-.01a.55.55 0 0 1-.488-.239L7.905 7.097 5.6 10.327a.56.56 0 0 1-.45.234h-.01a.56.56 0 0 1-.454-.248l-.947-1.416H2.5c-.009 0-.018.005-.032.005H1.21c.966 2.071 3.193 5.001 8.279 8.25a.77.77 0 0 0 .421.121.8.8 0 0 0 .422-.122c9.108-5.798 9.061-10.603 9.01-11.259"/></svg>