<svg xmlns="http://www.w3.org/2000/svg" fill="none" viewBox="0 0 17 23"><path fill="#376eb6" d="M9.835 22.303a7.6 7.6 0 0 0 1.781-.342c1.294-.431 2.391-1.303 3.216-2.34 1.49-1.87 2.119-4.462 1.144-6.613-.938-2.058-3.09-3.352-4.575-5.095-.952-1.111-1.64-2.443-1.828-3.863S9.732 1.134 10.65 0C9.21.052 7.773.638 6.854 1.683c-1.242 1.415-1.392 3.403-1.411 5.24-.019 1.843.01 3.793-.994 5.368-.234.37-.605.745-1.06.707-.327-.028-.595-.276-.721-.562-.127-.286-.14-.605-.136-.91.014-1.312.253-2.624.708-3.867-.014.038-.103.09-.136.118q-.078.068-.155.145a8 8 0 0 0-.825.89 10 10 0 0 0-.905 1.327 9.5 9.5 0 0 0-1.082 2.972 8.4 8.4 0 0 0 .018 3.108 8 8 0 0 0 1.224 2.948 8 8 0 0 0 1.298 1.5c.652.59 1.416 1.088 2.274 1.345.778.235 1.603.268 2.418.296.811.033 1.646.06 2.466-.005"/><path fill="#48b8b9" d="M6.484 22.14a4.37 4.37 0 0 1-2.677-2.326 5.4 5.4 0 0 1-.094-4.523 6.3 6.3 0 0 1 1.585-2.19s-1.158 3.474.234 3.362c1.134-.09 1.237-3.685 1.233-5.02a3.1 3.1 0 0 1 .783-2.073c.478-.53 1.232-1.007 2.418-1.096 0 0-2.442 2.821 1.749 6.225 4.223 3.435.393 8.128-2.335 7.692 0 0 3.652-2.517 1.252-6.108 0 0 .989 4.608-2.475 5.986-.53.21-1.125.239-1.673.07"/><path fill="#376eb6" d="M12.887 7.144a.502.502 0 1 1-1.005-.001.502.502 0 0 1 1.005 0"/><path fill="#48b8b9" d="M13.594 8.274c0 .14-.112.253-.253.253a.25.25 0 0 1-.253-.253c0-.141.113-.254.253-.254a.26.26 0 0 1 .253.254m-9.182-.708c0 .108-.09.197-.197.197a.2.2 0 0 1-.197-.197c0-.108.089-.197.197-.197a.19.19 0 0 1 .197.197"/><path fill="#376eb6" d="M4.215 9.44a.445.445 0 1 0 0-.89.445.445 0 0 0 0 .89"/><path fill="#fff" d="M7.234 7.364a.23.23 0 0 1-.235.235.23.23 0 0 1-.234-.235c0-.131.103-.234.234-.234.132 0 .235.108.235.234M2.42 16.903a.403.403 0 1 1-.404-.403.397.397 0 0 1 .404.403m11.437-3.876c0 .21-.174.384-.384.384a.386.386 0 0 1-.385-.384.384.384 0 1 1 .769 0m.548 1.645a.19.19 0 0 1-.192.192.19.19 0 0 1-.192-.192.19.19 0 0 1 .192-.192c.108 0 .192.089.192.192"/></svg>