<svg xmlns="http://www.w3.org/2000/svg" fill="none" viewBox="0 0 20 16"><path fill="#48b8b9" d="M18.423 7.781H1.951V2.93A2.93 2.93 0 0 1 4.881 0h10.612a2.93 2.93 0 0 1 2.93 2.93z"/><path fill="#fff" d="M8.63 6.82H4.338c-.708 0-1.28-.572-1.28-1.28V3.718c0-.708.572-1.28 1.28-1.28h4.294c.708 0 1.28.572 1.28 1.28v1.824c0 .703-.572 1.28-1.28 1.28m7.405-.002h-4.294a1.28 1.28 0 0 1-1.28-1.28V3.718c0-.708.573-1.28 1.28-1.28h4.294c.708 0 1.28.572 1.28 1.28v1.824a1.287 1.287 0 0 1-1.28 1.28"/><path fill="#376eb6" d="M19.707 12.253H.667V8.016a2.53 2.53 0 0 1 2.526-2.527h13.988a2.53 2.53 0 0 1 2.526 2.527zm-.004.38H.667v1.247h19.036z"/><path fill="#376eb6" d="M1.14 13.603h1.524v1.214a.31.31 0 0 1-.31.31H1.45a.31.31 0 0 1-.31-.31zm16.519 0h1.523v1.214a.31.31 0 0 1-.309.31h-.905a.31.31 0 0 1-.31-.31z"/><path fill="#fff" fill-rule="evenodd" d="M2.182 8.175c0-.178.144-.322.322-.322h1.594a.322.322 0 0 1 0 .644H2.504a.32.32 0 0 1-.322-.322m2.742 0c0-.178.145-.322.322-.322H17.87a.322.322 0 1 1 0 .644H5.247a.32.32 0 0 1-.323-.322" clip-rule="evenodd"/></svg>