<svg xmlns="http://www.w3.org/2000/svg" fill="none" viewBox="0 0 23 15"><path fill="#376eb6" d="M19.584 12.32a3.71 3.71 0 0 0-2.808-4.42l-1.11-.287a.64.64 0 0 1-.39-.258l-.38-.651a.23.23 0 0 0-.018-.164.25.25 0 0 0-.145-.122l-.685-1.172c-.004-.005-.004-.014-.009-.019-.01-.014-.019-.033-.028-.042l-1.744-2.99a.24.24 0 0 0-.108-.099.665.665 0 0 0-.867.323l-.295.629c-.042.089-.15.126-.24.089L7.782 1.824a.186.186 0 0 1-.094-.239l.268-.628a.66.66 0 0 0-.343-.863 1.134 1.134 0 0 0-1.448.497l-2.61 4.885-1.013.445a.45.45 0 0 0-.268.375.46.46 0 0 0 .197.417L5.27 8.635c.01.005.014.01.023.014l4.29 2.949a13.4 13.4 0 0 0 4.71 2.048l3.877.858a.91.91 0 0 0 1.082-.69l.043-.196a.9.9 0 0 0-.14-.717.9.9 0 0 0 .43-.582"/><path fill="#48b8b9" d="M22.655 4.247h-.015l-.009-.004h-.005m-8.113 2.742.356.61c.16.243.408.412.684.473l1.111.286c.417.093.802.267 1.134.497l-.145.656a.465.465 0 0 1-.553.351.94.94 0 0 0-1.12.713l-.29 1.312-.812-.178a13 13 0 0 1-4.354-1.847L8.31 8.396l.155-.211c.403-.563.548-1.275.403-1.95a2.45 2.45 0 0 0-1.177-1.608l-2.4-1.387 1.3-2.428a.65.65 0 0 1 .83-.286c.088.042.13.145.093.239l-.267.628a.66.66 0 0 0 .342.862l2.977 1.313c.328.145.712 0 .867-.324l.295-.628a.18.18 0 0 1 .178-.103l.806 1.383z"/><path fill="#376eb6" d="m4.04 5.579 1.027-1.917L7.453 5.04a1.986 1.986 0 0 1 .628 2.869l-.169.23z"/><path fill="#fff" d="M18.783 13.712a.43.43 0 0 1-.511.323l-.595-.131.08-.281a.239.239 0 1 0-.46-.132l-.085.305-.595-.131.08-.282a.239.239 0 1 0-.46-.13l-.084.304-.595-.131.08-.282a.239.239 0 1 0-.46-.13l-.084.304-.596-.131.08-.282a.239.239 0 1 0-.46-.131l-.079.295a13 13 0 0 1-.59-.164l.065-.239a.239.239 0 1 0-.46-.131l-.06.22a13 13 0 0 1-3.118-1.57l-.942-.647.174-.216a.243.243 0 0 0-.033-.337.243.243 0 0 0-.338.033l-.196.243-.675-.464.168-.192a.24.24 0 0 0-.023-.337.24.24 0 0 0-.338.023l-.206.235-.651-.446.187-.201a.24.24 0 0 0-.014-.338.24.24 0 0 0-.338.014l-.234.253-.628-.43.16-.179a.24.24 0 0 0-.015-.337.24.24 0 0 0-.337.014l-.23.248-.595-.408.192-.206a.24.24 0 0 0-.014-.338.24.24 0 0 0-.338.015l-.239.257-.623-.426.206-.225a.24.24 0 0 0-.014-.338.24.24 0 0 0-.337.014l-.254.272-.576-.398.928-.413 4.055 2.686a.3.3 0 0 0 .051.052.3.3 0 0 0 .09.042l2.348 1.551a13.5 13.5 0 0 0 4.514 1.918l3.731.83c.23.051.375.28.323.51z"/><path fill="#376eb6" d="m18.605 12.54-2.457-.544.291-1.313a.465.465 0 0 1 .553-.351.94.94 0 0 0 1.12-.713l.094-.417a3.23 3.23 0 0 1 .91 3.014.43.43 0 0 1-.511.324m-14.916.745a.24.24 0 0 0 .239.239H9.82a.24.24 0 0 0 .24-.239.24.24 0 0 0-.24-.24H3.928a.24.24 0 0 0-.239.24m-3.449.239h2.3a.24.24 0 0 0 .24-.239.24.24 0 0 0-.24-.24H.24a.24.24 0 0 0-.24.24c0 .131.103.239.24.239m.318-3.474h2.301a.24.24 0 0 0 .24-.238.24.24 0 0 0-.24-.24H.558a.24.24 0 0 0-.24.24.24.24 0 0 0 .24.239m6.032 1.265H1.749a.24.24 0 0 0-.239.24c0 .13.108.238.24.238h4.84a.24.24 0 0 0 .239-.239.24.24 0 0 0-.24-.239m6.236-3.75a.264.264 0 0 1 .113-.36l1.588-.83a.265.265 0 0 1 .361.112.265.265 0 0 1-.112.361l-1.59.83a.266.266 0 0 1-.36-.113m-.717-1.378a.264.264 0 0 1 .112-.36l1.59-.83a.264.264 0 0 1 .36.112.265.265 0 0 1-.112.36l-1.59.83a.264.264 0 0 1-.36-.112m-.703-1.242a.264.264 0 0 1 .112-.361l1.59-.83a.265.265 0 0 1 .36.113.265.265 0 0 1-.112.36l-1.59.83a.266.266 0 0 1-.36-.112"/></svg>