<svg xmlns="http://www.w3.org/2000/svg" xmlns:xlink="http://www.w3.org/1999/xlink" fill="none" viewBox="0 0 343 243"><path fill="#d6e3f4" d="M112.662 67.59c-.422 0-.83.056-1.227.153-.127-5.276-4.441-9.519-9.753-9.519a9.75 9.75 0 0 0-9.095 6.234 6 6 0 0 0-.306-.01 6.644 6.644 0 0 0-6.646 6.646 6.644 6.644 0 0 0 6.646 6.646h20.381a5.073 5.073 0 0 0 5.073-5.073 5.08 5.08 0 0 0-5.073-5.077m148.05 7.206q-.329 0-.626.076a5.002 5.002 0 0 0-9.666-1.685c-.051 0-.107-.005-.158-.005a3.407 3.407 0 0 0 0 6.814h10.45a2.6 2.6 0 1 0 0-5.2m-14.127-23.269a6 6 0 0 0-1.507.189c-.158-6.498-5.47-11.724-12.009-11.724-5.103 0-9.462 3.183-11.204 7.675-.127-.005-.249-.01-.377-.01a8.184 8.184 0 0 0 0 16.368h25.097a6.247 6.247 0 0 0 6.249-6.249 6.253 6.253 0 0 0-6.249-6.249"/><path fill="#e4ecf8" d="M145.49 180.495c10.348 0 19.979-3.061 28.04-8.326a16.72 16.72 0 0 1 18.197-.046 33.9 33.9 0 0 0 18.175 5.408c18.889.128 34.33-15.252 34.269-34.146a33.9 33.9 0 0 0-6.692-20.152 18.33 18.33 0 0 1-3.605-12.014c.01-.132.015-.27.02-.402 1.294-25.993-20.259-47.51-46.252-46.17a43.8 43.8 0 0 0-22.122 7.338c-5.796 3.87-12.625 5.862-19.597 5.805h-.433c-28.361 0-51.355 22.994-51.355 51.355 0 28.362 22.994 51.35 51.355 51.35"/><path fill="#4076bb" d="M217.297 189.779V79.186a4.265 4.265 0 0 0-4.263-4.263H126.82a4.265 4.265 0 0 0-4.263 4.263v110.598a4.265 4.265 0 0 0 4.263 4.263h86.214a4.266 4.266 0 0 0 4.263-4.268"/><path fill="#fff" d="M211.838 182.186V82.354c0-2.155-1.992-3.896-4.446-3.896h-74.934c-2.455 0-4.446 1.746-4.446 3.896v99.827c0 2.154 1.991 3.896 4.446 3.896h74.939c2.455.005 4.441-1.742 4.441-3.891"/><path fill="#d6e3f4" fill-rule="evenodd" d="M197.782 105.018c-.746 0-1.353.603-1.353 1.353v3.631c0 .745.603 1.353 1.353 1.353h4.573c.745 0 1.353-.604 1.353-1.353v-3.631c0-.745-.604-1.353-1.353-1.353zm-1.754 1.353c0-.972.788-1.754 1.754-1.754h4.573c.972 0 1.754.788 1.754 1.754v3.631c0 .972-.788 1.754-1.754 1.754h-4.573a1.754 1.754 0 0 1-1.754-1.754zm1.754 9.561c-.746 0-1.353.603-1.353 1.352v3.632c0 .745.603 1.352 1.353 1.352h4.573c.745 0 1.353-.603 1.353-1.352v-3.632c0-.745-.604-1.352-1.353-1.352zm-1.754 1.352c0-.971.788-1.753 1.754-1.753h4.573c.972 0 1.754.788 1.754 1.753v3.632c0 .971-.788 1.753-1.754 1.753h-4.573a1.753 1.753 0 0 1-1.754-1.753zm1.754 9.561c-.746 0-1.353.604-1.353 1.353v3.631c0 .75.603 1.353 1.353 1.353h4.573c.745 0 1.353-.603 1.353-1.353v-3.631c0-.745-.604-1.353-1.353-1.353zm-1.754 1.353c0-.972.788-1.754 1.754-1.754h4.573c.972 0 1.754.788 1.754 1.754v3.631c0 .972-.788 1.754-1.754 1.754h-4.573a1.75 1.75 0 0 1-1.754-1.754zm1.754 9.566c-.746 0-1.353.603-1.353 1.353v3.626c0 .751.603 1.358 1.353 1.358h4.573c.745 0 1.353-.603 1.353-1.353v-3.631c0-.745-.604-1.353-1.353-1.353zm-1.754 1.353c0-.972.788-1.754 1.754-1.754h4.573c.972 0 1.754.788 1.754 1.754v3.631c0 .972-.788 1.754-1.754 1.754h-4.573a1.755 1.755 0 0 1-1.754-1.759zm1.754 9.561c-.746 0-1.353.603-1.353 1.353v3.631c0 .745.603 1.353 1.353 1.353h4.573c.745 0 1.353-.604 1.353-1.353v-3.631c0-.746-.604-1.353-1.353-1.353zm-1.754 1.353c0-.972.788-1.754 1.754-1.754h4.573c.972 0 1.754.788 1.754 1.754v3.631c0 .971-.788 1.753-1.754 1.753h-4.573a1.753 1.753 0 0 1-1.754-1.753zm1.754 9.56c-.746 0-1.353.604-1.353 1.353v3.631c0 .746.603 1.353 1.353 1.353h4.573c.745 0 1.353-.603 1.353-1.353v-3.631c0-.745-.604-1.353-1.353-1.353zm-1.754 1.353c0-.972.788-1.753 1.754-1.753h4.573c.972 0 1.754.787 1.754 1.753v3.631c0 .972-.788 1.754-1.754 1.754h-4.573a1.754 1.754 0 0 1-1.754-1.754zm1.754 9.561c-.746 0-1.353.603-1.353 1.353v3.631c0 .75.603 1.353 1.353 1.353h4.573c.745 0 1.353-.603 1.353-1.353v-3.631c0-.745-.604-1.353-1.353-1.353zm-1.754 1.353c0-.972.788-1.754 1.754-1.754h4.573c.972 0 1.754.788 1.754 1.754v3.631c0 .972-.788 1.754-1.754 1.754h-4.573a1.75 1.75 0 0 1-1.754-1.754z" clip-rule="evenodd"/><path fill="#d6e3f4" d="M135.941 108.184c0-.784.637-1.421 1.421-1.421h52.353a1.422 1.422 0 0 1 0 2.842h-52.353a1.42 1.42 0 0 1-1.421-1.421m0 10.913c0-.784.637-1.42 1.421-1.42h52.353a1.421 1.421 0 0 1 0 2.841h-52.353a1.42 1.42 0 0 1-1.421-1.421m0 10.919c0-.784.637-1.421 1.421-1.421h52.353a1.422 1.422 0 0 1 0 2.842h-52.353a1.42 1.42 0 0 1-1.421-1.421m0 10.914c0-.784.637-1.421 1.421-1.421h52.353a1.422 1.422 0 0 1 0 2.842h-52.353a1.42 1.42 0 0 1-1.421-1.421m0 10.914c0-.785.637-1.421 1.421-1.421h52.353a1.421 1.421 0 0 1 0 2.841h-52.353a1.42 1.42 0 0 1-1.421-1.42m0 10.913c0-.784.637-1.421 1.421-1.421h52.353a1.422 1.422 0 0 1 0 2.842h-52.353a1.42 1.42 0 0 1-1.421-1.421m0 10.919c0-.784.637-1.421 1.421-1.421h52.353a1.422 1.422 0 0 1 0 2.842h-52.353a1.42 1.42 0 0 1-1.421-1.421"/><path fill="url(#a)" d="M148.316 85.374a2.687 2.687 0 0 1-2.683-2.684v-9.24a2.687 2.687 0 0 1 2.683-2.683h9.244c.015-3.662 2.999-6.641 6.661-6.641h11.403a6.666 6.666 0 0 1 6.661 6.64h9.243a2.69 2.69 0 0 1 2.684 2.685v9.238a2.69 2.69 0 0 1-2.684 2.684zm19.831-17.703a1.42 1.42 0 0 0 0 2.842h3.56a1.421 1.421 0 0 0 0-2.842z"/><path fill="#fff" d="M175.629 64.733a6.06 6.06 0 0 1 6.06 6.06v.58h9.844c1.151 0 2.078.933 2.078 2.078v9.239a2.077 2.077 0 0 1-2.078 2.078h-43.217a2.077 2.077 0 0 1-2.078-2.078v-9.24c0-1.15.932-2.077 2.078-2.077h9.845v-.58a6.06 6.06 0 0 1 6.06-6.061zm-7.482 6.376h3.56a2.024 2.024 0 0 0 2.022-2.022 2.024 2.024 0 0 0-2.022-2.022h-3.56a2.023 2.023 0 0 0 0 4.044m7.482-7.578h-11.403a7.27 7.27 0 0 0-7.237 6.64h-8.668a3.286 3.286 0 0 0-3.284 3.286v9.238a3.286 3.286 0 0 0 3.284 3.285h43.217a3.286 3.286 0 0 0 3.285-3.285v-9.238a3.286 3.286 0 0 0-3.285-3.285h-8.668c-.326-3.718-3.447-6.641-7.241-6.641m-7.482 6.376a.817.817 0 0 1-.815-.815c0-.448.367-.815.815-.815h3.56c.448 0 .815.367.815.815a.817.817 0 0 1-.815.815z"/><path fill="url(#b)" d="M139.511 101.828a7.364 7.364 0 1 0 0-14.728 7.364 7.364 0 0 0 0 14.728"/><path fill="#fff" d="M144.578 92.84h-3.443v-3.443h-3.254v3.442h-3.443v3.255h3.443v3.442h3.254v-3.442h3.443z"/><path fill="#3554a5" d="M151.158 91.123v7.405h-1.732v-7.405zm7.181 0v7.405h-1.482l-2.898-5.001c.005.127.005.209.01.25q.021.19.02.32v4.431h-1.349v-7.405h1.869l2.521 4.37a6 6 0 0 1-.031-.494v-3.876zm6.6 1.625-1.477.494q-.3-.88-1.263-.881-1.03.001-1.029.667.002.266.194.448.19.184.871.32c.753.154 1.309.306 1.66.464q.527.237.886.749.36.52.362 1.156-.002 1.002-.774 1.737-.773.733-2.292.733-1.14 0-1.935-.52c-.535-.346-.887-.855-1.055-1.537l1.605-.362c.178.693.682 1.034 1.507 1.034q.596 0 .886-.23.29-.228.29-.55a.56.56 0 0 0-.264-.504q-.268-.175-1.024-.336c-.942-.193-1.614-.463-2.017-.8q-.602-.503-.601-1.481 0-.985.718-1.666.72-.678 1.951-.677c1.451 0 2.388.58 2.801 1.742m7.176-1.625v4.61q-.001 1.116-.255 1.66t-.942.896q-.688.351-1.757.351-1.069-.001-1.701-.316a2.1 2.1 0 0 1-.947-.896q-.315-.58-.316-1.696v-4.609h1.884v4.61q.001.596.102.88a.82.82 0 0 0 .402.448c.199.112.448.163.739.163q.488-.001.794-.163a.82.82 0 0 0 .408-.433q.1-.268.101-.896v-4.609zm3.121 4.467v2.933h-1.747v-7.405h3.254q.903.001 1.447.209c.361.137.662.397.901.769q.359.556.357 1.243 0 1.334-1.284 1.914l1.365 3.275h-1.915l-1.135-2.933h-1.243zm0-3.153v1.89h1.064q.521-.002.759-.072a.87.87 0 0 0 .423-.326.96.96 0 0 0 .183-.575.9.9 0 0 0-.183-.555q-.182-.246-.402-.3c-.143-.036-.418-.057-.815-.057h-1.029zm9.193-1.314 2.317 7.405h-1.864l-.459-1.523h-2.393l-.464 1.523h-1.522l2.373-7.405zm-1.982 4.512h1.569l-.779-2.597zm10.797-4.512v7.405h-1.482l-2.898-5.001c.006.127.006.209.011.25q.021.19.02.32v4.431h-1.35v-7.405h1.869l2.521 4.37a6 6 0 0 1-.03-.494v-3.876zm7.456 2.755-1.818.112q-.038-1.567-1.223-1.568-1.359 0-1.359 2.414c0 .932.122 1.558.371 1.89q.369.494 1.034.493 1.077-.001 1.314-1.4l1.681.102q-.162 1.328-.988 2.021-.827.694-2.027.693c-.978 0-1.778-.336-2.389-1.014s-.921-1.609-.921-2.806q-.001-1.673.891-2.745c.59-.712 1.405-1.069 2.429-1.069q2.667.006 3.005 2.877m6.289-1.344h-3.524v1.518h2.771v1.395h-2.771v1.614h3.524v1.467h-5.291v-7.405h5.291z"/><path fill="url(#c)" d="M222.996 96.583c-.174 0-.342-.041-.494-.123-1.151-.6-5.205-2.745-8.958-5.041a8.54 8.54 0 0 1-4.059-7.242V66.3c0-.906.708-1.67 1.614-1.736 4.828-.362 9.712-3.158 11.097-4.008.239-.148.514-.224.794-.224.281 0 .556.076.795.224 1.385.85 6.269 3.646 11.097 4.008.906.066 1.614.83 1.614 1.736v17.876a8.54 8.54 0 0 1-4.059 7.242c-3.738 2.291-7.802 4.435-8.958 5.041a1 1 0 0 1-.483.123"/><path fill="#fff" d="M222.996 60.934c.168 0 .331.046.478.137 1.523.937 6.438 3.723 11.367 4.095.596.046 1.06.54 1.06 1.14v17.876a7.9 7.9 0 0 1-3.774 6.732c-3.789 2.318-7.945 4.513-8.923 5.022a.45.45 0 0 1-.213.05.45.45 0 0 1-.214-.05c-.978-.51-5.134-2.704-8.923-5.022a7.9 7.9 0 0 1-3.773-6.732V66.306c0-.6.463-1.094 1.059-1.14 4.93-.367 9.844-3.158 11.367-4.095a.95.95 0 0 1 .489-.137m0-1.202a2.1 2.1 0 0 0-1.111.316c-1.354.83-6.136 3.57-10.827 3.92a2.36 2.36 0 0 0-2.174 2.338v17.876a9.15 9.15 0 0 0 4.349 7.756c3.769 2.307 7.838 4.456 8.994 5.062.239.122.504.189.769.189s.534-.067.769-.189c1.156-.606 5.225-2.755 8.993-5.062a9.15 9.15 0 0 0 4.344-7.756V66.306a2.353 2.353 0 0 0-2.174-2.337c-4.69-.352-9.473-3.086-10.827-3.922a2.07 2.07 0 0 0-1.105-.315"/><path fill="#fff" d="M222.619 64.921c-1.187.728-5.011 2.898-8.851 3.188a.893.893 0 0 0-.825.886v13.919a6.14 6.14 0 0 0 2.938 5.24c2.949 1.808 6.183 3.514 6.947 3.911a.36.36 0 0 0 .336 0c.764-.397 3.997-2.103 6.946-3.91a6.15 6.15 0 0 0 2.939-5.241V68.995a.89.89 0 0 0-.825-.886c-3.84-.285-7.665-2.46-8.852-3.188a.72.72 0 0 0-.753 0"/><path fill="url(#d)" d="M220.765 85.623a.6.6 0 0 1-.601-.6v-4.12h-4.115a.6.6 0 0 1-.601-.602V75.84c0-.331.27-.6.601-.6h4.115v-4.12c0-.332.27-.602.601-.602h4.461c.331 0 .601.27.601.601v4.12h4.115c.331 0 .601.27.601.601v4.461c0 .331-.27.601-.601.601h-4.115v4.12c0 .331-.27.601-.601.601z"/><path fill="#fff" d="M225.226 71.124v4.721h4.721v4.461h-4.721v4.721h-4.461v-4.72h-4.721v-4.462h4.721v-4.72zm0-1.202h-4.461c-.662 0-1.202.54-1.202 1.202v3.514h-3.514c-.662 0-1.202.54-1.202 1.202v4.461c0 .662.54 1.202 1.202 1.202h3.514v3.514c0 .662.54 1.202 1.202 1.202h4.461c.662 0 1.202-.54 1.202-1.202v-3.514h3.514c.662 0 1.202-.54 1.202-1.202V75.84c0-.662-.54-1.202-1.202-1.202h-3.514v-3.514c0-.662-.54-1.202-1.202-1.202"/><path fill="url(#e)" d="M131.459 199.063a5.35 5.35 0 0 1-3.59-1.38c-4.273-3.85-11.927-11.005-15.13-15.614-2.119-3.046-2.72-7.018-1.615-10.624 1.034-3.381 3.417-6.009 6.534-7.211q.183-.07.367-.132a8.9 8.9 0 0 1 2.887-.484c4.212 0 8.403 2.949 10.547 7.303 2.144-4.354 6.336-7.303 10.547-7.303.988 0 1.956.163 2.888.484q.183.061.367.132c3.116 1.207 5.495 3.835 6.534 7.211 1.105 3.606.504 7.578-1.615 10.624-3.203 4.614-10.857 11.764-15.13 15.614a5.37 5.37 0 0 1-3.591 1.38"/><path fill="#fff" d="M142.001 164.137c.907 0 1.818.143 2.715.459q.177.059.346.127c6.509 2.516 8.795 11.112 4.675 17.045-3.162 4.553-10.705 11.612-15.049 15.528a4.82 4.82 0 0 1-3.234 1.243 4.8 4.8 0 0 1-3.234-1.243c-4.344-3.916-11.886-10.975-15.049-15.528-4.12-5.928-1.833-14.524 4.676-17.045a8.3 8.3 0 0 1 3.06-.586c4.477 0 8.775 3.555 10.547 8.083 1.778-4.528 6.071-8.083 10.547-8.083m0-1.054c-4.115 0-8.204 2.674-10.547 6.717-2.342-4.038-6.432-6.712-10.547-6.717a9.3 9.3 0 0 0-3.06.515c-.128.045-.26.091-.382.142-3.27 1.263-5.765 4.013-6.845 7.553-1.151 3.758-.519 7.904 1.686 11.076 3.239 4.655 10.919 11.841 15.212 15.706a5.88 5.88 0 0 0 7.883 0c4.293-3.865 11.973-11.051 15.212-15.706 2.205-3.178 2.837-7.318 1.686-11.076-1.085-3.535-3.58-6.285-6.845-7.553a9.4 9.4 0 0 0-3.453-.657"/><path fill="#fff" d="M131.037 189.041a.72.72 0 0 1-.683-.51l-3.071-10.521-1.125 3.432a.71.71 0 0 1-.677.489h-17.102a.71.71 0 0 1-.713-.713c0-.397.316-.713.713-.713h16.587l1.676-5.128a.71.71 0 0 1 .677-.489h.01a.71.71 0 0 1 .672.509l2.852 9.768 3.861-22.606a.71.71 0 0 1 .702-.591h.011c.351.005.641.26.692.606l2.944 20.014 2.648-1.945a.7.7 0 0 1 .423-.138h13.562c.392 0 .713.316.713.713a.71.71 0 0 1-.713.713h-13.333l-3.412 2.511a.7.7 0 0 1-.693.082.71.71 0 0 1-.428-.551l-2.464-16.755-3.627 21.237a.716.716 0 0 1-.662.591q-.024-.006-.04-.005"/><path fill="url(#f)" fill-rule="evenodd" d="m199.457 108.673 2.068-2.165a.62.62 0 0 1 .901 0c.25.26.25.683 0 .942l-2.964 3.102-.005-.005-.005.005-1.741-1.823a.685.685 0 0 1 0-.942.62.62 0 0 1 .901 0z" clip-rule="evenodd"/><path fill="url(#g)" fill-rule="evenodd" d="m199.457 119.378 2.068-2.165c.25-.26.652-.26.901 0 .25.26.25.683 0 .942l-2.964 3.102-.005-.005-.005.005-1.741-1.823a.687.687 0 0 1 0-.943.62.62 0 0 1 .901 0z" clip-rule="evenodd"/><path fill="url(#h)" fill-rule="evenodd" d="m199.457 130.088 2.068-2.165c.25-.26.652-.26.901 0 .25.26.25.683 0 .942l-2.964 3.102-.005-.005-.005.005-1.741-1.823a.687.687 0 0 1 0-.943.62.62 0 0 1 .901 0z" clip-rule="evenodd"/><path fill="url(#i)" fill-rule="evenodd" d="m199.457 140.798 2.068-2.165c.25-.26.652-.26.901 0 .25.26.25.683 0 .942l-2.964 3.102-.005-.005-.005.005-1.741-1.823a.687.687 0 0 1 0-.943.62.62 0 0 1 .901 0z" clip-rule="evenodd"/><path fill="url(#j)" fill-rule="evenodd" d="m199.457 152.226 2.068-2.165c.25-.26.652-.26.901 0 .25.26.25.683 0 .942l-2.964 3.102-.005-.005-.005.005-1.741-1.823a.687.687 0 0 1 0-.943.62.62 0 0 1 .901 0z" clip-rule="evenodd"/><path fill="url(#k)" fill-rule="evenodd" d="m199.457 174.343 2.068-2.164c.25-.26.652-.26.901 0 .25.26.25.682 0 .942l-2.964 3.101-.005-.005-.005.005-1.741-1.823a.685.685 0 0 1 0-.942.62.62 0 0 1 .901 0z" clip-rule="evenodd"/><path fill="url(#l)" fill-rule="evenodd" d="m199.457 162.9 2.068-2.165a.62.62 0 0 1 .901 0c.25.26.25.683 0 .943l-2.964 3.101-.005-.005-.005.005-1.741-1.823a.685.685 0 0 1 0-.942.62.62 0 0 1 .901 0z" clip-rule="evenodd"/><path fill="#99c2e4" d="m282.183 189.769-22.556-9.187 12.595-30.918 16.989 6.921 3.295 7.827z"/><path fill="#cde8f9" d="m286.945 162.146 5.561 2.266-3.295-7.827z"/><path fill="#99c2e4" d="m75.215 158.759-19.286 5.292-7.252-26.436 14.525-3.983 6.065 3.448z"/><path fill="#cde8f9" d="m64.51 138.389 4.757-1.309-6.065-3.448z"/><path fill="#e6e7e8" d="M99.986 195.957c.285.005.555.132.744.351l.463.55c.499.596 1.166.545 1.9.672 1.91.341 5.673 1.915 5.271 5.444H93.152l.896-5.872c.102-.677.642-1.171 1.273-1.171H97.1z"/><path fill="#f1f2f2" d="M108.359 202.969H93.147l.188-1.232h14.988c.072.372.087.784.036 1.232"/><path fill="#f1f2f2" d="M102.227 197.398s-3.651 1.074-3.615 5.571h9.762c0-.005.937-4.721-6.147-5.571"/><mask id="m" width="16" height="8" x="93" y="195" maskUnits="userSpaceOnUse" style="mask-type:luminance"><path fill="#fff" d="M99.986 195.957c.285.005.555.132.744.351l.463.55c.499.596 1.166.545 1.9.672 1.91.341 5.673 1.915 5.271 5.444H93.152l.896-5.872c.102-.677.642-1.171 1.273-1.171H97.1z"/></mask><g fill="#d1d3d4" mask="url(#m)"><path d="m99.564 198.004.106-.092a6.7 6.7 0 0 1 2.44-1.334l.132-.041c.204-.061.296-.3.189-.499a.35.35 0 0 0-.403-.173l-.264.081a6.7 6.7 0 0 0-2.44 1.335l-.209.178a.35.35 0 0 0-.071.433.34.34 0 0 0 .52.112"/><path d="m99.166 197.296.102-.092a6.5 6.5 0 0 1 2.389-1.308l.132-.041c.199-.061.285-.296.178-.494-.081-.148-.249-.224-.397-.178l-.26.076a6.4 6.4 0 0 0-2.388 1.309l-.204.178a.35.35 0 0 0-.066.433c.112.199.356.255.514.117m.805 1.406.112-.097a7.5 7.5 0 0 1 2.567-1.406l.142-.046a.355.355 0 0 0-.214-.677l-.275.087a7.4 7.4 0 0 0-2.566 1.405l-.22.184a.36.36 0 0 0-.08.443.348.348 0 0 0 .534.107"/></g><path fill="#665b6b" d="M90.432 196.537H80.323l.698-23.309h9.177zm2.531.245h9.906l-.683-23.554h-8.994z"/><path fill="#e6e7e8" d="M81.866 196.909c-.82 1.314-1.074 2.475-1.237 3.906l-.306 2.694h11.428s-.234-2.73-2.465-5.016l-.417-1.528a2.38 2.38 0 0 0-2.302-1.757h-2.144c-1.014-.005-2.165.764-2.557 1.701"/><path fill="#f1f2f2" d="M91.751 203.509H80.323l.117-1.299h11.097c.179.79.214 1.299.214 1.299"/><path fill="#f1f2f2" d="M80.323 203.509s1.075-6.05 8.184-5.144a2.8 2.8 0 0 1 1.747.912c.637.718 1.37 2.017 1.497 4.232z"/><path fill="#d1d3d4" d="m84.876 197.622.143-.041a7.2 7.2 0 0 1 2.918-.239l.148.02c.224.031.412-.163.392-.397a.37.37 0 0 0-.316-.341l-.285-.036a7.2 7.2 0 0 0-2.918.239l-.275.082a.364.364 0 0 0-.255.387.357.357 0 0 0 .448.326"/><path fill="#d1d3d4" d="m84.8 196.766.137-.04c.927-.28 1.9-.362 2.862-.235l.143.021c.219.03.402-.163.382-.397a.365.365 0 0 0-.31-.342l-.28-.035a6.8 6.8 0 0 0-2.863.234l-.27.081a.366.366 0 0 0-.25.387c.026.23.24.393.449.326m.173 1.696.148-.04a7.9 7.9 0 0 1 3.076-.255l.152.02a.374.374 0 0 0 .081-.743l-.3-.036a7.7 7.7 0 0 0-3.076.255l-.29.081a.374.374 0 1 0 .209.718"/><path fill="#5e769d" d="M80.323 203.509s9.992-1.568 11.428 0z"/><path fill="#f1f2f2" d="M100.694 147.286c.642 2.566 2.16 6.676 3.3 9.63l.061.153a3.79 3.79 0 0 0 4.9 1.986 3.79 3.79 0 0 0 2.174-4.68l-3.672-11.306s-1.446-4.405-4.659-4.41c-1.36 0-2.139.758-2.506 1.976-.5 1.65-.224 4.13.402 6.651"/><path fill="#c8c7cc" d="M101.331 149.547a108 108 0 0 1 2.918 7.99 106 106 0 0 1-2.918-7.99"/><path fill="#f1f2f2" d="m87.076 136.708-4.283.494c-6.284.927-6.36 4.273-6.36 4.273-.347 6.198 1.049 14.504.876 17.549-.174 3.046-.377 3.102-.5 5.027-.412 6.35-.677 15.37-.728 16.205-.046.835.474.667.764.932s12.89 1.767 15.655.422c1.044-.509 1.35-2.179 1.35-2.179s.081 1.67 1.13 2.185c1.472.723 3.377.575 4.96.422 1.162-.112 2.323-.01 3.459-.28.758-.183 2.449-.423 2.388-1.441-.051-.835-.351-9.854-.789-16.21-.133-1.925-.337-1.981-.52-5.027-.183-3.045.718-13.042.352-19.245 0 0-.021-1.329-5.541-2.832l-3.535-.259c-2.495-.316-6.187-.326-8.678-.036"/><path fill="#efb1ac" d="m97.043 142.412 1.553-6.799a2.273 2.273 0 0 0-2.108-3.015l-6.656-.112a2.274 2.274 0 0 0-2.267 2.73l1.39 6.819a2.27 2.27 0 0 0 2.155 1.818l3.712.097a2.29 2.29 0 0 0 2.22-1.538"/><path fill="#f1f2f2" d="m99.33 136.749 1.217.219s-2.343 11.703-6.407 17.34c0 0-6.626-6.075-6.626-17.615l.286.091.835 1.238a11.3 11.3 0 0 0 3.142 3.112l2.348.758.993-.616a11.3 11.3 0 0 0 3.504-3.437z"/><path fill="#c8c7cc" d="M93.875 142.188s-.494-.301-.922.041c-.432.341-2.419 4.364-2.419 4.364s.163-3.076.555-4.38c.393-1.303 2.099-1.385 2.47-.932.377.448.316.907.316.907"/><path fill="#f1f2f2" d="m94.298 142.29-.535-1.243s-1.859-.285-3.29-1.884-1.523-2.277-1.523-2.277l-1.008-.203s-.535.962-.173 2.923c.361 1.961 2.775 6.727 2.775 6.727s1.798-3.605 1.981-3.992.398-.754.744-.718c.346.035.606.565.606.565z"/><path fill="#c8c7cc" d="M94.395 141.872s.473-.336.662.158c.687 1.772 2.083 3.336 2.083 3.336s-.189-2.048-.52-3.356c-.33-1.304-1.762-1.386-2.073-.932-.31.458-.152.794-.152.794"/><path fill="#f1f2f2" d="m94.002 142.081.377-1.227s1.416-.27 2.618-1.864 1.416-2.297 1.416-2.297l.845-.204s.448.963.148 2.923c-.3 1.961-2.267 5.959-2.267 5.959s-1.568-2.837-1.72-3.224c-.154-.387-.337-.754-.622-.718-.29.036-.397.443-.397.443z"/><path fill="#c8c7cc" d="M94.125 142.575c.341 3.483.356 6.997.173 10.496.056-3.499.04-7.003-.173-10.496m-.708 2.307c.262 0 .474-.21.474-.469a.47.47 0 0 0-.474-.468.47.47 0 0 0-.474.468c0 .259.212.469.474.469"/><path fill="#e6e7e8" d="M93.325 144.836c.262 0 .474-.21.474-.469a.47.47 0 0 0-.474-.468.47.47 0 0 0-.473.468c0 .259.212.469.473.469"/><path fill="#c8c7cc" d="M93.717 150.346a.47.47 0 0 0 .474-.468.47.47 0 0 0-.474-.469.47.47 0 0 0-.474.469.47.47 0 0 0 .474.468"/><path fill="#e6e7e8" d="M93.626 150.306c.261 0 .473-.21.473-.469a.47.47 0 0 0-.474-.468.47.47 0 0 0-.473.468c0 .259.212.469.474.469"/><path fill="#c8c7cc" d="M85.309 140.93v1.614l3.07.342-2.83-.693zm1.344 4.227-.652.784 7.69 8.143z"/><path fill="#e6e7e8" d="M87.524 135.644s4.7 11.193 6.55 18.889l-8.006-9.045 2.001-2.582-3.035-.601.214-4.909a.59.59 0 0 1 .265-.459z"/><path fill="#c8c7cc" d="M100.317 140.93v1.614l-2.485.342 2.292-.693zm-1.09 4.227.53.784-5.19 7.731z"/><path fill="#e6e7e8" d="M98.525 135.644s-2.96 11.193-4.452 18.889l5.628-9.045-1.62-2.582 2.455-.601-.168-4.853a.73.73 0 0 0-.26-.55z"/><path fill="#5dc3b1" d="M80.772 149.221a.08.08 0 0 1-.077-.077v-.575a.535.535 0 0 1 1.07 0v.575a.08.08 0 0 1-.077.077z"/><path fill="#fff" d="M81.23 148.111c.255 0 .458.203.458.458v.575h-.916v-.575c0-.255.203-.458.458-.458m0-.158a.613.613 0 0 0-.611.611v.575c0 .087.071.153.153.153h.916a.153.153 0 0 0 .153-.153v-.575a.616.616 0 0 0-.611-.611"/><path fill="#044d7c" d="M81.23 150.387a.534.534 0 0 1-.535-.535v-.575c0-.041.036-.076.077-.076h.916c.04 0 .076.035.076.076v.575a.534.534 0 0 1-.534.535"/><path fill="#fff" d="M81.688 149.277v.575a.457.457 0 0 1-.458.459.457.457 0 0 1-.458-.459v-.575zm0-.153h-.916a.153.153 0 0 0-.153.153v.575c0 .336.275.611.611.611a.613.613 0 0 0 .611-.611v-.575a.15.15 0 0 0-.153-.153"/><path fill="#5dc3b1" d="M82.259 150.387a.534.534 0 0 1-.535-.535v-.575c0-.041.035-.076.076-.076h.917c.04 0 .076.035.076.076v.575a.534.534 0 0 1-.534.535"/><path fill="#fff" d="M82.717 149.277v.575a.457.457 0 0 1-.458.459.457.457 0 0 1-.459-.459v-.575zm0-.153h-.916a.153.153 0 0 0-.153.153v.575c0 .336.275.611.61.611a.613.613 0 0 0 .612-.611v-.575a.15.15 0 0 0-.153-.153"/><path fill="#044d7c" d="M81.8 149.221a.08.08 0 0 1-.076-.077v-.575a.535.535 0 0 1 1.07 0v.575a.08.08 0 0 1-.077.077z"/><path fill="#fff" d="M82.259 148.111c.254 0 .458.203.458.458v.575h-.916v-.575c0-.255.203-.458.458-.458m0-.158a.613.613 0 0 0-.611.611v.575c0 .087.071.153.153.153h.916a.153.153 0 0 0 .153-.153v-.575a.616.616 0 0 0-.611-.611"/><path fill="#5dc3b1" d="M81.688 149.144h-.916v-.575c0-.255.203-.458.458-.458.254 0 .458.203.458.458z"/><path fill="#044d7c" d="M80.772 149.277h.916v.575a.457.457 0 0 1-.458.459.457.457 0 0 1-.459-.459z"/><path fill="#5dc3b1" d="M81.8 149.277h.917v.575a.457.457 0 0 1-.458.459.457.457 0 0 1-.459-.459z"/><path fill="#044d7c" d="M82.717 149.144H81.8v-.575c0-.255.204-.458.459-.458.254 0 .458.203.458.458z"/><path fill="#e46587" d="M81.744 149.664a.4.4 0 0 1-.071-.015c-.036-.021-.326-.194-.413-.403a.38.38 0 0 1 .02-.315.3.3 0 0 1 .215-.158l.05-.005q.102-.001.194.066a.3.3 0 0 1 .194-.066l.05.005a.3.3 0 0 1 .215.158.38.38 0 0 1 .02.315c-.087.209-.377.382-.407.403a.3.3 0 0 1-.067.015"/><path fill="#fff" d="M81.938 148.844c.01 0 .025 0 .035.005.158.031.23.224.174.367-.077.188-.377.361-.377.361q-.016.006-.026.005c-.015 0-.03-.005-.03-.005s-.3-.173-.377-.361c-.056-.143.015-.336.173-.367.01 0 .026-.005.036-.005.071 0 .142.041.193.087a.33.33 0 0 1 .199-.087m0-.158a.45.45 0 0 0-.194.051.4.4 0 0 0-.193-.051c-.02 0-.046 0-.066.005a.4.4 0 0 0-.27.199.46.46 0 0 0-.026.382c.097.229.408.417.443.438a.22.22 0 0 0 .224 0c.031-.021.347-.204.438-.438a.44.44 0 0 0-.025-.382.38.38 0 0 0-.27-.199c-.015-.005-.04-.005-.061-.005"/><path fill="#5dc3b1" d="M83.048 149.552v-.066h.352v.066h-.138v.382h-.076v-.382zm.479-.066v.183h.209v-.183h.076v.448h-.076v-.194h-.21v.194h-.076v-.448zm.591 0 .173.448h-.087l-.046-.127h-.168a.1.1 0 0 0-.01.03c-.005.01-.005.02-.01.031s-.005.02-.01.03-.005.021-.01.031h-.082l.173-.448h.077zm.015.249-.061-.163-.056.163zm.29-.249v.448h-.076v-.448zm.168 0v.382h.224v.066h-.3v-.448zm.494 0 .173.448h-.086l-.046-.127h-.168q-.009.015-.01.03c-.006.01-.006.02-.01.031-.006.01-.006.02-.01.03-.006.01-.006.021-.011.031h-.082l.174-.448h.076zm.015.249-.06-.163-.057.163zm.484.194-.203-.331v.331h-.077v-.448h.092l.204.336v-.336h.076v.448zm.336-.443q.053 0 .097.015c.026.01.051.02.071.041q.032.028.041.066.015.038.015.092a.3.3 0 0 1-.015.101c-.01.031-.02.056-.04.072a.2.2 0 0 1-.072.046.3.3 0 0 1-.102.015h-.158v-.448zm.005.377h.016c.005 0 .015 0 .02-.006q.008-.006.026-.005c.01-.005.015-.005.025-.015.005-.005.015-.01.02-.02s.016-.016.02-.026a.1.1 0 0 0 .01-.035q.008-.023.006-.051.001-.037-.005-.067a.1.1 0 0 0-.026-.045.1.1 0 0 0-.04-.031.2.2 0 0 0-.067-.01h-.086v.311z"/><path fill="#044d7c" d="M83.053 148.732v-.112h.474v.112h-.174v.484h-.132v-.484zm.977-.117v.107h-.315v.132h.29v.107h-.29v.148h.316v.107h-.443v-.601zm.21 0v.484h.285v.112h-.413v-.601h.128zm.789 0v.107h-.316v.132h.29v.107h-.29v.148h.316v.107h-.443v-.601zm.204 0v.239h.244v-.239h.127v.601h-.127v-.255h-.245v.255h-.127v-.601zm.927 0v.107h-.316v.132h.29v.107h-.29v.148h.316v.107h-.443v-.601zm.254 0h.138l.224.601h-.138l-.046-.133h-.224l-.045.133h-.138zm-.015.367h.158l-.077-.219zm.561-.367v.484h.284v.112h-.412v-.601h.127z"/><path fill="#5dc3b1" d="M87.219 148.732v-.112h.473v.112h-.173v.484h-.132v-.484zm.672-.117v.239h.244v-.239h.128v.601h-.128v-.255h-.244v.255h-.127v-.601z"/><path fill="#f1f2f2" d="M100.444 175.041c.932.504 5.495.178 5.47-.397-.163-3.372-.331-6.743-.494-10.114-.005-.092-.01-.194-.061-.26-.051-.071-.138-.077-.209-.071q-2.536.123-5.072.239c-.092.005-.189.015-.25.097-.076.101-.076.275-.066.427l.474 9.61c.005.133.015.275.086.367a.4.4 0 0 0 .122.102"/><path fill="#c8c7cc" d="M99.788 165.462q.306 4.445.438 8.907a216 216 0 0 1-.438-8.907m5.846 9.426c-1.665.52-3.499.601-5.185.153 1.712.321 3.489.239 5.185-.153"/><path fill="#f1f2f2" d="M85.87 175.066c-1.3.494-7.68.133-7.645-.443.209-3.371.413-6.742.622-10.114.005-.092.015-.193.081-.26.071-.071.189-.071.29-.071 2.363.097 4.726.189 7.09.285.127.005.26.016.35.102.108.102.108.275.097.428l-.59 9.61c-.01.132-.02.275-.117.367a.6.6 0 0 1-.179.096"/><path fill="#c8c7cc" d="M86.725 165.492a186 186 0 0 1-.55 8.907q.168-4.461.55-8.907m-8.108 9.381c2.394.397 4.838.489 7.252.193-2.388.448-4.883.352-7.252-.193"/><path fill="#2d1714" d="M89.304 134.327c13.079-.768 23.078-11.665 22.334-24.34-.744-12.674-11.95-22.327-25.028-21.559-13.08.768-23.079 11.665-22.335 24.339.744 12.675 11.95 22.328 25.029 21.56"/><path fill="#fcd7cc" d="M109.734 118.089s2.571-3.29 5.693-1.049c1.365.978 1.976 3.178 1.818 4.706-.453 4.395-3.967 7.995-8.535 7.135z"/><path fill="#efb1ac" d="M115.305 119.653c-.046-.372-.163-.739-.387-1.039-.27-.362-.728-.729-1.513-.754-1.558-.051-2.52 1.793-2.205 2.613.316.819.886 1.237.785 2.307-.102 1.069-1.391 1.604-1.6 2.388-.208.779.678 2.037 2.231 1.35 1.508-.662 3.102-3.647 2.689-6.865"/><path fill="#c66" d="M115.28 119.653c-.489-2.363-3.474-1.981-3.906.203-.118.489.152.851.371 1.268.255.433.469 1.009.398 1.554-.026.55-.382 1.033-.775 1.385-.371.351-.804.631-1.013 1.105.244-.947 1.462-1.487 1.431-2.511.056-.759-.489-1.339-.784-2.016-.331-.82.147-1.722.713-2.297 1.237-1.289 3.58-.56 3.565 1.309"/><path fill="#fcd7cc" d="M74.533 116.719s-2.562-3.702-6.065-1.482c-1.528.968-2.328 3.295-2.251 4.95.214 4.757 3.768 8.857 8.744 8.215z"/><path fill="#efb1ac" d="M68.437 118.053c.076-.397.224-.784.484-1.094.31-.372.83-.739 1.67-.713 1.68.045 2.603 2.088 2.21 2.953-.392.866-1.033 1.274-.987 2.435s1.395 1.818 1.573 2.668c.178.856-.855 2.154-2.49 1.314-1.579-.81-3.102-4.125-2.46-7.563"/><path fill="#c66" d="M68.463 118.053c.096-2.006 2.673-2.648 3.916-1.181.57.652 1.029 1.655.621 2.516-.361.713-.983 1.303-.972 2.123-.107 1.1 1.191 1.768 1.385 2.791-.194-.519-.642-.85-1.019-1.253-1.319-1.324-.662-2.551.173-3.87.102-.209.118-.413.082-.662-.326-2.378-3.509-2.984-4.186-.464"/><path fill="#fcd7cc" d="M92.979 138.032c9.834-.387 14.886-3.473 17.437-6.137 1.574-1.644 2.424-3.85 2.434-6.126.021-4.787.5-13.74.5-13.74s-.948-16.108-19.118-17.239h.005c-18.207.081-20.086 16.103-20.086 16.103s-.04 8.968-.295 13.745c-.123 2.277.6 4.523 2.077 6.259 2.389 2.811 7.257 6.178 17.05 7.135"/><path fill="#efb1ac" d="M101.376 99.017s9.773 1.37 11.953 12.742c.005 0-1.365-14.525-11.953-12.742"/><path fill="#efb1ac" d="M101.3 98.849c-.504.316-1.049.585-1.64.713-.753.158-1.538.081-2.312.056-1.716-.056-3.437.387-5.123.698-1.874.346-3.733.825-5.475 1.568-2.617 1.115-4.904 2.582-7.364 3.988-1.818 1.044-3.748 2.383-5.729 3.106-.305.112-.647.214-.968.214.051.336.204.627.505.79.427.229.952.066 1.405-.107a35 35 0 0 0 5.505-2.674c2.368-1.416 4.579-3.117 7.1-4.247 1.675-.749 3.463-1.233 5.27-1.589 1.62-.321 3.27-.54 4.92-.494.744.02 1.497.096 2.22-.067.566-.127 1.096-.397 1.579-.718 1.625-1.07 2.837-2.785 3.255-4.675-.576 1.579-1.696 2.521-3.148 3.438"/><path fill="#2d1714" d="M103.576 109.92c1.299-.188 5.241-.57 7.553 1.381.066.056.143-.041.097-.118-.662-1.13-2.878-4.17-7.298-3.371a.4.4 0 0 0-.143.056c-.198.132-.708.56-.697 1.528-.006.321.229.565.488.524m-10.923-.198c-1.86-.285-7.522-.947-11 .86-.097.051-.204-.05-.133-.127 1.034-1.105 4.451-4.028 10.776-2.898a.7.7 0 0 1 .204.072c.275.147.983.621.901 1.599-.03.321-.382.55-.748.494"/><path fill="#fff3f0" d="M93.157 122.087c.743-2.165-.387-5.378-2.205-6.829-1.732-1.375-3.947-1.289-5.852-.326-3.208 1.619-4.726 7.033-.774 8.703.296.127.606.224.917.301.87.219 1.777.269 2.679.295.804.02 1.609.02 2.398-.127.917-.168 1.87-.586 2.45-1.314.178-.219.3-.454.387-.703"/><path fill="#090d0a" d="M90.957 115.263c-1.732-1.375-3.947-1.289-5.852-.326-2.27 1.151-3.692 4.196-2.928 6.473-1.406-2.307.112-5.883 2.694-7.151 1.966-.962 4.242-1.049 6.03.331 1.599 1.233 2.674 3.749 2.49 5.806-.071-1.91-1.049-4.033-2.434-5.133"/><path fill="#331a0e" d="M91.506 119.507c.076-2.631-1.95-4.825-4.525-4.899-2.575-.075-4.725 1.998-4.8 4.63-.077 2.631 1.95 4.825 4.525 4.899 2.575.075 4.724-1.998 4.8-4.63"/><path fill="url(#n)" d="M86.98 114.789c2.48.071 4.43 2.185 4.359 4.721s-2.144 4.533-4.624 4.461c-2.48-.071-4.43-2.185-4.36-4.721.072-2.531 2.144-4.532 4.625-4.461"/><path fill="#090d0a" d="M89.633 119.453c.046-1.574-1.167-2.887-2.707-2.931-1.541-.045-2.827 1.195-2.872 2.77-.046 1.574 1.166 2.887 2.707 2.931s2.827-1.195 2.872-2.77"/><path fill="#fff5f1" d="M84.942 118.624a1.095 1.095 0 1 0 0-2.19 1.095 1.095 0 0 0 0 2.19"/><path fill="#2d1714" d="M107.467 87.833c-.31-.489-.718-.921-1.145-1.329-4.813-4.624-12.172-6.687-19.083-5.994s-13.338 3.947-18.237 8.449c-1.512 1.39-2.928 2.964-3.493 4.853-.347 1.166-.51 2.552-1.365 3.575-.881 1.06-1.33 2.277-.8 3.636-1.568 2.19-1.477 5.012-1.329 7.634.071 1.304.31 2.852 1.584 3.443-.27.886-.158 2.052.764 2.429.647.265 1.39 0 2.027-.275a52 52 0 0 0 7.695-4.099c3.28-2.119 6.3-4.604 9.834-6.351 2.353-1.166 4.894-1.981 7.476-2.633 2.317-.586 4.685-1.039 7.089-1.136 1.08-.045 2.185-.015 3.218-.305.81-.224 1.544-.637 2.216-1.11 2.801-1.981 4.553-5.24 4.257-8.475-.066-.728-.234-1.461-.601-2.113a1.4 1.4 0 0 0-.107-.199"/><path fill="#2d1714" d="M114.541 116.072c8.077-24.052-9.08-27.516-9.08-27.516l-1.543 1.951a3.84 3.84 0 0 0-.805 2.098c-.29 4.115-2.062 6.29-2.062 6.29s5.815-.143 9.131 4.497c.239.336.428.707.565 1.095l1.385 3.829a19.5 19.5 0 0 1 1.131 7.644l-.397 7.476c0 .051.076.056.081.006l.876-5.567z"/><path fill="url(#o)" d="M100.628 125.433s-.901-1.228-1.828-1.289c-.922-.061-1.996.958-2.118 1.528-.123.571.86 1.105 1.96 1.177 1.12.076 2.45-.352 1.986-1.416"/><path fill="#c66" d="M100.71 126.039s-.499.769-1.95.682c-1.335-.081-2.053-.764-2.053-.764s.693 1.151 1.96 1.202c.963.041 1.488-.198 2.043-1.12"/><path fill="#2d1714" d="m72.073 110.216 2.96 11.438c.065.25.442.209.447-.051l.24-13.078z"/><path fill="url(#p)" d="M43.186 88.67h78.958v79.079H43.186z" opacity=".5"/><path fill="url(#q)" d="M70.32 87.692h78.957v78.957H70.32z" opacity=".5"/><path fill="#fff3f0" d="M102.085 122.026c-.479-2.165.585-5.261 2.118-6.59 1.457-1.263 3.224-1.065 4.696-.015 2.48 1.757 3.417 7.15.168 8.586a4.5 4.5 0 0 1-.749.249c-.708.168-1.436.174-2.159.148-.642-.02-1.289-.066-1.91-.249-.723-.214-1.462-.673-1.889-1.421a2.5 2.5 0 0 1-.275-.708"/><path fill="#090d0a" d="M104.198 115.436c1.457-1.263 3.224-1.065 4.695-.015 1.757 1.242 2.74 4.313 2.007 6.508 1.243-2.19.214-5.785-1.788-7.16-1.522-1.049-3.34-1.248-4.838.01-1.344 1.13-2.332 3.544-2.291 5.571.158-1.869 1.049-3.906 2.215-4.914"/><path fill="#331a0e" d="M109.597 119.704c.075-2.589-1.538-4.737-3.601-4.797-2.064-.059-3.798 1.992-3.872 4.581-.075 2.589 1.537 4.737 3.601 4.796s3.797-1.991 3.872-4.58"/><path fill="url(#r)" d="M105.995 115.09c-1.986-.056-3.656 1.914-3.728 4.41-.071 2.495 1.482 4.563 3.469 4.619s3.656-1.915 3.727-4.41c.072-2.496-1.481-4.563-3.468-4.619"/><path fill="#090d0a" d="M108.095 119.661c.045-1.55-.92-2.834-2.154-2.87s-2.271 1.191-2.316 2.74.92 2.834 2.154 2.87 2.271-1.191 2.316-2.74"/><path fill="#fff5f1" d="M105.356 117.843c.017-.596-.386-1.091-.9-1.106-.515-.015-.946.456-.963 1.052s.386 1.091.9 1.106c.515.015.946-.456.963-1.052"/><path fill="#24110a" d="M111.45 101.039c3.046 4.048 4.39 9.564 3.02 14.499.041-.637.178-1.253.173-1.89.25-4.4-1.044-8.795-3.193-12.609"/><path fill="#24110a" d="M111.343 97.8c3.509 2.195 4.645 6.712 4.665 10.618-.031.576-.056 1.146-.097 1.716-.035-.57-.051-1.14-.076-1.711-.296-3.86-1.324-8.102-4.492-10.623m-5.205-6.488c4.003.494 7.4 3.437 9.172 6.961.245.515.459 1.04.667 1.564-.305-.479-.555-.983-.86-1.452-2.053-3.294-5.19-6.02-8.979-7.073m-3.707-2.048c-2.205-2.607-5.322-4.18-8.556-5.097-.469-.138-.942-.24-1.42-.392 3.91-.046 8.214 1.843 9.976 5.49m-37.773 11.361c2.628-1.894 5.276-3.651 7.914-5.525-2.225 2.353-4.98 4.176-7.914 5.525"/><path fill="#633e36" d="M71.538 87.044a4.95 4.95 0 0 0-1.7 2.45c-.041.137-.082.28-.057.422.092.504.77.52 1.248.408.601-.143 1.202-.28 1.803-.423.183-.04.402-.071.524.076.118.153.046.377-.045.545-.53.978-1.523 1.62-2.012 2.618-.117.234-.199.51-.117.759.097.28.382.438.657.504.83.188 1.655-.25 2.485-.443.83-.199 1.925.02 2.129.88.137.587-.214 1.162-.494 1.692s-.474 1.242-.092 1.69c.346.403.958.357 1.467.255a23.7 23.7 0 0 0 5.093-1.614c.595-.265 2.047-.408 2.337-1.12.387-.948-1.171-.963-1.787-1.157-.235-.071-.474-.147-.657-.31-.265-.235-.372-.606-.525-.932a2.84 2.84 0 0 0-1.665-1.482c-.77-.25-1.803-.29-2.053-1.09-.117-.377.01-.784-.02-1.182-.056-.646-.555-1.181-1.136-1.41-.58-.23-1.227-.199-1.838-.087-.372.066-.754.163-1.13.102-.378-.061-.75-.336-.795-.733-.026-.23.06-.48-.03-.688-.169-.382-.714-.29-1.065-.092-.178.112-.357.23-.525.362" opacity=".5"/><path fill="#24110a" d="M67.174 109.146c4.074-2.347 7.894-5.123 11.504-8.128 1.07-.921 2.542-2.215 3.713-2.969 5.246-3.54 11.968-5.225 18.176-3.728-6.233-.804-12.548.938-17.707 4.426-1.33.85-2.445 1.874-3.677 2.882-3.693 2.954-7.68 5.597-12.009 7.517m34.977-18.557c-4.008-3.606-9.875-3.835-14.902-2.75-.733.173-1.461.371-2.205.534.708-.265 1.431-.504 2.15-.749 5.005-1.44 11.275-1.145 14.957 2.965"/><path fill="#633e36" d="M85.554 98.462c-.917.025-2.603 1.298-3.352 1.792-1.706 1.136-.758 1.936.927 1.778 1.085-.107 7.98-3.677 2.424-3.57m24.848-1.126c-.067-.173-.311-.494-.657-.87.738.504.988-.148.672-1.05-.224-.641-3.443-4.308-2.541-.937.046.163.168.352.326.545-1.6-1.278-3.336-2.006-2.47 1.065.244.84 2.103 2.047 2.846 2.597 1.712 1.258 2.409.163 1.824-1.35" opacity=".5"/><path fill="#c8c7cc" d="m86.302 164.468-7.089-.285c.005 0 3.545-.433 7.09.285m14.142-.045 4.425-.209c.005-.005-2.449-.408-4.425.209m-6.443-8.958c.22 7.358.545 14.748.005 22.102.413-7.359.087-14.738-.005-22.102m10.715-9.381c.031 4.191-.056 8.8-.249 12.986-.031-4.186.061-8.8.249-12.986"/><path fill="#f1f2f2" d="M80.74 148.386c-.809 2.74-2.627 7.099-3.987 10.231-.025.056-.05.107-.076.163-.963 1.976-3.285 2.811-5.246 1.854-1.884-.922-2.77-3.194-2.026-5.2l4.466-12.024s1.757-4.68 5.123-4.497c1.426.082 2.205.953 2.521 2.292.438 1.818.02 4.492-.774 7.181"/><path fill="#c8c7cc" d="M79.952 150.8a118 118 0 0 1-3.494 8.479 116 116 0 0 1 3.494-8.479"/><path fill="url(#s)" d="M108.507 165.981c1.655-7.048 3.305-14.097 4.96-21.145.086-.356-.163-.708-.499-.708H95.266c-.235 0-.439.173-.5.423-1.65 7.058-3.305 14.478-4.955 21.547-.086.362.168.713.51.708l17.697-.397a.535.535 0 0 0 .489-.428"/><path fill="#89a4cb" d="M90.509 166.108c1.604-6.926 3.208-14.198 4.813-21.114.056-.245.254-.418.483-.418h17.183c.214 0 .387.148.464.347.005-.031.015-.062.02-.092.087-.357-.163-.708-.499-.708H95.266c-.235 0-.439.173-.5.423-1.65 7.058-3.305 14.478-4.955 21.547-.086.362.168.713.51.708l.565-.01c-.27-.067-.448-.372-.377-.683"/><path fill="#89a4cb" d="M111.956 146.394c.246-.218.309-.55.14-.742-.17-.192-.507-.171-.754.047s-.309.55-.14.742c.17.192.507.171.754-.047"/><path fill="#9d8eab" d="M103.2 155.709h-.652l-.163.586c.158-.082.565-.316.815-.586"/><path fill="#89a4cb" d="M103.572 155.709c-.331.479-1.08.861-1.162.901-.04.021-.086.036-.127.051l-.066.245c-.148.524.163.952.687.952.525 0 1.07-.428 1.213-.952l.331-1.197z"/><path fill="#9d8eab" d="m102.151 156.295.163-.586h-.652c.102.265.377.499.489.586"/><path fill="#89a4cb" d="M101.957 156.615c-.061-.04-.601-.427-.667-.906h-.876l-.331 1.197c-.147.524.163.952.688.952s1.069-.428 1.212-.952l.066-.245a.5.5 0 0 1-.092-.046"/><path fill="#9d8eab" d="M102.538 154.909a.45.45 0 0 0-.336-.091c-.296.051-.525.351-.566.616h.754z"/><path fill="#89a4cb" d="M101.56 154.909c.184-.224.418-.366.667-.412.046-.01.092-.01.138-.01q.146.001.27.056l.081-.296c.148-.524-.163-.952-.687-.952-.525 0-1.07.428-1.212.952l-.331 1.197h.814a1.2 1.2 0 0 1 .26-.535m2.608-1.619c-.525 0-1.07.428-1.212.952l-.082.296a1 1 0 0 1 .306-.056q.07.001.132.01a.56.56 0 0 1 .443.412.85.85 0 0 1-.035.525h.809l.331-1.197c.143-.514-.168-.942-.692-.942"/><path fill="#9d8eab" d="M103.159 154.818q-.04-.006-.071-.005a.7.7 0 0 0-.316.096l-.147.53h.758c.107-.27.041-.565-.224-.621"/><path fill="#89a4cb" d="M102.242 156.417a.2.2 0 0 1-.122-.036c-.056-.035-.514-.366-.565-.759-.026-.183.051-.412.204-.595a.82.82 0 0 1 .483-.301q.053-.009.097-.01.184-.001.331.127a.84.84 0 0 1 .403-.127q.046.001.091.01a.4.4 0 0 1 .321.301c.051.183 0 .412-.127.595-.27.393-.912.724-.983.759a.23.23 0 0 1-.133.036"/><path fill="#fcd7cc" d="M112.683 161.194a.95.95 0 0 1-1.299.316l-2.195-1.34a.95.95 0 0 1-.316-1.298.95.95 0 0 1 1.299-.316l2.195 1.339c.448.27.586.856.316 1.299"/><path fill="#fcd7cc" d="M112.306 162.89a.95.95 0 0 1-1.299.315l-2.195-1.339a.95.95 0 0 1-.316-1.299.95.95 0 0 1 1.299-.315l2.195 1.339a.94.94 0 0 1 .316 1.299"/><path fill="#fcd7cc" d="M111.404 164.326a.95.95 0 0 1-1.298.316l-2.195-1.34a.95.95 0 0 1-.316-1.298.95.95 0 0 1 1.299-.316l2.195 1.339a.94.94 0 0 1 .315 1.299"/><path fill="#fcd7cc" d="M110.681 165.675a.9.9 0 0 1-1.212.387l-2.175-1.125a.903.903 0 0 1-.387-1.212.903.903 0 0 1 1.212-.387l2.175 1.125a.9.9 0 0 1 .387 1.212"/><path fill="#c66" d="M109.795 160.247a21 21 0 0 1 2.195 1.339 21 21 0 0 1-2.195-1.339m-.901 1.436a21 21 0 0 1 2.195 1.339 20 20 0 0 1-2.195-1.339m-.576 1.757c.683.295 1.345.636 1.976 1.023a16 16 0 0 1-1.976-1.023"/><path fill="#fcd7cc" d="M87.265 159.691c.499-.662 1.466-.85 2.373-.657l2.587.719c.754.163.932 1.059.952 1.711.061 2.011-.132 2.48-.931 3.249-.56.54-1.253 1.095-2.053.657l-1.7-.525c-.877-.27-1.61-.906-1.926-1.752a2 2 0 0 1-.132-.585c-.036-.8.096-1.849.83-2.817"/><path fill="#fcd7cc" d="M91.589 160.476c.132-.448.62-.734 1.094-.637l2.287.438c.474.097.749.54.616.983-.132.448-.621.733-1.095.637l-2.286-.438c-.469-.097-.749-.535-.617-.983"/><path fill="#fcd7cc" d="M91.833 162.167c.127-.449.59-.739 1.034-.647l1.93.397c.443.092.698.53.57.978-.127.448-.59.738-1.034.647l-1.93-.398c-.443-.091-.698-.529-.57-.977"/><path fill="#fcd7cc" d="M91.196 163.445c.158-.433.632-.678 1.054-.555l1.854.545c.423.122.642.575.484 1.008s-.632.677-1.054.555l-1.854-.545c-.428-.127-.642-.575-.484-1.008"/><path fill="#fcd7cc" d="M90.076 164.56c.173-.397.632-.606 1.024-.458l1.71.626c.393.143.566.586.393.983s-.632.606-1.024.458l-1.71-.626c-.388-.143-.566-.581-.393-.983m.601-5.744-1.054 2.383c-.255.601-.983.876-1.656.631-.03-.01-.055-.025-.086-.035-.815-.362-1.1-1.345-.545-1.966l1.69-1.895 2.19-1.614s.866-.061.673.871c-.189.932-1.212 1.625-1.212 1.625"/><path fill="#fcd7cc" d="M86.577 163.129s-.662-2.271 1.06-3.901z"/><path fill="#f1f2f2" d="m87.52 157.16-13.562-3.59a3.974 3.974 0 0 0-4.87 2.862 3.973 3.973 0 0 0 2.863 4.833l13.404 3.443s1.268-.678 2.455-3.066c1.186-2.389-.29-4.482-.29-4.482"/><path fill="#c8c7cc" d="M81.617 163.75a117 117 0 0 1-8.734-2.24c2.847.606 5.948 1.4 8.734 2.24m-6.198-9.793a152 152 0 0 1 9.956 2.633 146 146 0 0 1-9.956-2.633"/><path fill="url(#t)" d="M102.242 129.247s-1.41 3.081-5.637 3.122-5.99-4.038-5.99-4.038.367.107 1.004.254c1.793.413 5.76 1.141 10.017.728.204-.02.403-.045.606-.066"/><path fill="#fff" d="M101.641 129.308a3.5 3.5 0 0 1-.565.443c-.392.23-3.305.494-4.91.275-1.608-.219-3.605-.723-3.854-.819-.174-.072-.5-.423-.683-.627 1.788.413 5.755 1.141 10.012.728"/><path fill="#221110" d="M253.221 150.148c26.477.387 26.304-11.551 24.919-16.872-.596-2.302-.983-4.655-1.085-7.033l-.54-12.447s-2.083-14.784-24.985-13.282c0 0-19.622-1.303-22.749 16.928l.413 13.338c0-.01-10.013 19.867 24.027 19.368"/><path fill="#e6e7e8" d="M239.766 196.094a.94.94 0 0 0-.698.326l-.433.514c-.468.561-1.094.51-1.782.632-1.793.321-5.327 1.798-4.95 5.108h14.285l-.84-5.51c-.097-.637-.601-1.1-1.197-1.1h-1.665z"/><path fill="#f1f2f2" d="M231.903 202.679h14.285l-.178-1.156h-14.072a4 4 0 0 0-.035 1.156"/><path fill="#f1f2f2" d="M237.663 197.449s3.427 1.008 3.397 5.23h-9.167s-.881-4.431 5.77-5.23"/><mask id="u" width="16" height="7" x="231" y="196" maskUnits="userSpaceOnUse" style="mask-type:luminance"><path fill="#fff" d="M239.766 196.094a.94.94 0 0 0-.698.326l-.433.514c-.468.561-1.094.51-1.782.632-1.793.321-5.327 1.798-4.95 5.108h14.285l-.84-5.51c-.097-.637-.601-1.1-1.197-1.1h-1.665z"/></mask><g fill="#d1d3d4" mask="url(#u)"><path d="m240.163 198.019-.101-.086a6.3 6.3 0 0 0-2.292-1.253l-.127-.036c-.194-.056-.275-.285-.174-.468.077-.138.235-.209.377-.163l.245.076a6.3 6.3 0 0 1 2.291 1.253l.194.168a.33.33 0 0 1 .066.407.308.308 0 0 1-.479.102"/><path d="m240.535 197.352-.097-.087a6 6 0 0 0-2.246-1.227l-.122-.036c-.188-.056-.27-.28-.168-.463a.335.335 0 0 1 .377-.168l.244.071a6.05 6.05 0 0 1 2.246 1.228l.194.163c.112.096.137.264.061.407-.107.188-.341.244-.489.112m-.748 1.324-.107-.086a7 7 0 0 0-2.409-1.319l-.133-.041a.334.334 0 0 1 .199-.637l.26.082a7 7 0 0 1 2.409 1.319l.208.173a.33.33 0 0 1 .077.412.333.333 0 0 1-.504.097"/></g><path fill="#665b6b" d="M248.739 196.644h9.493l-.657-21.893h-8.617zm-2.378.224h-9.304l.641-22.117h8.449z"/><path fill="#e6e7e8" d="M256.781 196.99c.769 1.238 1.013 2.328 1.161 3.667l.285 2.531h-10.73s.219-2.561 2.317-4.71l.392-1.437a2.24 2.24 0 0 1 2.159-1.65h2.012c.957-.005 2.037.718 2.404 1.599"/><path fill="#f1f2f2" d="M247.501 203.188h10.731l-.112-1.217H247.7c-.163.739-.199 1.217-.199 1.217"/><path fill="#f1f2f2" d="M258.232 203.188s-1.009-5.678-7.685-4.828a2.63 2.63 0 0 0-1.64.856c-.596.677-1.288 1.894-1.406 3.972z"/><path fill="#d1d3d4" d="m253.954 197.658-.132-.041a6.65 6.65 0 0 0-2.74-.224l-.138.015c-.208.026-.387-.153-.366-.377a.35.35 0 0 1 .295-.321l.27-.035a6.6 6.6 0 0 1 2.74.224l.26.076a.35.35 0 0 1 .239.367c-.02.224-.229.377-.428.316"/><path fill="#d1d3d4" d="m254.026 196.858-.133-.041a6.3 6.3 0 0 0-2.689-.219l-.132.016c-.204.025-.377-.153-.362-.377a.34.34 0 0 1 .29-.321l.265-.036a6.5 6.5 0 0 1 2.689.219l.255.077a.35.35 0 0 1 .234.361c-.015.229-.219.382-.417.321m-.158 1.594-.138-.041a7.4 7.4 0 0 0-2.888-.239l-.147.02a.35.35 0 1 1-.082-.697l.285-.031a7.4 7.4 0 0 1 2.888.239l.275.077a.35.35 0 0 1 .255.366.353.353 0 0 1-.448.306"/><path fill="#5e769d" d="M258.232 203.188s-9.381-1.472-10.731 0z"/><path fill="#f1f2f2" d="M239.328 149.944c-.601 2.409-2.027 6.269-3.101 9.045-.021.045-.041.096-.062.142a3.55 3.55 0 0 1-4.598 1.864 3.557 3.557 0 0 1-2.042-4.395l3.447-10.613s1.36-4.135 4.375-4.14c1.278 0 2.012.713 2.353 1.853.473 1.549.219 3.881-.372 6.244"/><path fill="#c8c7cc" d="M238.732 152.068a99 99 0 0 1-2.74 7.501c.8-2.495 1.742-5.077 2.74-7.501"/><path fill="#f1f2f2" d="m251.892 140.461 4.023.464c5.897.871 5.974 3.061 5.974 3.061.321 5.82-.983 14.57-.82 17.427s.356 2.913.468 4.721c.387 5.963.637 14.432.683 15.217.046.784-.443.626-.713.876-.27.249-12.106 1.66-14.698.397-.983-.479-1.268-2.047-1.268-2.047s-.076 1.568-1.064 2.052c-1.385.677-3.173.54-4.655.397-1.09-.107-2.18-.005-3.244-.265-.713-.168-2.297-.397-2.241-1.354.046-.785.331-9.254.739-15.217.122-1.808.315-1.864.489-4.721.173-2.857-.673-12.248-.326-18.069 0 0 .02-1.253 5.199-2.659l3.316-.244c2.332-.295 5.8-.306 8.138-.036"/><path fill="#efb1ac" d="m241.895 146.201-1.452-6.341a2.122 2.122 0 0 1 1.966-2.811l6.208-.107a2.123 2.123 0 0 1 2.114 2.547l-1.299 6.36a2.12 2.12 0 0 1-2.007 1.696l-3.463.087a2.11 2.11 0 0 1-2.067-1.431"/><path fill="#f1f2f2" d="m240.382 140.502-1.141.209s2.201 10.99 6.015 16.281c0 0 6.218-5.709 6.218-16.541l-.27.082-.784 1.161a10.5 10.5 0 0 1-2.949 2.923l-2.205.713-.932-.581a10.6 10.6 0 0 1-3.29-3.228z"/><path fill="#c8c7cc" d="M245.505 145.605s.464-.285.866.041c.407.321 2.271 4.099 2.271 4.099s-.152-2.887-.524-4.115c-.367-1.227-1.971-1.298-2.322-.875-.352.422-.291.85-.291.85"/><path fill="#f1f2f2" d="m245.113 145.702.499-1.166s1.747-.27 3.087-1.768c1.339-1.497 1.431-2.139 1.431-2.139l.947-.188s.504.901.163 2.745c-.336 1.838-2.608 6.32-2.608 6.32s-1.685-3.382-1.858-3.748-.377-.708-.698-.678c-.321.031-.571.53-.571.53z"/><path fill="#c8c7cc" d="M245.022 145.315s-.443-.316-.622.147c-.646 1.666-1.955 3.132-1.955 3.132s.178-1.925.489-3.147c.31-1.227 1.655-1.298 1.945-.876s.143.744.143.744"/><path fill="#f1f2f2" d="m245.388 145.508-.356-1.151s-1.329-.254-2.455-1.752c-1.125-1.497-1.329-2.154-1.329-2.154l-.794-.188s-.423.901-.138 2.745c.285 1.843 2.129 5.597 2.129 5.597s1.472-2.664 1.619-3.025c.148-.367.316-.708.586-.678.27.036.377.418.377.418z"/><path fill="#c8c7cc" d="M245.271 145.972c-.198 3.279-.219 6.569-.163 9.854-.173-3.28-.152-6.58.163-9.854m.667 2.169a.443.443 0 1 0 0-.885.443.443 0 0 0 0 .885"/><path fill="#e6e7e8" d="M246.025 148.1a.443.443 0 1 0 0-.885.443.443 0 0 0 0 .885"/><path fill="#c8c7cc" d="M245.653 153.275a.443.443 0 1 0 0-.886.443.443 0 0 0 0 .886"/><path fill="#e6e7e8" d="M245.74 153.234a.443.443 0 1 0 0-.885.443.443 0 0 0 0 .885"/><path fill="#c8c7cc" d="M253.547 144.429v1.517l-2.883.316 2.658-.647zm-1.263 3.967.616.733-7.222 7.655z"/><path fill="#e6e7e8" d="M251.469 139.463s-4.415 10.512-6.147 17.738l7.517-8.495-1.879-2.424 2.847-.565-.199-4.609a.53.53 0 0 0-.25-.428z"/><path fill="#c8c7cc" d="M239.455 144.429v1.517l2.333.316-2.15-.647zm1.024 3.967-.499.733 4.879 7.262z"/><path fill="#e6e7e8" d="M241.141 139.463s2.775 10.512 4.181 17.738l-5.286-8.495 1.517-2.424-2.307-.565.158-4.553a.68.68 0 0 1 .245-.519z"/><path fill="#5dc3b1" d="M235.727 152.205a.067.067 0 0 1-.066-.066v-.621a.41.41 0 0 1 .413-.413.41.41 0 0 1 .412.413v.621c0 .036-.03.066-.066.066z"/><path fill="#fff" d="M236.074 151.171c.193 0 .346.158.346.347v.621h-.698v-.621a.35.35 0 0 1 .352-.347m0-.132a.48.48 0 0 0-.479.479v.621c0 .071.056.132.132.132h.698a.135.135 0 0 0 .132-.132v-.621a.485.485 0 0 0-.483-.479"/><path fill="#044d7c" d="M236.074 153.3a.41.41 0 0 1-.412-.412v-.622c0-.035.03-.066.066-.066h.698c.035 0 .066.031.066.066v.622a.42.42 0 0 1-.418.412"/><path fill="#fff" d="M236.42 152.266v.622a.347.347 0 0 1-.692 0v-.622zm0-.132h-.697a.135.135 0 0 0-.133.132v.622a.478.478 0 0 0 .958 0v-.622a.124.124 0 0 0-.128-.132"/><path fill="#5dc3b1" d="M236.858 153.3a.41.41 0 0 1-.412-.412v-.622c0-.035.03-.066.066-.066h.698c.035 0 .066.031.066.066v.622a.42.42 0 0 1-.418.412"/><path fill="#fff" d="M237.204 152.266v.622a.346.346 0 0 1-.692 0v-.622zm0-.132h-.697a.135.135 0 0 0-.133.132v.622a.478.478 0 0 0 .958 0v-.622c.005-.071-.056-.132-.128-.132"/><path fill="#044d7c" d="M236.507 152.205a.067.067 0 0 1-.067-.066v-.621c0-.23.184-.413.413-.413a.41.41 0 0 1 .412.413v.621c0 .036-.03.066-.066.066z"/><path fill="#fff" d="M236.858 151.171c.194 0 .346.158.346.347v.621h-.697v-.621c0-.194.158-.347.351-.347m0-.132a.48.48 0 0 0-.479.479v.621c0 .071.056.132.133.132h.698a.135.135 0 0 0 .132-.132v-.621a.49.49 0 0 0-.484-.479"/><path fill="#5dc3b1" d="M236.42 152.144h-.698v-.621a.347.347 0 0 1 .693 0v.621z"/><path fill="#044d7c" d="M235.722 152.266h.698v.622a.347.347 0 0 1-.692 0v-.622z"/><path fill="#5dc3b1" d="M236.507 152.266h.698v.622a.347.347 0 0 1-.693 0v-.622z"/><path fill="#044d7c" d="M237.205 152.144h-.698v-.621a.346.346 0 1 1 .692 0v.621z"/><path fill="#e46587" d="M236.466 152.623c-.015 0-.051-.01-.061-.021-.01-.005-.244-.178-.311-.371a.42.42 0 0 1 .031-.311.24.24 0 0 1 .153-.122h.02a.3.3 0 0 1 .173.051.24.24 0 0 1 .148-.056c.107.02.158.061.193.127a.4.4 0 0 1 .031.311c-.066.193-.301.366-.311.371-.02.005-.051.021-.066.021"/><path fill="#fff" d="M236.614 151.859q.016-.001.025.005c.122.03.173.214.133.346-.056.178-.286.341-.286.341-.005.006-.015.006-.02.006-.015 0-.025-.006-.025-.006s-.23-.163-.286-.341c-.045-.132.011-.316.133-.346.01 0 .02-.005.025-.005.056 0 .107.035.148.081.046-.046.097-.081.153-.081m0-.133a.3.3 0 0 0-.148.041.27.27 0 0 0-.148-.041q-.031-.001-.056.006a.3.3 0 0 0-.193.152.48.48 0 0 0-.036.362c.071.214.306.387.336.407a.2.2 0 0 0 .102.031q.055.002.102-.036c.025-.015.26-.193.331-.402a.45.45 0 0 0-.036-.362.28.28 0 0 0-.193-.152c-.026-.006-.041-.006-.061-.006"/><path fill="#5dc3b1" d="M237.454 152.521v-.061h.27v.061h-.107v.356h-.061v-.356zm.367-.061v.173h.158v-.173h.061v.417h-.061v-.183h-.158v.183h-.061v-.417zm.448 0 .132.417h-.066l-.036-.117h-.127c-.005.01-.005.021-.01.031s-.005.02-.01.03c-.005.011-.005.021-.01.031s-.005.02-.011.03h-.061l.128-.417h.071zm.01.234-.046-.153-.046.153zm.219-.234v.417h-.061v-.417zm.132 0v.356h.169v.061h-.23v-.417zm.372 0 .133.417h-.066l-.036-.117h-.127c-.006.01-.006.021-.011.031s-.005.02-.01.03c-.005.011-.005.021-.01.031s-.005.02-.01.03h-.061l.127-.417h.071zm.01.234-.045-.153-.046.153zm.367.183-.153-.31v.31h-.061v-.417h.066l.153.316v-.316h.061v.417zm.255-.417q.04.001.071.01c.021.005.041.02.051.036a.1.1 0 0 1 .031.061q.009.04.01.086a.5.5 0 0 1-.01.092.2.2 0 0 1-.031.071.1.1 0 0 1-.051.041.2.2 0 0 1-.076.015h-.122v-.417h.127zm.005.356h.015q.007.001.016-.005c.005 0 .01-.005.015-.005q.007-.001.015-.01l.015-.02.016-.026c.005-.01.005-.02.01-.036 0-.015.005-.03.005-.045q.001-.038-.005-.062-.006-.022-.021-.045c-.01-.016-.02-.021-.03-.031a.2.2 0 0 0-.051-.01h-.066v.295z"/><path fill="#044d7c" d="M237.459 151.752v-.107h.362v.107h-.133v.453h-.097v-.453zm.744-.107v.102h-.24v.122h.224v.097h-.224v.137h.24v.102h-.337v-.56zm.157 0v.458h.214v.107h-.315v-.56h.101zm.601 0v.102h-.239v.122h.224v.097h-.224v.137h.239v.102h-.336v-.56zm.153 0v.224h.189v-.224h.096v.56h-.096v-.239h-.189v.239h-.097v-.56zm.708 0v.102h-.239v.122h.224v.097h-.224v.137h.239v.102h-.336v-.56zm.189 0h.106l.169.56h-.107l-.036-.127h-.173l-.036.127h-.102zm-.011.346h.117l-.056-.203zm.428-.346v.458h.214v.107h-.316v-.56h.102z"/><path fill="#5dc3b1" d="M240.627 151.752v-.107h.361v.107h-.132v.453h-.097v-.453zm.504-.107v.224h.188v-.224h.097v.56h-.097v-.239h-.188v.239h-.097v-.56z"/><path fill="#f1f2f2" d="M239.333 176.457c-.876.473-5.164.168-5.133-.377.152-3.168.31-6.33.463-9.498.005-.087.01-.183.056-.245.051-.066.127-.071.199-.066l4.761.229c.082.005.179.011.235.092.071.097.071.26.066.402l-.443 9.025c-.005.122-.015.259-.082.346a.4.4 0 0 1-.122.092"/><path fill="#c8c7cc" d="M239.954 167.463a208 208 0 0 1-.412 8.362q.122-4.185.412-8.362m-5.49 8.851c1.594.372 3.26.448 4.869.143-1.584.417-3.305.336-4.869-.143"/><path fill="#f1f2f2" d="M253.022 176.482c1.217.469 7.211.127 7.181-.417l-.581-9.498c-.005-.087-.015-.184-.076-.24-.071-.066-.178-.066-.275-.066-2.22.087-4.436.178-6.656.265-.117.005-.245.015-.331.097-.102.096-.102.259-.092.402.183 3.005.372 6.014.555 9.019.005.122.021.26.112.346a.5.5 0 0 0 .163.092"/><path fill="#c8c7cc" d="M252.218 167.493q.36 4.178.514 8.363a183 183 0 0 1-.514-8.363m7.613 8.806c-2.22.514-4.563.606-6.809.183 2.266.275 4.563.189 6.809-.183m-7.216-9.773 6.656-.265s-3.331-.402-6.656.265m-13.282-.041-4.156-.198s2.307-.377 4.156.198m6.05-8.413c-.087 6.916-.392 13.842-.005 20.753-.504-6.901-.199-13.842.005-20.753m-10.058-8.805c.183 3.992.26 8.194.234 12.197a227 227 0 0 1-.234-12.197"/><path fill="url(#v)" d="M268.168 123.151s1.92-2.607 4.395-.942c1.08.728 1.604 2.419 1.518 3.611-.255 3.417-2.898 6.294-6.463 5.729z"/><path fill="url(#w)" d="M272.523 124.241a1.7 1.7 0 0 0-.326-.799c-.214-.275-.581-.55-1.187-.55-1.212-.006-1.915 1.446-1.65 2.077.265.632.718.937.657 1.773-.056.83-1.044 1.278-1.187 1.889-.142.611.571 1.569 1.762.998 1.156-.55 2.323-2.903 1.931-5.388"/><path fill="#c66" d="M272.507 124.241c-.417-1.818-2.765-1.461-3.025.245-.081.382.133.662.316.977.209.331.397.769.346 1.192-.015.448-.29.82-.565 1.095-.28.28-.611.509-.759.881.168-.744 1.105-1.181 1.054-1.981.021-.591-.402-1.034-.652-1.548-.28-.627.077-1.335.499-1.793.912-1.034 2.761-.509 2.786.932"/><path fill="url(#x)" d="M229.514 124.236s-1.767-2.404-4.043-.866c-.993.672-1.477 2.226-1.396 3.321.235 3.147 2.664 5.79 5.944 5.271z"/><path fill="url(#y)" d="M225.507 125.239c.04-.265.132-.524.3-.733.199-.25.535-.504 1.095-.504 1.115-.005 1.762 1.334 1.518 1.91-.245.58-.657.865-.606 1.629.05.764.957 1.177 1.094 1.737s-.524 1.441-1.624.916c-1.064-.504-2.139-2.668-1.777-4.955"/><path fill="#c66" d="M225.522 125.239c.01-1.319 1.736-1.813 2.566-.855.393.417.724 1.074.464 1.65-.229.473-.621.881-.601 1.426-.046.733.82 1.14.973 1.823-.138-.341-.443-.55-.698-.81-.896-.84-.484-1.675.046-2.567.066-.142.066-.28.041-.443-.245-1.568-2.409-1.899-2.791-.224"/><path fill="#fcd7cc" d="M247.217 100.061c-17.998.983-20.244 14.738-20.244 14.738l.494 15.833s-.239 10.756 20.381 11.041h-.148c20.611-.758 20.122-11.509 20.122-11.509l.127-15.843s-2.546-13.588-20.355-14.255z"/><path fill="url(#z)" d="M218.701 91.358h81.036v81.036h-81.036z" opacity=".5"/><path fill="url(#A)" d="M190.712 91.358h80.18v80.058h-80.18z" opacity=".5"/><path fill="#efb1ac" d="M267.964 116.821s-22.52 2.108-30.653-11.545zm-30.653-10.684-9.844 15.054s-.988-7.084 9.844-15.054"/><path fill="#3c1513" d="M238.345 117.178v-1.014a.17.17 0 0 0-.086-.153c-.642-.3-4.655-1.935-8.414 2.231-.081.086.016.234.113.173 1.324-.789 4.72-2.434 8.189-1.09.096.041.198-.035.198-.147m11.347.595v-1.064c0-.071.04-.132.112-.158.804-.316 5.831-2.027 10.531 2.338.102.091-.015.244-.142.183-1.655-.825-5.913-2.551-10.257-1.136-.117.036-.244-.045-.244-.163"/><path fill="url(#B)" d="M241.212 130.907s.78-.998 1.549-1.023c.769-.026 1.634.84 1.721 1.314.086.473-.739.896-1.655.932-.932.035-2.027-.352-1.615-1.223"/><path fill="#c66" d="M241.131 131.407s.397.651 1.604.611c1.105-.036 1.721-.586 1.721-.586s-.606.942-1.655.952c-.799.011-1.232-.193-1.67-.977"/><path fill="#fff3f0" d="M248.368 127.852c-.673-2.037.534-5.006 2.383-6.31 1.757-1.238 3.947-1.095 5.811-.143 3.132 1.599 4.481 6.687.514 8.139a7 7 0 0 1-.917.259c-.87.179-1.767.204-2.663.204-.795 0-1.599-.026-2.373-.183-.907-.184-1.834-.596-2.389-1.294a2.2 2.2 0 0 1-.366-.672"/><path fill="#090d0a" d="M250.746 121.542c1.757-1.238 3.947-1.095 5.811-.143 2.215 1.131 3.539 4.013 2.714 6.117 1.457-2.114.056-5.49-2.465-6.738-1.92-.952-4.176-1.095-5.984.143-1.619 1.11-2.76 3.422-2.633 5.347.118-1.777 1.151-3.733 2.557-4.726"/><path fill="#090d0a" d="M259.2 123.426c1.1-.636 1.736-1.456 1.736-1.456s-1.064.743-2.164.728m-.188-.102c.886-.55 1.4-1.248 1.4-1.248s-.855.642-1.742.627m1.095 2.2c.815-.183 1.391-.581 1.391-.581s-.82.26-1.488.016m-1.4-1.681c.886-.55 1.4-1.248 1.4-1.248s-.855.642-1.741.627m-.627.061c.886-.55 1.401-1.248 1.401-1.248s-.856.642-1.742.627"/><path fill="#fff3f0" d="M238.34 127.77c.555-1.976-.443-4.858-1.971-6.121-1.451-1.202-3.259-1.064-4.797-.138-2.587 1.554-3.703 6.489-.428 7.899q.368.16.759.25c.718.173 1.462.198 2.2.193.657 0 1.319-.025 1.961-.178.748-.178 1.517-.581 1.976-1.253.142-.209.239-.428.3-.652"/><path fill="#090d0a" d="M236.374 121.649c-1.451-1.202-3.259-1.064-4.797-.138-1.834 1.1-2.923 3.896-2.241 5.933-1.202-2.047-.046-5.327 2.037-6.539 1.584-.921 3.448-1.059 4.945.138 1.34 1.074 2.277 3.32 2.175 5.189-.102-1.726-.958-3.626-2.119-4.583"/><path fill="#090d0a" d="M229.387 123.472a6 6 0 0 1-1.436-1.411s.881.724 1.787.708m.158-.102c-.733-.529-1.156-1.212-1.156-1.212s.708.622 1.441.606m-.906 2.139c-.672-.178-1.151-.56-1.151-.56s.677.255 1.227.015m1.161-1.629c-.733-.53-1.156-1.212-1.156-1.212s.708.621 1.442.606m.514.056c-.733-.53-1.156-1.212-1.156-1.212s.708.621 1.441.606"/><path fill="#331a0e" d="M254.698 130.082c2.554 0 4.624-2.129 4.624-4.756s-2.07-4.757-4.624-4.757-4.625 2.13-4.625 4.757 2.071 4.756 4.625 4.756"/><path fill="url(#C)" d="M254.698 129.904c2.461 0 4.456-2.05 4.456-4.578s-1.995-4.578-4.456-4.578-4.457 2.049-4.457 4.578c0 2.528 1.996 4.578 4.457 4.578"/><path fill="#090d0a" d="M254.601 129.242c2.132 0 3.86-1.776 3.86-3.967s-1.728-3.967-3.86-3.967-3.86 1.776-3.86 3.967 1.728 3.967 3.86 3.967"/><path fill="#fff5f1" d="M256.796 124.755a1.156 1.156 0 1 0 0-2.312 1.156 1.156 0 0 0 0 2.312"/><path fill="#331a0e" d="M234.559 129.706c2.108-.061 3.759-2.123 3.688-4.606-.072-2.482-1.84-4.445-3.948-4.384-2.109.061-3.76 2.123-3.688 4.605s1.839 4.446 3.948 4.385"/><path fill="url(#D)" d="M234.306 120.87c2.032-.061 3.733 1.833 3.805 4.222.071 2.388-1.523 4.374-3.555 4.435s-3.733-1.833-3.804-4.222c-.072-2.388 1.522-4.379 3.554-4.435"/><path fill="#090d0a" d="M234.619 128.912c1.76-.051 3.138-1.772 3.078-3.844s-1.535-3.711-3.295-3.66-3.139 1.772-3.079 3.844 1.536 3.71 3.296 3.66"/><path fill="#fff5f1" d="M236.609 124.721c.526-.015.938-.515.921-1.117-.018-.601-.458-1.077-.984-1.061-.526.015-.938.515-.92 1.116s.457 1.078.983 1.062"/><path fill="#2d1714" d="M225.837 116.78s-.545 8.882 1.686 12.34v-12.009z"/><path fill="#2d1714" d="M235.921 96.985s-1.737-.458-4.278.407c-3.402 1.162-6.025 3.912-7.145 7.324-1.554 4.736-3.356 13.47 2.093 18.71 0 0 5.235-11.127 6.625-12.553 0 0 2.618-4.66 4.91-4.945.005-.005.168-4.568-2.205-8.943"/><path fill="#633e36" d="M229.427 104.93c.056-.189.275-.535.586-.948-.677.561-.927-.122-.657-1.089.194-.693 3.096-4.686 2.348-1.08-.036.173-.148.377-.29.591 1.456-1.411 3.06-2.241 2.342 1.049-.203.901-1.91 2.24-2.592 2.852-1.558 1.39-2.241.249-1.737-1.375" opacity=".5"/><path fill="#24110a" d="M228.047 110.216c-1.135 3.254-1.614 6.788-1.049 10.201.051.493.204.967.285 1.461-1.4-3.743-.993-8.097.764-11.662"/><path fill="#24110a" d="M227.823 107.669c-2.016 2.414-2.245 5.781-2.118 8.801.03.443.071.886.097 1.329-.082-.438-.148-.876-.224-1.319-.326-3.02-.062-6.585 2.245-8.811m4.594-9.034c-2.786.713-4.909 2.918-6.468 5.23-.529.795-.978 1.635-1.446 2.47.158-.453.341-.896.514-1.349 1.375-2.995 3.927-6 7.4-6.351"/><path fill="#2d1714" d="M276.066 115.202s-1.466 3.437-2.709 3.926c0 0-1.085 3.972-2.786 5.21l-1.39-8.245z"/><path fill="#2d1714" d="M271.779 116.281s1.278 8.882-3.978 12.34v-12.009z"/><path fill="#2d1714" d="M238.039 106.391c3.428 2.501 19.78 12.472 35.629 10.547 3.947-.479 4.95-6.595 2.999-10.058l-.168-.29s.347-.927-1.329-2.409c0 0 .178-1.431-1.232-2.933 0 0-5.118-16.674-30.18-12.534 0 0-8.158.693-10.73 8.5l3.871 7.833c.254.524.646.983 1.14 1.344"/><path fill="#633e36" d="M263.676 92.447a5.17 5.17 0 0 1 2.475 1.666c.087.107.168.224.189.356.076.469-.591.678-1.1.713-.637.046-1.279.097-1.915.143-.194.015-.423.05-.489.219s.076.346.224.468c.84.708 2.027.988 2.837 1.727.188.173.361.392.361.631-.005.27-.234.494-.484.627-.758.402-1.716.254-2.597.315s-1.894.57-1.818 1.38c.051.556.586.958 1.034 1.345s.876.952.641 1.462c-.208.453-.83.585-1.369.641a27.7 27.7 0 0 1-5.557.036c-.677-.061-2.154.224-2.673-.316-.688-.723.845-1.176 1.39-1.523.204-.127.418-.264.545-.458.188-.28.168-.637.219-.968.102-.707.53-1.364 1.161-1.777.677-.438 1.686-.769 1.67-1.543-.005-.362-.264-.687-.361-1.044-.153-.58.163-1.197.662-1.563.499-.367 1.146-.525 1.787-.601.393-.046.8-.072 1.146-.235.347-.163.632-.509.545-.865-.051-.21-.214-.403-.188-.612.041-.382.611-.458 1.023-.382q.328.06.642.158m-4.324 12.966c.545-.295 2.012-.203 2.633-.193 1.426.015 1.177.743.133 1.227-.673.306-6.046.769-2.766-1.034" opacity=".5"/><path fill="#24110a" d="M236.022 95.814c2.343-3.03 6.473-4.181 10.171-4.1.534.03 1.074.082 1.604.153-.535.086-1.059.127-1.584.193-3.626.474-7.278 1.462-10.191 3.754m38.038 12.441c-3.04-1.528-5.882-3.539-8.159-6.081 2.72 2.058 5.46 3.993 8.159 6.081m-1.09 5.719c-4.339-1.161-8.489-2.994-12.436-5.133-1.319-.734-2.546-1.503-3.927-2.078-4.726-2.103-10.048-2.939-15.166-2.124-.728.138-1.456.306-2.19.448.713-.213 1.432-.443 2.155-.626 5.897-1.36 12.232-.209 17.503 2.694 4.472 2.664 9.172 5.032 14.061 6.819M236.578 97.57c4.43-4.023 11.142-3.992 16.617-2.48.79.265 1.579.52 2.358.8-1.609-.382-3.208-.78-4.843-1.008-4.792-.662-10.129-.286-14.132 2.689"/><path fill="url(#E)" d="M240.708 134.009s.912 1.986 3.631 2.012c2.72.025 3.856-2.603 3.856-2.603s-.235.071-.647.163c-1.156.265-3.713.733-6.453.469q-.196-.017-.387-.041"/><path fill="#fff" d="M241.095 134.055c.122.112.255.224.367.285.255.148 2.129.321 3.162.178 1.034-.142 2.323-.463 2.486-.529.112-.046.321-.27.438-.403-1.156.265-3.713.734-6.453.469"/><path fill="#f1f2f2" d="M257.667 151.533c.779 2.628 2.521 6.809 3.819 9.808q.032.077.072.153c.922 1.895 3.147 2.694 5.026 1.778 1.808-.887 2.654-3.061 1.941-4.986l-4.283-11.525s-1.686-4.487-4.915-4.308c-1.37.076-2.113.911-2.419 2.195-.407 1.746-.005 4.308.759 6.885"/><path fill="#c8c7cc" d="M258.421 153.85a115 115 0 0 1 3.351 8.128 113 113 0 0 1-3.351-8.128"/><path fill="url(#F)" d="M231.042 168.405c-1.584-6.758-3.173-13.516-4.756-20.274-.082-.346.152-.677.478-.677h16.974c.224 0 .423.168.479.407 1.584 6.768 3.168 13.883 4.752 20.656.081.346-.163.683-.489.677l-16.969-.382a.51.51 0 0 1-.469-.407"/><path fill="#89a4cb" d="M248.301 168.527c-1.538-6.641-3.076-13.613-4.614-20.243-.056-.234-.244-.397-.463-.397h-16.475a.485.485 0 0 0-.443.331c-.005-.031-.015-.062-.02-.092-.082-.346.152-.677.478-.677h16.974c.224 0 .423.168.479.407 1.584 6.768 3.168 13.883 4.752 20.656.081.346-.163.682-.489.677l-.54-.01c.254-.061.428-.351.361-.652"/><path fill="#89a4cb" d="M228.46 149.651c.163-.186.105-.505-.131-.714s-.561-.227-.725-.041c-.163.185-.105.505.131.713.237.209.561.227.725.042"/><path fill="#9d8eab" d="M236.13 158.561h.626l.158.56c-.153-.081-.545-.305-.784-.56"/><path fill="#89a4cb" d="M235.773 158.561c.316.458 1.039.825 1.111.866q.06.03.122.045l.066.235c.138.504-.158.911-.657.911-.504 0-1.023-.407-1.161-.911l-.316-1.146z"/><path fill="#9d8eab" d="m237.133 159.121-.153-.56h.627c-.097.249-.362.473-.474.56"/><path fill="#89a4cb" d="M237.322 159.427c.061-.041.575-.413.636-.866h.841l.315 1.146c.138.504-.158.911-.657.911-.504 0-1.023-.407-1.161-.911l-.066-.235a1 1 0 0 0 .092-.045"/><path fill="#9d8eab" d="M236.766 157.787a.43.43 0 0 1 .326-.087c.285.051.504.336.54.591h-.723z"/><path fill="#89a4cb" d="M237.703 157.792a1.1 1.1 0 0 0-.641-.397c-.046-.011-.092-.011-.133-.011a.8.8 0 0 0-.26.051l-.076-.285c-.137-.504.158-.911.657-.911.504 0 1.024.407 1.161.911l.316 1.146h-.779a1.1 1.1 0 0 0-.245-.504m-2.5-1.553c.504 0 1.023.407 1.161.911l.076.285a.9.9 0 0 0-.29-.056 1 1 0 0 0-.127.011.52.52 0 0 0-.423.397.82.82 0 0 0 .036.504h-.779l-.316-1.146c-.138-.499.158-.906.662-.906"/><path fill="#9d8eab" d="M236.17 157.705c.026-.005.046-.005.072-.005.096 0 .203.036.3.092l.138.504h-.729c-.096-.255-.035-.54.219-.591"/><path fill="#89a4cb" d="M237.046 159.238c.067 0 .107-.025.118-.03.051-.036.494-.352.545-.729.025-.178-.051-.397-.194-.57a.8.8 0 0 0-.463-.29.49.49 0 0 0-.418.112.8.8 0 0 0-.387-.122q-.046.001-.092.01a.38.38 0 0 0-.305.29c-.046.173 0 .392.122.57.255.377.876.693.942.729q.07.03.132.03"/><path fill="#fcd7cc" d="M227.039 163.817a.91.91 0 0 0 1.248.3l2.108-1.283a.909.909 0 0 0-.947-1.549l-2.108 1.284a.915.915 0 0 0-.301 1.248"/><path fill="#fcd7cc" d="M227.401 165.441a.91.91 0 0 0 1.248.301l2.108-1.284a.907.907 0 0 0-.947-1.548l-2.109 1.283a.914.914 0 0 0-.3 1.248"/><path fill="#fcd7cc" d="M228.261 166.816a.91.91 0 0 0 1.248.301l2.109-1.284a.908.908 0 0 0-.948-1.548l-2.108 1.283a.915.915 0 0 0-.301 1.248"/><path fill="#fcd7cc" d="M228.959 168.115a.864.864 0 0 0 1.161.372l2.083-1.08a.863.863 0 0 0 .372-1.161.863.863 0 0 0-1.161-.372l-2.083 1.08a.86.86 0 0 0-.372 1.161"/><path fill="#c66" d="M229.81 162.91c-.678.469-1.381.901-2.109 1.283q1.016-.71 2.109-1.283m.86 1.375a20 20 0 0 1-2.108 1.283 23 23 0 0 1 2.108-1.283m.556 1.686q-.917.557-1.895.978a15 15 0 0 1 1.895-.978"/><path fill="#fcd7cc" d="M251.408 162.375c-.479-.636-1.406-.815-2.277-.631l-2.48.687c-.718.153-.891 1.014-.911 1.64-.061 1.925.127 2.378.896 3.117.535.514 1.202 1.049 1.966.626l1.629-.504c.841-.26 1.544-.871 1.844-1.68.071-.194.117-.387.127-.561.041-.758-.091-1.767-.794-2.694"/><path fill="#fcd7cc" d="M247.262 163.129c-.127-.428-.595-.703-1.049-.606l-2.195.423c-.453.091-.718.514-.59.942.127.428.596.703 1.049.606l2.195-.423c.453-.091.718-.514.59-.942"/><path fill="#fcd7cc" d="M247.028 164.749c-.122-.433-.565-.708-.988-.622l-1.853.382c-.423.087-.668.509-.545.937.122.433.565.708.988.622l1.853-.382c.428-.087.673-.505.545-.937"/><path fill="#fcd7cc" d="M247.639 165.976c-.152-.413-.606-.652-1.013-.535l-1.777.52c-.408.117-.612.55-.464.962.153.413.606.652 1.014.535l1.777-.52c.407-.117.616-.55.463-.962"/><path fill="#fcd7cc" d="M248.714 167.045c-.168-.382-.606-.58-.983-.443l-1.64.601c-.377.138-.545.56-.377.942s.606.581.983.443l1.64-.601c.372-.137.545-.56.377-.942m-.576-5.51 1.009 2.282c.244.575.942.84 1.589.6q.044-.014.081-.035c.779-.346 1.054-1.289.525-1.884l-1.62-1.813-2.098-1.549s-.83-.056-.647.836c.178.896 1.161 1.563 1.161 1.563"/><path fill="#fcd7cc" d="M252.07 165.67s.636-2.174-1.014-3.738z"/><path fill="#f1f2f2" d="m251.163 159.951 13.002-3.442a3.814 3.814 0 0 1 4.67 2.739 3.814 3.814 0 0 1-2.745 4.635l-12.854 3.3s-1.217-.647-2.353-2.944c-1.135-2.291.28-4.288.28-4.288"/><path fill="#c8c7cc" d="M256.821 166.266a109 109 0 0 1 8.373-2.149c-2.669.8-5.643 1.563-8.373 2.149m5.943-9.386c-3.05.922-6.437 1.823-9.543 2.526a146 146 0 0 1 9.543-2.526"/><path fill="#283576" fill-rule="evenodd" d="M278.956 203.647c0-.244.197-.442.441-.442h3.321a.441.441 0 0 1 0 .883h-3.321a.44.44 0 0 1-.441-.441m-201.285 0c0-.244.198-.442.442-.442h198.616a.441.441 0 0 1 0 .883H78.113a.44.44 0 0 1-.442-.441m-14.346 0c0-.244.198-.442.442-.442h11.051a.442.442 0 0 1 0 .883H63.767a.44.44 0 0 1-.442-.441" clip-rule="evenodd"/><defs><linearGradient id="a" x1="169.925" x2="169.925" y1="90.761" y2="47.961" gradientUnits="userSpaceOnUse"><stop stop-color="#0e868c"/><stop offset=".503" stop-color="#6bc7b9"/><stop offset="1" stop-color="#84cec3"/></linearGradient><linearGradient id="b" x1="139.509" x2="139.509" y1="86.647" y2="99.481" gradientUnits="userSpaceOnUse"><stop stop-color="#f48271"/><stop offset="1" stop-color="#f15f55"/></linearGradient><linearGradient id="c" x1="222.994" x2="222.994" y1="93.668" y2="53.852" gradientUnits="userSpaceOnUse"><stop stop-color="#0e868c"/><stop offset=".503" stop-color="#6bc7b9"/><stop offset="1" stop-color="#84cec3"/></linearGradient><linearGradient id="d" x1="222.994" x2="222.994" y1="85.822" y2="69.003" gradientUnits="userSpaceOnUse"><stop stop-color="#0e868c"/><stop offset=".503" stop-color="#6bc7b9"/><stop offset="1" stop-color="#84cec3"/></linearGradient><linearGradient id="e" x1="131.457" x2="131.457" y1="164.114" y2="192.247" gradientUnits="userSpaceOnUse"><stop stop-color="#f48271"/><stop offset="1" stop-color="#f15f55"/></linearGradient><linearGradient id="f" x1="200.068" x2="200.068" y1="107.85" y2="110.469" gradientUnits="userSpaceOnUse"><stop stop-color="#ffc418"/><stop offset=".462" stop-color="#f99b22"/><stop offset="1" stop-color="#f37225"/></linearGradient><linearGradient id="g" x1="200.068" x2="200.068" y1="118.559" y2="121.178" gradientUnits="userSpaceOnUse"><stop stop-color="#ffc418"/><stop offset=".462" stop-color="#f99b22"/><stop offset="1" stop-color="#f37225"/></linearGradient><linearGradient id="h" x1="200.068" x2="200.068" y1="129.267" y2="131.886" gradientUnits="userSpaceOnUse"><stop stop-color="#ffc418"/><stop offset=".462" stop-color="#f99b22"/><stop offset="1" stop-color="#f37225"/></linearGradient><linearGradient id="i" x1="200.068" x2="200.068" y1="139.975" y2="142.595" gradientUnits="userSpaceOnUse"><stop stop-color="#ffc418"/><stop offset=".462" stop-color="#f99b22"/><stop offset="1" stop-color="#f37225"/></linearGradient><linearGradient id="j" x1="200.068" x2="200.068" y1="151.405" y2="154.024" gradientUnits="userSpaceOnUse"><stop stop-color="#ffc418"/><stop offset=".462" stop-color="#f99b22"/><stop offset="1" stop-color="#f37225"/></linearGradient><linearGradient id="k" x1="200.068" x2="200.068" y1="173.522" y2="176.141" gradientUnits="userSpaceOnUse"><stop stop-color="#ffc418"/><stop offset=".462" stop-color="#f99b22"/><stop offset="1" stop-color="#f37225"/></linearGradient><linearGradient id="l" x1="200.068" x2="200.068" y1="162.082" y2="164.701" gradientUnits="userSpaceOnUse"><stop stop-color="#ffc418"/><stop offset=".462" stop-color="#f99b22"/><stop offset="1" stop-color="#f37225"/></linearGradient><linearGradient id="n" x1="88.224" x2="84.879" y1="115.724" y2="124.68" gradientUnits="userSpaceOnUse"><stop stop-color="#270a00"/><stop offset=".295" stop-color="#402217"/><stop offset=".394" stop-color="#583523"/><stop offset=".59" stop-color="#8d5932"/><stop offset=".682" stop-color="#a46836"/><stop offset=".691" stop-color="#a76b39"/><stop offset=".753" stop-color="#b87d4b"/><stop offset=".821" stop-color="#c48a59"/><stop offset=".897" stop-color="#cc9362"/><stop offset="1" stop-color="#cf9665"/></linearGradient><linearGradient id="o" x1="98.746" x2="98.681" y1="124.494" y2="126.731" gradientUnits="userSpaceOnUse"><stop stop-color="#fcd7cc" stop-opacity="0"/><stop offset=".221" stop-color="#fbc8bc" stop-opacity=".242"/><stop offset=".667" stop-color="#f7a196" stop-opacity=".731"/><stop offset=".913" stop-color="#f58b81"/></linearGradient><linearGradient id="r" x1="104.768" x2="107.495" y1="116.027" y2="124.857" gradientUnits="userSpaceOnUse"><stop stop-color="#270a00"/><stop offset=".295" stop-color="#402217"/><stop offset=".394" stop-color="#583523"/><stop offset=".59" stop-color="#8d5932"/><stop offset=".682" stop-color="#a46836"/><stop offset=".691" stop-color="#a76b39"/><stop offset=".753" stop-color="#b87d4b"/><stop offset=".821" stop-color="#c48a59"/><stop offset=".897" stop-color="#cc9362"/><stop offset="1" stop-color="#cf9665"/></linearGradient><linearGradient id="s" x1="100.223" x2="103.672" y1="165.446" y2="141.151" gradientUnits="userSpaceOnUse"><stop stop-color="#cae5f7"/><stop offset=".413" stop-color="#e8f2fb"/><stop offset="1" stop-color="#fff"/></linearGradient><linearGradient id="t" x1="96.524" x2="96.156" y1="127.505" y2="132.505" gradientUnits="userSpaceOnUse"><stop offset=".069" stop-color="#54211e"/><stop offset=".078" stop-color="#5a2321"/><stop offset=".101" stop-color="#682826"/><stop offset=".128" stop-color="#722c2a"/><stop offset=".16" stop-color="#782d2b"/><stop offset=".215" stop-color="#7a2e2c"/><stop offset=".409" stop-color="#7c2f2d"/><stop offset=".525" stop-color="#833432"/><stop offset=".619" stop-color="#8f3c3a"/><stop offset=".703" stop-color="#a04745"/><stop offset=".778" stop-color="#b75654"/><stop offset=".822" stop-color="#c8615f"/></linearGradient><linearGradient id="v" x1="290.768" x2="266.081" y1="135.871" y2="125.097" gradientUnits="userSpaceOnUse"><stop offset=".005" stop-color="#f58b81"/><stop offset=".256" stop-color="#fbcbc0"/><stop offset=".544" stop-color="#fcd7cc"/><stop offset=".78" stop-color="#fcd5cb"/><stop offset=".836" stop-color="#fbc5ba"/><stop offset=".95" stop-color="#f79d92"/><stop offset="1" stop-color="#f58b81"/></linearGradient><linearGradient id="w" x1="275.319" x2="268.939" y1="128.4" y2="125.68" gradientUnits="userSpaceOnUse"><stop stop-color="#fcd7cc" stop-opacity="0"/><stop offset=".221" stop-color="#fbc8bc" stop-opacity=".242"/><stop offset=".667" stop-color="#f7a196" stop-opacity=".731"/><stop offset=".913" stop-color="#f58b81"/></linearGradient><linearGradient id="x" x1="208.717" x2="231.436" y1="135.939" y2="126.024" gradientUnits="userSpaceOnUse"><stop offset=".005" stop-color="#f58b81"/><stop offset=".256" stop-color="#fbcbc0"/><stop offset=".544" stop-color="#fcd7cc"/><stop offset=".78" stop-color="#fcd5cb"/><stop offset=".836" stop-color="#fbc5ba"/><stop offset=".95" stop-color="#f79d92"/><stop offset="1" stop-color="#f58b81"/></linearGradient><linearGradient id="y" x1="222.934" x2="228.807" y1="129.064" y2="126.561" gradientUnits="userSpaceOnUse"><stop stop-color="#fcd7cc" stop-opacity="0"/><stop offset=".221" stop-color="#fbc8bc" stop-opacity=".242"/><stop offset=".667" stop-color="#f7a196" stop-opacity=".731"/><stop offset=".913" stop-color="#f58b81"/></linearGradient><linearGradient id="B" x1="242.804" x2="242.804" y1="130.176" y2="132.033" gradientUnits="userSpaceOnUse"><stop stop-color="#fcd7cc" stop-opacity="0"/><stop offset=".221" stop-color="#fbc8bc" stop-opacity=".242"/><stop offset=".667" stop-color="#f7a196" stop-opacity=".731"/><stop offset=".913" stop-color="#f58b81"/></linearGradient><linearGradient id="C" x1="253.454" x2="256.528" y1="121.673" y2="130.692" gradientUnits="userSpaceOnUse"><stop stop-color="#270a00"/><stop offset=".295" stop-color="#402217"/><stop offset=".394" stop-color="#583523"/><stop offset=".59" stop-color="#8d5932"/><stop offset=".682" stop-color="#a46836"/><stop offset=".691" stop-color="#a76b39"/><stop offset=".753" stop-color="#b87d4b"/><stop offset=".821" stop-color="#c48a59"/><stop offset=".897" stop-color="#cc9362"/><stop offset="1" stop-color="#cf9665"/></linearGradient><linearGradient id="D" x1="235.509" x2="232.948" y1="121.728" y2="130.258" gradientUnits="userSpaceOnUse"><stop stop-color="#270a00"/><stop offset=".295" stop-color="#402217"/><stop offset=".394" stop-color="#583523"/><stop offset=".59" stop-color="#8d5932"/><stop offset=".682" stop-color="#a46836"/><stop offset=".691" stop-color="#a76b39"/><stop offset=".753" stop-color="#b87d4b"/><stop offset=".821" stop-color="#c48a59"/><stop offset=".897" stop-color="#cc9362"/><stop offset="1" stop-color="#cf9665"/></linearGradient><linearGradient id="E" x1="244.346" x2="244.583" y1="132.934" y2="136.155" gradientUnits="userSpaceOnUse"><stop offset=".069" stop-color="#54211e"/><stop offset=".078" stop-color="#5a2321"/><stop offset=".101" stop-color="#682826"/><stop offset=".128" stop-color="#722c2a"/><stop offset=".16" stop-color="#782d2b"/><stop offset=".215" stop-color="#7a2e2c"/><stop offset=".409" stop-color="#7c2f2d"/><stop offset=".525" stop-color="#833432"/><stop offset=".619" stop-color="#8f3c3a"/><stop offset=".703" stop-color="#a04745"/><stop offset=".778" stop-color="#b75654"/><stop offset=".822" stop-color="#c8615f"/></linearGradient><linearGradient id="F" x1="238.986" x2="235.679" y1="167.892" y2="144.6" gradientUnits="userSpaceOnUse"><stop stop-color="#cae5f7"/><stop offset=".413" stop-color="#e8f2fb"/><stop offset="1" stop-color="#fff"/></linearGradient><pattern id="p" width="1" height="1" patternContentUnits="objectBoundingBox"><use xlink:href="#G" transform="scale(.00155 .00154)"/></pattern><pattern id="q" width="1" height="1" patternContentUnits="objectBoundingBox"><use xlink:href="#H" transform="scale(.00155)"/></pattern><pattern id="z" width="1" height="1" patternContentUnits="objectBoundingBox"><use xlink:href="#I" transform="scale(.0015 .00151)"/></pattern><pattern id="A" width="1" height="1" patternContentUnits="objectBoundingBox"><use xlink:href="#J" transform="scale(.00152 .00153)"/></pattern></defs></svg>