<svg xmlns="http://www.w3.org/2000/svg" xmlns:xlink="http://www.w3.org/1999/xlink" fill="none" viewBox="0 0 343 243"><path fill="#283576" fill-rule="evenodd" d="M93.92 201.075c0-.14.114-.254.254-.254h155.18a.255.255 0 1 1 0 .509H94.174a.255.255 0 0 1-.254-.255m-5.653 0c0-.14.114-.254.255-.254H92.3a.254.254 0 1 1 0 .509h-3.778a.255.255 0 0 1-.255-.255" clip-rule="evenodd"/><path fill="#daebf8" d="M222.741 173.842c30.061-30.06 30.061-78.799 0-108.86s-78.799-30.06-108.86 0c-30.06 30.061-30.06 78.8 0 108.86 30.061 30.061 78.799 30.061 108.86 0"/><path fill="#d9eaf8" d="M106.311 52.44a4.72 4.72 0 1 0-.001 9.44 4.72 4.72 0 0 0 .001-9.44m0 7.786a3.06 3.06 0 1 1-.001-6.12 3.06 3.06 0 0 1 .001 6.12"/><path fill="#d9eaf8" d="M107.446 51.283h-2.271l-.133 1.63h2.537zm0 11.709h-2.271l-.133-1.63h2.537zm3.809-9.192-1.609-1.605-1.248 1.054 1.798 1.798zm-8.28 8.28-1.61-1.61 1.06-1.242 1.792 1.793zm9.192-3.804v-2.277l-1.63-.132v2.541zm-11.713 0v-2.277l1.63-.132v2.541zm9.192 3.804 1.609-1.61-1.059-1.242-1.798 1.793zm-8.281-8.28 1.61-1.605 1.242 1.054-1.792 1.798zm126.513 126.813a5.106 5.106 0 0 0-4.252 5.846 5.106 5.106 0 0 0 5.846 4.253 5.107 5.107 0 0 0 4.253-5.847 5.12 5.12 0 0 0-5.847-4.252m1.309 8.326a3.32 3.32 0 0 1-3.794-2.76 3.32 3.32 0 0 1 2.76-3.794 3.32 3.32 0 0 1 3.794 2.76 3.316 3.316 0 0 1-2.76 3.794"/><path fill="#d9eaf8" d="m228.897 179.182-2.429.382.132 1.762 2.715-.428zm1.976 12.523-2.434.382-.418-1.717 2.72-.432zm2.521-10.471-1.991-1.451-1.151 1.344 2.22 1.615zm-7.461 10.252-1.991-1.452.921-1.507 2.226 1.614zm9.187-5.623-.382-2.434-1.762.132.428 2.72zm-12.523 1.976-.382-2.434 1.722-.418.427 2.715zm10.471 2.521 1.451-1.991-1.344-1.156-1.614 2.225zm-10.247-7.461 1.447-1.991 1.512.922-1.619 2.225zm22.128-22.326c-5.179.815-8.713 5.673-7.898 10.853s5.673 8.713 10.852 7.898 8.714-5.673 7.899-10.852-5.673-8.719-10.853-7.899m2.44 15.456a6.16 6.16 0 0 1-7.043-5.123 6.16 6.16 0 0 1 5.123-7.043 6.16 6.16 0 0 1 7.043 5.123 6.16 6.16 0 0 1-5.123 7.043"/><path fill="#d9eaf8" d="m246.849 157.915-4.517.707.244 3.28 5.042-.794zm3.662 23.253-4.518.713-.774-3.193 5.047-.795zm4.685-19.444-3.697-2.689-2.145 2.49 4.131 3.005zm-13.852 19.036-3.698-2.694 1.712-2.801 4.125 3.005zm17.06-10.44-.713-4.517-3.274.25.794 5.041zm-23.258 3.667-.708-4.517 3.193-.774.795 5.047zm19.449 4.685 2.689-3.697-2.49-2.144-3.005 4.13zm-19.037-13.852 2.689-3.697 2.806 1.711-3.004 4.125z"/><path fill="#daebf8" d="M106.311 181.647h-3.418v3.417h3.418zm6.406 5.78h-5.632v5.632h5.632zm144.877-82.451h-3.483v3.483h3.483zm6.713 5.026h-5.735v5.735h5.735z"/><path fill="#1f2b5b" d="M183.602 193.553h-26.196l3.788-27.139h18.619z"/><path fill="#1f2b5b" d="M200.958 200.81a6.11 6.11 0 0 0-5.322-6.06l-12.039-1.574h-26.192l-12.039 1.574a6.11 6.11 0 0 0-5.322 6.06z"/><path fill="#fff" d="m195.636 194.75-12.039-1.574-1.746-12.197-11.189.999-1.844 11.367-26.232 2.531c-.097.071-.194.127-.285.203h56.401a6.07 6.07 0 0 0-3.066-1.329" opacity=".05"/><path fill="#fff" d="M247.521 162.416c0 5.867-4.757 10.624-10.623 10.624H103.509c-5.866 0-10.623-4.757-10.623-10.624V79.838c0-5.867 4.757-10.623 10.623-10.623h133.389c5.866 0 10.623 4.756 10.623 10.623z"/><path fill="#4076bb" d="M237.198 173.671H103.81c-6.208 0-11.255-5.046-11.255-11.255V79.838c0-6.208 5.047-11.255 11.255-11.255h133.388c6.208 0 11.255 5.047 11.255 11.255v82.578c0 6.209-5.052 11.255-11.255 11.255M103.81 69.846c-5.51 0-9.992 4.482-9.992 9.992v82.578c0 5.511 4.481 9.992 9.992 9.992h133.388c5.51 0 9.992-4.481 9.992-9.992V79.838c0-5.51-4.482-9.992-9.992-9.992z"/><path fill="#4076bb" d="M247.822 162.416c0 5.867-4.757 10.624-10.624 10.624H103.81c-5.867 0-10.624-4.757-10.624-10.624v-7.471h154.636z"/><path fill="#84cec3" d="M170.504 158.755a5.261 5.261 0 1 0 0 10.522 5.261 5.261 0 0 0 0-10.522m0 9.36a4.106 4.106 0 1 1 .001-8.211 4.106 4.106 0 0 1-.001 8.211"/><path fill="url(#a)" d="M239.933 151.579H100.474V80.088a4.21 4.21 0 0 1 4.212-4.212h131.03a4.21 4.21 0 0 1 4.212 4.212v71.491z"/><path fill="#fff" d="M95.208 139.591c15.635-14.881 55.368-53.132 71.461-68.634H119.21c-8.612 6.238-15.991 15.446-24.002 21.287zm10.374 32.772h66.99l73.671-77.348v-13.68c0-5.729-4.645-10.378-10.379-10.378h-31.687L97.179 168.054c1.885 2.608 4.94 4.309 8.403 4.309m130.282 0c5.729 0 10.379-4.645 10.379-10.379V118.93a62240 62240 0 0 1-44.281 53.427h33.902z" opacity=".1"/><path fill="url(#b)" d="M204.055 137.691c2.144 0 2.775 1.579 2.775 1.579s.632-1.579 2.776-1.579c2.113 0 4.283 3.306-2.455 9.065a.494.494 0 0 1-.642 0c-6.742-5.765-4.568-9.07-2.454-9.065"/><path fill="#fff" d="M214.76 142.28h12.329a.524.524 0 1 0 0-1.049H214.76a.523.523 0 1 0 0 1.049m0 2.699h8.683a.523.523 0 1 0 0-1.049h-8.683a.524.524 0 1 0 0 1.049M151.304 83.27h-42.203c-.978 0-1.772.795-1.772 1.773v21.868c0 .978.794 1.772 1.772 1.772h42.203c.978 0 1.773-.794 1.773-1.772V85.043c0-.978-.795-1.772-1.773-1.772m1.299 1.773v1.849h-5.989v-3.148h4.685c.723 0 1.304.58 1.304 1.299m-25.397 12.472v-3.07h5.999v3.07zm5.999.474v3.071h-5.999V97.99zm-6.473-.474h-5.999v-3.07h5.999zm.474-3.54v-3.07h5.999v3.07zm6.473.474h5.999v3.071h-5.999zm0-.473v-3.071h5.999v3.07zm0-3.545v-3.07h5.999v3.07zm-.474 0h-5.999v-3.07h5.999zm-6.473 0h-5.999v-3.07h5.999zm0 .474v3.07h-5.999v-3.07zm-6.473 3.07h-5.999v-3.07h5.999zm0 .474v3.071h-5.999v-3.07zm0 3.54v3.071h-5.999V97.99zm.474 0h5.999v3.071h-5.999zm5.999 3.544v3.071h-5.999v-3.071zm.474 0h5.999v3.071h-5.999zm6.473 0h5.999v3.071h-5.999zm0-.473V97.99h5.999v3.071zm6.467-3.071h5.999v3.071h-5.999zm0-.474v-3.07h5.999v3.07zm0-3.54v-3.07h5.999v3.07zm0-3.544v-3.07h5.999v3.07zm0-3.54v-3.147h5.999v3.148zm-.473 0h-6v-3.147h6zm-6.468 0h-5.999v-3.147h5.999zm-6.473 0h-5.999v-3.147h5.999zm-6.473 0h-5.999v-3.147h5.999zm0 .47v3.07h-5.999v-3.07zm-6.467 3.07h-5.99v-3.07h5.99zm0 .474v3.07h-5.99v-3.07zm0 3.544v3.071h-5.99v-3.07zm0 3.54v3.071h-5.99V97.99zm0 3.544v3.071h-5.99v-3.071zm.473 0h5.999v3.071h-5.999zm5.994 3.54v3.137h-5.999v-3.137zm.474 0h5.999v3.137h-5.999zm6.473 0h5.999v3.137h-5.999zm6.473 0h5.999v3.137h-5.999zm6.467 0h5.999v3.137h-5.999zm0-.469v-3.071h5.999v3.071zm6.473-3.071h5.989v3.071h-5.989zm0-.473V97.99h5.989v3.071zm0-3.545v-3.07h5.989v3.07zm0-3.54v-3.07h5.989v3.07zm0-3.544v-3.07h5.989v3.07zm-37.518-6.687h4.685v3.148h-5.989v-1.849a1.31 1.31 0 0 1 1.304-1.299m-1.299 23.167v-1.838h5.99v3.137h-4.686a1.303 1.303 0 0 1-1.304-1.299m43.502 1.299h-4.685v-3.137h5.989v1.838a1.306 1.306 0 0 1-1.304 1.299" opacity=".7"/><path fill="url(#c)" d="m119.699 106.529-.474-.041c-.259-.056-.453-.305-.453-.595V90.951l-1.339 5.347-.443.056h-8.699c-.27 0-.494-.24-.494-.535s.219-.535.494-.535h8.373l2.098-8.392.504.01c.28.04.484.295.484.6v16.033l3.061-8.21.392-.046h6.203l1.645-3.121.443.07a.6.6 0 0 1 .412.587v4.384l1.615-1.894.264-.026h3.591l2.857-7.247.468.046c.265.056.449.306.449.596v9.865l2.663-3.23.27-.025h7.629c.27 0 .494.24.494.535s-.219.535-.494.535h-7.441l-3.356 4.069-.392-.112a.6.6 0 0 1-.361-.565v-8.82l-2.124 5.387-.387.046h-3.682l-2.307 2.7-.387-.118a.61.61 0 0 1-.352-.565V94.55l-.927 1.762-.346.036h-6.162z"/><path fill="#fff" d="M134.172 129.523h-20.875a1.85 1.85 0 0 1-1.843-1.844 1.85 1.85 0 0 1 1.843-1.843h20.875a1.85 1.85 0 0 1 1.844 1.843 1.85 1.85 0 0 1-1.844 1.844"/><path fill="#4076bb" fill-rule="evenodd" d="M115.091 127.166a.56.56 0 0 0-.712-.359l-.002.001a.56.56 0 0 0-.357.712v.002a.56.56 0 0 0 .712.357l.002-.001a.56.56 0 0 0 .357-.712m-.867-.825a1.053 1.053 0 0 1 1.334.67 1.053 1.053 0 0 1-.671 1.334 1.053 1.053 0 0 1-1.334-.67 1.053 1.053 0 0 1 .671-1.334" clip-rule="evenodd"/><path fill="#4076bb" fill-rule="evenodd" d="M114.264 127.81a.313.313 0 0 0-.443-.023l-.817.736a.313.313 0 0 0-.03.442.314.314 0 0 0 .447.028l.82-.739v-.001a.31.31 0 0 0 .023-.443" clip-rule="evenodd"/><path fill="#fff" d="M211.429 90.039a2.098 2.098 0 1 0 0-4.196 2.098 2.098 0 0 0 0 4.196m2.618 6.463h-5.195a1.314 1.314 0 0 1-1.314-1.314v-.774a3.912 3.912 0 0 1 7.822 0v.774c0 .723-.585 1.314-1.313 1.314m5.087-7.278h8.8c.286 0 .52-.234.52-.52a.52.52 0 0 0-.52-.519h-8.8a.52.52 0 0 0-.519.52c.005.285.234.52.519.52m0 2.673h5.185a.52.52 0 0 0 .519-.52.52.52 0 0 0-.519-.52h-5.185a.52.52 0 0 0-.519.52c0 .285.234.52.519.52" opacity=".7"/><mask id="d" width="94" height="108" x="121" y="44" maskUnits="userSpaceOnUse" style="mask-type:luminance"><path fill="#fff" d="M214.602 44.133h-92.769V151.58h92.769z"/></mask><g mask="url(#d)"><path fill="#fcd7cc" d="m201.738 123.366-.556 2.974c-.127.748-.835 1.253-1.604 1.146a1 1 0 0 1-.102-.021c-.947-.198-1.482-1.237-1.044-2.088l1.345-2.587 1.94-2.404s.902-.29.922.815c.015 1.116-.901 2.165-.901 2.165"/><path fill="#fcd7cc" d="M206.097 128.84c-.418.331-1.156.876-2.256 1.559-.713.448-1.971.646-2.791.448-.851-.204-1.156-.428-1.762-1.054-1.07-1.111-1.589-2.567-.983-4.044a1 1 0 0 1 .041-.081c.061-.113.173-.179.27-.255 1.115-.881 2.189-1.314 3.748-1.869.137-.051.265-.133.412-.138.199-.005.377.107.545.219a7.88 7.88 0 0 1 3.081 4.319.87.87 0 0 1-.305.896"/><path fill="#fcd7cc" d="M202.349 124.781a1.03 1.03 0 0 1 .371-1.4l2.119-1.233a1.01 1.01 0 0 1 1.385.377c.28.494.112 1.121-.372 1.401l-2.118 1.232a1.003 1.003 0 0 1-1.385-.377"/><path fill="#fcd7cc" d="M204.956 123.386c.372.479 1.074.53 1.502.102l1.976-1.9a.556.556 0 0 0-.005-.789c-.305-.295-.804-.56-1.441-.153-.479.311-1.38.973-1.793 1.243a1.04 1.04 0 0 0-.239 1.497"/><path fill="#fcd7cc" d="M203.882 125.55c-.331-.478-.219-1.115.259-1.431l2.073-1.365a1.075 1.075 0 0 1 1.462.296c.331.479.219 1.115-.26 1.431l-2.073 1.365c-.473.31-1.125.178-1.461-.296"/><path fill="#fcd7cc" d="M206.413 124.109c.427.459 1.156.464 1.563.005l1.859-2.032a.55.55 0 0 0-.076-.789c-.342-.28-.881-.514-1.503-.061-.463.341-1.324 1.064-1.726 1.365-.489.356-.54 1.059-.117 1.512"/><path fill="#fcd7cc" d="M204.88 126.895c-.331-.479-.219-1.115.259-1.431l2.073-1.365a1.075 1.075 0 0 1 1.462.295c.331.479.219 1.116-.26 1.431l-2.073 1.365c-.473.316-1.13.184-1.461-.295"/><path fill="#fcd7cc" d="M207.406 125.459c.427.458 1.156.463 1.563.005l1.859-2.032a.55.55 0 0 0-.077-.79c-.341-.28-.881-.514-1.502-.061-.463.342-1.324 1.065-1.726 1.365-.484.357-.54 1.059-.117 1.513m-3.718 3.712c-.331-.478-.219-1.115.26-1.431l2.072-1.365a1.075 1.075 0 0 1 1.462.296c.331.479.219 1.115-.26 1.431l-2.072 1.365a1.07 1.07 0 0 1-1.462-.296"/><path fill="#fcd7cc" d="M206.397 127.603c.474.412 1.202.336 1.553-.158l1.63-2.215a.55.55 0 0 0-.163-.78c-.372-.239-.932-.417-1.497.097-.428.387-1.207 1.197-1.574 1.538a1.02 1.02 0 0 0 .051 1.518"/><path fill="#c66" d="M204.752 126.91c-1.421-.524-3.015-1.018-4.497-.438 1.386-.83 3.188-.326 4.497.438m3.173-2.358a6.2 6.2 0 0 1-1.467 1.528 6 6 0 0 1 1.467-1.528m1.324-1.971a8.7 8.7 0 0 1-2.037 1.518 8.8 8.8 0 0 1 2.037-1.518m-1.059-1.268a10.6 10.6 0 0 1-2.272 1.63 10.8 10.8 0 0 1 2.272-1.63"/><path fill="#c66" d="M207.747 123.748a12.5 12.5 0 0 1-2.511 1.655 12.2 12.2 0 0 1 2.511-1.655m-1.146-1.248a9.5 9.5 0 0 1-2.185 1.441 9 9 0 0 1 2.185-1.441m-.025 3.448a7.3 7.3 0 0 1-1.941 1.278 7.5 7.5 0 0 1 1.941-1.278"/><path fill="#fcd7cc" d="M200.846 130.806s-1.787-.341-2.49-2.363z"/><path fill="#c66" d="M205.144 126.335c-.545-.795-.972-1.635-1.482-2.455.703.667 1.156 1.553 1.482 2.455"/><path fill="#f1f2f2" d="m203.031 131.87-11.194 9.34a4.127 4.127 0 0 1-5.841-.555 4.13 4.13 0 0 1 .57-5.81l11.112-9.137s1.493.082 3.662 1.813c2.17 1.737 1.691 4.349 1.691 4.349"/><path fill="#fcd7cc" d="m137.406 123.366.555 2.974c.128.748.836 1.253 1.605 1.146a1 1 0 0 0 .101-.021c.948-.198 1.482-1.237 1.044-2.088l-1.344-2.587-1.94-2.404s-.902-.29-.922.815c-.015 1.116.901 2.165.901 2.165"/><path fill="#fcd7cc" d="M133.047 128.84c.418.331 1.156.876 2.256 1.559.713.448 1.971.646 2.791.448.85-.204 1.156-.428 1.762-1.054 1.069-1.111 1.589-2.567.983-4.044a1 1 0 0 0-.041-.081c-.061-.113-.173-.179-.27-.255-1.115-.881-2.19-1.314-3.748-1.869-.138-.051-.265-.133-.413-.138-.198-.005-.376.107-.545.219a7.88 7.88 0 0 0-3.081 4.319.87.87 0 0 0 .306.896"/><path fill="#fcd7cc" d="M136.795 124.781a1.03 1.03 0 0 0-.372-1.4l-2.118-1.233a1.01 1.01 0 0 0-1.385.377 1.03 1.03 0 0 0 .371 1.401l2.119 1.232a1.004 1.004 0 0 0 1.385-.377"/><path fill="#fcd7cc" d="M134.188 123.386a1.003 1.003 0 0 1-1.503.102l-1.976-1.9a.556.556 0 0 1 .005-.789c.306-.295.805-.56 1.442-.153.478.311 1.38.973 1.792 1.243.489.331.606 1.023.24 1.497"/><path fill="#fcd7cc" d="M135.262 125.55c.331-.478.219-1.115-.259-1.431l-2.073-1.365a1.075 1.075 0 0 0-1.462.296c-.331.479-.219 1.115.26 1.431l2.073 1.365c.468.31 1.125.178 1.461-.296"/><path fill="#fcd7cc" d="M132.731 124.109c-.428.459-1.156.464-1.563.005l-1.859-2.032a.55.55 0 0 1 .076-.789c.341-.28.881-.514 1.502-.061.464.341 1.325 1.064 1.727 1.365.489.356.54 1.059.117 1.512"/><path fill="#fcd7cc" d="M134.264 126.895c.331-.479.219-1.115-.26-1.431l-2.072-1.365a1.075 1.075 0 0 0-1.462.295c-.331.479-.219 1.116.26 1.431l2.072 1.365c.474.316 1.126.184 1.462-.295"/><path fill="#fcd7cc" d="M131.733 125.459c-.428.458-1.156.463-1.563.005l-1.859-2.032a.55.55 0 0 1 .076-.79c.341-.28.881-.514 1.502-.061.464.342 1.325 1.065 1.727 1.365.489.357.54 1.059.117 1.513m3.723 3.712c.331-.478.219-1.115-.26-1.431l-2.073-1.365a1.074 1.074 0 0 0-1.461.296c-.331.479-.219 1.115.259 1.431l2.073 1.365c.474.315 1.126.183 1.462-.296"/><path fill="#fcd7cc" d="M132.746 127.603c-.473.412-1.201.336-1.553-.158l-1.629-2.215a.55.55 0 0 1 .162-.78c.372-.239.932-.417 1.498.097.428.387 1.207 1.197 1.573 1.538.438.413.413 1.115-.051 1.518"/><path fill="#c66" d="M134.391 126.91c1.304-.764 3.112-1.268 4.497-.438-1.482-.58-3.076-.091-4.497.438m-3.172-2.358a6.2 6.2 0 0 1 1.472 1.528 6.2 6.2 0 0 1-1.472-1.528m-1.324-1.971a8.8 8.8 0 0 1 2.037 1.518 8.6 8.6 0 0 1-2.037-1.518m1.054-1.268c.825.443 1.589.988 2.271 1.63a10.7 10.7 0 0 1-2.271-1.63"/><path fill="#c66" d="M131.397 123.748a12 12 0 0 1 2.511 1.655 12.5 12.5 0 0 1-2.511-1.655m1.146-1.248a9.3 9.3 0 0 1 2.184 1.441 9.5 9.5 0 0 1-2.184-1.441m.02 3.448q1.07.481 1.94 1.278a7.4 7.4 0 0 1-1.94-1.278"/><path fill="#fcd7cc" d="M138.297 130.806s1.788-.341 2.491-2.363z"/><path fill="#c66" d="M133.999 126.335c.326-.902.779-1.788 1.482-2.455-.509.82-.937 1.66-1.482 2.455"/><path fill="#f1f2f2" d="m136.113 131.87 11.194 9.34a4.127 4.127 0 0 0 5.841-.555 4.133 4.133 0 0 0-.571-5.81l-11.112-9.137s-1.492.082-3.661 1.813c-2.17 1.737-1.691 4.349-1.691 4.349"/><path fill="#221110" d="M169.052 125.275c-41.24.632-29.109-24.47-29.109-24.47l.891-21.44s2.521-18.665 30.271-16.776c0 0 23.773-1.65 27.556 21.374l-.499 16.842c.006.005 12.136 25.102-29.11 24.47"/><path fill="#f1f2f2" d="M181.041 127.822c.616 2.923 2.164 7.618 3.335 11 .021.056.041.117.066.173a4.28 4.28 0 0 0 5.445 2.44 4.28 4.28 0 0 0 2.643-5.19l-3.687-12.9s-1.457-5.026-5.078-5.164c-1.538-.056-2.444.769-2.908 2.124-.631 1.838-.422 4.65.184 7.517m-24.313 0c-.616 2.923-2.164 7.618-3.336 11-.02.056-.04.117-.066.173a4.277 4.277 0 0 1-5.444 2.44 4.28 4.28 0 0 1-2.643-5.19l3.687-12.9s1.457-5.026 5.077-5.164c1.538-.056 2.445.769 2.908 2.124.627 1.838.423 4.65-.183 7.517"/><path fill="#c8c7cc" d="M169.154 123.9a.49.49 0 1 0 0-.978.49.49 0 0 0 0 .978"/><path fill="url(#e)" d="M169.058 123.855a.488.488 0 1 0 0-.976.488.488 0 0 0 0 .976"/><path fill="#f1f2f2" d="m164.326 115.019-5.118.621c-7.267 2.348-7.058 4.319-7.058 4.319-.428 7.649.672 18.868.458 22.627-.214 3.758-.458 3.829-.611 6.202-.504 7.838-.845 18.411-.901 19.439-.062 1.029.56.825.906 1.146.346.326 12.314 2.434 15.614.764 1.253-.631 1.345-2.409 1.345-2.409s.096 1.778 1.344 2.409c3.3 1.67 15.268-.443 15.614-.764.347-.326.968-.117.907-1.146s-.397-11.601-.901-19.439c-.153-2.378-.398-2.444-.612-6.202s.887-14.978.459-22.627c0 0-1.141-2.486-7.731-4.324l-4.777-.596a36.2 36.2 0 0 0-8.938-.02"/><path fill="#c8c7cc" d="M168.966 167.728a834 834 0 0 1-.138-30.469c.235 9.823.28 20.635.138 30.469"/><path fill="#efb1ac" d="m174.369 122.006 1.92-8.393a2.81 2.81 0 0 0-2.602-3.723l-8.22-.142a2.805 2.805 0 0 0-2.796 3.366l1.716 8.413a2.81 2.81 0 0 0 2.659 2.246l4.578.117a2.79 2.79 0 0 0 2.745-1.884"/><path fill="#f1f2f2" d="m176.885 113.827 1.533.275s-3.366 15.502-9.31 22.576c0 0-7.318-15.237-7.15-22.917l.362.112 1.054 1.528a14.1 14.1 0 0 0 3.967 3.84l2.19 1.41 2.032-1.232a14.05 14.05 0 0 0 4.426-4.248z"/><path fill="#c8c7cc" d="M169.149 120.534s-.555-.372-1.039.051c-.489.423-2.322 5.852-2.322 5.852s-.219-4.258.219-5.867c.443-1.61 2.368-1.706 2.786-1.151.417.555.356 1.115.356 1.115"/><path fill="#f1f2f2" d="m169.618 120.661-.601-1.533s-2.094-.356-3.708-2.322-1.716-2.811-1.716-2.811l-1.136-.25s-.601 1.187-.198 3.606c.407 2.419 3.361 8.816 3.361 8.816s1.792-4.961 2.001-5.439c.209-.479.448-.932.84-.887.388.046.688.698.688.698z"/><path fill="#c8c7cc" d="M170.152 120.407s.408-.224.902.198c.489.423 2.342 5.852 2.342 5.852s.224-4.258-.224-5.867-2.383-1.706-2.811-1.151-.209.968-.209.968"/><path fill="#f1f2f2" d="m169.618 120.661.514-1.512s1.92-.331 3.545-2.302c1.624-1.966 1.92-2.837 1.92-2.837l1.145-.249s.606 1.186.199 3.605-3.392 8.816-3.392 8.816-1.808-4.96-2.016-5.439c-.209-.479-.454-.932-.846-.886s-.54.55-.54.55z"/><path fill="#c8c7cc" d="M170.045 120.84a215 215 0 0 1-.346 13.327c-.025-4.303.097-9.034.346-13.327m-1.054 1.955a.58.58 0 1 0 0-1.161.58.58 0 0 0 0 1.161"/><path fill="#e6e7e8" d="M168.879 122.739a.58.58 0 1 0 0-1.161.58.58 0 0 0 0 1.161"/><path fill="#c8c7cc" d="M168.721 131.066a.58.58 0 1 0 0-1.162.58.58 0 0 0 0 1.162"/><path fill="#e6e7e8" d="M168.609 131.01a.58.58 0 1 0 0-1.162.58.58 0 0 0 0 1.162"/><path fill="#c8c7cc" d="M159.285 120.004v1.997l3.702.412-3.407-.85zm1.624 5.215-.789.968 8.347 9.702z"/><path fill="#e6e7e8" d="M161.958 113.481s4.925 13.699 7.15 23.197l-8.902-11.046 2.409-3.188-3.656-.744.254-6.06a.71.71 0 0 1 .321-.565z"/><path fill="#c8c7cc" d="M179.263 120.004v1.997l-3.702.412 3.412-.85zm-1.619 5.215.789.968-8.352 9.702z"/><path fill="#e6e7e8" d="M176.595 113.481s-4.925 13.699-7.15 23.197l8.902-11.046-2.409-3.188 3.656-.744-.254-5.989a.84.84 0 0 0-.387-.677z"/><path fill="#5dc3b1" d="M152.598 130.139a.097.097 0 0 1-.097-.097v-.713a.66.66 0 1 1 1.324 0v.713a.097.097 0 0 1-.097.097z"/><path fill="#fff" d="M153.163 128.764c.311 0 .565.255.565.565v.713h-1.13v-.713c0-.31.254-.565.565-.565m0-.194a.76.76 0 0 0-.759.759v.713c0 .107.087.194.194.194h1.13a.194.194 0 0 0 .194-.194v-.713a.76.76 0 0 0-.759-.759"/><path fill="#044d7c" d="M153.163 131.575a.66.66 0 0 1-.662-.662v-.713c0-.051.041-.097.097-.097h1.13c.051 0 .097.041.097.097v.713a.66.66 0 0 1-.662.662"/><path fill="#fff" d="M153.734 130.205v.713a.567.567 0 0 1-.566.565.567.567 0 0 1-.565-.565v-.713zm0-.193h-1.131a.193.193 0 0 0-.194.193v.713c0 .418.342.759.759.759a.76.76 0 0 0 .759-.759v-.713a.2.2 0 0 0-.193-.193"/><path fill="#5dc3b1" d="M154.436 131.575a.66.66 0 0 1-.662-.662v-.713c0-.051.041-.097.097-.097h1.131c.05 0 .096.041.096.097v.713a.66.66 0 0 1-.662.662"/><path fill="#fff" d="M155.002 130.205v.713a.567.567 0 0 1-.566.565.567.567 0 0 1-.565-.565v-.713zm0-.193h-1.131a.193.193 0 0 0-.194.193v.713c0 .418.342.759.759.759a.76.76 0 0 0 .759-.759v-.713a.19.19 0 0 0-.193-.193"/><path fill="#044d7c" d="M153.871 130.139a.097.097 0 0 1-.097-.097v-.713a.662.662 0 1 1 1.324 0v.713c0 .051-.04.097-.096.097z"/><path fill="#fff" d="M154.436 128.764c.311 0 .566.255.566.565v.713h-1.131v-.713c0-.31.255-.565.565-.565m0-.194a.76.76 0 0 0-.759.759v.713c0 .107.087.194.194.194h1.131a.193.193 0 0 0 .193-.194v-.713a.76.76 0 0 0-.759-.759"/><path fill="#5dc3b1" d="M153.728 130.042h-1.13v-.713c0-.31.255-.565.565-.565.311 0 .565.255.565.565z"/><path fill="#044d7c" d="M152.598 130.205h1.13v.713a.566.566 0 0 1-.565.565.567.567 0 0 1-.565-.565z"/><path fill="#5dc3b1" d="M153.871 130.205h1.131v.713a.567.567 0 0 1-.566.565.567.567 0 0 1-.565-.565z"/><path fill="#044d7c" d="M155.002 130.042h-1.131v-.713c0-.31.255-.565.565-.565.311 0 .566.255.566.565z"/><path fill="#e46587" d="M153.805 130.679a1 1 0 0 1-.087-.021c-.041-.025-.402-.239-.509-.494a.45.45 0 0 1 .025-.387.37.37 0 0 1 .265-.198l.061-.005c.082 0 .163.03.24.081a.4.4 0 0 1 .239-.081l.061.005c.112.02.204.091.265.198.066.117.076.27.025.387-.101.255-.463.469-.504.494a.2.2 0 0 1-.081.021"/><path fill="#fff" d="M154.044 129.67q.023-.001.046.005c.199.036.285.281.214.454-.097.234-.464.448-.464.448a.1.1 0 0 1-.035.01c-.021 0-.036-.01-.036-.01s-.372-.214-.463-.448c-.072-.173.015-.418.214-.454q.023-.006.045-.005c.092 0 .174.051.24.107a.35.35 0 0 1 .239-.107m0-.198a.46.46 0 0 0-.239.066.5.5 0 0 0-.24-.066c-.025 0-.056 0-.081.005a.46.46 0 0 0-.331.244.55.55 0 0 0-.031.474c.117.285.504.519.545.545.021.01.072.036.138.036a.3.3 0 0 0 .137-.041c.041-.026.428-.255.545-.54a.56.56 0 0 0-.03-.474.47.47 0 0 0-.331-.244c-.031 0-.056-.005-.082-.005"/><path fill="#5dc3b1" d="M155.409 130.541v-.081h.438v.081h-.173v.469h-.097v-.469zm.596-.081v.229h.259v-.229h.097v.55h-.097v-.24h-.259v.24h-.097v-.55zm.728 0 .214.55h-.112l-.056-.153h-.209l-.015.041-.015.04-.016.041-.015.041h-.102l.209-.55h.117zm.015.31-.071-.203-.071.203zm.357-.31v.55h-.097v-.55zm.214 0v.468h.275v.082h-.372v-.55zm.611 0 .214.55h-.112l-.056-.153h-.209l-.015.041-.016.04-.015.041-.015.041h-.102l.209-.55h.117zm.015.31-.071-.203-.071.203zm.596.24-.25-.408v.408h-.096v-.55h.112l.249.412v-.412h.097v.55zm.413-.55a.4.4 0 0 1 .117.015q.05.014.086.051a.2.2 0 0 1 .051.081.4.4 0 0 1 .005.24.2.2 0 0 1-.051.091.2.2 0 0 1-.086.056.3.3 0 0 1-.122.021h-.194v-.55h.194zm.005.468h.02c.01 0 .015 0 .025-.005a.1.1 0 0 0 .031-.01l.031-.015a.1.1 0 0 0 .025-.026.1.1 0 0 0 .02-.035l.016-.046q.006-.023.005-.061-.001-.045-.01-.082a.13.13 0 0 0-.031-.061.13.13 0 0 0-.051-.036.3.3 0 0 0-.081-.01h-.107v.387z"/><path fill="#044d7c" d="M155.414 129.528v-.143H156v.143h-.214v.596h-.163v-.596zm1.212-.138v.133h-.387v.163h.362v.132h-.362v.183h.387v.133h-.55v-.739h.55zm.26 0v.601h.351v.138h-.509v-.739zm.967 0v.133h-.387v.163h.362v.132h-.362v.183h.387v.133h-.55v-.739h.55zm.255 0v.296h.306v-.296h.158v.739h-.158v-.311h-.306v.311h-.158v-.739zm1.146 0v.133h-.387v.163h.361v.132h-.361v.183h.387v.133h-.55v-.739h.55zm.311 0h.173l.275.739h-.173l-.056-.163h-.275l-.057.163h-.168zm-.016.454h.194l-.092-.27zm.693-.454v.601h.351v.138h-.509v-.739z"/><path fill="#5dc3b1" d="M160.563 129.528v-.143h.585v.143h-.213v.596h-.163v-.596zm.825-.138v.296h.305v-.296h.158v.739h-.158v-.311h-.305v.311h-.158v-.739z"/><path fill="#f1f2f2" d="M177.659 160.807c1.604.611 9.483.163 9.437-.55l-.764-12.482c-.005-.112-.02-.239-.102-.316-.091-.091-.234-.091-.361-.086l-8.75.351c-.152.005-.326.02-.433.127-.132.128-.132.342-.122.525q.369 5.927.728 11.861c.011.163.026.341.148.453a.8.8 0 0 0 .219.117"/><path fill="#c8c7cc" d="M176.605 148.992q.48 5.486.677 10.995c-.321-3.661-.55-7.328-.677-10.995"/><path fill="#f1f2f2" d="M160.578 160.807c-1.604.611-9.483.163-9.437-.55l.764-12.482c.005-.112.021-.239.102-.316.092-.091.234-.091.362-.086l8.749.351c.153.005.326.02.433.127.132.128.132.342.122.525q-.368 5.927-.728 11.861c-.01.163-.026.341-.148.453a.8.8 0 0 1-.219.117"/><path fill="#c8c7cc" d="M161.632 148.992a214 214 0 0 1-.677 10.995c.132-3.672.362-7.338.677-10.995m-9.574-23.915c.311 5.245.504 11.025.54 16.286a322 322 0 0 1-.54-16.286m33.846 0a322 322 0 0 1-.54 16.286 311 311 0 0 1 .54-16.286"/><path fill="url(#f)" d="M143.426 93.4s-2.282-3.096-5.215-1.115c-1.283.866-1.905 2.872-1.803 4.283.301 4.059 3.438 7.471 7.67 6.799z"/><path fill="url(#g)" d="M138.252 94.689a2.1 2.1 0 0 1 .387-.948c.255-.326.693-.651 1.411-.651 1.436-.006 2.271 1.716 1.96 2.464-.31.749-.85 1.116-.784 2.104.071.988 1.238 1.517 1.411 2.24s-.678 1.859-2.093 1.187c-1.37-.652-2.756-3.443-2.292-6.396"/><path fill="#c66" d="M138.277 94.689c.031-1.717 2.221-2.328 3.316-1.105.504.544.921 1.385.596 2.133-.291.617-.805 1.136-.78 1.834-.061.947 1.055 1.466 1.253 2.347-.178-.438-.57-.713-.901-1.044-.331-.326-.657-.769-.672-1.298-.057-.504.157-1.029.402-1.421.214-.377.473-.708.377-1.161-.326-2.012-3.092-2.45-3.591-.285"/><path fill="url(#h)" d="M194.842 93.4s2.281-3.096 5.215-1.115c1.283.866 1.904 2.872 1.803 4.283-.301 4.059-3.438 7.471-7.67 6.799z"/><path fill="url(#i)" d="M200.016 94.689a2.1 2.1 0 0 0-.387-.948c-.255-.326-.693-.651-1.411-.651-1.436-.006-2.271 1.716-1.96 2.464.31.749.85 1.116.784 2.104-.071.988-1.238 1.517-1.411 2.24s.677 1.859 2.093 1.187c1.37-.652 2.755-3.443 2.292-6.396"/><path fill="#c66" d="M199.996 94.689c-.499-2.165-3.265-1.727-3.591.29-.096.453.163.779.377 1.161.601.856.545 2.027-.27 2.72-.331.33-.723.606-.901 1.043.198-.88 1.314-1.405 1.253-2.347.03-.703-.489-1.217-.78-1.834-.325-.743.087-1.588.596-2.133 1.095-1.228 3.28-.617 3.316 1.1"/><path fill="#fcd7cc" d="M169.052 62.503c23.228.998 26.335 18.705 26.335 18.705l-.403 20.432s.469 13.873-26.125 14.545h.188c-26.594-.672-26.125-14.545-26.125-14.545l-.403-20.432s3.081-17.565 26.044-18.695z"/><path fill="#efb1ac" d="M142.601 83.841s27.062 2.582 36.84-14.147zm38.251-14.147 14.428 19.418s1.446-9.136-14.428-19.418"/><path fill="#3c1513" d="M176.9 83.953v-1.309c0-.086.051-.163.128-.193.921-.387 6.681-2.5 12.069 2.877.118.117-.02.3-.163.224-1.899-1.013-6.773-3.142-11.748-1.4a.215.215 0 0 1-.286-.199m-15.736 0v-1.309a.21.21 0 0 0-.128-.193c-.921-.387-6.681-2.5-12.069 2.877-.117.117.02.3.163.224 1.899-1.013 6.773-3.142 11.749-1.4.137.046.285-.056.285-.199"/><path fill="#fff3f0" d="M162.376 97.953c.84-2.551-.672-6.27-2.984-7.899-2.195-1.548-4.94-1.37-7.273-.178-3.921 2.001-5.612 8.367-.647 10.19.372.138.759.245 1.151.321 1.09.224 2.216.255 3.331.25.998 0 2.001-.031 2.969-.229 1.131-.229 2.297-.749 2.994-1.62.214-.26.362-.545.459-.835"/><path fill="#331a0e" d="M156.458 100.744c3.198 0 5.791-2.666 5.791-5.954s-2.593-5.953-5.791-5.953-5.79 2.665-5.79 5.953 2.592 5.954 5.79 5.954"/><path fill="url(#j)" d="M156.458 100.525c3.08 0 5.577-2.568 5.577-5.735s-2.497-5.734-5.577-5.734-5.576 2.567-5.576 5.734 2.496 5.735 5.576 5.735"/><path fill="#090d0a" d="M156.575 99.7c2.669 0 4.833-2.225 4.833-4.97 0-2.746-2.164-4.971-4.833-4.971s-4.833 2.225-4.833 4.97c0 2.746 2.164 4.97 4.833 4.97"/><path fill="#fff5f1" d="M159.269 94.083a1.447 1.447 0 1 0 0-2.894 1.447 1.447 0 0 0 0 2.894"/><path fill="url(#k)" d="M170.937 102.007s-1.003-1.284-1.997-1.319c-.988-.036-2.108 1.085-2.22 1.696s.952 1.156 2.134 1.202c1.202.04 2.612-.459 2.083-1.579"/><path fill="#c66" d="M171.044 102.648s-.515.841-2.068.79c-1.426-.046-2.22-.754-2.22-.754s.779 1.212 2.133 1.227c1.034.016 1.584-.254 2.155-1.263"/><path fill="#090d0a" d="M159.397 90.06c-2.195-1.549-4.94-1.37-7.273-.179-2.775 1.416-4.43 5.027-3.396 7.654-1.824-2.643-.072-6.875 3.086-8.438 2.403-1.192 5.225-1.37 7.491.178 2.027 1.385 3.453 4.288 3.295 6.692-.148-2.22-1.441-4.67-3.203-5.908"/><path fill="#090d0a" d="M148.809 92.417c-1.375-.8-2.175-1.823-2.175-1.823s1.335.932 2.71.912m.239-.128c-1.11-.687-1.752-1.563-1.752-1.563s1.075.8 2.18.784m-1.37 2.755c-1.024-.229-1.742-.723-1.742-.723s1.024.326 1.859.02m1.757-2.108c-1.11-.687-1.752-1.563-1.752-1.563s1.074.8 2.18.784m.779.076c-1.11-.687-1.752-1.563-1.752-1.563s1.075.8 2.18.784"/><path fill="#fff3f0" d="M176.009 97.953c-.84-2.551.672-6.27 2.984-7.899 2.195-1.548 4.94-1.37 7.273-.178 3.921 2.001 5.612 8.367.646 10.19a7 7 0 0 1-1.15.321c-1.09.224-2.216.255-3.331.25-.998 0-2.002-.031-2.969-.229-1.131-.229-2.297-.749-2.995-1.62a2.6 2.6 0 0 1-.458-.835"/><path fill="#331a0e" d="M181.927 100.744c3.198 0 5.79-2.666 5.79-5.954s-2.592-5.953-5.79-5.953-5.791 2.665-5.791 5.953 2.593 5.954 5.791 5.954"/><path fill="url(#l)" d="M181.927 100.525c3.08 0 5.576-2.568 5.576-5.735s-2.496-5.734-5.576-5.734-5.577 2.567-5.577 5.734 2.497 5.735 5.577 5.735"/><path fill="#090d0a" d="M181.81 99.7c2.669 0 4.833-2.225 4.833-4.97 0-2.746-2.164-4.971-4.833-4.971s-4.833 2.225-4.833 4.97c0 2.746 2.164 4.97 4.833 4.97"/><path fill="#fff5f1" d="M184.784 94.083a1.446 1.446 0 1 0 0-2.892 1.446 1.446 0 0 0 0 2.892"/><path fill="#090d0a" d="M178.988 90.06c2.195-1.549 4.94-1.37 7.273-.179 2.775 1.416 4.43 5.027 3.396 7.654 1.824-2.643.072-6.875-3.086-8.438-2.404-1.192-5.225-1.37-7.491.178-2.027 1.385-3.453 4.288-3.295 6.692.148-2.22 1.441-4.67 3.203-5.908"/><path fill="#090d0a" d="M189.576 92.417c1.375-.8 2.175-1.823 2.175-1.823s-1.335.932-2.71.912m-.239-.128c1.11-.687 1.752-1.563 1.752-1.563s-1.075.8-2.18.784m1.37 2.755c1.024-.229 1.742-.723 1.742-.723s-1.024.326-1.859.02m-1.757-2.108c1.11-.687 1.752-1.563 1.752-1.563s-1.075.8-2.18.784m-.779.076c1.11-.687 1.752-1.563 1.752-1.563s-1.075.8-2.18.784"/><path fill="url(#m)" d="M109.3 64.868h82.013v82.013H109.3z" opacity=".5"/><path fill="url(#n)" d="M146.701 64.868h82.013v82.013h-82.013z" opacity=".5"/><path fill="#2d1714" d="M197.668 83.424s.795 11.458-2.47 15.914V83.846z"/><path fill="#2d1714" d="M182.889 57.884s7.191-4.788 14.988 2.577c0 0 16.185 18.649 0 30.917 0 0-8.994-13.74-11.031-15.583 0 0-3.835-6.015-7.191-6.382-.005.006-.244-5.887 3.234-11.53"/><path fill="#633e36" d="M191.19 69.45c-.076-.225-.366-.632-.784-1.111.906.657 1.237-.148.876-1.283-.26-.81-4.13-5.5-3.132-1.269.051.204.193.444.387.693-1.945-1.655-4.079-2.633-3.122 1.233.27 1.054 2.546 2.632 3.453 3.345 2.083 1.64 2.994.3 2.322-1.609" opacity=".5"/><path fill="#24110a" d="M194.429 74.954c2.536 4.497 3.163 10.247 1.116 15.05.127-.637.346-1.243.427-1.885.841-4.41.123-9.024-1.543-13.165"/><path fill="#24110a" d="M194.755 71.67c3.249 2.683 3.794 7.4 3.295 11.346-.107.576-.209 1.151-.326 1.721.036-.58.102-1.16.148-1.736.219-3.942-.255-8.362-3.117-11.331m-6.727-11.653c5.581.693 10.638 4.589 12.991 9.661q.236.506.464 1.019c-.423-.616-.759-1.278-1.197-1.874-2.893-4.258-7.277-7.461-12.258-8.806"/><path fill="#2d1714" d="M136.067 81.748s1.197 4.43 2.21 5.062c0 0 .886 5.123 2.277 6.722l1.135-10.633z"/><path fill="#2d1714" d="M139.566 83.138s-1.044 11.459 3.244 15.915V83.561z"/><path fill="#2d1714" d="M178.79 70.519c-4.141 3.417-22.576 17.376-41.893 12.38 0 0-4.049-4.288-.825-10.216 0 0-1.064-2.648.825-4.543 0 0-.204-2.266 1.385-4.18 0 0 6.941-17.26 34.055-15.997 0 0 9.203.881 12.105 10.847l-4.364 10.002a4.6 4.6 0 0 1-1.288 1.707"/><path fill="#633e36" d="M149.71 53.59a5.54 5.54 0 0 0-2.658 2.022c-.092.133-.183.275-.204.433-.081.565.637.82 1.187.866.687.061 1.375.117 2.062.178.209.015.454.066.525.265.071.204-.082.418-.24.565-.901.86-2.179 1.202-3.045 2.098-.204.21-.392.474-.387.77.005.33.25.6.525.763.814.49 1.843.311 2.79.387s2.037.693 1.956 1.681c-.056.672-.632 1.161-1.11 1.635-.479.473-.937 1.16-.688 1.772.224.55.891.708 1.472.78 1.976.238 3.977.254 5.969.045.728-.076 2.317.275 2.872-.382.743-.876-.907-1.431-1.497-1.849-.219-.157-.448-.32-.586-.56-.199-.341-.183-.774-.234-1.176a3.2 3.2 0 0 0-1.248-2.16c-.728-.534-1.813-.937-1.798-1.874.005-.443.286-.835.387-1.268.168-.708-.178-1.451-.713-1.9-.534-.447-1.232-.636-1.92-.733-.422-.056-.855-.086-1.232-.28-.377-.193-.677-.621-.586-1.054.051-.255.23-.489.204-.743-.046-.464-.657-.556-1.1-.469a5 5 0 0 0-.703.188m4.645 15.762c-.586-.356-2.16-.244-2.827-.234-1.533.02-1.263.907-.142 1.487.718.377 6.493.937 2.969-1.253" opacity=".5"/><path fill="#24110a" d="M181.066 57.018c-3.178-2.837-7.308-4.232-11.464-4.797-.601-.087-1.207-.133-1.823-.235 4.818-.738 10.466.84 13.287 5.032m-42.931 15.879c3.05-2.648 6.141-5.134 9.207-7.761-2.5 3.178-5.714 5.754-9.207 7.76m1.232 7.304c5.169-2.047 10.099-4.736 14.764-7.751 5.179-3.097 11.535-4.502 17.478-3.25 1.141.215 2.373.627 3.453 1.014-1.126-.255-2.358-.575-3.509-.693-5.067-.702-10.323.342-14.917 2.542-1.456.657-2.729 1.522-4.115 2.353-4.145 2.408-8.53 4.491-13.154 5.785m41.072-20.941c-5.123-4.35-12.456-4.416-18.685-2.893-.906.24-1.813.514-2.729.749.876-.352 1.767-.683 2.653-1.014 6.193-1.986 14.015-1.838 18.761 3.158"/><path fill="url(#o)" d="M175.495 105.602s-1.355 3.428-5.944 3.713c-4.588.285-6.732-4.039-6.732-4.039s.402.097 1.105.219c1.971.347 6.32.907 10.919.214z"/><path fill="#fff" d="M174.843 105.704c-.194.199-.413.402-.591.514-.412.27-3.56.729-5.317.581s-3.957-.575-4.237-.672c-.193-.066-.57-.428-.779-.642 1.976.352 6.325.912 10.924.219"/></g><path fill="#fff" d="M213.267 126.202a4.564 4.564 0 0 1-4.558-4.558V106.33a4.563 4.563 0 0 1 4.558-4.557h15.314a4.563 4.563 0 0 1 4.558 4.557v15.314a4.563 4.563 0 0 1-4.558 4.558z"/><path fill="#4076bb" d="M228.586 102.144a4.186 4.186 0 0 1 4.186 4.187v15.313a4.186 4.186 0 0 1-4.186 4.186h-15.314a4.186 4.186 0 0 1-4.186-4.186v-15.313a4.186 4.186 0 0 1 4.186-4.187zm0-.738h-15.314a4.93 4.93 0 0 0-4.924 4.925v15.313a4.93 4.93 0 0 0 4.924 4.925h15.314a4.93 4.93 0 0 0 4.925-4.925v-15.313c-.005-2.715-2.211-4.925-4.925-4.925"/><path fill="#4076bb" d="M225.418 110.919c-2.154 0-3.901 1.614-3.901 3.606 0 .947.392 1.802 1.034 2.444-.015.377-.061.835-.178 1.228-.092.31.219.59.514.453.433-.204.825-.52 1.1-.774.443.163.927.254 1.431.254 2.155 0 3.896-1.614 3.896-3.61.005-1.987-1.741-3.601-3.896-3.601"/><path fill="#d6e3f4" d="M217.046 109.233c-2.821 0-5.108 2.114-5.108 4.721s2.287 4.726 5.108 4.726c.662 0 1.299-.117 1.879-.331.362.331.876.744 1.441 1.014.387.183.795-.189.673-.596-.158-.52-.219-1.115-.235-1.609.841-.846 1.355-1.966 1.355-3.204 0-2.607-2.287-4.721-5.113-4.721"/><path fill="#4076bb" d="M219.343 113.689a.557.557 0 0 1 0 1.111.556.556 0 0 1 0-1.111m-2.852.561c0 .305.25.555.555.555s.555-.25.555-.555a.556.556 0 0 0-.555-.555.55.55 0 0 0-.555.555m-2.292 0c0 .305.25.555.555.555s.555-.25.555-.555a.556.556 0 0 0-.555-.555.546.546 0 0 0-.555.555"/><path fill="#fff" fill-rule="evenodd" d="M225.332 115.34v.478h-1.793q.029-.274.173-.519.146-.243.576-.647.345-.329.422-.443a.57.57 0 0 0 .107-.316q0-.174-.091-.265a.35.35 0 0 0-.255-.091.33.33 0 0 0-.255.096q-.091.1-.107.326l-.509-.051q.047-.426.285-.616a.96.96 0 0 1 .601-.188c.265 0 .469.071.622.214a.7.7 0 0 1 .224.54.9.9 0 0 1-.067.346 1.4 1.4 0 0 1-.203.346 3 3 0 0 1-.336.346 4 4 0 0 0-.306.301c-.046.051-.076.097-.107.143zm1.843-.515v-1.716h-.428l-1.156 1.721v.453h1.09v.545h.494v-.545h.331v-.453h-.331zm-.499 0h-.611l.611-.922z" clip-rule="evenodd"/><path fill="#fff" d="M232.248 92.606a5.83 5.83 0 0 1-5.826-5.826V66.938a5.83 5.83 0 0 1 5.826-5.826h19.841a5.83 5.83 0 0 1 5.826 5.826V86.78a5.83 5.83 0 0 1-5.826 5.826z"/><path fill="#4076bb" d="M252.089 61.515a5.425 5.425 0 0 1 5.424 5.423V86.78a5.425 5.425 0 0 1-5.424 5.423h-19.841a5.425 5.425 0 0 1-5.424-5.423V66.938a5.425 5.425 0 0 1 5.424-5.423zm0-.81h-19.841a6.234 6.234 0 0 0-6.228 6.228v19.841a6.234 6.234 0 0 0 6.228 6.229h19.841a6.234 6.234 0 0 0 6.228-6.228V66.933c.006-3.432-2.79-6.228-6.228-6.228"/><path fill="#4076bb" d="m246.192 70.01-.505-5.435a.624.624 0 0 0-.621-.565h-6.295c-.32 0-.59.245-.621.565l-.504 5.434 4.227.016z"/><path fill="#fff" d="M243.635 68.502h-3.422a.16.16 0 0 1-.163-.163.16.16 0 0 1 .163-.163h3.422a.16.16 0 0 1 .163.163.16.16 0 0 1-.163.163m0-2.974h-3.422a.16.16 0 0 1-.163-.163.16.16 0 0 1 .163-.163h3.422a.16.16 0 0 1 .163.163.164.164 0 0 1-.163.163"/><path fill="#4076bb" d="m237.656 83.785.504 5.434c.031.32.301.565.622.565h6.294a.626.626 0 0 0 .622-.565l.504-5.434-4.227-.015z"/><path fill="#fff" d="M240.208 85.293h3.422a.16.16 0 0 1 .163.162.16.16 0 0 1-.163.163h-3.422a.16.16 0 0 1-.163-.162c0-.092.076-.163.163-.163m0 2.979h3.422a.16.16 0 0 1 .163.163.16.16 0 0 1-.163.163h-3.422a.16.16 0 0 1-.163-.163c0-.092.076-.163.163-.163"/><path fill="#4076bb" d="M246.136 83.81h-8.48a1.99 1.99 0 0 1-1.991-1.99V72c0-1.1.891-1.99 1.991-1.99h8.48c1.1 0 1.991.89 1.991 1.99v9.82a1.99 1.99 0 0 1-1.991 1.99"/><path fill="#fff" d="M237.804 83.312a1.67 1.67 0 0 1-1.665-1.666V72.17a1.67 1.67 0 0 1 1.665-1.666h8.184a1.67 1.67 0 0 1 1.665 1.666v9.477c0 .917-.748 1.665-1.665 1.665z"/><path fill="url(#p)" d="M244.358 71.827h-4.93a.215.215 0 0 1-.213-.213c0-.118.096-.214.213-.214h4.93c.117 0 .214.096.214.213a.21.21 0 0 1-.214.214"/><path fill="#d6e3f4" d="M239.739 81.707c0-.117.092-.208.209-.208s.209.091.209.208a.207.207 0 0 1-.209.21.21.21 0 0 1-.209-.21m.774 0c0-.117.092-.208.209-.208s.209.091.209.208a.207.207 0 0 1-.209.21.21.21 0 0 1-.209-.21"/><path fill="#4076bb" d="M241.287 81.707c0-.117.092-.208.209-.208s.209.091.209.208a.207.207 0 0 1-.209.21.21.21 0 0 1-.209-.21"/><path fill="#d6e3f4" d="M242.061 81.707c0-.117.092-.208.209-.208s.209.091.209.208a.207.207 0 0 1-.209.21.21.21 0 0 1-.209-.21m.774 0c0-.117.092-.208.209-.208s.209.091.209.208a.207.207 0 0 1-.209.21.213.213 0 0 1-.209-.21m.835.148a.21.21 0 0 1 0-.295.21.21 0 0 1 .296 0 .21.21 0 0 1 0 .295.21.21 0 0 1-.296 0"/><path fill="#4076bb" d="M244.781 72.968c0-.163.092-.255.214-.255s.214.092.214.255-.092.26-.214.26-.214-.097-.214-.26m.311 0c0-.112-.041-.158-.097-.158s-.097.046-.097.158.041.158.097.158c.056.005.097-.046.097-.158m.57-.01c0 .173-.102.27-.255.27a.24.24 0 0 1-.137-.036l.041-.086c.025.02.061.025.091.025.082 0 .138-.05.138-.147a.17.17 0 0 1-.122.045c-.097 0-.174-.06-.174-.153 0-.101.082-.168.189-.168.142.005.229.092.229.25m-.127-.087c0-.04-.031-.07-.087-.07-.051 0-.081.025-.081.07s.035.077.086.077c.046 0 .082-.03.082-.077m.183.026c0-.04.031-.066.071-.066.036 0 .072.025.072.066a.07.07 0 0 1-.072.071.07.07 0 0 1-.071-.071m0 .254c0-.04.031-.066.071-.066.036 0 .072.026.072.067a.07.07 0 0 1-.072.07.07.07 0 0 1-.071-.07m.188-.184c0-.163.092-.255.214-.255.123 0 .214.092.214.255s-.091.26-.214.26c-.122 0-.214-.097-.214-.26m.311 0c0-.112-.041-.158-.097-.158s-.096.046-.096.158.04.158.096.158c.056.005.097-.046.097-.158m.179 0c0-.163.091-.255.213-.255.123 0 .214.092.214.255s-.091.26-.214.26c-.127 0-.213-.097-.213-.26m.305 0c0-.112-.041-.158-.097-.158s-.096.046-.096.158.04.158.096.158c.061.005.097-.046.097-.158m-3.443 3.58v.347h-1.629v-.275l.875-.836c.214-.203.255-.336.255-.458 0-.204-.137-.32-.412-.32-.214 0-.398.07-.52.228l-.29-.219c.173-.229.479-.366.84-.366.479 0 .79.244.79.636 0 .214-.062.413-.367.698l-.591.565zm2.037-.285c0 .413-.356.667-.906.667s-.902-.254-.902-.667c0-.244.128-.422.352-.53a.5.5 0 0 1-.275-.463c0-.382.331-.616.82-.616.494 0 .83.24.83.616a.5.5 0 0 1-.28.464c.229.107.361.285.361.53m-.412-.015c0-.22-.189-.357-.494-.357-.306 0-.489.138-.489.357 0 .224.183.356.489.356.3 0 .494-.132.494-.356m-.912-.958c0 .189.158.311.418.311.265 0 .422-.122.422-.31 0-.2-.173-.311-.422-.311-.255-.005-.418.112-.418.31m1.553-.245c0-.295.245-.514.581-.514s.581.219.581.514c0 .306-.24.52-.581.52-.336 0-.581-.22-.581-.52m.887 0c0-.173-.123-.29-.306-.29s-.306.117-.306.29c0 .178.123.295.306.295s.306-.117.306-.295"/><path fill="url(#q)" d="M241.43 77.837c0-.255.209-.464.463-.464.255 0 .464.21.464.464a.465.465 0 0 1-.464.463.465.465 0 0 1-.463-.463"/><path fill="url(#r)" d="M246.38 78.097h-3.381a.26.26 0 0 1-.26-.26.26.26 0 0 1 .26-.26h3.381a.26.26 0 0 1 .26.26.26.26 0 0 1-.26.26"/><path fill="url(#s)" d="M246.085 80.368h-8.378a.712.712 0 1 1 0-1.426h8.378a.712.712 0 1 1 0 1.426"/><path fill="#fff" d="M237.921 79.456h-.163v-.081h.423v.076h-.163v.418h-.092v-.413zm.693.199v.219h-.087v-.204c0-.066-.036-.102-.092-.102-.061 0-.106.041-.106.112v.194h-.087v-.525h.087v.194a.18.18 0 0 1 .127-.051c.092 0 .158.05.158.163m.483-.158v.382h-.086v-.051a.16.16 0 0 1-.122.056c-.097 0-.163-.056-.163-.168v-.219h.086v.204c0 .071.031.102.092.102s.102-.036.102-.112v-.194zm.474.213h-.295c.01.057.056.093.122.093a.14.14 0 0 0 .102-.041l.046.056a.2.2 0 0 1-.153.061c-.127 0-.209-.082-.209-.194s.082-.193.199-.193c.112 0 .193.076.193.194q-.006.016-.005.025m-.3-.055h.214c-.006-.056-.051-.092-.107-.092a.105.105 0 0 0-.107.092m.346.182.036-.066a.3.3 0 0 0 .132.036q.083-.002.081-.041c0-.071-.234-.005-.234-.158 0-.071.066-.117.168-.117.051 0 .107.01.143.03l-.036.067a.2.2 0 0 0-.107-.03q-.083 0-.081.04c0 .076.234.01.234.158 0 .071-.066.117-.173.117a.3.3 0 0 1-.163-.036m.784-.488v.524h-.087v-.051a.16.16 0 0 1-.127.056.184.184 0 0 1-.193-.194c0-.117.081-.193.193-.193a.15.15 0 0 1 .122.05v-.193zm-.087.336c0-.072-.05-.118-.112-.118-.066 0-.112.046-.112.118 0 .07.051.117.112.117s.112-.046.112-.117m.525-.031v.224h-.081v-.046c-.021.03-.061.051-.117.051-.087 0-.143-.046-.143-.112 0-.061.041-.112.158-.112h.097v-.005c0-.051-.031-.082-.097-.082a.2.2 0 0 0-.117.036l-.036-.066a.3.3 0 0 1 .163-.046c.107-.005.173.046.173.158m-.091.102v-.046h-.092c-.061 0-.076.02-.076.05s.025.052.071.052q.071.002.097-.056m.555-.26-.179.407c-.035.087-.081.112-.147.112a.17.17 0 0 1-.102-.035l.035-.066a.1.1 0 0 0 .067.025q.044.001.066-.05l.005-.016-.168-.382h.092l.117.28.122-.28h.092zm2.51.127c0-.163.092-.254.209-.254s.209.091.209.254-.092.255-.209.255c-.122.005-.209-.092-.209-.255m.321 0c0-.122-.046-.173-.117-.173-.066 0-.112.056-.112.173 0 .118.046.174.112.174.071.005.117-.051.117-.174m.545-.004c0 .167-.102.264-.244.264a.3.3 0 0 1-.133-.03l.036-.072a.2.2 0 0 0 .097.026c.091 0 .152-.056.152-.174q-.046.053-.132.052c-.097 0-.173-.062-.173-.153 0-.097.081-.163.183-.163.133 0 .214.086.214.25m-.112-.092c0-.046-.036-.082-.102-.082-.056 0-.097.03-.097.087s.041.086.097.086c.061-.005.102-.046.102-.091m.372.29c0-.036.025-.061.056-.061.03 0 .056.025.056.06 0 .037-.026.062-.056.062s-.056-.026-.056-.061m.372-.194c0-.163.091-.254.208-.254.118 0 .209.091.209.254s-.091.255-.209.255-.208-.092-.208-.255m.32 0c0-.122-.045-.173-.117-.173-.071 0-.117.056-.117.173 0 .118.046.174.117.174s.117-.051.117-.174m.158 0c0-.163.092-.254.209-.254s.209.091.209.254-.092.255-.209.255c-.117.005-.209-.092-.209-.255m.326 0c0-.122-.046-.173-.117-.173-.066 0-.112.056-.112.173 0 .118.046.174.112.174.071.005.117-.051.117-.174"/><path fill="url(#t)" d="M238.578 76.67a1.18 1.18 0 1 0 0-2.361 1.18 1.18 0 0 0 0 2.362"/><path fill="#4076bb" d="M239.953 76.289a1 1 0 0 0-.993-.922.99.99 0 0 0-.871.514.744.744 0 0 0-.866.733c0 .408.336.744.744.744h1.945a.54.54 0 0 0 .54-.54.545.545 0 0 0-.499-.53"/><path fill="#fff" fill-rule="evenodd" d="M238.055 75.813c.184-.305.519-.51.905-.51.541 0 .985.407 1.051.929.282.05.5.29.505.585v.001c0 .33-.268.604-.604.604h-1.945a.81.81 0 0 1-.808-.807.81.81 0 0 1 .896-.802m.905-.382a.93.93 0 0 0-.815.481l-.021.038-.043-.005a.68.68 0 0 0-.794.67c0 .372.308.679.68.679h1.945a.476.476 0 0 0 .476-.475.48.48 0 0 0-.441-.467l-.054-.005-.004-.053a.935.935 0 0 0-.929-.863" clip-rule="evenodd"/><path fill="#e4ecf7" d="M240.111 162.198h19.755a5.4 5.4 0 0 0 5.398-5.399v-19.754a5.4 5.4 0 0 0-5.398-5.399h-19.755a5.4 5.4 0 0 0-5.398 5.399v19.754a5.4 5.4 0 0 0 5.398 5.399"/><path fill="#4076bb" fill-rule="evenodd" d="M234.344 137.045a5.766 5.766 0 0 1 5.767-5.767h19.755a5.766 5.766 0 0 1 5.766 5.767v19.754a5.766 5.766 0 0 1-5.766 5.767h-19.755a5.77 5.77 0 0 1-5.767-5.767zm5.767-5.03a5.03 5.03 0 0 0-5.03 5.03v19.754a5.033 5.033 0 0 0 5.03 5.03h19.755a5.03 5.03 0 0 0 5.029-5.03v-19.754a5.03 5.03 0 0 0-5.029-5.03z" clip-rule="evenodd"/><path fill="#3554a5" d="m256.443 151.472-13.938-1.782a1.617 1.617 0 0 1-1.401-1.808l.942-7.369a1.62 1.62 0 0 1 1.808-1.401l13.939 1.783a1.616 1.616 0 0 1 1.4 1.808l-.942 7.369a1.617 1.617 0 0 1-1.808 1.4"/><path fill="#4076bb" d="m247.939 141.939-.382-.856a.69.69 0 0 0-.627-.407h-6.432a.687.687 0 0 0-.687.687v4.37h.01v8.235c0 .377.305.687.687.687h18.976a.687.687 0 0 0 .687-.687v-10.934a.69.69 0 0 0-.687-.688h-10.919a.67.67 0 0 1-.626-.407"/><path fill="#fff" d="M253.841 148.788a3.498 3.498 0 1 1-6.997.001 3.498 3.498 0 0 1 6.997-.001"/><path fill="url(#u)" d="M252.135 148.152h-1.151v-1.156h-1.278v1.156h-1.151v1.273h1.151v1.156h1.278v-1.156h1.151z"/><path fill="#fff" d="M114.179 163.191a4.564 4.564 0 0 1-4.558-4.558v-15.314a4.563 4.563 0 0 1 4.558-4.558h15.313a4.563 4.563 0 0 1 4.558 4.558v15.314a4.564 4.564 0 0 1-4.558 4.558z"/><path fill="#4076bb" d="M129.492 139.133a4.187 4.187 0 0 1 4.187 4.186v15.314a4.187 4.187 0 0 1-4.187 4.186h-15.313a4.186 4.186 0 0 1-4.187-4.186v-15.314a4.186 4.186 0 0 1 4.187-4.186zm0-.734h-15.313a4.93 4.93 0 0 0-4.925 4.925v15.314a4.93 4.93 0 0 0 4.925 4.924h15.313a4.93 4.93 0 0 0 4.925-4.924v-15.314c0-2.72-2.21-4.925-4.925-4.925"/><path fill="#4076bb" d="M114.265 153.947c.239-.132 1.014-.713 1.014-2.622 0-.525.061-1.05.183-1.559a.35.35 0 0 0-.255-.422.35.35 0 0 0-.422.254 7.2 7.2 0 0 0-.204 1.721c0 1.493-.525 1.931-.637 2.007a5 5 0 0 0-.478.194q.093.344.208.672a5 5 0 0 1 .535-.219q.024-.01.056-.026m3.932-1.696a.345.345 0 0 0-.311-.381.344.344 0 0 0-.382.31c-.321 3-2.282 3.718-2.358 3.743a2.7 2.7 0 0 0-.494.209c.133.194.27.387.423.57.091-.045.193-.081.295-.117.097-.035 2.46-.896 2.827-4.334m.356 3.463a.346.346 0 0 0-.102-.483.346.346 0 0 0-.483.102c-.963 1.466-2.251 1.894-2.302 1.914l-.092.031q.266.275.555.535c.499-.219 1.569-.805 2.424-2.099"/><path fill="#4076bb" d="M114.83 155.261c.321-.132 1.93-.932 1.93-3.936a5.2 5.2 0 0 1 3.672-4.986.35.35 0 0 0 .229-.438.347.347 0 0 0-.432-.229 5.895 5.895 0 0 0-4.161 5.653c0 2.571-1.294 3.208-1.487 3.289a4.4 4.4 0 0 0-.627.265c.097.214.199.418.316.622.173-.087.357-.168.545-.23 0-.005.01-.005.015-.01m5.872-.601a9.5 9.5 0 0 0 .398-1.67.345.345 0 0 0-.296-.392.346.346 0 0 0-.392.295 9 9 0 0 1-.367 1.543c-.794 2.338-2.393 3.438-3.264 3.881q.321.229.657.428c1.003-.596 2.49-1.813 3.264-4.085"/><path fill="#4076bb" d="M122.607 151.325a.347.347 0 1 0-.693 0c0 2.892-.891 5.215-2.648 6.9a8 8 0 0 1-1.125.897q.374.177.764.315c.264-.198.539-.422.814-.687 1.319-1.253 2.888-3.56 2.888-7.425m.204 4.675a.35.35 0 0 0-.459.178 9.5 9.5 0 0 1-2.638 3.509c.28.071.571.127.861.173a10.2 10.2 0 0 0 2.409-3.397.35.35 0 0 0-.173-.463m.3-6.921a.35.35 0 0 0 .459-.184.35.35 0 0 0-.184-.458 3.136 3.136 0 0 0-4.349 2.888 8.5 8.5 0 0 1-.311 2.352.35.35 0 0 0 .24.433c.03.01.066.016.097.016.152 0 .29-.102.336-.25a9.2 9.2 0 0 0 .336-2.546 2.44 2.44 0 0 1 2.434-2.435c.326-.01.647.056.942.184"/><path fill="#4076bb" d="M123.203 154.839a.34.34 0 0 0 .417-.255c.25-1.019.377-2.119.377-3.265 0-.957-.779-1.741-1.741-1.741-.958 0-1.742.779-1.742 1.741a.347.347 0 1 0 .693 0c0-.575.468-1.044 1.044-1.044.575 0 1.044.469 1.044 1.044 0 1.09-.123 2.134-.357 3.097a.36.36 0 0 0 .265.423"/><path fill="#4076bb" d="M124.975 149.934a.349.349 0 0 0-.626.306q.25.506.249 1.079c0 4.299-1.675 7.018-3.208 8.612.148.005.29.01.438.01.168 0 .341-.005.504-.015 1.492-1.736 2.959-4.492 2.959-8.607a3 3 0 0 0-.316-1.385m.54 6.264a.345.345 0 0 0-.443.214 12.4 12.4 0 0 1-1.849 3.422 8 8 0 0 0 1.019-.229 13.3 13.3 0 0 0 1.487-2.964.35.35 0 0 0-.214-.443"/><path fill="#4076bb" d="M126.07 153.851c.015 0 .031.005.046.005a.35.35 0 0 0 .346-.306c.092-.718.138-1.467.138-2.225a4.53 4.53 0 0 0-4.523-4.523 4.53 4.53 0 0 0-4.446 3.672.35.35 0 0 0 .275.408.35.35 0 0 0 .408-.275 3.83 3.83 0 0 1 3.758-3.107 3.835 3.835 0 0 1 3.83 3.83c0 .728-.046 1.446-.132 2.134a.35.35 0 0 0 .3.387"/><path fill="#4076bb" d="M126.457 147.459a5.9 5.9 0 0 0-3.565-1.981.35.35 0 0 0-.397.29.35.35 0 0 0 .29.398c2.516.392 4.416 2.607 4.416 5.159 0 3.396-.881 6.004-2.027 7.954a9 9 0 0 0 1.089-.55c.953-1.92 1.635-4.359 1.635-7.404a5.9 5.9 0 0 0-1.441-3.866"/><path fill="#4076bb" d="M127.455 147.76a.35.35 0 0 0 .296.158.32.32 0 0 0 .188-.056.34.34 0 0 0 .102-.479 7.29 7.29 0 0 0-6.152-3.366 7.34 7.34 0 0 0-5.969 3.091.345.345 0 0 0 .082.484.343.343 0 0 0 .483-.082 6.64 6.64 0 0 1 5.399-2.801 6.6 6.6 0 0 1 5.571 3.051"/><path fill="#4076bb" d="M122.021 142.626c-.061 0-.122-.005-.188-.005h-.021a8.662 8.662 0 0 0-8.509 10.17l.076-.03a.33.33 0 0 0 .178-.163c.107-.199.229-.581.229-1.279 0-4.415 3.591-8.005 8.006-8.005 4.416 0 8.006 3.59 8.006 8.005 0 1.544-.158 2.954-.433 4.238a8.6 8.6 0 0 0 1.125-4.258v-.02c.006-4.716-3.773-8.556-8.469-8.653"/><path fill="#4076bb" d="M128.851 150.973a.347.347 0 0 0-.347.346c0 2.669-.504 4.895-1.258 6.728.408-.326.79-.693 1.131-1.085.509-1.624.82-3.493.82-5.643a.35.35 0 0 0-.346-.346"/><path fill="#e4ecf7" d="M82.99 120.936h20.387a5.574 5.574 0 0 0 5.576-5.576V94.974a5.575 5.575 0 0 0-5.576-5.577H82.986a5.58 5.58 0 0 0-5.577 5.577v20.386c.01 3.081 2.506 5.576 5.582 5.576"/><path fill="#4076bb" fill-rule="evenodd" d="M77.04 94.974a5.947 5.947 0 0 1 5.946-5.945h20.391a5.943 5.943 0 0 1 5.945 5.945v20.386a5.943 5.943 0 0 1-5.945 5.945H82.991c-3.28 0-5.94-2.661-5.95-5.944zm5.946-5.208a5.21 5.21 0 0 0-5.208 5.208v20.385c.01 2.879 2.341 5.209 5.213 5.209h20.386a5.207 5.207 0 0 0 5.208-5.208V94.974a5.207 5.207 0 0 0-5.208-5.208z" clip-rule="evenodd"/><path fill="url(#v)" d="M93.044 101.299c-4.95-5.592-9.29-1.105-8.55 3.341.738 4.446 8.55 9.839 8.55 9.839s7.812-5.398 8.551-9.839c.743-4.441-3.596-8.933-8.551-3.341"/><path fill="#fff" d="M92.738 109.142a.36.36 0 0 1-.3-.163l-1.813-2.801-.596.922a.36.36 0 0 1-.3.162h-6.845a.354.354 0 0 1-.357-.356c0-.199.158-.357.357-.357h6.65l.795-1.222a.356.356 0 0 1 .6 0l1.814 2.801 2.333-3.6c.132-.204.468-.204.6 0l1.228 1.894h5.638c.198 0 .356.158.356.357a.354.354 0 0 1-.356.356H96.71a.36.36 0 0 1-.3-.163l-1.034-1.594-2.332 3.601a.37.37 0 0 1-.306.163m76.065 61.55c-6.982 0-12.66-5.673-12.66-12.645s5.678-12.645 12.66-12.645 12.661 5.673 12.661 12.645c0 6.977-5.679 12.645-12.661 12.645"/><path fill="#4076bb" d="M168.803 145.896c6.722 0 12.166 5.439 12.166 12.151s-5.449 12.151-12.166 12.151c-6.722 0-12.167-5.439-12.167-12.151 0-6.707 5.45-12.151 12.167-12.151m0-.983c-7.252 0-13.149 5.892-13.149 13.134s5.897 13.134 13.149 13.134 13.149-5.892 13.149-13.134-5.897-13.134-13.149-13.134"/><path fill="#4076bb" d="M170.865 162.564a2.03 2.03 0 0 1-2.037 2.032 2.033 2.033 0 1 1 0-4.064 2.03 2.03 0 0 1 2.037 2.032"/><path fill="#4076bb" d="M164.438 160.695a.493.493 0 0 1-.376-.815 6.24 6.24 0 0 1 4.771-2.21 6.25 6.25 0 0 1 4.767 2.205.493.493 0 0 1-.056.698.5.5 0 0 1-.703-.056 5.258 5.258 0 0 0-8.021.005.5.5 0 0 1-.382.173"/><path fill="#4076bb" d="M175.5 158.215a.5.5 0 0 1-.367-.158 8.63 8.63 0 0 0-6.305-2.745 8.54 8.54 0 0 0-6.254 2.689.496.496 0 0 1-.723-.682 9.5 9.5 0 0 1 6.972-3 9.65 9.65 0 0 1 7.038 3.061.5.5 0 0 1-.025.703.48.48 0 0 1-.336.132"/><path fill="#4076bb" d="M160.222 155.46a.5.5 0 0 1-.342-.856 12.86 12.86 0 0 1 8.948-3.595 12.9 12.9 0 0 1 8.902 3.549.494.494 0 0 1 .016.703.494.494 0 0 1-.703.016 11.88 11.88 0 0 0-8.215-3.275 11.88 11.88 0 0 0-8.26 3.32.5.5 0 0 1-.346.138"/><defs><linearGradient id="a" x1="170.203" x2="170.203" y1="158.289" y2="97.763" gradientUnits="userSpaceOnUse"><stop stop-color="#0e868c"/><stop offset=".503" stop-color="#6bc7b9"/><stop offset="1" stop-color="#84cec3"/></linearGradient><linearGradient id="b" x1="206.828" x2="206.828" y1="137.191" y2="145.055" gradientUnits="userSpaceOnUse"><stop stop-color="#f48271"/><stop offset="1" stop-color="#f15f55"/></linearGradient><linearGradient id="c" x1="107.804" x2="152.214" y1="96.709" y2="96.709" gradientUnits="userSpaceOnUse"><stop stop-color="#ffc418"/><stop offset=".462" stop-color="#f99b22"/><stop offset="1" stop-color="#f37225"/></linearGradient><linearGradient id="e" x1="169.058" x2="169.058" y1="121.657" y2="124.676" gradientUnits="userSpaceOnUse"><stop stop-color="#f3f3f3"/><stop offset=".403" stop-color="#f0f0f0"/><stop offset=".638" stop-color="#e8e7e9"/><stop offset=".829" stop-color="#dad9dc"/><stop offset=".997" stop-color="#c8c7cc"/><stop offset="1" stop-color="#c8c7cc"/></linearGradient><linearGradient id="f" x1="116.595" x2="145.903" y1="108.496" y2="95.705" gradientUnits="userSpaceOnUse"><stop offset=".005" stop-color="#f58b81"/><stop offset=".256" stop-color="#fbcbc0"/><stop offset=".544" stop-color="#fcd7cc"/><stop offset=".78" stop-color="#fcd5cb"/><stop offset=".836" stop-color="#fbc5ba"/><stop offset=".95" stop-color="#f79d92"/><stop offset="1" stop-color="#f58b81"/></linearGradient><linearGradient id="g" x1="134.936" x2="142.511" y1="99.626" y2="96.397" gradientUnits="userSpaceOnUse"><stop stop-color="#fcd7cc" stop-opacity="0"/><stop offset=".221" stop-color="#fbc8bc" stop-opacity=".242"/><stop offset=".667" stop-color="#f7a196" stop-opacity=".731"/><stop offset=".913" stop-color="#f58b81"/></linearGradient><linearGradient id="h" x1="221.673" x2="192.365" y1="108.496" y2="95.705" gradientUnits="userSpaceOnUse"><stop offset=".005" stop-color="#f58b81"/><stop offset=".256" stop-color="#fbcbc0"/><stop offset=".544" stop-color="#fcd7cc"/><stop offset=".78" stop-color="#fcd5cb"/><stop offset=".836" stop-color="#fbc5ba"/><stop offset=".95" stop-color="#f79d92"/><stop offset="1" stop-color="#f58b81"/></linearGradient><linearGradient id="i" x1="203.333" x2="195.757" y1="99.626" y2="96.397" gradientUnits="userSpaceOnUse"><stop stop-color="#fcd7cc" stop-opacity="0"/><stop offset=".221" stop-color="#fbc8bc" stop-opacity=".242"/><stop offset=".667" stop-color="#f7a196" stop-opacity=".731"/><stop offset=".913" stop-color="#f58b81"/></linearGradient><linearGradient id="j" x1="158.014" x2="154.166" y1="90.222" y2="101.511" gradientUnits="userSpaceOnUse"><stop stop-color="#270a00"/><stop offset=".295" stop-color="#402217"/><stop offset=".394" stop-color="#583523"/><stop offset=".59" stop-color="#8d5932"/><stop offset=".682" stop-color="#a46836"/><stop offset=".691" stop-color="#a76b39"/><stop offset=".753" stop-color="#b87d4b"/><stop offset=".821" stop-color="#c48a59"/><stop offset=".897" stop-color="#cc9362"/><stop offset="1" stop-color="#cf9665"/></linearGradient><linearGradient id="k" x1="168.884" x2="168.884" y1="101.061" y2="103.457" gradientUnits="userSpaceOnUse"><stop stop-color="#fcd7cc" stop-opacity="0"/><stop offset=".221" stop-color="#fbc8bc" stop-opacity=".242"/><stop offset=".667" stop-color="#f7a196" stop-opacity=".731"/><stop offset=".913" stop-color="#f58b81"/></linearGradient><linearGradient id="l" x1="180.371" x2="184.219" y1="90.222" y2="101.511" gradientUnits="userSpaceOnUse"><stop stop-color="#270a00"/><stop offset=".295" stop-color="#402217"/><stop offset=".394" stop-color="#583523"/><stop offset=".59" stop-color="#8d5932"/><stop offset=".682" stop-color="#a46836"/><stop offset=".691" stop-color="#a76b39"/><stop offset=".753" stop-color="#b87d4b"/><stop offset=".821" stop-color="#c48a59"/><stop offset=".897" stop-color="#cc9362"/><stop offset="1" stop-color="#cf9665"/></linearGradient><linearGradient id="o" x1="169.185" x2="169.073" y1="104.035" y2="109.484" gradientUnits="userSpaceOnUse"><stop offset=".069" stop-color="#54211e"/><stop offset=".078" stop-color="#5a2321"/><stop offset=".101" stop-color="#682826"/><stop offset=".128" stop-color="#722c2a"/><stop offset=".16" stop-color="#782d2b"/><stop offset=".215" stop-color="#7a2e2c"/><stop offset=".409" stop-color="#7c2f2d"/><stop offset=".525" stop-color="#833432"/><stop offset=".619" stop-color="#8f3c3a"/><stop offset=".703" stop-color="#a04745"/><stop offset=".778" stop-color="#b75654"/><stop offset=".822" stop-color="#c8615f"/></linearGradient><linearGradient id="p" x1="238.294" x2="250.783" y1="71.614" y2="71.614" gradientUnits="userSpaceOnUse"><stop stop-color="#0e868c"/><stop offset=".503" stop-color="#6bc7b9"/><stop offset="1" stop-color="#84cec3"/></linearGradient><linearGradient id="q" x1="238.294" x2="250.783" y1="77.834" y2="77.834" gradientUnits="userSpaceOnUse"><stop stop-color="#0e868c"/><stop offset=".503" stop-color="#6bc7b9"/><stop offset="1" stop-color="#84cec3"/></linearGradient><linearGradient id="r" x1="238.294" x2="250.783" y1="77.834" y2="77.834" gradientUnits="userSpaceOnUse"><stop stop-color="#0e868c"/><stop offset=".503" stop-color="#6bc7b9"/><stop offset="1" stop-color="#84cec3"/></linearGradient><linearGradient id="s" x1="238.294" x2="250.783" y1="79.651" y2="79.651" gradientUnits="userSpaceOnUse"><stop stop-color="#0e868c"/><stop offset=".503" stop-color="#6bc7b9"/><stop offset="1" stop-color="#84cec3"/></linearGradient><linearGradient id="t" x1="238.578" x2="238.578" y1="73.796" y2="76.085" gradientUnits="userSpaceOnUse"><stop stop-color="#ffc418"/><stop offset=".462" stop-color="#f99b22"/><stop offset="1" stop-color="#f37225"/></linearGradient><linearGradient id="u" x1="250.345" x2="250.345" y1="150.553" y2="145.633" gradientUnits="userSpaceOnUse"><stop stop-color="#0e868c"/><stop offset=".503" stop-color="#6bc7b9"/><stop offset="1" stop-color="#84cec3"/></linearGradient><linearGradient id="v" x1="93.046" x2="93.046" y1="99.983" y2="111.361" gradientUnits="userSpaceOnUse"><stop stop-color="#f48271"/><stop offset="1" stop-color="#f15f55"/></linearGradient><pattern id="m" width="1" height="1" patternContentUnits="objectBoundingBox"><use xlink:href="#w" transform="scale(.00149 .0015)"/></pattern><pattern id="n" width="1" height="1" patternContentUnits="objectBoundingBox"><use xlink:href="#x" transform="scale(.0015)"/></pattern></defs></svg>