<svg xmlns="http://www.w3.org/2000/svg" xmlns:xlink="http://www.w3.org/1999/xlink" fill="none" viewBox="0 0 343 243"><path fill="#283576" fill-rule="evenodd" d="M287.495 198.183c0-.247.2-.448.447-.448h3.824a.449.449 0 0 1 0 .895h-3.824a.447.447 0 0 1-.447-.447m-220.469 0c0-.247.2-.448.447-.448h217.388a.448.448 0 0 1 0 .895H67.473a.447.447 0 0 1-.447-.447m-16.546 0c0-.247.2-.448.447-.448H63.68a.448.448 0 0 1 0 .895H50.927a.447.447 0 0 1-.447-.447" clip-rule="evenodd"/><path fill="url(#a)" d="M127.206 86.55H82.609a4.982 4.982 0 0 1 0-9.96h44.597a4.981 4.981 0 0 1 0 9.96"/><path fill="#fff" d="M85.4 78.932a3.064 3.064 0 1 0-4.334 4.334 3.06 3.06 0 0 0 3.936.33l1.131 1.131a.51.51 0 0 0 .728 0 .51.51 0 0 0 0-.728l-1.13-1.13a3.065 3.065 0 0 0-.331-3.937m-.622 3.712a2.188 2.188 0 1 1-3.096-3.093 2.188 2.188 0 0 1 3.096 3.093m40.986 2.445H93.553c-2.114 0-3.825-1.579-3.825-3.52 0-1.945 1.712-3.518 3.825-3.518h32.211c2.114 0 3.825 1.578 3.825 3.519 0 1.945-1.711 3.519-3.825 3.519"/><path fill="#bed0eb" fill-rule="evenodd" d="M70.554 162.86c-.478-.907-4.013-.606-3.6.652.224.687 1.06.758 1.874.544.81-.213 1.6-.723 1.726-1.196m.016-.128c.962.357 3.391-2.225 2.25-2.887-.626-.362-1.298.137-1.756.845-.464.703-.713 1.604-.494 2.042m-1.431-1.971c-.311-.977-3.84-1.308-3.662 0 .097.719.906.938 1.747.871.835-.071 1.7-.427 1.915-.871m.04.062c.963.356 3.392-2.226 2.251-2.888-.626-.362-1.298.138-1.757.845-.463.698-.713 1.605-.494 2.043m-4.502-2.588c.097.719.907.938 1.747.871.835-.071 1.706-.427 1.915-.871-.31-.977-3.84-1.308-3.662 0m3.703.077c.962.356 3.392-2.226 2.25-2.888-.626-.361-1.298.138-1.756.846-.464.697-.713 1.604-.494 2.042m-.83-2.684c-.469-.912-4.003-.652-3.611.611.219.693 1.05.774 1.864.565.815-.208 1.61-.707 1.747-1.176m.03.005c.963.357 3.392-2.225 2.251-2.887-.626-.362-1.298.137-1.757.845-.463.698-.713 1.604-.494 2.042m-1.268-2.75c-.6-.83-4.059-.046-3.478 1.146.316.652 1.156.606 1.93.28.774-.331 1.487-.942 1.548-1.426m1.834-3.208c-.673-.265-1.263.336-1.61 1.1-.346.764-.458 1.696-.173 2.093 1.003.209 3.015-2.71 1.783-3.193m-3.586.789c-.728-.718-4.008.626-3.239 1.706.423.591 1.238.407 1.95-.041.709-.453 1.305-1.176 1.29-1.665m-2.577-1.558c-.85-.576-3.824 1.349-2.872 2.266.52.504 1.294.173 1.91-.397.616-.576 1.074-1.391.962-1.869m3.295-2.104c-.723-.035-1.09.718-1.176 1.554-.087.835.107 1.752.499 2.042 1.019-.122 2.002-3.529.677-3.596m-5.556 1.742c-.458-.917-3.998-.687-3.616.581.21.692 1.044.784 1.86.58.82-.198 1.619-.687 1.756-1.161m2.317.311c.77-.678-.351-4.044-1.477-3.346-.616.382-.493 1.207-.091 1.945.397.739 1.08 1.385 1.568 1.401" clip-rule="evenodd"/><path fill="#bed0eb" fill-rule="evenodd" d="M75.932 166.888s-3.065-1.278-5.321-3.733c-.963-1.049-1.778-2.317-2.15-3.784-.707-2.836-1.665-6.101-3.503-8.286a7.6 7.6 0 0 0-1.3-1.232c-1.058-.784-2.342-1.258-3.94-1.258-.031 0-.052-.02-.052-.051 0-.025.02-.051.051-.051 1.64-.056 2.98.382 4.09 1.156.504.352.962.774 1.375 1.248 1.9 2.19 2.887 5.505 3.636 8.383.361 1.405 1.15 2.612 2.083 3.61 2.205 2.379 5.2 3.611 5.2 3.611a.21.21 0 0 1 .112.275.217.217 0 0 1-.28.112" clip-rule="evenodd"/><path fill="#bed0eb" fill-rule="evenodd" d="M73.167 175.194c-.117-.132-.24-.265-.351-.402-.148-.178-.286-.362-.428-.545-.107-.138-.22-.275-.321-.418-.143-.193-.27-.392-.407-.59-.097-.143-.194-.281-.29-.428q-.198-.322-.388-.652c-.081-.143-.168-.28-.25-.423-.132-.239-.254-.489-.376-.733-.066-.133-.138-.26-.204-.397a24 24 0 0 1-.392-.892c-.04-.101-.087-.193-.132-.295a27 27 0 0 1-.469-1.253v-.02q.038-.796.107-1.569c0-.025.005-.056.005-.081q.069-.755.168-1.487l.015-.122q.1-.71.214-1.391l.026-.153q.116-.663.254-1.303c.006-.036.016-.072.02-.107a41 41 0 0 1 1.462-5.144c.026-.071.051-.137.072-.209a8 8 0 0 1 .127-.346c.025-.061.046-.127.071-.188q.06-.17.128-.331c.02-.056.046-.118.066-.174a6 6 0 0 1 .127-.315c.02-.051.04-.107.061-.158q.061-.154.123-.301.03-.075.06-.142.061-.147.123-.285c.015-.041.035-.082.05-.123q.061-.144.123-.275a1 1 0 0 0 .04-.096q.063-.137.118-.265c.01-.026.025-.051.035-.077q.063-.13.118-.254.014-.024.02-.046c.04-.087.082-.168.117-.245.005-.005.005-.01.01-.015.296-.606.484-.942.484-.942h.005c.387.168.759.351 1.126.54.066.03.127.066.193.097q.522.274 1.019.58c.066.041.127.082.193.122q.504.314.978.642.037.032.082.056c.305.214.6.438.89.662l.138.107c.29.229.576.469.85.703.057.046.113.097.164.142q.406.358.79.724c.035.03.065.066.101.096q.368.36.713.718l.076.077c.24.249.464.499.683.748.02.026.046.046.066.072a30 30 0 0 1 1.752 2.185l.025.035.03.041v.005c1.463 2.017 2.196 3.545 2.196 3.545l-1.971 17.564c-.183-.051-.362-.112-.54-.168l-.005.005c-.137-.04-.265-.091-.402-.132a19 19 0 0 1-.606-.204c-.224-.076-.443-.163-.662-.244-.194-.077-.387-.148-.58-.224a16 16 0 0 1-.638-.275c-.183-.082-.371-.163-.555-.25a34 34 0 0 1-.61-.3c-.179-.092-.352-.179-.525-.275a16 16 0 0 1-.58-.331q-.255-.144-.5-.296a13 13 0 0 1-.555-.366c-.158-.107-.316-.209-.469-.321-.178-.128-.356-.265-.53-.397-.147-.113-.3-.225-.442-.342-.173-.137-.336-.285-.505-.433-.137-.122-.28-.239-.412-.361q-.242-.23-.479-.469c-.127-.127-.26-.254-.382-.382-.163-.163-.31-.336-.458-.504" clip-rule="evenodd"/><path fill="#fff" fill-rule="evenodd" d="m73.783 152.124-.275-.122s-.066.112-.178.331a242 242 0 0 1 2.012 4.976l-3.616-1.319c-.056.152-.117.305-.173.468l4.028 1.472a225 225 0 0 1 2.633 7.104l-8.306-2.796q-.053.245-.097.489l8.612 2.898a138 138 0 0 1 2.042 6.346l-10.955-2.832c.077.193.153.382.235.575l10.883 2.812c.922 3.213 1.604 6.228 1.798 8.581q.254.085.509.163c-.168-2.373-.856-5.449-1.793-8.744.01-.011.016-.016.02-.026l4.06-5.469.112-.983-4.365 5.877a140 140 0 0 0-2.083-6.478l4.176-5.521c-.102-.137-.203-.27-.316-.412l-4.058 5.367a226 226 0 0 0-2.552-6.9.2.2 0 0 0 .061-.082l1.59-3.361q-.2-.155-.408-.3l-1.482 3.127a271 271 0 0 0-2.042-5.073z" clip-rule="evenodd"/><path fill="#d6e3f4" fill-rule="evenodd" d="M61.225 170.29s-.26-.321-.657-.866l-.031-.046-.117-.163-.056-.076-.138-.199c-.02-.025-.035-.056-.056-.081-.056-.077-.107-.158-.163-.239-.015-.026-.035-.051-.05-.077-.051-.076-.102-.148-.153-.229a.3.3 0 0 1-.041-.066l-.183-.28-.061-.092q-.093-.147-.184-.3l-.046-.077q-.084-.136-.168-.28-.024-.036-.04-.071c-.062-.107-.128-.219-.189-.331l-.056-.102c-.066-.112-.127-.229-.193-.346-.01-.026-.026-.046-.036-.072l-.168-.321-.046-.086-.183-.367a1 1 0 0 0-.051-.102c-.061-.127-.117-.254-.178-.382q-.013-.031-.026-.056l-.153-.351c-.015-.031-.025-.061-.04-.092l-.153-.387c-.01-.035-.026-.066-.036-.102q-.075-.198-.142-.397-.008-.024-.016-.041l-.122-.382-.03-.096-.107-.398q-.014-.046-.02-.091-.048-.192-.088-.382c-.005-.015-.005-.026-.01-.041-.025-.132-.045-.27-.066-.402l-.015-.097c-.015-.132-.03-.26-.04-.392 0-.026-.006-.056-.006-.082a4 4 0 0 1-.015-.361v-.056c0-.128.005-.26.01-.382 0-.031.005-.061.005-.092.01-.127.026-.249.04-.377q.01-.028.011-.066c.02-.112.04-.224.071-.336l.015-.061q.045-.184.113-.352l.03-.081a4 4 0 0 1 .173-.387c.051-.102.112-.204.173-.306.01-.02.026-.04.036-.061q.105-.16.224-.31c.02-.021.036-.046.056-.067.087-.101.173-.203.275-.3l.026-.026a5 5 0 0 1 .305-.264c.02-.021.046-.036.066-.056q.17-.132.362-.255c.026-.015.056-.036.081-.051a6 6 0 0 1 .423-.239s.005 0 .005-.005c.866-.438 1.67-.622 2.41-.601 5.189.137 7.368 10.098 7.373 10.104 1.177-1.503 2.435-2.226 3.59-2.236 2.96-.031 5.287 4.573 4.054 12.635q.151-.214.301-.413c.02-.03.046-.056.066-.081.077-.102.158-.199.234-.295.036-.041.067-.082.102-.118.067-.076.133-.157.199-.229.04-.041.076-.081.117-.127.061-.066.127-.133.189-.199q.059-.06.127-.122c.06-.056.122-.117.183-.173l.133-.117.178-.153.137-.107c.056-.046.117-.092.174-.132q.068-.053.137-.097c.056-.041.117-.077.173-.117q.068-.047.143-.087.084-.051.168-.097l.142-.076q.084-.045.168-.081l.143-.067q.084-.037.168-.066c.046-.02.097-.036.143-.056l.168-.056q.071-.024.142-.041c.056-.015.112-.025.174-.04l.137-.031c.061-.01.117-.02.178-.025.046-.006.087-.016.133-.021l.198-.015c.036 0 .072-.005.107-.005h.01c4.584-.127 8.689 7.868 8.307 19.678 0 .061-.005.127-.005.189l-.016.402q.001.045-.005.091a52 52 0 0 1-.346 4.008H67.02c-12.182-6.182-10.98-16.79-4.329-15.843l-.209-.193a43 43 0 0 1-.489-.449c-.101-.096-.198-.198-.3-.295-.117-.117-.24-.229-.351-.346a17 17 0 0 1-.296-.316q-.154-.16-.3-.321-.145-.16-.28-.321a15 15 0 0 1-.27-.31 14 14 0 0 1-.255-.321q-.123-.153-.24-.306l-.233-.316a8 8 0 0 1-.214-.295c-.072-.107-.143-.209-.21-.316q-.096-.144-.188-.29c-.066-.102-.122-.204-.183-.306-.056-.096-.112-.188-.168-.285-.015-.03-.036-.061-.05-.091h.004c-2.49-4.523-.84-7.787 2.766-6.575" clip-rule="evenodd"/><path fill="#fff" fill-rule="evenodd" d="M59.707 156.545q-.223.093-.453.209l9.508 19.321-11.459-4.441a3.4 3.4 0 0 0-.132.484l11.912 4.614 6.809 13.837-18.115-5.673q-.061.237-.107.489l18.522 5.8 3.25 6.6h.554l-3.412-6.931 5.419-17.412a3.5 3.5 0 0 0-.514-.025l-5.226 16.791-6.732-13.68 3.824-12.405a2.7 2.7 0 0 0-.494-.087l-3.646 11.841z" clip-rule="evenodd"/><path fill="#bed0eb" fill-rule="evenodd" d="M271.009 171.288c.101.372.718.769 1.354.937s1.294.112 1.467-.428c.321-.983-2.445-1.217-2.821-.509m-.011-.102c.174-.341-.025-1.049-.382-1.604-.361-.55-.886-.947-1.375-.662-.901.525 1.004 2.546 1.757 2.266m1.121-1.543c.168.346.845.627 1.502.683s1.289-.118 1.365-.683c.143-1.029-2.623-.764-2.867 0m-.031.046c.173-.341-.025-1.049-.382-1.604-.361-.55-.886-.947-1.375-.662-.901.524 1.003 2.546 1.757 2.266m.657-2.022c.168.346.846.627 1.503.683s1.288-.118 1.364-.683c.143-1.029-2.622-.769-2.867 0m-.03.056c.173-.341-.026-1.049-.382-1.604-.357-.555-.886-.947-1.38-.662-.897.524 1.008 2.546 1.762 2.266m.646-2.103c.107.367.729.759 1.365.922.637.163 1.294.096 1.462-.443.316-.988-2.455-1.192-2.827-.479m-.025.005c.173-.341-.026-1.049-.382-1.604-.362-.55-.886-.947-1.375-.662-.896.524 1.008 2.546 1.757 2.266m.998-2.154c.051.382.606.86 1.212 1.115s1.263.29 1.513-.219c.453-.932-2.256-1.548-2.725-.896m-.041-.01c.219-.316.138-1.044-.137-1.64s-.734-1.07-1.263-.861c-.963.377.616 2.664 1.4 2.501m1.411-1.885c-.015.382.453.948 1.008 1.299s1.197.494 1.528.036c.606-.846-1.96-1.9-2.536-1.335m2.017-1.222c-.087.372.275 1.013.759 1.462.483.448 1.084.708 1.497.31.743-.713-1.589-2.22-2.256-1.772m-2.053 1.171c.311-.224.459-.947.393-1.599-.067-.657-.357-1.247-.922-1.217-1.034.051-.265 2.72.529 2.816m3.83-1.451c.107.367.733.754 1.375.912.642.157 1.294.086 1.457-.459.3-.993-2.47-1.171-2.832-.453m-1.818.239c.382-.01.917-.519 1.227-1.095.316-.58.413-1.227-.071-1.527-.881-.54-1.757 2.093-1.156 2.622" clip-rule="evenodd"/><path fill="#bed0eb" fill-rule="evenodd" d="M266.797 174.446s2.404-1.004 4.171-2.924c.753-.825 1.395-1.813 1.685-2.964.556-2.225 1.304-4.777 2.745-6.488a6 6 0 0 1 1.019-.967c.83-.611 1.838-.983 3.086-.983a.04.04 0 0 0 .041-.041.04.04 0 0 0-.041-.041c-1.283-.046-2.332.301-3.203.907a5.8 5.8 0 0 0-1.075.978c-1.487 1.716-2.266 4.313-2.847 6.564-.285 1.1-.901 2.047-1.629 2.832-1.727 1.864-4.074 2.826-4.074 2.826a.165.165 0 0 0-.087.214c.026.081.122.117.209.087" clip-rule="evenodd"/><path fill="#bed0eb" fill-rule="evenodd" d="M268.961 180.949c.092-.107.189-.209.275-.316.117-.137.224-.285.336-.428a8 8 0 0 0 .255-.326c.112-.152.214-.305.321-.463.076-.112.153-.219.224-.336.107-.168.204-.336.305-.509.067-.112.133-.219.194-.331q.152-.284.295-.576c.051-.102.107-.204.158-.31q.16-.346.311-.698.054-.114.102-.234.19-.481.366-.978v-.016q-.029-.625-.081-1.227c0-.02-.005-.046-.005-.066a27 27 0 0 0-.133-1.161 1 1 0 0 1-.01-.097 33 33 0 0 0-.168-1.09c-.005-.041-.015-.081-.02-.122a31 31 0 0 0-.199-1.024l-.015-.081a32 32 0 0 0-1.07-3.82l-.076-.208c-.02-.057-.041-.107-.056-.163-.031-.092-.066-.179-.097-.27-.02-.051-.035-.102-.056-.148a7 7 0 0 1-.097-.26c-.015-.046-.035-.091-.05-.137-.031-.087-.067-.168-.097-.25-.016-.041-.036-.081-.051-.122q-.048-.121-.097-.234c-.015-.036-.03-.077-.046-.112a3 3 0 0 0-.097-.224c-.015-.031-.025-.067-.04-.097q-.048-.114-.097-.219a.4.4 0 0 0-.036-.077 9 9 0 0 0-.117-.27 4 4 0 0 0-.107-.234l-.091-.193c0-.005-.006-.01-.006-.016a14 14 0 0 0-.376-.738h-.005a17 17 0 0 0-1.829.952q-.076.045-.153.097c-.259.163-.519.331-.769.504l-.061.046q-.36.252-.697.52c-.036.025-.072.056-.107.081-.229.183-.448.367-.667.55l-.128.112c-.214.189-.417.377-.621.57q-.037.038-.082.077-.291.28-.56.56l-.061.061c-.188.194-.361.392-.535.586-.015.02-.035.035-.051.056a23 23 0 0 0-1.375 1.711l-.02.025-.025.036v.005c-1.146 1.584-1.722 2.776-1.722 2.776l1.543 13.76c.143-.041.28-.086.423-.132l.005.005c.107-.031.209-.071.316-.107q.237-.075.474-.158.26-.093.519-.193.231-.086.453-.179l.499-.214c.148-.066.291-.127.433-.198q.243-.116.479-.24l.412-.213.459-.26q.2-.114.392-.234c.148-.092.29-.189.438-.286.122-.081.249-.163.367-.249q.212-.152.417-.311.177-.13.346-.27c.133-.107.265-.224.398-.336.107-.097.219-.188.326-.285.127-.117.249-.244.376-.367.102-.102.204-.198.301-.3.112-.107.224-.245.341-.377" clip-rule="evenodd"/><path fill="#fff" fill-rule="evenodd" d="M268.478 162.875q.105-.048.219-.097s.05.087.137.26c-.377.896-.932 2.256-1.574 3.896l2.832-1.034q.07.175.137.367l-3.157 1.156a175 175 0 0 0-2.063 5.566l6.509-2.19.076.387-6.748 2.272a111 111 0 0 0-1.599 4.97l8.587-2.215q-.092.228-.184.448l-8.53 2.2c-.723 2.516-1.258 4.884-1.406 6.722a9 9 0 0 1-.402.128c.133-1.859.672-4.273 1.406-6.85-.005-.005-.01-.015-.016-.02l-3.177-4.283-.087-.769 3.417 4.603a114 114 0 0 1 1.63-5.072l-3.27-4.324.245-.32 3.178 4.201c.672-1.925 1.37-3.779 2.001-5.403a.15.15 0 0 1-.046-.061l-1.247-2.633c.106-.082.208-.158.32-.24l1.162 2.45a219 219 0 0 1 1.599-3.972z" clip-rule="evenodd"/><path fill="#d6e3f4" fill-rule="evenodd" d="M278.316 177.109s.204-.249.515-.677c.01-.01.015-.026.025-.036l.092-.127c.015-.021.025-.041.041-.061q.053-.075.107-.158.022-.03.045-.066c.041-.062.087-.123.128-.189.015-.02.025-.041.041-.061.04-.056.076-.117.117-.178.01-.015.02-.036.035-.051.046-.071.092-.148.143-.219l.046-.071q.07-.114.147-.235c.011-.02.026-.04.036-.061.046-.071.087-.147.133-.219a6 6 0 0 0 .183-.316l.046-.076c.051-.092.102-.178.147-.27.011-.02.021-.035.031-.056.046-.081.087-.168.132-.254.011-.021.021-.046.036-.067.046-.096.097-.188.143-.285.015-.025.025-.051.04-.081q.069-.147.138-.301c.005-.015.015-.03.02-.046q.063-.137.117-.275.016-.04.031-.071l.122-.306.031-.076q.059-.152.112-.311c.005-.01.005-.02.01-.035.036-.102.066-.199.097-.301.005-.025.015-.051.02-.076.031-.102.056-.209.082-.311l.015-.071c.025-.102.046-.199.066-.301 0-.01.005-.02.005-.03a7 7 0 0 0 .051-.316c.005-.025.005-.051.01-.076q.023-.153.031-.306c0-.02.005-.041.005-.061.005-.097.01-.188.01-.285v-.046q-.001-.155-.01-.3c0-.026-.005-.046-.005-.072a6 6 0 0 0-.036-.295c-.005-.015-.005-.036-.01-.051q-.024-.136-.056-.265c-.005-.015-.005-.03-.01-.046a5 5 0 0 0-.087-.275q-.009-.03-.025-.061c-.036-.091-.072-.183-.117-.27l-.021-.035a2 2 0 0 0-.168-.286c-.056-.081-.112-.162-.178-.244l-.046-.051a3 3 0 0 0-.214-.234c-.005-.005-.015-.01-.02-.021-.077-.071-.153-.142-.24-.208a4 4 0 0 0-.331-.24c-.02-.015-.04-.025-.066-.04a5 5 0 0 0-.331-.189h-.005c-.677-.346-1.309-.489-1.889-.473-4.064.106-5.775 7.914-5.775 7.919-.922-1.177-1.905-1.742-2.812-1.752-2.317-.026-4.14 3.58-3.177 9.9-.077-.112-.158-.219-.235-.321-.015-.02-.035-.041-.051-.066a4 4 0 0 0-.264-.321c-.051-.061-.107-.122-.158-.183a2 2 0 0 0-.092-.097c-.051-.051-.097-.107-.148-.153l-.096-.097a4 4 0 0 0-.143-.132 2 2 0 0 1-.102-.092l-.137-.117-.107-.086q-.069-.055-.138-.102l-.107-.077a3 3 0 0 1-.132-.091 1 1 0 0 0-.112-.066l-.133-.077-.112-.061c-.046-.02-.086-.046-.132-.066-.036-.021-.077-.036-.112-.051l-.133-.056a1 1 0 0 0-.112-.041c-.045-.015-.086-.03-.132-.041-.036-.01-.076-.025-.112-.035l-.132-.031c-.036-.01-.072-.015-.107-.025a1 1 0 0 0-.138-.021l-.102-.015q-.075-.009-.158-.01c-.03 0-.056-.005-.086-.005h-.01c-3.591-.102-6.809 6.167-6.509 15.415 0 .051.005.097.005.148.005.107.01.209.01.316q-.001.035.005.071.07 1.522.27 3.142h17.636c9.544-4.848 8.602-13.154 3.392-12.411.056-.05.107-.101.168-.152.128-.117.26-.235.382-.352q.122-.114.234-.229c.092-.092.189-.183.275-.27.082-.081.153-.163.235-.244.081-.087.158-.168.234-.255.076-.081.148-.168.219-.249q.108-.123.209-.245c.071-.081.132-.168.198-.249.061-.082.128-.158.189-.24s.122-.168.183-.249q.084-.114.168-.235.085-.122.163-.244.078-.114.148-.229.075-.124.142-.24c.046-.076.092-.147.133-.224.015-.025.03-.045.041-.071h-.005c1.975-3.555.682-6.111-2.145-5.164" clip-rule="evenodd"/><path fill="#fff" fill-rule="evenodd" d="M279.508 166.343q.174.07.357.163l-7.451 15.136 8.973-3.479q.063.177.102.377l-9.33 3.616-5.332 10.837 14.194-4.446q.052.184.081.382l-14.514 4.543-2.546 5.169h-.433l2.673-5.429-4.247-13.643a4 4 0 0 1 .402-.021l4.095 13.155 5.271-10.715-2.995-9.717q.19-.052.388-.066l2.857 9.274z" clip-rule="evenodd"/><path fill="#dfe9f7" d="M261.511 198.142h-52.562a2.45 2.45 0 0 1-2.45-2.45v-85.608a2.45 2.45 0 0 1 2.45-2.45h52.562a2.447 2.447 0 0 1 2.449 2.45v85.608a2.447 2.447 0 0 1-2.449 2.45"/><path fill="#bed0eb" d="M260.966 113.634v71.252a1.98 1.98 0 0 1-1.976 1.976h-47.531a1.98 1.98 0 0 1-1.976-1.976v-71.252c0-1.09.887-1.976 1.976-1.976h47.531a1.98 1.98 0 0 1 1.976 1.976"/><path fill="#dfe9f7" d="M260.945 128.912h-52.266v2.057h52.266zm0 38.638h-52.266v2.058h52.266zm0-19.317h-52.266v2.058h52.266z"/><path fill="#e4edf8" d="M227.14 171.594h-9.656v6.31h9.656z"/><path fill="#bed0eb" d="M221.095 177.904h-7.996v8.968h7.996z"/><path fill="#fff" fill-rule="evenodd" d="M213.028 177.832h8.138v9.111h-8.138zm.142.143v8.826h7.854v-8.826z" clip-rule="evenodd"/><path fill="#e4edf8" d="M218.564 180.664h-2.929v4.043h2.929z"/><path fill="#bed0eb" d="M231.234 177.904h-7.995v8.968h7.995z"/><path fill="#fff" fill-rule="evenodd" d="M223.168 177.832h8.137v9.111h-8.137zm.142.143v8.826h7.853v-8.826z" clip-rule="evenodd"/><path fill="#e4edf8" d="M228.698 180.664h-2.928v4.043h2.928z"/><path fill="#bed0eb" d="M256.494 180.114v-.881h-2.052v.881a1.87 1.87 0 0 0-.845 1.563v4.278c0 1.034.84.912 1.869.912 1.033 0 1.869.122 1.869-.912v-4.278a1.85 1.85 0 0 0-.841-1.563"/><path fill="#fff" fill-rule="evenodd" d="M254.371 179.162h2.194v.914c.51.351.846.933.841 1.601v4.278c0 .268-.054.47-.16.62a.8.8 0 0 1-.438.292 2.4 2.4 0 0 1-.613.074q-.206.003-.435-.001a28 28 0 0 0-.588 0q-.227.004-.434.001a2.4 2.4 0 0 1-.613-.074.8.8 0 0 1-.439-.292c-.106-.15-.16-.352-.16-.62v-4.278c0-.668.335-1.25.845-1.601zm.142.142v.848l-.032.021c-.49.324-.813.872-.813 1.504v4.278c0 .249.05.42.134.538a.64.64 0 0 0 .363.237c.16.047.354.064.576.069q.203.003.425-.001a29 29 0 0 1 .6 0q.224.004.426.001c.222-.005.416-.022.576-.069a.64.64 0 0 0 .362-.237c.083-.118.134-.288.134-.538v-4.278a1.78 1.78 0 0 0-.809-1.504l-.032-.021v-.848z" clip-rule="evenodd"/><path fill="#e4edf8" d="m254.508 177.354-.198 1.935a.167.167 0 0 0 .168.183h1.981a.167.167 0 0 0 .168-.183l-.199-1.935a.17.17 0 0 0-.168-.153h-1.589c-.081.005-.158.066-.163.153"/><path fill="#e4edf8" d="m254.753 176.549-.128 1.242a.214.214 0 0 0 .209.235h1.258a.208.208 0 0 0 .209-.235l-.127-1.242a.21.21 0 0 0-.209-.189h-1.009c-.102 0-.188.082-.203.189"/><path fill="#e4edf8" d="m255.247 173.834-.255 3.132a.196.196 0 0 0 .199.214h.56a.195.195 0 0 0 .198-.214l-.229-3.132a.196.196 0 0 0-.198-.183h-.077c-.102-.005-.188.076-.198.183"/><path fill="#e4edf8" d="M257.554 177.359h-4.166a.21.21 0 0 1-.209-.209.21.21 0 0 1 .209-.209h4.166a.21.21 0 0 1 0 .418m-.815 4.043h-2.536v3.983h2.536zm-16.063-.392-.03 5.123c0 .408-.296.739-.652.739l-5.103-.031c-.356 0-.647-.336-.647-.743l.031-5.124a8 8 0 0 1 .239-1.889 7.2 7.2 0 0 1 1.655-3.112l.224-.239 2.231.015.219.245a7.2 7.2 0 0 1 1.619 3.132c.143.606.214 1.242.214 1.884"/><path fill="#bed0eb" d="m239.042 175.744-3.076-.02.158-2.017a.305.305 0 0 1 .305-.28l2.18.015c.158 0 .29.128.3.286z"/><path fill="#fff" fill-rule="evenodd" d="M236.429 173.498a.235.235 0 0 0-.235.214v.001l-.152 1.94 2.924.02-.128-1.941a.234.234 0 0 0-.229-.219h-.001zm-.376.204a.376.376 0 0 1 .376-.346h.001l2.179.015m.371.352.138 2.093-3.229-.022.164-2.092v.001l.071.004-.071-.005" clip-rule="evenodd"/><path fill="#e4edf8" d="m249.792 181.01-.03 5.123c0 .408-.296.739-.652.739l-5.103-.031c-.356 0-.647-.336-.647-.743l.031-5.124a8 8 0 0 1 .239-1.889c.301-1.176.866-2.251 1.655-3.112l.224-.239 2.231.015.219.245a7.2 7.2 0 0 1 1.619 3.132c.143.606.219 1.242.214 1.884"/><path fill="#bed0eb" d="m248.163 175.744-3.076-.02.158-2.017a.305.305 0 0 1 .305-.28l2.18.015c.158 0 .29.128.3.286z"/><path fill="#fff" fill-rule="evenodd" d="M245.55 173.498a.235.235 0 0 0-.235.214v.001l-.152 1.94 2.924.02-.128-1.941a.234.234 0 0 0-.229-.219h-.001zm-.376.204a.376.376 0 0 1 .376-.346h.001l2.179.015m.371.352.137 2.093-3.228-.022.164-2.092" clip-rule="evenodd"/><path fill="#e4edf8" d="M230.048 167.565v-6.839c0-.234-.158-.423-.346-.423h-4.966c-.193 0-.346.189-.346.423v6.839z"/><path fill="#bed0eb" d="M229.941 161.235h-5.444a.49.49 0 0 1-.489-.489v-.535c0-.269.219-.488.489-.488h5.444c.27 0 .489.219.489.488v.535a.49.49 0 0 1-.489.489"/><path fill="#fff" fill-rule="evenodd" d="M224.497 159.794a.42.42 0 0 0-.418.417v.535c0 .231.187.418.418.418h5.444a.42.42 0 0 0 .418-.418v-.535a.42.42 0 0 0-.418-.417zm-.56.417a.56.56 0 0 1 .56-.559h5.444c.309 0 .56.25.56.559v.535a.56.56 0 0 1-.56.56h-5.444a.56.56 0 0 1-.56-.56z" clip-rule="evenodd"/><path fill="#e4edf8" d="M239.856 167.565v-6.839c0-.234-.158-.423-.346-.423h-4.965c-.194 0-.347.189-.347.423v6.839z"/><path fill="#bed0eb" d="M239.749 161.235h-5.444a.49.49 0 0 1-.489-.489v-.535c0-.269.219-.488.489-.488h5.444c.27 0 .489.219.489.488v.535a.49.49 0 0 1-.489.489"/><path fill="#fff" fill-rule="evenodd" d="M234.305 159.794a.42.42 0 0 0-.418.417v.535c0 .231.188.418.418.418h5.444a.42.42 0 0 0 .418-.418v-.535a.42.42 0 0 0-.418-.417zm-.56.417a.56.56 0 0 1 .56-.559h5.444c.31 0 .56.25.56.559v.535a.56.56 0 0 1-.56.56h-5.444a.56.56 0 0 1-.56-.56z" clip-rule="evenodd"/><path fill="#e4edf8" d="M216.165 167.56h-.387a1.985 1.985 0 0 1-1.981-1.991l.01-4.196c0-1.095.891-1.981 1.991-1.981h.387a1.99 1.99 0 0 1 1.982 1.991l-.011 4.196a1.98 1.98 0 0 1-1.991 1.981"/><path fill="#bed0eb" d="M216.842 157.416a.2.2 0 0 0 .051-.133v-1.141a.21.21 0 0 0-.208-.214l-1.319-.005a.21.21 0 0 0-.214.209v1.141q0 .055.03.102a1.01 1.01 0 0 0-.387.794v.199c0 .56.453 1.018 1.014 1.018h.366c.561 0 1.019-.453 1.019-1.013v-.199c0-.3-.138-.57-.352-.758"/><path fill="#fff" fill-rule="evenodd" d="M215.081 156.132c0-.158.13-.28.285-.28l1.319.005m-1.591 1.499a.3.3 0 0 1-.013-.083v-1.141m.284-.138a.14.14 0 0 0-.142.138v1.141q0 .034.018.062l.036.054-.05.041a.94.94 0 0 0-.361.739v.199c0 .521.422.947.943.947h.366a.946.946 0 0 0 .948-.942v-.199a.94.94 0 0 0-.327-.705l-.053-.046.046-.054a.13.13 0 0 0 .033-.086v-1.141a.14.14 0 0 0-.137-.143z" clip-rule="evenodd"/><path fill="#bed0eb" d="m221.416 156.84-4.838-.01a.165.165 0 0 1-.163-.168v-.031c0-.091.076-.163.168-.163l4.838.01z"/><path fill="#fff" fill-rule="evenodd" d="M216.583 156.539a.094.094 0 0 0-.097.092v.031c0 .055.042.097.092.097l4.768.01.003-.22zm-.239.092c0-.133.111-.234.239-.234l4.91.011-.007.503-4.908-.01" clip-rule="evenodd"/><path fill="#bed0eb" d="m221.838 157.018-.57-.091a.156.156 0 0 1-.132-.158v-.234c0-.077.056-.143.132-.158l.57-.087a.308.308 0 0 1 .357.306v.112a.305.305 0 0 1-.357.31"/><path fill="#fff" fill-rule="evenodd" d="M222.124 156.596a.238.238 0 0 0-.274-.236h-.001l-.568.087a.09.09 0 0 0-.074.088v.234c0 .048.032.082.07.087l.002.001.571.091a.233.233 0 0 0 .274-.239zm-.297-.376a.38.38 0 0 1 .439.376v.111a.375.375 0 0 1-.439.381m-.569-.091.009-.07-.011.07z" clip-rule="evenodd"/><path fill="#e9eef8" fill-rule="evenodd" d="M251.193 156.209a.06.06 0 0 1 .061-.061h6.152a.06.06 0 0 1 .06.061v5.698a.06.06 0 0 1-.06.061h-6.152a.06.06 0 0 1-.061-.061zm.121.06v5.578h6.031v-5.578z" clip-rule="evenodd"/><path fill="#e4edf8" d="M250.643 156.209h-6.152v5.698h6.152z"/><path fill="#e4edf8" d="M251.519 161.867h-6.152v5.698h6.152z"/><path fill="#e9eef8" fill-rule="evenodd" d="M251.988 161.867a.06.06 0 0 1 .06-.061h6.152a.06.06 0 0 1 .061.061v5.698a.06.06 0 0 1-.061.061h-6.152a.06.06 0 0 1-.06-.061zm.121.06v5.578h6.031v-5.578z" clip-rule="evenodd"/><path fill="#adcaea" d="M250.409 161.785h-4.808c-.046 0-.148.015-.148.076 0 .062.107.077.148.077h4.808c.045 0 .147-.015.147-.077 0-.061-.107-.076-.147-.076"/><path fill="#e4edf8" d="M257.177 161.785h-4.808c-.046 0-.148.015-.148.076 0 .062.107.077.148.077h4.808c.045 0 .147-.015.147-.077 0-.061-.107-.076-.147-.076"/><path fill="#bed0eb" d="m226.834 143.487-.025 4.115a.584.584 0 0 1-.586.591l-4.573-.026a.58.58 0 0 1-.575-.596l.025-4.115a5.8 5.8 0 0 1 .214-1.517 5.64 5.64 0 0 1 1.482-2.501l.198-.193 1.997.01.198.199a5.62 5.62 0 0 1 1.645 4.033"/><path fill="#fff" fill-rule="evenodd" d="m222.966 139.174 2.054.01.22.219a5.7 5.7 0 0 1 1.665 4.085l-.025 4.114a.655.655 0 0 1-.657.662h-.001l-4.572-.026a.654.654 0 0 1-.647-.667l.026-4.115a5.8 5.8 0 0 1 .217-1.536 5.7 5.7 0 0 1 1.5-2.532zm.057.142-.177.173a5.57 5.57 0 0 0-1.675 3.968l-.025 4.115a.51.51 0 0 0 .504.524l4.574.026a.513.513 0 0 0 .514-.52v-.001l.025-4.114a5.55 5.55 0 0 0-1.624-3.983l-.178-.178z" clip-rule="evenodd"/><path fill="#e4edf8" d="m225.373 139.255-2.76-.015.137-1.62c.01-.127.132-.229.275-.224l1.956.01c.142 0 .259.102.27.229z"/><path fill="#bed0eb" d="m234.219 143.487-.026 4.115a.583.583 0 0 1-.585.591l-4.574-.026c-.32 0-.58-.27-.575-.596l.025-4.115a5.8 5.8 0 0 1 .214-1.517 5.64 5.64 0 0 1 1.482-2.501l.199-.193 1.996.01.199.199a5.6 5.6 0 0 1 1.451 2.515c.128.484.194.999.194 1.518"/><path fill="#fff" fill-rule="evenodd" d="m230.35 139.174 2.055.01.219.219a5.7 5.7 0 0 1 1.666 4.084l-.026 4.115a.655.655 0 0 1-.657.662l-4.573-.026a.653.653 0 0 1-.646-.667l.025-4.115a6 6 0 0 1 .217-1.536 5.7 5.7 0 0 1 1.501-2.532zm.058.142-.178.173a5.56 5.56 0 0 0-1.463 2.469 5.7 5.7 0 0 0-.212 1.499l-.025 4.115a.51.51 0 0 0 .504.524l4.574.026h.001a.513.513 0 0 0 .513-.52v-.001l.026-4.114c0-.513-.066-1.022-.191-1.499a5.57 5.57 0 0 0-1.433-2.484l-.178-.178z" clip-rule="evenodd"/><path fill="#e4edf8" d="m232.757 139.255-2.76-.015.137-1.62c.011-.127.133-.229.275-.224l1.956.01c.143 0 .26.102.27.229z"/><path fill="#e9eef8" fill-rule="evenodd" d="M254.331 134.784a.06.06 0 0 1 .06-.061h2.251a.06.06 0 0 1 .06.061v3.97c.22.109.432.235.612.4.465.418.748.994.748 1.634v6.055c0 .782-.7 1.41-1.547 1.41h-1.997c-.847 0-1.547-.628-1.547-1.41v-6.055c0-.885.556-1.649 1.36-2.035zm.12.06v3.948a.06.06 0 0 1-.035.054c-.786.364-1.324 1.098-1.324 1.942v6.055c0 .705.634 1.289 1.426 1.289h1.997c.792 0 1.426-.584 1.426-1.289v-6.055c0-.603-.266-1.147-.708-1.544v-.001a2.6 2.6 0 0 0-.617-.397.06.06 0 0 1-.034-.054v-3.948z" clip-rule="evenodd"/><path fill="#e4edf8" d="M256.642 134.784h-2.251v2.79h2.251zm-6.565 6.004v6.055c0 .744-.667 1.35-1.487 1.35h-1.996c-.82 0-1.487-.606-1.487-1.35v-6.055c0-1.243 1.115-2.251 2.485-2.251a2.58 2.58 0 0 1 1.757.662c.453.407.728.968.728 1.589"/><path fill="#e4edf8" d="M248.718 134.784h-2.251v4.4h2.251z"/><path fill="#bed0eb" d="M248.718 134.784h-2.251v2.79h2.251z"/><path fill="#fff" fill-rule="evenodd" d="M246.396 134.713h2.393v2.932h-2.393zm.142.142v2.648h2.109v-2.648z" clip-rule="evenodd"/><path fill="#e4edf8" d="M242.433 139.499v7.11c0 .876-.784 1.584-1.747 1.584h-2.342c-.968 0-1.747-.708-1.747-1.584v-7.11c0-1.461 1.309-2.648 2.923-2.648.805 0 1.538.296 2.068.774.519.484.845 1.146.845 1.874"/><path fill="#e4edf8" d="M240.834 132.446h-2.643v5.164h2.643z"/><path fill="#bed0eb" d="M240.834 132.446h-2.643v3.275h2.643z"/><path fill="#fff" fill-rule="evenodd" d="M238.12 132.375h2.785v3.417h-2.785zm.142.142v3.133h2.501v-3.133z" clip-rule="evenodd"/><path fill="#e4edf8" d="M216.944 138.863h-2.959l-.83 7.863c-.081.784.601 1.467 1.472 1.467h1.681c.871 0 1.553-.678 1.471-1.467z"/><path fill="#bed0eb" d="M216.944 136.978h-2.958v1.885h2.958z"/><path fill="#fff" fill-rule="evenodd" d="M213.915 136.907h3.1v2.027h-3.1zm.142.142v1.743h2.816v-1.743z" clip-rule="evenodd"/><path fill="#e4edf8" d="M251.315 115.508h-5.312v13.414h5.312z"/><path fill="#bed0eb" d="M250.011 117.514h-2.704v5.067h2.704z"/><path fill="#e9eef8" fill-rule="evenodd" d="M253.017 115.508a.06.06 0 0 1 .06-.061h5.312a.06.06 0 0 1 .06.061v13.414a.06.06 0 0 1-.06.06h-5.312a.06.06 0 0 1-.06-.06zm.12.06v13.294h5.191v-13.294z" clip-rule="evenodd"/><path fill="#e4edf8" d="M257.085 117.514h-2.704v5.067h2.704z"/><path fill="#bed0eb" d="M217.999 123.651v1.4c0 .133-.041.25-.102.337a.3.3 0 0 1-.245.137c-.193 0-.346.214-.346.474v2.449c0 .26-.158.474-.346.474h-4.966c-.193 0-.346-.214-.346-.474v-2.449a.6.6 0 0 0-.102-.336.3.3 0 0 0-.244-.138c-.194 0-.347-.214-.347-.474v-1.4c0-.133.041-.25.102-.336a.3.3 0 0 1 .245-.138c.193 0 .346-.214.346-.473v-6.835h5.663v6.83c0 .259.158.473.346.473.184.005.342.214.342.479"/><path fill="#fff" fill-rule="evenodd" d="M211.577 115.798h5.805v6.901c0 .116.035.219.089.292s.121.11.186.11h.002c.12.003.223.073.295.171a.65.65 0 0 1 .116.379v1.4a.66.66 0 0 1-.115.377.37.37 0 0 1-.303.168c-.068 0-.135.038-.188.11a.5.5 0 0 0-.087.293v2.449a.64.64 0 0 1-.116.376.38.38 0 0 1-.301.169h-4.966a.38.38 0 0 1-.303-.169.64.64 0 0 1-.114-.376v-2.449a.5.5 0 0 0-.089-.296.23.23 0 0 0-.186-.107.38.38 0 0 1-.304-.169.64.64 0 0 1-.114-.376v-1.4c0-.147.045-.278.115-.377a.37.37 0 0 1 .303-.168c.068 0 .135-.037.188-.11a.5.5 0 0 0 .087-.292zm.142.142v6.764a.65.65 0 0 1-.114.376.38.38 0 0 1-.303.168.23.23 0 0 0-.187.108.5.5 0 0 0-.089.295v1.4c0 .117.035.22.087.293.053.072.12.11.189.11a.37.37 0 0 1 .302.168c.07.098.115.23.115.377v2.449c0 .117.034.22.087.293s.12.11.188.11h4.966c.065 0 .133-.037.186-.111a.5.5 0 0 0 .089-.292v-2.449c0-.144.042-.277.114-.376a.38.38 0 0 1 .303-.169c.07 0 .136-.036.187-.107a.5.5 0 0 0 .088-.296v-1.4a.5.5 0 0 0-.088-.295c-.053-.073-.119-.111-.183-.113a.38.38 0 0 1-.3-.168.65.65 0 0 1-.116-.376v-6.759z" clip-rule="evenodd"/><path fill="#e4edf8" d="M217.683 115.131v1.451c0 .015-.016.031-.031.031h-6.366c-.015 0-.03-.016-.03-.031v-1.451c0-.015.015-.031.03-.031h6.366c.021-.005.031.01.031.031m22.729 2.281h-3.407l.789 9.712h2.969l.784-9.712z"/><path fill="#bed0eb" d="M240.763 127.124h-2.969v1.793h2.969z"/><path fill="#fff" fill-rule="evenodd" d="M237.723 127.053h3.111v1.935h-3.111zm.142.142v1.651h2.827v-1.651z" clip-rule="evenodd"/><path fill="#e4edf8" d="M229.849 128.917c.902 0 1.63.107 1.63-.795v-3.733c0-.901-.728-1.629-1.635-1.629-.901 0-1.63.728-1.63 1.629v3.733c0 .897.734.795 1.635.795"/><path fill="#e4edf8" d="M228.953 123.783h1.788v-1.528h-1.788zm-4.792 5.134c.901 0 1.629.107 1.629-.795v-3.733c0-.901-.728-1.629-1.629-1.629-.902 0-1.63.728-1.63 1.629v3.733c-.005.897.728.795 1.63.795"/><path fill="#e4edf8" d="M223.267 123.783h1.787v-1.528h-1.787z"/><path fill="#adcaea" d="m224.782 119.918.112 1.085a.187.187 0 0 1-.183.203h-1.1a.19.19 0 0 1-.184-.203l.112-1.085a.184.184 0 0 1 .184-.168h.881c.091 0 .168.071.178.168"/><path fill="#bed0eb" d="M231.662 120.254h-1.161l-.036-.341a.186.186 0 0 0-.183-.168h-.066l-.178-2.205a.17.17 0 0 0-.173-.158h-.067a.173.173 0 0 0-.173.163l-.163 2.2h-.061a.18.18 0 0 0-.183.168l-.036.341h-1.161a.18.18 0 0 0-.183.183c0 .102.081.184.183.184h.978l-.173 1.68a.15.15 0 0 0 .147.163h1.732a.15.15 0 0 0 .148-.163l-.174-1.68h.978a.184.184 0 0 0 .184-.184.176.176 0 0 0-.179-.183"/><path fill="#fff" fill-rule="evenodd" d="M229.554 117.54a.245.245 0 0 1 .244-.229h.067a.24.24 0 0 1 .244.224l.172 2.139h.001c.136 0 .24.107.254.231l.029.278h1.097c.14 0 .256.113.249.256 0 .14-.113.253-.254.253h-.899l.165 1.605a.22.22 0 0 1-.218.238h-1.732a.22.22 0 0 1-.218-.241l.165-1.602h-.899a.254.254 0 0 1-.254-.255c0-.141.113-.254.254-.254h1.097l.029-.278a.254.254 0 0 1 .249-.231zm.244-.087a.1.1 0 0 0-.102.096v.001l-.168 2.266h-.127a.11.11 0 0 0-.113.104l-.042.405h-1.225a.11.11 0 0 0-.112.112c0 .063.049.113.112.113h1.056l-.181 1.759v.001c-.005.042.031.083.077.083h1.732c.041 0 .079-.037.077-.086l-.181-1.757h1.056c.063 0 .112-.05.112-.113v-.003a.104.104 0 0 0-.107-.109h-1.225l-.042-.404a.12.12 0 0 0-.113-.105h-.132l-.183-2.272c-.003-.051-.045-.091-.102-.091z" clip-rule="evenodd"/><path fill="#bed0eb" d="M225.974 120.254h-1.401l-.219-2.709a.17.17 0 0 0-.173-.158h-.066a.17.17 0 0 0-.173.163l-.199 2.709h-1.4a.183.183 0 1 0 0 .367h.977l-.168 1.68a.15.15 0 0 0 .148.163h1.732a.15.15 0 0 0 .147-.163l-.173-1.68h.978a.183.183 0 0 0 .183-.184.195.195 0 0 0-.193-.188"/><path fill="#fff" fill-rule="evenodd" d="M223.871 117.545a.244.244 0 0 1 .244-.229h.066a.24.24 0 0 1 .244.224l.214 2.643h1.335c.14 0 .257.112.264.256v.003a.253.253 0 0 1-.254.255h-.899l.165 1.605a.22.22 0 0 1-.218.238H223.3a.22.22 0 0 1-.218-.241l.16-1.602h-.899a.254.254 0 1 1 0-.509h1.334zm.244-.087a.1.1 0 0 0-.102.096v.001l-.204 2.775h-1.466a.112.112 0 1 0 0 .225h1.056l-.176 1.758v.002c-.005.042.031.083.077.083h1.732a.08.08 0 0 0 .076-.086l-.181-1.757h1.057a.11.11 0 0 0 .112-.111.124.124 0 0 0-.122-.119h-1.466l-.225-2.776c-.003-.051-.045-.091-.102-.091z" clip-rule="evenodd"/><path fill="#fff" d="m255.74 111.663-46.257 41.042v-16.287l27.914-24.755zm5.231 1.003v4.069l-51.482 45.671v-4.064zm-.005 31.371v10.175l-36.81 32.65h-11.469z" opacity=".2"/><path fill="#dfe9f7" d="M135.064 198.142H74.751a2.81 2.81 0 0 1-2.811-2.811V97.103a2.81 2.81 0 0 1 2.81-2.812h60.314a2.81 2.81 0 0 1 2.811 2.812v98.228a2.81 2.81 0 0 1-2.811 2.811"/><path fill="#bed0eb" d="M134.437 101.177v81.758a2.264 2.264 0 0 1-2.266 2.266H77.633a2.264 2.264 0 0 1-2.266-2.266v-81.758a2.265 2.265 0 0 1 2.266-2.267h54.538a2.264 2.264 0 0 1 2.266 2.267"/><path fill="#dfe9f7" d="M134.417 118.706H74.445v2.363h59.972zm0 44.332H74.445v2.363h59.972zm0-22.164H74.445v2.363h59.972z"/><path fill="#e4edf8" d="M95.626 167.682H84.549v7.237h11.077z"/><path fill="#bed0eb" d="M88.695 174.919h-9.177v10.293h9.177z"/><path fill="#fff" fill-rule="evenodd" d="M79.436 174.838h9.34v10.455h-9.34zm.163.163v10.129h9.014v-10.129z" clip-rule="evenodd"/><path fill="#e4edf8" d="M85.782 178.087h-3.356v4.639h3.356z"/><path fill="#bed0eb" d="M100.326 174.919h-9.177v10.293h9.177z"/><path fill="#fff" fill-rule="evenodd" d="M91.068 174.838h9.34v10.455h-9.34zm.163.163v10.129h9.014v-10.129z" clip-rule="evenodd"/><path fill="#e4edf8" d="M97.413 178.087h-3.356v4.639h3.356z"/><path fill="#bed0eb" d="M129.309 177.455v-1.013h-2.353v1.013a2.14 2.14 0 0 0-.967 1.793v4.909c0 1.187.962 1.049 2.149 1.049 1.186 0 2.149.138 2.149-1.049v-4.909a2.19 2.19 0 0 0-.978-1.793"/><path fill="#fff" fill-rule="evenodd" d="M126.875 176.36h2.516v1.052a2.27 2.27 0 0 1 .977 1.835v4.91c0 .307-.062.54-.183.712a.9.9 0 0 1-.505.336c-.205.06-.445.08-.704.086q-.24.003-.505-.001a37 37 0 0 0-.666 0q-.265.004-.505.001a2.8 2.8 0 0 1-.705-.086.9.9 0 0 1-.504-.336c-.122-.172-.184-.405-.184-.712v-4.909c0-.761.381-1.436.968-1.836zm.163.163v.976l-.037.025a2.05 2.05 0 0 0-.931 1.724v4.909c0 .287.058.482.154.618a.74.74 0 0 0 .417.274c.184.054.407.073.662.079q.236.004.495 0a19 19 0 0 1 .679 0q.26.004.495 0c.256-.006.479-.025.662-.079a.74.74 0 0 0 .417-.274c.096-.136.154-.331.154-.618v-4.908a2.1 2.1 0 0 0-.941-1.726l-.036-.024v-.976z" clip-rule="evenodd"/><path fill="#e4edf8" d="m127.028 174.288-.224 2.22a.195.195 0 0 0 .193.214h2.277a.195.195 0 0 0 .193-.214l-.224-2.22a.194.194 0 0 0-.194-.173h-1.823a.194.194 0 0 0-.198.173"/><path fill="#e4edf8" d="m127.313 173.366-.143 1.426a.24.24 0 0 0 .239.265h1.447a.24.24 0 0 0 .239-.265l-.142-1.426a.244.244 0 0 0-.24-.219h-1.156a.244.244 0 0 0-.244.219"/><path fill="#e4edf8" d="m127.873 170.249-.29 3.591a.233.233 0 0 0 .229.249h.642a.23.23 0 0 0 .229-.244l-.26-3.591a.23.23 0 0 0-.229-.214h-.087a.226.226 0 0 0-.234.209"/><path fill="#e4edf8" d="M130.521 174.298h-4.777a.245.245 0 0 1 0-.489h4.777c.133 0 .245.107.245.244a.25.25 0 0 1-.245.245m-.937 4.639h-2.908v4.574h2.908zm-18.43-.453-.036 5.877c-.005.469-.336.845-.749.845l-5.856-.035c-.413 0-.744-.387-.739-.856l.036-5.877a9 9 0 0 1 .275-2.169 8.3 8.3 0 0 1 1.899-3.57l.255-.275 2.557.015.249.28c.897.998 1.528 2.241 1.854 3.596.173.702.26 1.431.255 2.169"/><path fill="#bed0eb" d="m109.285 172.444-3.53-.02.179-2.312a.346.346 0 0 1 .351-.321l2.506.015c.183 0 .336.143.346.326z"/><path fill="#fff" fill-rule="evenodd" d="m106.015 170.118-.172 2.225 3.355.019-.142-2.225a.265.265 0 0 0-.265-.249h-.001l-2.507-.016a.265.265 0 0 0-.268.246m.271-.409a.43.43 0 0 0-.434.396l-.185 2.4 3.704.021-.153-2.398a.43.43 0 0 0-.427-.403" clip-rule="evenodd"/><path fill="#e4edf8" d="m121.619 178.484-.036 5.877c-.005.469-.336.845-.748.845l-5.857-.035c-.412 0-.743-.387-.738-.856l.035-5.877a9 9 0 0 1 .275-2.169c.342-1.35.993-2.582 1.9-3.57l.255-.275 2.556.015.25.28c.896.998 1.527 2.241 1.853 3.596a8.8 8.8 0 0 1 .255 2.169"/><path fill="#bed0eb" d="m119.75 172.444-3.529-.02.178-2.312a.346.346 0 0 1 .351-.321l2.506.015c.183 0 .336.143.346.326z"/><path fill="#fff" fill-rule="evenodd" d="m116.48 170.118-.171 2.225 3.354.019-.142-2.225a.264.264 0 0 0-.265-.249l-2.508-.016a.265.265 0 0 0-.268.246m.272-.409a.43.43 0 0 0-.434.396l-.185 2.4 3.704.021-.153-2.398a.43.43 0 0 0-.428-.403" clip-rule="evenodd"/><path fill="#e4edf8" d="M98.962 163.053v-7.848c0-.27-.179-.483-.398-.483h-5.698c-.22 0-.398.219-.398.483v7.848z"/><path fill="#bed0eb" d="M98.84 155.791h-6.25a.567.567 0 0 1-.565-.565v-.611c0-.311.255-.566.566-.566h6.248c.311 0 .566.255.566.566v.611a.564.564 0 0 1-.566.565"/><path fill="#fff" fill-rule="evenodd" d="M92.59 154.131a.486.486 0 0 0-.483.484v.611c0 .265.218.484.484.484h6.248a.483.483 0 0 0 .484-.484v-.611a.486.486 0 0 0-.484-.484zm-.646.484c0-.356.291-.647.647-.647h6.248c.356 0 .647.291.647.647v.611a.645.645 0 0 1-.647.646h-6.248a.65.65 0 0 1-.647-.646z" clip-rule="evenodd"/><path fill="#e4edf8" d="M110.217 163.053v-7.848c0-.27-.179-.483-.398-.483h-5.704c-.218 0-.397.219-.397.483v7.848z"/><path fill="#bed0eb" d="M110.089 155.791h-6.249a.57.57 0 0 1-.565-.565v-.611c0-.311.255-.566.565-.566h6.249c.311 0 .565.255.565.566v.611a.564.564 0 0 1-.565.565"/><path fill="#fff" fill-rule="evenodd" d="M103.84 154.131a.485.485 0 0 0-.483.484v.611c0 .265.218.484.483.484h6.249a.483.483 0 0 0 .484-.484v-.611a.486.486 0 0 0-.484-.484zm-.646.484c0-.356.291-.647.646-.647h6.249c.356 0 .647.291.647.647v.611a.645.645 0 0 1-.647.646h-6.249a.65.65 0 0 1-.646-.646z" clip-rule="evenodd"/><path fill="#e4edf8" d="M83.037 163.053h-.449a2.275 2.275 0 0 1-2.27-2.281l.01-4.813a2.275 2.275 0 0 1 2.28-2.271h.449a2.275 2.275 0 0 1 2.271 2.281l-.01 4.813a2.275 2.275 0 0 1-2.281 2.271"/><path fill="#bed0eb" d="M83.81 151.416a.22.22 0 0 0 .057-.147v-1.314a.245.245 0 0 0-.245-.245l-1.512-.005a.245.245 0 0 0-.245.245v1.314c0 .04.016.081.036.117-.27.214-.443.54-.448.911v.229c0 .647.52 1.172 1.166 1.172h.423c.647 0 1.171-.52 1.171-1.166v-.23c0-.356-.158-.667-.402-.881"/><path fill="#fff" fill-rule="evenodd" d="M81.784 149.95c0-.184.15-.326.326-.326l1.512.005m-1.821 1.729a.3.3 0 0 1-.017-.094v-1.314m.326-.163a.163.163 0 0 0-.163.163v1.314q0 .032.025.076l.035.061-.055.044a1.1 1.1 0 0 0-.418.848v.228c0 .603.484 1.09 1.085 1.09h.423c.602 0 1.09-.483 1.09-1.084v-.23c0-.331-.147-.62-.375-.819l-.061-.054.053-.061a.14.14 0 0 0 .036-.094v-1.314a.163.163 0 0 0-.163-.163z" clip-rule="evenodd"/><path fill="#bed0eb" d="m89.056 150.749-5.55-.01a.19.19 0 0 1-.19-.188v-.036c0-.107.087-.188.19-.188l5.55.01z"/><path fill="#fff" fill-rule="evenodd" d="M83.505 150.408a.106.106 0 0 0-.107.107v.036c0 .058.047.107.107.107l5.47.01v-.25zm-.27.107a.27.27 0 0 1 .27-.27l5.633.01v.576l-5.633-.011" clip-rule="evenodd"/><path fill="#bed0eb" d="m89.545 150.958-.657-.107a.185.185 0 0 1-.153-.178v-.27a.18.18 0 0 1 .153-.178l.657-.102a.35.35 0 0 1 .407.351v.133a.35.35 0 0 1-.407.351"/><path fill="#fff" fill-rule="evenodd" d="M89.871 150.472a.27.27 0 0 0-.312-.269h-.001l-.656.102a.1.1 0 0 0-.085.098v.27c0 .045.036.089.085.098l.656.107a.27.27 0 0 0 .313-.27zm.163.003a.432.432 0 0 0-.502-.433l-.656.102h-.002a.26.26 0 0 0-.22.259v.27c0 .128.096.236.22.258l.658.107a.432.432 0 0 0 .502-.432z" clip-rule="evenodd"/><path fill="#e9eef8" fill-rule="evenodd" d="M123.225 150.026a.07.07 0 0 1 .07-.069h7.058a.07.07 0 0 1 .069.069v6.539a.07.07 0 0 1-.069.069h-7.058a.07.07 0 0 1-.07-.069zm.139.069v6.401h6.92v-6.401z" clip-rule="evenodd"/><path fill="#e4edf8" d="M122.592 150.026h-7.059v6.539h7.059z"/><path fill="#e4edf8" d="M123.6 156.519h-7.058v6.539h7.058z"/><path fill="#e9eef8" fill-rule="evenodd" d="M124.137 156.519a.07.07 0 0 1 .069-.069h7.059a.07.07 0 0 1 .069.069v6.539a.07.07 0 0 1-.069.069h-7.059a.07.07 0 0 1-.069-.069zm.138.069v6.401h6.92v-6.401z" clip-rule="evenodd"/><path fill="#adcaea" d="M122.327 156.428h-5.516c-.05 0-.168.015-.168.086s.123.087.168.087h5.516c.051 0 .168-.016.168-.087s-.122-.086-.168-.086"/><path fill="#e4edf8" d="M130.088 156.428h-5.515c-.051 0-.168.015-.168.086s.122.087.168.087h5.515c.051 0 .168-.016.168-.087s-.122-.086-.168-.086"/><path fill="#bed0eb" d="m95.274 135.425-.03 4.721a.673.673 0 0 1-.672.678l-5.25-.026a.673.673 0 0 1-.663-.687l.03-4.721a6.4 6.4 0 0 1 .25-1.742 6.45 6.45 0 0 1 1.701-2.867l.23-.224 2.291.01.224.224a6.47 6.47 0 0 1 1.89 4.634"/><path fill="#fff" fill-rule="evenodd" d="m90.836 130.475 2.359.01.248.248a6.56 6.56 0 0 1 1.913 4.693l-.03 4.72a.754.754 0 0 1-.755.759l-5.25-.025m1.262-10.158.253-.247zm.32-.084-.206.201a6.37 6.37 0 0 0-1.68 2.831v.001a6.3 6.3 0 0 0-.246 1.719l-.03 4.721v.001a.59.59 0 0 0 .58.605l5.251.025c.32.004.59-.263.59-.596l.031-4.721a6.4 6.4 0 0 0-.221-1.725 6.4 6.4 0 0 0-1.644-2.851l-.2-.201z" clip-rule="evenodd"/><path fill="#e4edf8" d="m93.599 130.572-3.168-.015.158-1.859c.015-.148.148-.26.316-.26l2.246.01c.163 0 .3.117.31.265z"/><path fill="#bed0eb" d="m103.749 135.425-.031 4.721a.673.673 0 0 1-.672.678l-5.25-.026a.673.673 0 0 1-.663-.687l.03-4.721a6.4 6.4 0 0 1 .25-1.742 6.45 6.45 0 0 1 1.701-2.867l.23-.224 2.291.01.224.224a6.43 6.43 0 0 1 1.666 2.887 7 7 0 0 1 .224 1.747"/><path fill="#fff" fill-rule="evenodd" d="m99.31 130.475 2.359.01.248.248a6.5 6.5 0 0 1 1.686 2.924l.001.001a7 7 0 0 1 .226 1.767v.001l-.03 4.72a.754.754 0 0 1-.755.759l-5.25-.025m1.263-10.158.253-.247zm.319-.084-.206.201a6.37 6.37 0 0 0-1.679 2.831v.001a6.3 6.3 0 0 0-.246 1.719l-.031 4.721v.001a.59.59 0 0 0 .58.605l5.251.025h.001c.32.004.59-.263.59-.596l.03-4.721c0-.588-.075-1.167-.221-1.726a6.35 6.35 0 0 0-1.644-2.85l-.201-.201z" clip-rule="evenodd"/><path fill="#e4edf8" d="m102.068 130.572-3.167-.015.163-1.859c.01-.148.147-.26.315-.26l2.246.01c.163 0 .301.117.311.265z"/><path fill="#e9eef8" fill-rule="evenodd" d="M126.826 125.444a.07.07 0 0 1 .069-.07h2.582a.07.07 0 0 1 .069.07v4.554c.26.121.501.272.706.456v.001c.527.48.858 1.144.853 1.879v6.946c0 .9-.802 1.618-1.776 1.618h-2.291c-.974 0-1.776-.718-1.776-1.618v-6.946c0-1.02.643-1.892 1.564-2.336zm.138.069v4.529a.07.07 0 0 1-.04.063c-.901.418-1.523 1.257-1.523 2.229v6.946c0 .812.726 1.479 1.637 1.479h2.291c.911 0 1.637-.667 1.637-1.479v-6.947c.005-.691-.306-1.319-.807-1.776a2.8 2.8 0 0 0-.71-.452.07.07 0 0 1-.041-.063v-4.529z" clip-rule="evenodd"/><path fill="#e4edf8" d="M129.477 125.444h-2.582v3.198h2.582zm-7.532 6.89v6.946c0 .856-.764 1.549-1.706 1.549h-2.292c-.942 0-1.706-.693-1.706-1.549v-6.946c0-1.426 1.278-2.587 2.852-2.587.789 0 1.502.29 2.017.759.519.468.835 1.115.835 1.828"/><path fill="#e4edf8" d="M120.382 125.444H117.8v5.046h2.582z"/><path fill="#bed0eb" d="M120.382 125.444H117.8v3.198h2.582z"/><path fill="#fff" fill-rule="evenodd" d="M117.718 125.362h2.745v3.361h-2.745zm.163.163v3.035h2.419v-3.035z" clip-rule="evenodd"/><path fill="#e4edf8" d="M113.175 130.852v8.159c0 1.003-.896 1.818-2.006 1.818h-2.689c-1.11 0-2.007-.815-2.007-1.818v-8.159c0-1.676 1.503-3.035 3.351-3.035.927 0 1.762.341 2.368.891.607.55.983 1.309.983 2.144"/><path fill="#e4edf8" d="M111.337 122.76h-3.03v5.928h3.03z"/><path fill="#bed0eb" d="M111.337 122.76h-3.03v3.758h3.03z"/><path fill="#fff" fill-rule="evenodd" d="M108.225 122.678h3.194v3.922h-3.194zm.163.163v3.596h2.868v-3.596z" clip-rule="evenodd"/><path fill="#e4edf8" d="M83.928 130.124H80.53l-.952 9.024c-.097.901.687 1.681 1.685 1.681h1.93c.999 0 1.783-.78 1.686-1.681z"/><path fill="#bed0eb" d="M83.928 127.959H80.53v2.165h3.397z"/><path fill="#fff" fill-rule="evenodd" d="M80.45 127.878h3.56v2.327h-3.56zm.163.163v2.001h3.233v-2.001z" clip-rule="evenodd"/><path fill="#e4edf8" d="M123.366 103.326h-6.096v15.39h6.096z"/><path fill="#bed0eb" d="M121.869 105.628h-3.102v5.816h3.102z"/><path fill="#e9eef8" fill-rule="evenodd" d="M125.318 103.326a.07.07 0 0 1 .07-.069h6.096a.07.07 0 0 1 .069.069v15.39a.07.07 0 0 1-.069.069h-6.096a.07.07 0 0 1-.07-.069zm.139.069v15.252h5.957v-15.252z" clip-rule="evenodd"/><path fill="#e4edf8" d="M129.986 105.628h-3.101v5.816h3.101z"/><path fill="#bed0eb" d="M85.135 112.666v1.609a.65.65 0 0 1-.117.382.36.36 0 0 1-.28.158c-.22 0-.397.245-.397.545v2.806c0 .301-.179.545-.398.545h-5.698c-.22 0-.398-.244-.398-.545v-2.806a.65.65 0 0 0-.117-.382.36.36 0 0 0-.28-.158c-.219 0-.397-.244-.397-.545v-1.609c0-.148.046-.285.117-.382a.34.34 0 0 1 .28-.158c.22 0 .397-.244.397-.545v-7.837h6.494v7.837c0 .301.178.545.397.545s.397.245.397.54"/><path fill="#fff" fill-rule="evenodd" d="M77.766 103.662h6.656v7.919c0 .135.04.254.1.337.062.084.139.127.216.127.142 0 .263.079.346.192a.73.73 0 0 1 .132.429v1.609c0 .164-.05.319-.133.431a.44.44 0 0 1-.345.191c-.077 0-.154.042-.215.126a.57.57 0 0 0-.101.337v2.806a.74.74 0 0 1-.132.433.43.43 0 0 1-.347.193h-5.698a.43.43 0 0 1-.347-.193.74.74 0 0 1-.132-.433v-2.806a.57.57 0 0 0-.102-.334c-.06-.081-.139-.124-.214-.124a.43.43 0 0 1-.347-.194.74.74 0 0 1-.132-.433v-1.609c0-.163.05-.318.133-.43a.42.42 0 0 1 .346-.191c.077 0 .154-.043.215-.127a.6.6 0 0 0 .1-.337zm.163.163v7.756a.74.74 0 0 1-.132.433.43.43 0 0 1-.347.194.26.26 0 0 0-.213.123l-.001.001a.6.6 0 0 0-.102.334v1.609c0 .135.04.254.101.337s.138.127.215.127a.44.44 0 0 1 .346.191.73.73 0 0 1 .133.43v2.806c0 .135.04.254.1.337s.139.127.216.127h5.698c.077 0 .154-.043.215-.127a.6.6 0 0 0 .101-.337v-2.806c0-.166.049-.319.132-.433a.43.43 0 0 1 .347-.193c.075 0 .154-.044.214-.125a.57.57 0 0 0 .101-.334v-1.609c0-.132-.04-.25-.1-.333-.061-.082-.138-.125-.215-.125a.43.43 0 0 1-.347-.194.74.74 0 0 1-.132-.433v-7.756z" clip-rule="evenodd"/><path fill="#e4edf8" d="M84.773 102.893v1.665a.035.035 0 0 1-.035.036h-7.303a.035.035 0 0 1-.036-.036v-1.665c0-.02.015-.036.036-.036h7.303c.02 0 .035.016.035.036m26.08 2.618h-3.906l.901 11.143h3.407l.902-11.143z"/><path fill="#bed0eb" d="M111.255 116.654h-3.407v2.057h3.407z"/><path fill="#fff" fill-rule="evenodd" d="M107.767 116.572h3.57v2.22h-3.57zm.163.163v1.895h3.244v-1.895z" clip-rule="evenodd"/><path fill="#e4edf8" d="M98.733 118.711c1.033 0 1.874.122 1.874-.912v-4.283c0-1.033-.84-1.874-1.874-1.874a1.876 1.876 0 0 0-1.875 1.874v4.283c0 1.034.84.912 1.874.912"/><path fill="#e4edf8" d="M97.707 112.822h2.053v-1.752h-2.053zm-5.498 5.889c1.033 0 1.874.122 1.874-.912v-4.283c0-1.033-.84-1.874-1.874-1.874a1.876 1.876 0 0 0-1.874 1.874v4.283c0 1.034.835.912 1.874.912"/><path fill="#e4edf8" d="M91.18 112.822h2.051v-1.752H91.18z"/><path fill="#adcaea" d="m92.922 108.383.127 1.243a.213.213 0 0 1-.209.234h-1.263a.207.207 0 0 1-.209-.234l.128-1.243a.21.21 0 0 1 .208-.188h1.009a.21.21 0 0 1 .209.188"/><path fill="#bed0eb" d="M100.815 108.775h-1.329l-.04-.387a.21.21 0 0 0-.21-.188h-.076l-.204-2.526a.204.204 0 0 0-.198-.184h-.077a.197.197 0 0 0-.198.184l-.184 2.526h-.07a.21.21 0 0 0-.21.188l-.04.387h-1.33a.215.215 0 0 0-.213.214c0 .117.096.214.213.214h1.12l-.193 1.93a.167.167 0 0 0 .168.183h1.987a.167.167 0 0 0 .168-.183l-.194-1.93h1.12a.215.215 0 0 0 .214-.214.23.23 0 0 0-.224-.214"/><path fill="#fff" fill-rule="evenodd" d="M98.402 105.669a.277.277 0 0 1 .28-.26h.076c.145 0 .265.115.28.257v.001l.197 2.451h.002c.148 0 .275.112.29.262l.032.314h1.256a.31.31 0 0 1 .306.288v.007a.296.296 0 0 1-.295.295h-1.03l.184 1.841a.25.25 0 0 1-.25.273h-1.986a.25.25 0 0 1-.249-.273l.185-1.841h-1.03a.296.296 0 0 1-.296-.295c0-.162.133-.295.296-.295h1.255l.033-.314a.29.29 0 0 1 .286-.262zm.28-.097a.115.115 0 0 0-.118.106v.002l-.189 2.601h-.147a.13.13 0 0 0-.127.115v.001l-.049.46H96.65a.133.133 0 0 0-.132.132c0 .072.06.132.133.132h1.21l-.203 2.02a.086.086 0 0 0 .087.094h1.987a.085.085 0 0 0 .087-.093l-.203-2.021h1.211c.071 0 .13-.058.132-.129a.145.145 0 0 0-.143-.135h-1.402l-.049-.461a.13.13 0 0 0-.127-.115h-.152l-.21-2.6a.12.12 0 0 0-.117-.109z" clip-rule="evenodd"/><path fill="#bed0eb" d="M94.292 108.775h-1.61l-.254-3.106a.204.204 0 0 0-.199-.184h-.076a.197.197 0 0 0-.199.184l-.23 3.106h-1.603a.215.215 0 0 0-.214.214c0 .117.097.214.214.214h1.12l-.194 1.93a.167.167 0 0 0 .169.183h1.986a.167.167 0 0 0 .168-.183l-.199-1.93h1.12a.215.215 0 0 0 .215-.214.22.22 0 0 0-.214-.214"/><path fill="#fff" fill-rule="evenodd" d="M91.873 105.663a.277.277 0 0 1 .28-.259h.076c.146 0 .266.115.28.256v.002l.248 3.032h1.535a.3.3 0 0 1 .295.292v.003a.296.296 0 0 1-.295.295h-1.03l.189 1.841m-1.298-5.558a.115.115 0 0 0-.118.106v.002l-.234 3.182h-1.68a.133.133 0 0 0-.133.132c0 .072.06.132.133.132h1.21l-.202 2.02a.086.086 0 0 0 .087.094h1.986a.085.085 0 0 0 .087-.093l-.208-2.021h1.21a.133.133 0 0 0 .133-.13.137.137 0 0 0-.132-.134h-1.685l-.26-3.181a.12.12 0 0 0-.118-.109z" clip-rule="evenodd"/><path fill="#fff" d="m128.438 98.91-53.07 47.093v-18.685l32.027-28.407zm6.005 1.157v4.664l-59.07 52.41v-4.665zm-.006 35.99v11.677l-42.233 37.462H79.039z" opacity=".2"/><path fill="#28478c" d="M130.399 137.737h-13.898v5.994h13.898z"/><path fill="#1f2b5b" d="M121.308 140.457h-2.602a.74.74 0 0 1-.738-.739v-.142c0-.408.331-.739.738-.739h2.602a.74.74 0 0 1 .739.739v.142a.74.74 0 0 1-.739.739"/><path fill="url(#b)" d="M257.498 69.444v30.892c0 .754-.591 1.36-1.319 1.36h-41.908a1.3 1.3 0 0 1-.948-.412 1.4 1.4 0 0 1-.371-.948V69.444c0-.367.142-.703.371-.947.24-.255.576-.413.948-.413h41.908c.728 0 1.319.606 1.319 1.36"/><path fill="#dfe9f7" d="M215.641 100.372a1.39 1.39 0 0 1-1.396-1.395V70.952a1.39 1.39 0 0 1 1.396-1.396h39.168c.769 0 1.395.627 1.395 1.396v28.025c0 .769-.626 1.395-1.395 1.395z"/><path fill="#fff" d="M254.809 69.72c.682 0 1.232.55 1.232 1.232v28.025a1.23 1.23 0 0 1-1.232 1.232h-39.168c-.347 0-.662-.142-.887-.377a1.24 1.24 0 0 1-.346-.86V70.947c0-.337.133-.637.346-.861.225-.23.54-.377.887-.377h39.168m0-.31h-39.168a1.557 1.557 0 0 0-1.554 1.553v28.025c0 .407.158.79.438 1.079.296.306.693.474 1.116.474h39.168c.855 0 1.553-.698 1.553-1.553V70.952a1.55 1.55 0 0 0-1.553-1.554"/><path fill="#fff" d="m241.675 78.137-5.307 4.706h.005l-7.013 6.172 14.902 11.199h-2.537l-13.536-10.17-11.56 10.17h-.993a1.22 1.22 0 0 1-.887-.377L234.005 82.9l-16.414-13.175h2.434l15.141 12.156 13.705-12.156h2.291l-8.316 7.374 13.195 8.974v1.843z"/><path fill="#bed0eb" d="m234.891 88.343 6.646-6a.514.514 0 0 1 .647-.035l10.475 7.466c.26.189.291.566.067.79l-6.85 6.814a.517.517 0 0 1-.693.035l-10.277-8.275a.533.533 0 0 1-.015-.795"/><path fill="url(#c)" d="m222.006 99.298 6.427-5.46a.52.52 0 0 1 .647-.02l7.273 5.46c.397.3.188.931-.311.931h-13.699c-.484.005-.703-.596-.337-.911"/><path fill="#bed0eb" d="m223.988 79.523-8.76 6.37a.52.52 0 0 1-.825-.417V70.952c.005-.444.545-.668.871-.362l8.759 8.138a.513.513 0 0 1-.045.795"/><path fill="url(#d)" d="m227.069 86.28-3.183-3.503a.516.516 0 0 0-.708-.056l-3.234 2.592a.516.516 0 0 0-.056.754l3.29 3.565a.52.52 0 0 0 .718.045l3.132-2.653a.52.52 0 0 0 .041-.743"/><path fill="#bed0eb" d="m228.24 85.99 2.287-1.935a.517.517 0 0 0 0-.79l-3.581-3.03a.52.52 0 0 0-.656-.01l-1.88 1.508a.52.52 0 0 0-.061.754c1.019 1.115 2.165 2.368 3.173 3.463a.52.52 0 0 0 .718.04"/><path fill="url(#e)" d="m218.126 86.77-3.524 2.826a.52.52 0 0 0-.194.402v6.585a.52.52 0 0 0 .856.397l6.921-5.861a.52.52 0 0 0 .041-.754l-3.397-3.55a.525.525 0 0 0-.703-.046"/><path fill="#bed0eb" d="M245.026 70.636c-3.57 2.99-8.215 6.906-9.473 7.965a.52.52 0 0 1-.662.005l-9.808-7.965c-.377-.306-.163-.922.325-.922h19.281a.52.52 0 0 1 .337.917"/><path fill="url(#f)" d="M256.046 70.239v12.253a.517.517 0 0 1-.81.427c-2.694-1.818-7.425-4.934-9.029-5.994a.518.518 0 0 1-.066-.814 908 908 0 0 1 6.839-6.26.52.52 0 0 1 .347-.132h2.2c.285 0 .519.234.519.52"/><path fill="url(#g)" d="M235.405 48.65c-15.186 0-4.868 18.935-1.171 25.006a1.34 1.34 0 0 0 2.302-.026c3.545-6.09 13.353-24.98-1.131-24.98m-.178 11.989a3.407 3.407 0 1 1 0-6.814 3.407 3.407 0 0 1 0 6.814"/><path fill="#f1f2f2" d="M185.996 120.845c1.502 2.719 4.466 6.921 6.656 9.926q.055.075.117.152a4.45 4.45 0 0 0 6.157.774 4.45 4.45 0 0 0 1.054-5.963l-7.583-11.713s-2.969-4.558-6.615-3.596c-1.543.408-2.2 1.508-2.246 2.995-.071 2.027.988 4.756 2.46 7.425"/><path fill="#c8c7cc" d="M187.401 123.218a130 130 0 0 1 5.725 8.179 125 125 0 0 1-5.725-8.179"/><path fill="#f1f2f2" d="M160.66 120.865c-1.355 2.791-4.095 7.145-6.122 10.262-.035.056-.071.107-.107.163a4.447 4.447 0 0 1-7.471-4.802l6.952-12.096s2.724-4.705 6.417-3.941c1.563.326 2.276 1.39 2.403 2.872.168 2.017-.743 4.802-2.072 7.542"/><path fill="#c8c7cc" d="M159.381 123.31a127 127 0 0 1-5.281 8.469 126 126 0 0 1 5.281-8.469"/><path fill="#665b6b" d="M171.746 174.909h-11.341l.779-26.161h10.303z"/><path fill="#e6e7e8" d="m160.589 180.144.529-3.315a4.87 4.87 0 0 1 3.046-3.769l.086-.03a4.865 4.865 0 0 1 6.631 4.537v3.219z"/><path fill="#f1f2f2" d="M159.244 183.393s-.81-5.846 6.05-6.483c0 0 6.335-.463 6.05 6.483z"/><path fill="#d1d3d4" d="m167.703 175.958-.183-.036a9.5 9.5 0 0 0-3.754 0l-.183.036a.455.455 0 0 1-.545-.443c0-.214.153-.402.367-.443l.361-.071a9.5 9.5 0 0 1 3.754 0l.361.071a.452.452 0 1 1-.178.886"/><path fill="#d1d3d4" d="m167.703 174.919-.183-.035a9.5 9.5 0 0 0-3.754 0l-.183.035a.455.455 0 0 1-.545-.443c0-.214.153-.402.367-.443l.361-.071a9.5 9.5 0 0 1 3.754 0l.361.071a.45.45 0 0 1 .367.443.455.455 0 0 1-.545.443m0 2.078-.183-.036a9.5 9.5 0 0 0-3.754 0l-.183.036a.455.455 0 0 1-.545-.443c0-.214.153-.402.367-.443l.361-.071a9.5 9.5 0 0 1 3.754 0l.361.071a.45.45 0 0 1 .367.443c0 .28-.265.499-.545.443"/><path fill="#5e769d" d="M158.984 183.393s3.316-2.144 6.086-2.144c0 0 2.826-.346 6.009 2.144z"/><path fill="#665b6b" d="M175.592 174.909h11.346l-.784-26.161h-10.303z"/><path fill="#e6e7e8" d="m186.75 180.144-.53-3.315a4.87 4.87 0 0 0-3.045-3.769l-.087-.03a4.865 4.865 0 0 0-6.631 4.537v3.219z"/><path fill="#f1f2f2" d="M188.094 183.393s.81-5.846-6.05-6.483c0 0-6.335-.463-6.05 6.483z"/><path fill="#d1d3d4" d="m179.635 175.958.183-.036a9.5 9.5 0 0 1 3.754 0l.183.036a.455.455 0 0 0 .545-.443.45.45 0 0 0-.367-.443l-.361-.071a9.5 9.5 0 0 0-3.754 0l-.361.071a.45.45 0 0 0-.367.443.455.455 0 0 0 .545.443"/><path fill="#d1d3d4" d="m179.635 174.919.183-.035a9.5 9.5 0 0 1 3.754 0l.183.035a.455.455 0 0 0 .545-.443.45.45 0 0 0-.367-.443l-.361-.071a9.5 9.5 0 0 0-3.754 0l-.361.071a.45.45 0 0 0-.367.443.457.457 0 0 0 .545.443m0 2.078.183-.036a9.5 9.5 0 0 1 3.754 0l.183.036a.455.455 0 0 0 .545-.443.45.45 0 0 0-.367-.443l-.361-.071a9.5 9.5 0 0 0-3.754 0l-.361.071a.45.45 0 0 0-.367.443.46.46 0 0 0 .545.443"/><path fill="#5e769d" d="M188.354 183.393s-3.316-2.144-6.086-2.144c0 0-2.826-.346-6.009 2.144z"/><path fill="#f1f2f2" d="m169.261 108.536-4.822.575c-1.656.525-2.903.652-3.835.932-1.722.515-2.898 2.328-2.908 4.1-.056 7.175.698 16.948.524 19.968-.203 3.489-.433 3.555-.575 5.755-.474 7.272-.795 17.081-.851 18.033-.056.958.53.764.856 1.065s11.611 2.256 14.723.708c1.181-.586 1.268-2.236 1.268-2.236s.092 1.65 1.268 2.236c3.112 1.548 14.397-.408 14.723-.708.326-.301.912-.107.856-1.065-.056-.957-.377-10.761-.851-18.033-.142-2.205-.372-2.271-.575-5.755-.173-3.02.58-12.782.524-19.958-.015-1.813-1.252-3.657-3.035-4.13-1.054-.28-2.465-.403-4.344-.917l-4.507-.555a35 35 0 0 0-8.439-.015"/><path fill="#c8c7cc" d="M173.636 157.436a757 757 0 0 1-.127-28.27c.214 9.121.259 19.149.127 28.27"/><path fill="#efb1ac" d="m178.377 115.278 1.783-7.786a2.606 2.606 0 0 0-2.419-3.453l-7.624-.133a2.604 2.604 0 0 0-2.597 3.122l1.594 7.807a2.604 2.604 0 0 0 2.464 2.083l4.248.107a2.59 2.59 0 0 0 2.551-1.747"/><path fill="#c8c7cc" d="M173.539 117.035a.452.452 0 1 0 0-.906.453.453 0 0 0 0 .906"/><path fill="url(#h)" d="M173.448 116.995a.453.453 0 1 0 0-.907.453.453 0 0 0 0 .907"/><path fill="#f1f2f2" d="m180.71 107.69 1.426.255s-3.127 14.387-8.638 20.946c0 0-6.788-14.137-6.63-21.262l.336.102.978 1.416a13 13 0 0 0 3.682 3.565l2.032 1.309 1.889-1.141a13.1 13.1 0 0 0 4.11-3.937z"/><path fill="#c8c7cc" d="M173.534 113.914s-.514-.347-.968.045c-.453.393-2.154 5.429-2.154 5.429s-.203-3.952.204-5.444c.412-1.497 2.195-1.584 2.587-1.069.387.519.331 1.039.331 1.039"/><path fill="#f1f2f2" d="m173.967 114.031-.56-1.421s-1.946-.331-3.438-2.154c-1.497-1.829-1.594-2.608-1.594-2.608l-1.054-.229s-.56 1.1-.183 3.346c.376 2.246 3.116 8.179 3.116 8.179s1.661-4.604 1.854-5.047.418-.866.779-.825.637.647.637.647z"/><path fill="#c8c7cc" d="M174.461 113.797s.382-.209.835.183 2.17 5.429 2.17 5.429.208-3.952-.209-5.444c-.413-1.498-2.216-1.584-2.608-1.07-.387.514-.188.902-.188.902"/><path fill="#f1f2f2" d="m173.967 114.031.479-1.406s1.782-.31 3.29-2.134c1.507-1.828 1.782-2.627 1.782-2.627l1.059-.23s.566 1.1.184 3.346c-.377 2.246-3.148 8.179-3.148 8.179s-1.675-4.604-1.869-5.047-.422-.866-.784-.825-.504.51-.504.51z"/><path fill="#c8c7cc" d="M174.364 114.194c.026 3.992-.086 8.382-.321 12.365-.025-3.988.092-8.378.321-12.365m-.978 1.818a.54.54 0 1 0 0-1.08.54.54 0 0 0 0 1.08"/><path fill="#e6e7e8" d="M173.279 115.961a.54.54 0 1 0 0-1.08.54.54 0 0 0 0 1.08"/><path fill="#c8c7cc" d="M173.137 123.687a.54.54 0 1 0 0-1.08.54.54 0 0 0 0 1.08"/><path fill="#e6e7e8" d="M173.03 123.636a.54.54 0 1 0 0-1.08.54.54 0 0 0 0 1.08"/><path fill="#c8c7cc" d="M164.382 113.42v1.853l3.433.382-3.163-.784zm1.508 4.838-.734.901 7.747 8.999z"/><path fill="#e6e7e8" d="M166.863 107.37s4.568 12.711 6.63 21.521l-8.26-10.246 2.236-2.959-3.392-.693.239-5.622a.67.67 0 0 1 .296-.525z"/><path fill="#c8c7cc" d="M182.915 113.42v1.853l-3.433.382 3.163-.784zm-1.502 4.838.733.901-7.746 8.999z"/><path fill="#e6e7e8" d="M180.44 107.37s-4.568 12.711-6.631 21.521l8.26-10.246-2.235-2.959 3.391-.693-.234-5.556a.8.8 0 0 0-.356-.631z"/><path fill="#5dc3b1" d="M158.831 122.821a.08.08 0 0 1-.081-.082v-.611c0-.31.255-.565.565-.565.311 0 .566.255.566.565v.611a.08.08 0 0 1-.082.082z"/><path fill="#fff" d="M159.315 121.644c.27 0 .484.219.484.484v.611h-.973v-.611a.49.49 0 0 1 .489-.484m0-.163a.65.65 0 0 0-.647.647v.611c0 .092.072.163.163.163h.973a.16.16 0 0 0 .163-.163v-.611a.65.65 0 0 0-.652-.647"/><path fill="#044d7c" d="M159.315 124.053a.567.567 0 0 1-.565-.565v-.611a.08.08 0 0 1 .081-.082h.973c.046 0 .082.036.082.082v.611a.575.575 0 0 1-.571.565"/><path fill="#fff" d="M159.799 122.877v.611a.484.484 0 1 1-.968 0v-.611zm0-.163h-.973a.16.16 0 0 0-.163.163v.611c0 .356.291.652.647.652s.647-.29.647-.652v-.611c.01-.092-.066-.163-.158-.163"/><path fill="#5dc3b1" d="M160.405 124.053a.566.566 0 0 1-.565-.565v-.611a.08.08 0 0 1 .081-.082h.973a.08.08 0 0 1 .081.082v.611a.567.567 0 0 1-.57.565"/><path fill="#fff" d="M160.889 122.877v.611a.484.484 0 1 1-.968 0v-.611zm0-.163h-.973a.16.16 0 0 0-.163.163v.611c0 .356.29.652.647.652a.65.65 0 0 0 .647-.652v-.611c.01-.092-.066-.163-.158-.163"/><path fill="#044d7c" d="M159.921 122.821a.08.08 0 0 1-.081-.082v-.611c0-.311.254-.565.565-.565s.565.254.565.565v.611a.08.08 0 0 1-.081.082z"/><path fill="#fff" d="M160.405 121.644c.27 0 .484.219.484.484v.611h-.973v-.611a.49.49 0 0 1 .489-.484m0-.163a.65.65 0 0 0-.647.647v.611c0 .092.072.163.163.163h.973a.16.16 0 0 0 .163-.163v-.611a.65.65 0 0 0-.652-.647"/><path fill="#5dc3b1" d="M159.799 122.739h-.973v-.611a.484.484 0 1 1 .968 0v.611z"/><path fill="#044d7c" d="M158.831 122.877h.973v.611a.484.484 0 1 1-.967 0v-.611z"/><path fill="#5dc3b1" d="M159.921 122.877h.973v.611a.484.484 0 1 1-.968 0v-.611z"/><path fill="#044d7c" d="M160.889 122.739h-.973v-.611a.484.484 0 1 1 .968 0v.611z"/><path fill="#e46587" d="M159.86 123.289c-.015 0-.061-.01-.071-.02-.036-.02-.347-.204-.433-.423a.4.4 0 0 1 .02-.336.31.31 0 0 1 .224-.168l.051-.005q.1.001.209.071a.37.37 0 0 1 .209-.071l.051.005c.096.02.178.076.224.168a.4.4 0 0 1 .02.336c-.091.219-.397.403-.433.423a.3.3 0 0 1-.071.02"/><path fill="#fff" d="M160.069 122.418q.016-.001.041.006c.168.03.244.239.183.387-.081.198-.397.382-.397.382a.1.1 0 0 1-.031.01c-.02 0-.03-.01-.03-.01s-.316-.184-.398-.382c-.061-.148.016-.357.184-.387.015 0 .025-.006.041-.006.076 0 .147.041.203.092a.32.32 0 0 1 .204-.092m0-.168a.5.5 0 0 0-.209.056.45.45 0 0 0-.204-.056c-.025 0-.045 0-.071.006a.4.4 0 0 0-.285.208.5.5 0 0 0-.025.408c.101.244.432.443.468.463a.23.23 0 0 0 .234 0c.036-.02.367-.219.464-.463a.5.5 0 0 0-.026-.408.4.4 0 0 0-.285-.208c-.015 0-.041-.006-.061-.006"/><path fill="#5dc3b1" d="M161.24 123.167v-.071h.372v.071h-.148v.402h-.081v-.402zm.509-.071v.193h.225v-.193h.081v.473h-.081v-.208h-.225v.208h-.081v-.473zm.627 0 .183.473h-.091l-.046-.132h-.178a.06.06 0 0 0-.011.036c0 .015-.01.02-.01.03q-.001.016-.01.031a.1.1 0 0 0-.01.035h-.087l.178-.473zm.015.27-.061-.173-.061.173zm.301-.27v.473h-.082v-.473zm.183 0v.402h.234v.071h-.321v-.473zm.525 0 .183.473h-.092l-.046-.132h-.178q-.009.013-.01.036c0 .015-.01.02-.01.03q-.001.016-.01.031a.06.06 0 0 0-.011.035h-.086l.178-.473zm.015.27-.061-.173-.061.173zm.509.203-.214-.351v.351h-.081v-.473h.096l.214.351v-.351h.082v.473zm.357-.473q.054 0 .101.015.047.017.077.041.03.028.046.071.015.045.015.097a.27.27 0 0 1-.056.183.2.2 0 0 1-.071.046.3.3 0 0 1-.107.015h-.168v-.473h.163zm.005.402h.015c.005 0 .015 0 .02-.005.011 0 .016-.005.026-.005s.015-.01.025-.015a.04.04 0 0 0 .021-.021c.005-.01.015-.02.02-.03l.015-.041q.006-.022.005-.051a.3.3 0 0 0-.01-.071q-.009-.03-.025-.051a.08.08 0 0 0-.046-.031.3.3 0 0 0-.066-.01h-.092v.331z"/><path fill="#044d7c" d="M161.245 122.301v-.122h.505v.122h-.184v.515h-.137v-.515zm1.039-.122v.112h-.331v.138h.311v.112h-.311v.158h.336v.112h-.468v-.632zm.219 0v.514h.301v.118h-.438v-.632zm.835 0v.112h-.331v.138h.311v.112h-.311v.158h.337v.112h-.469v-.632zm.214 0v.25h.26v-.25h.138v.632h-.138v-.27h-.26v.27h-.137v-.632zm.983 0v.112h-.331v.138h.311v.112h-.311v.158h.336v.112h-.468v-.632zm.265 0h.148l.234.632h-.148l-.045-.143h-.24l-.051.143h-.142zm-.01.387h.163l-.082-.234zm.591-.387v.514h.3v.118h-.438v-.632z"/><path fill="#5dc3b1" d="M165.656 122.301v-.122h.504v.122h-.184v.515h-.137v-.515zm.708-.122v.25h.259v-.25h.138v.632h-.138v-.27h-.259v.27h-.138v-.632z"/><path fill="#e5e5e5" d="M182.212 151.279c1.487.57 8.795.153 8.754-.509-.239-3.861-.473-7.721-.713-11.581-.005-.107-.015-.219-.091-.296-.087-.081-.219-.081-.336-.081-2.705.107-5.414.219-8.118.326-.143.005-.301.015-.402.117-.128.117-.123.316-.112.489.224 3.667.453 7.333.677 11 .01.153.025.316.137.423a.7.7 0 0 0 .204.112"/><path fill="#c8c7cc" d="M181.229 140.314c.291 3.397.499 6.794.627 10.201a213 213 0 0 1-.627-10.201m9.284 10.741c-2.709.621-5.566.733-8.301.224 2.76.346 5.561.234 8.301-.224"/><path fill="#e5e5e5" d="M165.06 151.279c-1.487.57-8.795.153-8.755-.509.24-3.861.474-7.721.713-11.581.006-.107.016-.219.092-.296.087-.081.219-.081.336-.081 2.704.107 5.414.219 8.118.326.143.005.3.015.402.117.128.117.123.316.112.489-.224 3.667-.453 7.333-.677 11-.01.153-.025.316-.137.423a.8.8 0 0 1-.204.112"/><path fill="#c8c7cc" d="M166.043 140.314a213 213 0 0 1-.627 10.201c.122-3.407.336-6.804.627-10.201m-9.284 10.741c2.74.458 5.541.57 8.301.224-2.735.509-5.592.397-8.301-.224"/><path fill="#2d1714" d="M172.974 105.164c15.002 0 27.164-10.055 27.164-22.458 0-12.404-12.162-22.46-27.164-22.46s-27.165 10.056-27.165 22.46c0 12.403 12.162 22.458 27.165 22.458"/><path fill="#fcd7cc" d="M195.244 86.5s2.837-3.85 6.483-1.39c1.594 1.074 2.368 3.57 2.241 5.326-.372 5.042-4.273 9.29-9.533 8.45z"/><path fill="#efb1ac" d="M201.671 88.104c-.066-.423-.213-.84-.478-1.177-.316-.402-.861-.81-1.752-.81-1.788-.005-2.827 2.134-2.434 3.066.387.932 1.059 1.386.972 2.613s-1.538 1.884-1.752 2.786c-.214.901.841 2.312 2.603 1.472 1.696-.81 3.417-4.278 2.841-7.95"/><path fill="#c66" d="M201.646 88.104c-.642-2.694-4.039-2.154-4.461.361-.123.566.203.973.468 1.442.744 1.054.678 2.52-.336 3.376-.412.413-.901.754-1.12 1.299.234-1.085 1.634-1.752 1.558-2.918.036-.871-.606-1.518-.968-2.282-.575-1.523.851-3.376 2.414-3.448 1.263-.127 2.445.917 2.445 2.17"/><path fill="#fcd7cc" d="M151.447 86.5s-2.837-3.85-6.483-1.39c-1.594 1.074-2.368 3.57-2.241 5.326.372 5.042 4.273 9.29 9.534 8.45z"/><path fill="#efb1ac" d="M145.02 88.104c.066-.423.214-.84.479-1.177.316-.402.86-.81 1.752-.81 1.787-.005 2.826 2.134 2.434 3.066-.387.932-1.059 1.386-.973 2.613.087 1.227 1.538 1.884 1.752 2.786.214.901-.84 2.312-2.602 1.472-1.696-.81-3.417-4.278-2.842-7.95"/><path fill="#c66" d="M145.046 88.104c.04-2.134 2.76-2.893 4.12-1.375.626.677 1.145 1.726.738 2.653-.362.764-1.003 1.41-.968 2.282-.076 1.17 1.324 1.838 1.559 2.918-.219-.545-.708-.881-1.121-1.299-1.436-1.365-.784-2.679.067-4.115.101-.224.112-.443.066-.703-.423-2.51-3.82-3.055-4.461-.361"/><path fill="#fcd7cc" d="M173.208 109.885c11.245-.769 16.928-4.466 19.755-7.603 1.747-1.935 2.648-4.487 2.587-7.094-.133-5.48.117-15.747.117-15.747s-1.619-18.405-22.459-19.103h.005c-20.834.693-22.459 19.103-22.459 19.103s.25 10.267.118 15.747c-.062 2.607.84 5.159 2.587 7.094 2.826 3.137 8.51 6.834 19.754 7.603"/><path fill="#efb1ac" d="M181 64.84s11.102 1.228 13.944 14.03c0 0-2.022-16.388-13.944-14.03m-.046-.957c-.53.417-1.115.784-1.762.998-.83.27-1.721.275-2.597.336-1.941.143-3.845.586-5.704 1.136-2.073.616-4.105 1.37-5.979 2.414-2.816 1.568-5.2 3.743-7.797 5.622a41.5 41.5 0 0 1-6.121 3.662c-.331.163-.703.32-1.065.351.097.372.306.683.657.83.51.21 1.08-.035 1.569-.285a40.3 40.3 0 0 0 5.882-3.662c2.495-1.874 4.787-4.053 7.486-5.622 1.803-1.044 3.754-1.798 5.745-2.414 1.787-.55 3.616-.998 5.48-1.135.84-.062 1.695-.067 2.49-.337.621-.208 1.186-.58 1.696-.998 1.701-1.4 2.867-3.473 3.106-5.648-.443 1.839-1.558 3.55-3.086 4.752"/><path fill="#fff3f0" d="M167.163 92.005c.733-2.15-.58-5.271-2.592-6.646-1.91-1.304-4.293-1.156-6.315-.153-3.402 1.686-4.874 7.043-.56 8.571.321.117.657.204.998.27.947.188 1.925.214 2.893.214.865 0 1.736-.026 2.582-.194.983-.193 1.996-.626 2.597-1.36.188-.223.316-.458.397-.702"/><path fill="#090d0a" d="M164.576 85.359c-1.91-1.304-4.293-1.156-6.315-.153-2.409 1.192-3.85 4.227-2.954 6.442-1.584-2.225-.061-5.78 2.679-7.099 2.088-1.003 4.543-1.15 6.503.153 1.762 1.166 3 3.606 2.863 5.632-.123-1.874-1.243-3.931-2.776-4.975"/><path fill="#2d1714" d="M186.2 52.175c-.311-.504-.718-.942-1.136-1.36-4.752-4.706-11.876-6.64-18.497-5.704-6.62.937-12.696 4.543-17.279 9.412-1.411 1.502-2.73 3.193-3.219 5.194-.3 1.233-.423 2.689-1.207 3.789-.815 1.136-1.212 2.43-.667 3.835-1.446 2.343-1.278 5.301-1.064 8.046.107 1.365.376 2.98 1.614 3.56-.234.937-.092 2.16.8 2.521.631.255 1.334-.046 1.94-.351a49.6 49.6 0 0 0 7.277-4.533c3.092-2.322 5.923-5.016 9.269-6.957 2.226-1.293 4.645-2.225 7.11-2.989 2.21-.682 4.471-1.232 6.778-1.406 1.039-.076 2.098-.081 3.086-.417.774-.26 1.467-.713 2.098-1.233 2.633-2.159 4.227-5.632 3.855-9.014-.086-.764-.264-1.527-.636-2.2-.046-.06-.082-.127-.122-.193"/><path fill="#2d1714" d="m186.2 52.175-2.195 2.943a4.36 4.36 0 0 0-.851 2.43c-.198 4.72-2.154 7.267-2.154 7.267s6.656-.357 10.608 4.848c.285.377.509.795.683 1.233l1.711 4.338a22.3 22.3 0 0 1 1.548 8.714l-.204 8.566c.005.061.092.061.097 0l.433-5.322c.336-2.302 1.782-2.826 4.084-3.167l.127-.02c9.111-29.12-13.887-31.83-13.887-31.83"/><path fill="url(#i)" d="M175.678 95.208s-1.074-1.375-2.134-1.41c-1.059-.041-2.256 1.16-2.373 1.817s1.019 1.238 2.282 1.284c1.283.046 2.795-.489 2.225-1.69"/><path fill="#c66" d="M175.795 95.896s-.55.896-2.21.845c-1.528-.046-2.373-.805-2.373-.805s.835 1.299 2.281 1.31c1.1.014 1.691-.27 2.302-1.35"/><path fill="#2d1714" d="m147.485 81.122 2.994 10.648c.067.235.408.184.408-.055l-.128-12.269z"/><path fill="url(#j)" d="M116.063 59.05h79.813v79.812h-79.813z" opacity=".5"/><path fill="url(#k)" d="M149.552 59.05h79.813v79.812h-79.813z" opacity=".5"/><path fill="#fff3f0" d="M179.61 92.005c-.734-2.15.58-5.271 2.592-6.646 1.91-1.304 4.293-1.156 6.315-.153 3.402 1.686 4.873 7.043.56 8.571a6.6 6.6 0 0 1-.998.27c-.947.188-1.925.214-2.893.214-.866 0-1.736-.026-2.582-.194-.983-.193-1.996-.626-2.597-1.36a2.3 2.3 0 0 1-.397-.702"/><path fill="#090d0a" d="M182.197 85.359c1.909-1.304 4.293-1.156 6.315-.153 2.409 1.192 3.85 4.227 2.953 6.442 1.584-2.225.062-5.78-2.678-7.099-2.088-1.003-4.543-1.15-6.504.153-1.762 1.166-2.999 3.606-2.862 5.632.122-1.874 1.248-3.931 2.776-4.975"/><path fill="#331a0e" d="M184.6 94.979c2.777 0 5.027-2.098 5.027-4.685 0-2.588-2.25-4.686-5.027-4.686-2.776 0-5.026 2.098-5.026 4.686s2.25 4.685 5.026 4.685"/><path fill="url(#l)" d="M184.6 94.806c2.675 0 4.844-2.02 4.844-4.512s-2.169-4.513-4.844-4.513c-2.674 0-4.843 2.02-4.843 4.513s2.169 4.512 4.843 4.512"/><path fill="#090d0a" d="M184.6 93.1c1.663 0 3.01-1.257 3.01-2.806s-1.347-2.806-3.01-2.806-3.009 1.256-3.009 2.806 1.347 2.806 3.009 2.806"/><path fill="#fff5f1" d="M186.352 89.555c.695 0 1.258-.483 1.258-1.08 0-.596-.563-1.08-1.258-1.08-.694 0-1.258.484-1.258 1.08s.564 1.08 1.258 1.08"/><path fill="#331a0e" d="M162.177 94.979c2.776 0 5.027-2.098 5.027-4.685 0-2.588-2.251-4.686-5.027-4.686s-5.026 2.098-5.026 4.686 2.25 4.685 5.026 4.685"/><path fill="url(#m)" d="M162.177 94.806c2.675 0 4.844-2.02 4.844-4.512s-2.169-4.513-4.844-4.513c-2.674 0-4.843 2.02-4.843 4.513s2.169 4.512 4.843 4.512"/><path fill="#090d0a" d="M162.177 93.1c1.663 0 3.01-1.257 3.01-2.806s-1.347-2.806-3.01-2.806-3.009 1.256-3.009 2.806 1.347 2.806 3.009 2.806"/><path fill="#fff5f1" d="M164.113 89.555c.694 0 1.258-.483 1.258-1.08 0-.596-.564-1.08-1.258-1.08s-1.258.484-1.258 1.08.563 1.08 1.258 1.08"/><path fill="#2d1714" d="M165.045 82.16c-1.768-.6-7.186-2.194-10.914-.661-.107.04-.189-.087-.107-.163 1.212-1.095 5.087-3.891 11.066-1.676a.7.7 0 0 1 .189.107c.239.204.845.845.591 1.94a.636.636 0 0 1-.825.454m15.476-.081c1.818-.424 7.369-1.478 10.929.417.102.05.199-.072.122-.153-1.1-1.207-4.68-4.375-10.847-2.755a.6.6 0 0 0-.199.091c-.259.184-.927.76-.779 1.875a.64.64 0 0 0 .774.524"/><path fill="#c66" d="M167.8 99.237c3.824 1.924 8.377 2.062 12.171 0-.438.315-.865.662-1.339.921-3.346 1.93-7.828 1.457-10.832-.921"/><path fill="#24110a" d="M193.126 66.928c3.621 4.538 5.342 10.802 3.936 16.496.031-.729.153-1.442.133-2.165.142-5.047-1.487-10.037-4.069-14.33"/><path fill="#24110a" d="M192.896 63.226c2.623 1.462 4.156 4.329 4.991 7.125.433 1.609.637 3.213.703 4.878-.02.657-.025 1.314-.056 1.966-.061-.652-.097-1.303-.148-1.955-.463-4.41-1.782-9.239-5.49-12.014m-6.177-7.257c5.128.642 9.758 4.212 11.922 8.866.148.31.285.622.423.932-2.669-4.705-7.074-8.408-12.345-9.798m-4.013-3.794c-2.918-2.603-6.707-3.886-10.521-4.405-.55-.077-1.111-.123-1.671-.214 4.421-.678 9.605.774 12.192 4.619m-37.661 22.998c2.944-2.256 5.918-4.354 8.877-6.59-2.47 2.77-5.561 4.95-8.877 6.59"/><path fill="#633e36" d="M152.369 52.22a5.53 5.53 0 0 0-1.818 2.786c-.041.153-.082.316-.046.474.117.56.876.555 1.405.412.668-.178 1.33-.351 1.997-.53.198-.05.448-.09.585.072.138.163.062.418-.035.611-.555 1.105-1.64 1.854-2.154 2.984-.123.265-.209.576-.102.851.117.306.438.479.748.54.932.183 1.839-.331 2.756-.576s2.149-.035 2.403.912c.173.647-.198 1.299-.494 1.9-.295.6-.489 1.4-.046 1.889.398.438 1.08.361 1.645.234a26.8 26.8 0 0 0 5.628-1.96c.657-.316 2.271-.52 2.572-1.325.402-1.07-1.335-1.033-2.032-1.227-.26-.071-.53-.148-.739-.326-.305-.255-.433-.667-.616-1.024-.392-.769-1.095-1.364-1.9-1.599-.865-.254-2.021-.264-2.322-1.15-.142-.418-.015-.876-.061-1.315-.081-.718-.657-1.298-1.309-1.538-.652-.239-1.375-.183-2.052-.04-.413.086-.835.209-1.253.153s-.845-.352-.906-.79c-.036-.255.05-.535-.062-.764-.198-.417-.804-.3-1.191-.066a4.6 4.6 0 0 0-.601.413" opacity=".5"/><path fill="#24110a" d="M146.746 76.839c4.35-2.669 8.378-5.887 12.116-9.35 4.466-3.881 10.45-6.163 16.388-5.659.734.077 1.457.204 2.18.316-.733-.025-1.462-.086-2.19-.107-5.072-.015-10.068 1.752-14.173 4.7-1.212.826-2.225 1.814-3.346 2.781-3.361 2.837-6.997 5.414-10.975 7.319m35.385-21.563c-3.983-3.397-9.616-3.967-14.617-3.162-1.711.265-3.366.738-5.041 1.196.804-.326 1.619-.626 2.434-.932 5.689-1.828 12.869-1.69 17.224 2.898"/><path fill="#633e36" d="M166.099 64.881c-.785.04-2.205 1.182-2.832 1.625-1.436 1.018-.606 1.68.84 1.502.927-.117 6.759-3.356 1.992-3.127m26.059-1.675c-.081-.2-.372-.556-.779-.978.866.55 1.125-.204.733-1.223-.28-.728-4.084-4.817-2.938-.988.056.184.203.398.392.617-1.869-1.411-3.881-2.19-2.796 1.298.306.953 2.475 2.272 3.346 2.878 1.996 1.385 2.755.107 2.042-1.605" opacity=".5"/><path fill="url(#n)" d="m163.746 121.191.57 5.449a.53.53 0 0 0 .586.474l3.407-.357a.53.53 0 0 0 .474-.585l-.571-5.449z"/><path fill="#fff" d="m164.863 126.411 3.343-.352-.467-4.441-3.342.351z"/><path fill="#507fc0" d="m163.634 120.183.081.769 4.482-.469-.082-.769a.27.27 0 0 0-.295-.239l-3.952.412a.273.273 0 0 0-.234.296"/><path fill="#5991cd" d="m163.333 120.59.051.504a.27.27 0 0 0 .296.24l4.629-.484a.27.27 0 0 0 .239-.295l-.051-.505a.27.27 0 0 0-.295-.239l-4.629.484a.27.27 0 0 0-.24.295"/><path fill="#5a9e84" d="m165.849 119.684.764 7.252 1.706-.179a.53.53 0 0 0 .474-.585l-.56-5.317.081-.01a.27.27 0 0 0 .239-.296l-.05-.504a.27.27 0 0 0-.296-.239l-.071.01-.01-.107a.27.27 0 0 0-.296-.239z" opacity=".5"/><path fill="url(#o)" d="m166.674 119.531.785 7.451a.5.5 0 0 0 .473.448h.077l4.69-.494a.5.5 0 0 0 .443-.55l-.784-7.451z"/><path fill="#fff" d="m166.904 121.736.315 3 3.728-.392a.543.543 0 0 0 .484-.596l-.204-1.915a.54.54 0 0 0-.596-.484z"/><path fill="#bed0eb" d="m166.965 122.301.03.286 3.341-.352c.076-.01.138-.076.127-.158a.16.16 0 0 0-.051-.097.13.13 0 0 0-.106-.03zm.081.795.031.285 3.341-.351c.076-.011.137-.082.127-.158a.16.16 0 0 0-.051-.097.13.13 0 0 0-.107-.031zm.087.789.03.285 3.341-.351a.143.143 0 0 0 .128-.158.17.17 0 0 0-.051-.097.14.14 0 0 0-.107-.03z"/><path fill="url(#p)" d="m166.43 119.801 6.223-.652a.273.273 0 0 0 .245-.306l-.046-.427-6.774.713.046.427c.016.153.153.26.306.245"/><path fill="#507fc0" d="m166.46 118.838 5.959-.626-.143-1.339a.54.54 0 0 0-.596-.484l-4.883.514a.543.543 0 0 0-.484.596z"/><path fill="#5991cd" d="m166.094 119.266 6.773-.713a.273.273 0 0 0 .245-.305l-.118-1.106a.27.27 0 0 0-.305-.244l-6.773.713a.273.273 0 0 0-.245.306l.117 1.105a.284.284 0 0 0 .306.244"/><path fill="#fff" d="M172.353 118.365a.204.204 0 0 0 .183-.229l-.081-.764a.206.206 0 0 0-.23-.184.204.204 0 0 0-.183.229l.082.764c.015.112.117.199.229.184m-1.156.122a.204.204 0 0 0 .183-.229l-.081-.764a.205.205 0 0 0-.23-.184.205.205 0 0 0-.183.23l.082.764c.01.112.112.198.229.183m-1.161.122a.204.204 0 0 0 .183-.229l-.082-.764a.203.203 0 0 0-.229-.183.204.204 0 0 0-.183.229l.081.764c.016.112.118.198.23.183m-1.157.122a.204.204 0 0 0 .184-.229l-.082-.764a.204.204 0 0 0-.229-.183.203.203 0 0 0-.183.229l.081.764c.01.112.112.194.229.183m-1.161.123a.205.205 0 0 0 .184-.23l-.082-.764a.204.204 0 0 0-.229-.183.203.203 0 0 0-.183.229l.081.764a.214.214 0 0 0 .229.184m-1.156.122a.204.204 0 0 0 .184-.229l-.082-.764a.204.204 0 0 0-.229-.184.204.204 0 0 0-.183.23l.081.763c.01.113.112.194.229.184"/><path fill="#bed0eb" d="m180.73 127.547-2.22-1.1c-.637-.316-.963-.963-.749-1.467l.041-.086 3.208-6.453a.475.475 0 0 1 .632-.214l2.663 1.324a.475.475 0 0 1 .214.632l-2.77 5.571-.362.728-.051.102-.092.179-.05.101-.225.454a.47.47 0 0 1-.239.229"/><path fill="#fff" d="M182.457 119.775a.063.063 0 0 1 .03.087l-2.974 5.989a.06.06 0 0 1-.081.025h-.005c-.031-.015-.041-.05-.026-.081l2.974-5.989c.015-.031.051-.046.082-.031"/><path fill="#5991cd" d="M181.153 119.169a.475.475 0 1 1 .85.422.475.475 0 0 1-.85-.422m-.744 1.503a.476.476 0 1 1 .851.424.476.476 0 0 1-.851-.424m-.748 1.497a.475.475 0 1 1 .85.424.475.475 0 0 1-.85-.424m-.744 1.502a.476.476 0 0 1 .851.423.476.476 0 0 1-.851-.423"/><path fill="#fff" d="M178.169 125.174a.474.474 0 1 1 .85.421.474.474 0 0 1-.85-.421"/><path fill="#5991cd" d="M182.915 120.045a.476.476 0 1 1 .852.425.476.476 0 0 1-.852-.425m-.749 1.498a.476.476 0 1 1 .851.424.476.476 0 0 1-.851-.424m-.743 1.502a.475.475 0 1 1 .85.424.475.475 0 0 1-.85-.424m-.321 2.185a.474.474 0 1 0 0-.947.474.474 0 0 0 0 .947"/><path fill="#fff" d="M179.931 126.045a.473.473 0 1 1 .85.422.475.475 0 0 1-.85-.422m1.268-6.743a.475.475 0 1 1 .85.424.475.475 0 0 1-.85-.424m-.749 1.497a.476.476 0 0 1 .851.423.476.476 0 0 1-.851-.423m-.743 1.502a.475.475 0 1 1 .85.424.475.475 0 0 1-.85-.424m-.749 1.467a.476.476 0 1 1 .852.425.476.476 0 0 1-.852-.425m3.249-2.134a.476.476 0 1 1 .852.425.476.476 0 0 1-.852-.425m-.743 1.503a.474.474 0 1 1 .85.421.474.474 0 0 1-.85-.421m-.749 1.461a.475.475 0 1 1 .85.422.475.475 0 0 1-.85-.422m2.241-4.425a.474.474 0 1 1 .85.421.474.474 0 0 1-.85-.421"/><path fill="#bed0eb" d="m179.355 127.959-2.455-.326c-.702-.091-1.222-.601-1.181-1.145l.01-.092.963-7.145a.467.467 0 0 1 .529-.403l2.944.398c.259.035.438.27.402.529l-.83 6.168-.107.809-.015.112-.026.199-.015.112-.066.504a.42.42 0 0 1-.153.28"/><path fill="#fff" d="M178.494 120.045c.041.005.062.036.056.072l-.896 6.625c-.005.036-.036.056-.071.051h-.005c-.036-.005-.056-.036-.051-.071l.896-6.626c.01-.03.041-.056.071-.051"/><path fill="#5991cd" d="M177.068 119.887a.476.476 0 1 1 .943.13.476.476 0 0 1-.943-.13m-.224 1.666a.477.477 0 0 1 .943.127.475.475 0 0 1-.943-.127m-.224 1.66a.475.475 0 1 1 .942.128.475.475 0 0 1-.942-.128m-.224 1.66a.475.475 0 1 1 .942.128.475.475 0 0 1-.942-.128"/><path fill="#fff" d="M176.172 126.533a.476.476 0 1 1 .943.13.476.476 0 0 1-.943-.13"/><path fill="#5991cd" d="M179.014 120.152a.475.475 0 1 1 .942.128.475.475 0 0 1-.942-.128m-.224 1.66a.476.476 0 1 1 .942.128.476.476 0 0 1-.942-.128m-.224 1.661a.476.476 0 1 1 .943.128.476.476 0 0 1-.943-.128m.244 2.2a.474.474 0 1 0 0-.947.474.474 0 0 0 0 .947"/><path fill="#fff" d="M178.118 126.798a.474.474 0 1 1 .94.126.474.474 0 0 1-.94-.126m-.968-6.799a.476.476 0 1 1 .943.13.476.476 0 0 1-.943-.13m-.224 1.661a.476.476 0 1 1 .94.127.476.476 0 0 1-.94-.127m-.224 1.66a.476.476 0 0 1 .942.127.476.476 0 0 1-.942-.127m-.234 1.63a.475.475 0 1 1 .942.126.475.475 0 0 1-.942-.126m2.393-3.066a.475.475 0 1 1 .942.126.475.475 0 0 1-.942-.126m-.224 1.665a.475.475 0 1 1 .942.128.475.475 0 0 1-.942-.128m-.239 1.625a.476.476 0 1 1 .943.128.476.476 0 0 1-.943-.128m.702-4.91a.476.476 0 1 1 .943.13.476.476 0 0 1-.943-.13"/><path fill="#bed0eb" d="m177.135 127.16-2.419.529c-.693.153-1.355-.147-1.503-.677l-.02-.092-1.533-7.043a.47.47 0 0 1 .362-.56l2.902-.632a.47.47 0 0 1 .561.362l1.324 6.081.173.794.025.107.041.199.026.107.106.494a.48.48 0 0 1-.045.331"/><path fill="#fff" d="M173.626 120.015c.035-.01.071.01.076.046l1.421 6.533c.005.036-.015.067-.046.072h-.005c-.036.005-.066-.015-.071-.046l-1.421-6.534c-.01-.031.01-.061.046-.071"/><path fill="#5991cd" d="M172.225 120.356a.476.476 0 0 1 .927-.204.477.477 0 0 1-.361.566.477.477 0 0 1-.566-.362m.357 1.635a.477.477 0 0 1 .361-.566.476.476 0 1 1-.361.566m.356 1.64a.477.477 0 0 1 .362-.566.476.476 0 0 1 .565.362.476.476 0 0 1-.361.565.477.477 0 0 1-.566-.361m.357 1.639a.476.476 0 0 1 .361-.565.477.477 0 0 1 .566.362.476.476 0 0 1-.362.565.476.476 0 0 1-.565-.362"/><path fill="#fff" d="M173.651 126.905a.476.476 0 0 1 .362-.565.476.476 0 0 1 .565.361.477.477 0 0 1-.361.566.477.477 0 0 1-.566-.362"/><path fill="#5991cd" d="M174.145 119.938a.476.476 0 0 1 .362-.565.476.476 0 0 1 .204.927.477.477 0 0 1-.566-.362m.357 1.635a.476.476 0 0 1 .361-.565.477.477 0 0 1 .566.361.477.477 0 0 1-.362.566.47.47 0 0 1-.565-.362m.356 1.64a.476.476 0 0 1 .927-.204.477.477 0 0 1-.361.566.477.477 0 0 1-.566-.362m.82 2.012a.474.474 0 1 0 0-.947.474.474 0 0 0 0 .947"/><path fill="#fff" d="M175.571 126.488a.477.477 0 0 1 .362-.566.476.476 0 0 1 .565.362.476.476 0 0 1-.361.565.473.473 0 0 1-.566-.361m-3.229-6.056a.476.476 0 0 1 .362-.565.476.476 0 0 1 .204.927.477.477 0 0 1-.566-.362m.357 1.635a.476.476 0 0 1 .361-.565.477.477 0 0 1 .566.361.477.477 0 0 1-.362.566.476.476 0 0 1-.565-.362m.356 1.64a.476.476 0 0 1 .927-.204.475.475 0 0 1-.927.204m.337 1.609a.476.476 0 0 1 .361-.565.476.476 0 0 1 .565.361.477.477 0 0 1-.361.566.47.47 0 0 1-.565-.362m1.201-3.697a.476.476 0 0 1 .927-.204.476.476 0 0 1-.361.565.466.466 0 0 1-.566-.361m.357 1.64a.477.477 0 0 1 .361-.566.476.476 0 1 1-.361.566m.331 1.609a.476.476 0 0 1 .927-.204.477.477 0 0 1-.362.566.476.476 0 0 1-.565-.362m-1.019-4.853a.476.476 0 1 1 .566.361.477.477 0 0 1-.566-.361"/><path fill="#5991cd" d="M184.697 122.811h-21.669v22.229h21.669z"/><path fill="#fff" d="M184.463 123.045v21.761h-21.206v-21.761zm.468-.464h-22.132v22.688h22.132z"/><path fill="#3554a5" d="m181.784 123.045-.198 19.617-2.542 2.149v-21.766z"/><path fill="#2c3b6e" d="m184.463 144.811-2.877-2.149.198-19.617h2.679z"/><path fill="#1f2b5b" d="M179.044 144.811h5.419l-2.877-2.149z"/><path fill="#fff" d="M170.565 133.531v-1.946a.631.631 0 1 1 1.263 0v1.946h2.119c.331 0 .595.265.595.596a.59.59 0 0 1-.595.595h-2.119v1.946a.631.631 0 0 1-1.263 0v-1.946h-2.119a.59.59 0 0 1-.595-.595c0-.331.264-.596.595-.596z"/><path fill="#2c3b6e" d="M166.847 126.34c.464 0 .841-.395.841-.881 0-.487-.377-.881-.841-.881s-.84.394-.84.881c0 .486.376.881.84.881m8.699 0c.464 0 .84-.395.84-.881 0-.487-.376-.881-.84-.881s-.841.394-.841.881c0 .486.377.881.841.881"/><path fill="#bed0eb" d="M171.197 130.19c-2.486 0-4.508-2.124-4.508-4.736 0-.163.123-.296.27-.296s.27.133.27.296c0 2.286 1.783 4.145 3.973 4.145s3.972-1.859 3.972-4.145c0-.163.122-.296.27-.296s.27.133.27.296c-.01 2.612-2.032 4.736-4.517 4.736"/><path fill="#f1f2f2" d="m189.5 140.742 10.032-7.726a4.586 4.586 0 1 0-5.765-7.134l-9.788 7.679s-.239 1.64 1.166 4.38c1.406 2.745 4.355 2.801 4.355 2.801"/><path fill="#c8c7cc" d="M187.432 130.75a56 56 0 0 1 5.475-4.166 57 57 0 0 1-5.475 4.166"/><path fill="#fcd7cc" d="M182.013 133.291c.056.591.556 1.034 1.116.973l2.76-.285c.56-.056.973-.591.917-1.182-.056-.59-.555-1.033-1.116-.972l-2.76.285c-.555.056-.968.586-.917 1.181"/><path fill="#fcd7cc" d="M181.586 135.222c.056.59.555 1.033 1.115.972l2.76-.285c.56-.056.973-.591.917-1.181s-.555-1.034-1.115-.973l-2.761.285c-.56.056-.972.586-.916 1.182"/><path fill="#fcd7cc" d="M181.784 137.152c.056.59.555 1.033 1.116.972l2.76-.285c.56-.056.973-.591.917-1.181-.057-.591-.556-1.034-1.116-.973l-2.76.285c-.56.056-.973.586-.917 1.182"/><path fill="#fcd7cc" d="M181.856 138.904c.015.565.463 1.018.998 1.003l2.638-.071c.535-.016.957-.489.947-1.06-.015-.565-.463-1.018-.998-1.003l-2.638.071c-.54.016-.963.494-.947 1.06"/><path fill="#c66" d="M185.319 133.999c-.917.153-1.834.25-2.761.285a22 22 0 0 1 2.761-.285m.198 1.93c-.916.153-1.833.25-2.76.286a23 23 0 0 1 2.76-.286m-.265 2.099q-1.199.12-2.398.066a16 16 0 0 1 2.398-.066"/><path fill="#f1f2f2" d="m157.91 140.742-10.033-7.726a4.586 4.586 0 1 1 5.765-7.134l9.788 7.679s.24 1.64-1.166 4.38c-1.401 2.745-4.354 2.801-4.354 2.801"/><path fill="#c8c7cc" d="M159.977 130.75a57 57 0 0 1-5.474-4.166 54 54 0 0 1 5.474 4.166"/><path fill="#fcd7cc" d="M165.396 133.291c-.056.591-.555 1.034-1.115.973l-2.761-.285c-.56-.056-.972-.591-.916-1.182.056-.59.555-1.033 1.115-.972l2.76.285c.56.056.973.586.917 1.181"/><path fill="#fcd7cc" d="M165.824 135.222c-.056.59-.555 1.033-1.116.972l-2.76-.285c-.56-.056-.973-.591-.917-1.181s.556-1.034 1.116-.973l2.76.285c.56.056.973.586.917 1.182"/><path fill="#fcd7cc" d="M165.625 137.152c-.056.59-.555 1.033-1.115.972l-2.76-.285c-.561-.056-.973-.591-.917-1.181s.555-1.034 1.115-.973l2.76.285c.561.056.973.586.917 1.182"/><path fill="#fcd7cc" d="M165.559 138.904c-.015.565-.463 1.018-.998 1.003l-2.638-.071c-.535-.016-.958-.489-.947-1.06.015-.565.463-1.018.998-1.003l2.638.071c.534.016.957.494.947 1.06"/><path fill="#c66" d="M162.096 133.999a22 22 0 0 1 2.76.285 22 22 0 0 1-2.76-.285m-.199 1.93q1.392.055 2.76.286a22 22 0 0 1-2.76-.286m.26 2.099a16 16 0 0 1 2.399.066q-1.2.054-2.399-.066"/><path fill="#5991cd" d="M234.534 143.711H112.717v54.518h121.817z"/><path fill="#3554a5" d="M234.534 195.102H112.717v3.127h121.817z"/><path fill="#fff" d="M198.774 169.149h-48.269a5.597 5.597 0 0 1-5.597-5.597v-1.095a5.597 5.597 0 0 1 5.597-5.597h48.269a5.596 5.596 0 0 1 5.596 5.597v1.095a5.6 5.6 0 0 1-5.596 5.597"/><path fill="#3554a5" d="M151.997 160.476h1.844c1.059 0 1.68.601 1.68 1.61 0 .916-.652 1.751-1.904 1.751-.403 0-.724-.035-.724-.035v2.052h-.896zm1.365 2.684c.718 0 1.243-.275 1.243-1.018 0-.596-.23-.978-.81-.978h-.897v1.966c.077.015.245.03.464.03m2.974-2.684h.896v2.287h2.099v-2.287h.896v5.378h-.896v-2.404h-2.099v2.404h-.896zm6.04 0h1.35l1.609 5.378h-.896l-.489-1.645h-1.737l-.468 1.645h-.922zm1.385 3.046-.723-2.638-.652 2.638zm2.159-3.046h1.885c1.059 0 1.624.606 1.624 1.533 0 .672-.331 1.238-1.059 1.487.402.774.922 1.594 1.324 2.358h-.967l-1.177-2.22h-.056c-.295 0-.718-.066-.718-.066v2.286h-.861v-5.378zm1.605 2.48c.667 0 .998-.3.998-.932 0-.55-.311-.86-.861-.86h-.881v1.762c.102.01.453.03.744.03m2.994-2.48h1.35l.774 2.684.29 1.156.29-1.156.759-2.684h1.35l.295 5.378h-.86l-.163-3.891.02-1.039c-.367 1.095-.81 2.919-1.176 4.003h-1.019l-1.212-4.013.015 1.07-.132 3.87h-.861zm7.043 0h1.35l1.609 5.378h-.896l-.489-1.645h-1.737l-.468 1.645h-.922zm1.381 3.046-.724-2.638-.651 2.638zm4.16-3.148c.617 0 1.284.219 1.284.219s-.026.347-.204.718c0 0-.494-.203-1.075-.203-.937 0-1.532.784-1.532 2.108s.595 2.012 1.532 2.012c.591 0 1.116-.209 1.116-.209s.153.295.137.728c0 0-.631.214-1.253.214-1.594 0-2.424-.937-2.424-2.745-.005-1.808.856-2.842 2.419-2.842m3.148 3.458-1.615-3.356h.968l.861 2.012.229.698.229-.693.871-2.017h.967l-1.609 3.356v2.022h-.896v-2.022zm5.744-1.146h4.833a.454.454 0 0 1 0 .907h-4.833a.455.455 0 0 1 0-.907m2.358-2.485h.107c.25 0 .453.204.453.454v5.016a.454.454 0 0 1-.453.453h-.107a.455.455 0 0 1-.453-.453v-5.016a.46.46 0 0 1 .453-.454"/><path fill="#1f2b5b" d="m229.584 119.083-2.959 18.629a.995.995 0 0 1-.982.84h-29.115a.994.994 0 0 1-.983-1.151l2.959-18.629a.99.99 0 0 1 .982-.835h29.115a.987.987 0 0 1 .983 1.146"/><path fill="#28478c" d="m229.584 119.083-2.959 18.629a.995.995 0 0 1-.982.84H198.3a.994.994 0 0 1-.983-1.151l2.959-18.629a.99.99 0 0 1 .983-.835h27.342a.987.987 0 0 1 .983 1.146"/><path fill="#1f2b5b" d="m214.612 132.752-1.615 9.701a.88.88 0 0 1-.87.739h-2.44a.883.883 0 0 1-.871-1.029l1.615-9.702a.88.88 0 0 1 .871-.738h2.439c.545 0 .957.494.871 1.029"/><path fill="#2c5297" d="m214.612 132.752-1.615 9.701a.88.88 0 0 1-.87.739h-1.62a.883.883 0 0 1-.871-1.029l1.615-9.702a.88.88 0 0 1 .87-.738h1.62c.545 0 .957.494.871 1.029"/><path fill="#1f2b5b" d="M218.401 143.716v.021h-15.156v-.021a2.57 2.57 0 0 1 2.572-2.572h10.012a2.57 2.57 0 0 1 2.572 2.572"/><path fill="#2c5297" d="M218.401 143.716v.021h-13.45v-.021a2.57 2.57 0 0 1 2.572-2.572h8.306a2.57 2.57 0 0 1 2.572 2.572"/><path fill="#daebf8" d="M125.676 62.372h2.439v-2.44h-2.439zm-4.985 5.197h4.024v-4.024h-4.024zm152.553 32.498h-2.495v2.495h2.495zm5.088 3.697h-4.11v4.11h4.11z"/><path fill="#adcaea" d="m149.632 132.53-3.713-.048-.026 2.073 3.712.048z"/><path fill="#bed0eb" d="m150.744 136.057-.091 7.084a.697.697 0 0 1-.703.687l-4.645-.061a.697.697 0 0 1-.687-.703l.091-7.084a1.9 1.9 0 0 1 1.92-1.874l2.241.031a1.9 1.9 0 0 1 1.874 1.92"/><path fill="#3554a5" d="m149.812 133.79-4.104-.05c.005-.337-.031-.657-.066-.988a1.6 1.6 0 0 1-.011-.382.6.6 0 0 1 .082-.245c.153-.219.529-.148.759-.148q.532-.001 1.064.006c.428 0 .861.005 1.288.005.326 0 .887-.138 1.004.275.03.107.03.224.025.341-.005.341-.035.687-.041 1.029zm-4.109.204v.133c0 .04.035.076.076.076l3.952.051a.08.08 0 0 0 .076-.076v-.133a.077.077 0 0 0-.076-.076l-3.952-.051a.077.077 0 0 0-.076.076"/><path fill="#1f2b5b" d="M145.921 133.403c-.03 0-.051-.025-.051-.056l.011-.962c0-.031.025-.051.056-.051.03 0 .051.025.051.056l-.011.963c0 .025-.025.05-.056.05m.52.011c-.031 0-.051-.026-.051-.056l.01-.963c0-.03.026-.051.056-.051s.051.026.051.056l-.01.963c0 .025-.026.051-.056.051m.519.005c-.03 0-.051-.026-.051-.056l.011-.963c0-.03.025-.051.056-.051.03 0 .051.026.051.056l-.011.963c-.005.03-.03.051-.056.051m.515.01c-.031 0-.051-.026-.051-.056l.01-.963c0-.03.025-.051.056-.051s.051.026.051.056l-.01.963c0 .031-.026.051-.056.051m.519.01c-.03 0-.051-.025-.051-.056l.011-.962c0-.031.025-.051.056-.051.03 0 .051.025.051.056l-.011.962c0 .026-.025.051-.056.051m.52.01c-.031 0-.051-.025-.051-.056l.01-.962c0-.031.025-.051.056-.051.03 0 .051.025.051.056l-.01.962c-.005.026-.026.051-.056.051m.514.01c-.031 0-.051-.025-.051-.056l.01-.962c0-.031.026-.051.056-.051s.051.025.051.056l-.01.963c0 .025-.025.05-.056.05m.52.006c-.031 0-.051-.026-.051-.056l.01-.963c0-.031.025-.051.056-.051.03 0 .051.026.051.056l-.01.963c0 .03-.026.051-.056.051"/><path fill="#e4edf8" d="m144.693 136.367-.077 5.927 6.034.078.077-5.927z"/><path fill="#adcaea" d="m150.006 137.226-2.179-.028-.01.784 2.179.029zm-.014 1.358-3.58-.047-.01.785 3.58.046z"/><path fill="url(#q)" d="M133.027 137.508v5.882a.57.57 0 0 0 .57.571h3.677a.57.57 0 0 0 .57-.571v-5.882z"/><path fill="#fff" d="M133.635 143.199h3.606v-4.797h-3.606z"/><path fill="#507fc0" d="M133.022 136.423v.831h4.838v-.831a.286.286 0 0 0-.286-.285h-4.267a.285.285 0 0 0-.285.285"/><path fill="#5991cd" d="M132.655 136.821v.545c0 .157.127.285.285.285h4.996a.285.285 0 0 0 .285-.285v-.545a.285.285 0 0 0-.285-.286h-4.996a.285.285 0 0 0-.285.286"/><path fill="#5a9e84" d="M135.441 136.138v7.828h1.838a.57.57 0 0 0 .571-.571v-5.739h.086a.284.284 0 0 0 .285-.285v-.545a.284.284 0 0 0-.285-.285h-.076v-.113a.286.286 0 0 0-.285-.285h-2.134z" opacity=".5"/><path fill="url(#r)" d="M136.281 135.384v8.042c0 .27.198.489.453.53.026.005.056.005.082.005h5.062c.295 0 .535-.24.535-.535v-8.042z"/><path fill="#fff" d="M136.281 137.768v3.239h4.023c.321 0 .586-.26.586-.586v-2.067a.586.586 0 0 0-.586-.586z"/><path fill="#bed0eb" d="M136.281 138.379v.306h3.611a.153.153 0 0 0 .152-.153.14.14 0 0 0-.045-.107.16.16 0 0 0-.107-.046zm0 .856v.305h3.611a.153.153 0 0 0 .107-.26.16.16 0 0 0-.107-.045zm0 .85v.306h3.611a.153.153 0 0 0 .152-.153.14.14 0 0 0-.045-.107.16.16 0 0 0-.107-.046z"/><path fill="url(#s)" d="M135.991 135.649h6.717a.295.295 0 0 0 .295-.295v-.463h-7.313v.463a.3.3 0 0 0 .301.295"/><path fill="#507fc0" d="M136.133 134.621h6.432v-1.447a.58.58 0 0 0-.58-.58h-5.271a.58.58 0 0 0-.581.58z"/><path fill="#5991cd" d="M135.69 135.038h7.313a.296.296 0 0 0 .296-.295v-1.192a.296.296 0 0 0-.296-.295h-7.313a.295.295 0 0 0-.295.295v1.192c0 .163.132.295.295.295"/><path fill="#fff" d="M142.479 134.784a.226.226 0 0 0 .224-.225v-.825a.226.226 0 0 0-.224-.224.226.226 0 0 0-.224.224v.825c0 .123.096.225.224.225m-1.253 0a.226.226 0 0 0 .224-.225v-.825a.226.226 0 0 0-.224-.224.226.226 0 0 0-.224.224v.825c0 .123.102.225.224.225m-1.253 0a.226.226 0 0 0 .224-.225v-.825a.226.226 0 0 0-.224-.224.226.226 0 0 0-.224.224v.825c0 .123.102.225.224.225m-1.248 0a.226.226 0 0 0 .224-.225v-.825a.226.226 0 0 0-.224-.224.226.226 0 0 0-.224.224v.825c0 .123.097.225.224.225m-1.253 0a.227.227 0 0 0 .225-.225v-.825a.226.226 0 0 0-.225-.224.226.226 0 0 0-.224.224v.825c0 .123.102.225.224.225m-1.252 0a.226.226 0 0 0 .224-.224v-.826a.226.226 0 0 0-.224-.224.226.226 0 0 0-.224.224v.826c0 .122.101.224.224.224"/><path fill="#fff" fill-rule="evenodd" d="M112.307 143.737c0-.129.104-.233.232-.233h121.512a.232.232 0 0 1 0 .465H112.539a.23.23 0 0 1-.232-.232" clip-rule="evenodd"/><defs><linearGradient id="a" x1="83.899" x2="124.861" y1="60.559" y2="101.522" gradientUnits="userSpaceOnUse"><stop stop-color="#0e868c"/><stop offset=".503" stop-color="#6bc7b9"/><stop offset="1" stop-color="#84cec3"/></linearGradient><linearGradient id="b" x1="235.225" x2="235.225" y1="101.845" y2="34.242" gradientUnits="userSpaceOnUse"><stop stop-color="#0e868c"/><stop offset=".503" stop-color="#6bc7b9"/><stop offset="1" stop-color="#84cec3"/></linearGradient><linearGradient id="c" x1="229.192" x2="229.192" y1="98.613" y2="55.786" gradientUnits="userSpaceOnUse"><stop stop-color="#0e868c"/><stop offset=".503" stop-color="#6bc7b9"/><stop offset="1" stop-color="#84cec3"/></linearGradient><linearGradient id="d" x1="223.476" x2="223.476" y1="98.613" y2="55.786" gradientUnits="userSpaceOnUse"><stop stop-color="#0e868c"/><stop offset=".503" stop-color="#6bc7b9"/><stop offset="1" stop-color="#84cec3"/></linearGradient><linearGradient id="e" x1="218.385" x2="218.385" y1="98.613" y2="55.786" gradientUnits="userSpaceOnUse"><stop stop-color="#0e868c"/><stop offset=".503" stop-color="#6bc7b9"/><stop offset="1" stop-color="#84cec3"/></linearGradient><linearGradient id="f" x1="251.009" x2="251.009" y1="85.306" y2="56.029" gradientUnits="userSpaceOnUse"><stop stop-color="#0e868c"/><stop offset=".503" stop-color="#6bc7b9"/><stop offset="1" stop-color="#84cec3"/></linearGradient><linearGradient id="g" x1="235.225" x2="235.225" y1="49.376" y2="72.239" gradientUnits="userSpaceOnUse"><stop stop-color="#ffc418"/><stop offset=".462" stop-color="#f99b22"/><stop offset="1" stop-color="#f37225"/></linearGradient><linearGradient id="h" x1="173.448" x2="173.448" y1="114.955" y2="117.755" gradientUnits="userSpaceOnUse"><stop stop-color="#f3f3f3"/><stop offset=".403" stop-color="#f0f0f0"/><stop offset=".638" stop-color="#e8e7e9"/><stop offset=".829" stop-color="#dad9dc"/><stop offset=".997" stop-color="#c8c7cc"/><stop offset="1" stop-color="#c8c7cc"/></linearGradient><linearGradient id="i" x1="173.482" x2="173.482" y1="94.198" y2="96.761" gradientUnits="userSpaceOnUse"><stop stop-color="#fcd7cc" stop-opacity="0"/><stop offset=".221" stop-color="#fbc8bc" stop-opacity=".242"/><stop offset=".667" stop-color="#f7a196" stop-opacity=".731"/><stop offset=".913" stop-color="#f58b81"/></linearGradient><linearGradient id="l" x1="183.359" x2="186.42" y1="86.656" y2="95.637" gradientUnits="userSpaceOnUse"><stop stop-color="#270a00"/><stop offset=".295" stop-color="#402217"/><stop offset=".394" stop-color="#583523"/><stop offset=".59" stop-color="#8d5932"/><stop offset=".682" stop-color="#a46836"/><stop offset=".691" stop-color="#a76b39"/><stop offset=".753" stop-color="#b87d4b"/><stop offset=".821" stop-color="#c48a59"/><stop offset=".897" stop-color="#cc9362"/><stop offset="1" stop-color="#cf9665"/></linearGradient><linearGradient id="m" x1="163.416" x2="160.356" y1="86.656" y2="95.637" gradientUnits="userSpaceOnUse"><stop stop-color="#270a00"/><stop offset=".295" stop-color="#402217"/><stop offset=".394" stop-color="#583523"/><stop offset=".59" stop-color="#8d5932"/><stop offset=".682" stop-color="#a46836"/><stop offset=".691" stop-color="#a76b39"/><stop offset=".753" stop-color="#b87d4b"/><stop offset=".821" stop-color="#c48a59"/><stop offset=".897" stop-color="#cc9362"/><stop offset="1" stop-color="#cf9665"/></linearGradient><linearGradient id="n" x1="166.604" x2="165.5" y1="126.907" y2="116.394" gradientUnits="userSpaceOnUse"><stop stop-color="#0e868c"/><stop offset=".503" stop-color="#6bc7b9"/><stop offset="1" stop-color="#84cec3"/></linearGradient><linearGradient id="o" x1="169.614" x2="170.341" y1="120.174" y2="127.096" gradientUnits="userSpaceOnUse"><stop stop-color="#ffc418"/><stop offset=".462" stop-color="#f99b22"/><stop offset="1" stop-color="#f37225"/></linearGradient><linearGradient id="p" x1="169.312" x2="169.628" y1="117.307" y2="120.314" gradientUnits="userSpaceOnUse"><stop stop-color="#ffc418"/><stop offset=".462" stop-color="#f99b22"/><stop offset="1" stop-color="#f37225"/></linearGradient><linearGradient id="q" x1="135.439" x2="135.439" y1="143.944" y2="132.594" gradientUnits="userSpaceOnUse"><stop stop-color="#0e868c"/><stop offset=".503" stop-color="#6bc7b9"/><stop offset="1" stop-color="#84cec3"/></linearGradient><linearGradient id="r" x1="139.349" x2="139.349" y1="136.413" y2="143.886" gradientUnits="userSpaceOnUse"><stop stop-color="#ffc418"/><stop offset=".462" stop-color="#f99b22"/><stop offset="1" stop-color="#f37225"/></linearGradient><linearGradient id="s" x1="139.349" x2="139.349" y1="133.318" y2="136.564" gradientUnits="userSpaceOnUse"><stop stop-color="#ffc418"/><stop offset=".462" stop-color="#f99b22"/><stop offset="1" stop-color="#f37225"/></linearGradient><pattern id="j" width="1" height="1" patternContentUnits="objectBoundingBox"><use xlink:href="#t" transform="scale(.00153)"/></pattern><pattern id="k" width="1" height="1" patternContentUnits="objectBoundingBox"><use xlink:href="#u" transform="scale(.00153)"/></pattern></defs></svg>