<svg xmlns="http://www.w3.org/2000/svg" xmlns:xlink="http://www.w3.org/1999/xlink" fill="none" viewBox="0 0 343 243"><path fill="#daebf8" d="M277.274 56.64h-3.855v3.382h3.855zm7.227 6.453h-6.356v5.572h6.356zM59.194 148.846h3.855v-3.382h-3.855zm-7.229 8.648h6.356v-5.572h-6.356z"/><path fill="#d1def2" d="M265.811 87.309c.988-21.924-15.36-46.7-36.994-49.089q-.572-.062-1.151-.117c-31.04-2.862-35.206 36.754-63.552 40.019-28.346 3.259-48.813-20.285-83.159-6.987C50.11 83.077 38.55 157.19 127.28 164.02c70.997 5.47 135.583-11.305 138.532-76.711"/><path fill="#d1def2" d="M248.638 166.837c.428 2.393-1.37 4.639-4.018 5.011s-5.144-1.268-5.572-3.667c-.427-2.393 1.37-4.639 4.019-5.011s5.143 1.273 5.571 3.667" opacity=".5"/><path fill="#d1def2" d="M255.758 163.221c.254 1.446-.668 2.77-2.063 2.964-1.395.188-2.73-.825-2.984-2.272-.255-1.446.667-2.77 2.062-2.964 1.396-.188 2.73.831 2.985 2.272"/><path fill="#fff" d="m92.297 108.851.693-3.412-2.776-.565a7.7 7.7 0 0 0-.494-2.536l2.363-1.564-1.92-2.903-2.363 1.564a7.9 7.9 0 0 0-2.144-1.447l.565-2.775-3.412-.693-.565 2.776a7.6 7.6 0 0 0-2.536.494l-1.564-2.363-2.908 1.925 1.564 2.363a7.6 7.6 0 0 0-1.441 2.139l-2.776-.566-.693 3.413 2.776.565c.02.881.188 1.736.494 2.536l-2.363 1.563 1.925 2.903 2.363-1.563a7.6 7.6 0 0 0 2.139 1.446l-.565 2.776 3.412.692.565-2.775a7.8 7.8 0 0 0 2.541-.494l1.564 2.363 2.903-1.92-1.564-2.363a7.7 7.7 0 0 0 1.446-2.144zm-10.73.525a4.396 4.396 0 1 1 1.751-8.617 4.397 4.397 0 0 1-1.752 8.617"/><path fill="#2d70b5" d="M52.294 190.263c-3.214 0-6.112-2.139-7.054-5.2a7.34 7.34 0 0 1 .958-6.299 7.37 7.37 0 0 1 3.916-2.898l17.977-5.52a7.3 7.3 0 0 1 3.968-.092h.01c2.516.647 4.466 2.505 5.225 4.965a7.32 7.32 0 0 1-.54 5.607 7.33 7.33 0 0 1-4.339 3.596l-17.977 5.52a7.3 7.3 0 0 1-2.144.321"/><path fill="#fff" d="M70.246 170.529c.58 0 1.15.076 1.7.214a6.86 6.86 0 0 1 4.864 4.624 6.82 6.82 0 0 1-.504 5.22 6.84 6.84 0 0 1-4.039 3.346l-17.977 5.52a6.8 6.8 0 0 1-1.996.301c-2.934 0-5.663-1.9-6.565-4.838a6.87 6.87 0 0 1 .891-5.867 6.8 6.8 0 0 1 3.647-2.699l17.977-5.521c.667-.198 1.34-.3 2.002-.3m0-1.019a7.8 7.8 0 0 0-2.297.347l-17.978 5.52a7.88 7.88 0 0 0-4.19 3.102 7.83 7.83 0 0 0-1.024 6.737c1.003 3.275 4.104 5.561 7.537 5.561.779 0 1.548-.117 2.297-.346l17.977-5.52a7.83 7.83 0 0 0 4.634-3.84 7.8 7.8 0 0 0 .576-5.994c-.81-2.633-2.898-4.619-5.582-5.312-.005 0-.01-.005-.015-.005a7.8 7.8 0 0 0-1.935-.25"/><path fill="#6bc7b9" d="m72.272 183.933-8.988 2.76-4.023-13.103 8.988-2.761c3.6-1.105 7.456.937 8.561 4.538a6.82 6.82 0 0 1-.504 5.22 6.8 6.8 0 0 1-4.034 3.346"/><path fill="#2d70b5" d="M78.995 191.2a7.4 7.4 0 0 1-3.275-.769 7.34 7.34 0 0 1-3.718-4.232l-6.03-17.814c-1.303-3.845.77-8.031 4.615-9.335a7.36 7.36 0 0 1 6.325.779 7.4 7.4 0 0 1 3.01 3.835l6.03 17.814a7.3 7.3 0 0 1 .208 3.957q.001.007-.005.016c-.575 2.531-2.373 4.537-4.818 5.362a7.3 7.3 0 0 1-2.342.387"/><path fill="#fff" d="M72.934 159.172c1.325 0 2.608.387 3.703 1.085a6.83 6.83 0 0 1 2.8 3.565l6.03 17.814a6.8 6.8 0 0 1 .189 3.692 6.846 6.846 0 0 1-6.666 5.353 6.9 6.9 0 0 1-3.046-.713 6.85 6.85 0 0 1-3.458-3.937l-6.03-17.814c-1.207-3.57.724-7.481 4.294-8.688a7 7 0 0 1 2.184-.357m0-1.018a7.83 7.83 0 0 0-7.038 4.384 7.83 7.83 0 0 0-.407 6.01l6.03 17.814a7.83 7.83 0 0 0 3.972 4.528 8 8 0 0 0 3.499.819c.85 0 1.696-.137 2.51-.412a7.82 7.82 0 0 0 5.149-5.734c0-.006.005-.011.005-.021a7.8 7.8 0 0 0-.224-4.227l-6.03-17.814a7.87 7.87 0 0 0-3.218-4.1 7.87 7.87 0 0 0-4.248-1.247"/><path fill="#6bc7b9" d="m72.491 186.036-3.015-8.907 12.982-4.395 3.015 8.907c1.207 3.57-.724 7.481-4.293 8.688a6.82 6.82 0 0 1-5.23-.356 6.8 6.8 0 0 1-3.459-3.937"/><path fill="#f1635e" d="M100.43 139.794v.056l-.061-.025zm-.061.031-.056.025v-.056z"/><path fill="#3554a5" fill-rule="evenodd" d="M240.637 89.316c0-.708-.575-1.284-1.283-1.284H88.951c-.708 0-1.283.576-1.283 1.284v98.503h152.969z" clip-rule="evenodd"/><path fill="url(#a)" fill-rule="evenodd" d="M238.341 91.8a1.286 1.286 0 0 0-1.284-1.283H91.247a1.284 1.284 0 0 0-1.282 1.284v86.881a1.285 1.285 0 0 0 1.283 1.284h145.809a1.29 1.29 0 0 0 1.284-1.284z" clip-rule="evenodd"/><path fill="#4076bb" fill-rule="evenodd" d="M250.975 186.719H78.287a.954.954 0 0 0-.953.952c0 1.329.245 2.658.815 3.86a8.84 8.84 0 0 0 8.011 5.113h155.842c1.329 0 2.659-.244 3.86-.815a8.83 8.83 0 0 0 5.113-8.01z" clip-rule="evenodd"/><path fill="url(#b)" fill-rule="evenodd" d="M174.188 193.334h-20.066c-.56 0-1.008-.453-1.008-1.008 0-.561.453-1.009 1.008-1.009h20.066a1.008 1.008 0 1 1 0 2.017" clip-rule="evenodd"/><path fill="#fff" d="m249.127 73.813-.362-4.486-3.646.295a9.9 9.9 0 0 0-1.523-2.97l2.373-2.785-3.422-2.918-2.373 2.786c-.983-.51-2.053-.86-3.178-1.024l-.295-3.651-4.487.361.295 3.652a10 10 0 0 0-2.969 1.517l-2.785-2.373-2.919 3.428 2.786 2.373a10 10 0 0 0-1.024 3.172l-3.651.296.362 4.487 3.651-.296a10 10 0 0 0 1.518 2.974l-2.374 2.786 3.428 2.913 2.373-2.786c.978.51 2.047.866 3.178 1.03l.295 3.646 4.487-.362-.295-3.647a10 10 0 0 0 2.974-1.522l2.785 2.373 2.913-3.422-2.785-2.373c.509-.983.866-2.053 1.029-3.178zm-13.134 4.497a5.679 5.679 0 1 1 5.204-6.116 5.674 5.674 0 0 1-5.204 6.116"/><path fill="#fff" fill-rule="evenodd" d="m214.541 51.114 2.345.453-.318 1.65a4.7 4.7 0 0 1 1.051.69l1.389-.939 1.341 1.976-1.388.94c.137.392.222.806.252 1.232l1.65.318-.453 2.344-1.64-.308a4.8 4.8 0 0 1-.695 1.052l.939 1.389-1.976 1.341-.939-1.389a4.8 4.8 0 0 1-1.237.253l-.319 1.65-2.344-.453.318-1.65a4.7 4.7 0 0 1-1.052-.695l-1.388.94-1.342-1.977 1.389-.94a4.8 4.8 0 0 1-.253-1.236l-1.65-.319.453-2.344 1.649.318c.184-.387.418-.739.692-1.052l-.94-1.388 1.976-1.342.94 1.389a4.7 4.7 0 0 1 1.232-.253zm.298.44-.304 1.571-.148.006a4.3 4.3 0 0 0-1.401.288l-.14.054-.895-1.323-1.355.92.896 1.323-.102.11a4.2 4.2 0 0 0-.785 1.194l-.06.138-1.573-.304-.311 1.608 1.571.303.006.149c.02.489.117.962.288 1.406l.054.14-1.323.895.92 1.354 1.323-.895.109.102c.347.322.747.59 1.197.79l.136.061-.304 1.572 1.608.31.303-1.57.149-.007a4.4 4.4 0 0 0 1.407-.288l.139-.053.895 1.322 1.354-.92-.895-1.322.102-.11a4.4 4.4 0 0 0 .791-1.197l.061-.134 1.56.293.311-1.609-1.571-.303-.006-.148a4.3 4.3 0 0 0-.287-1.401l-.055-.14 1.323-.895-.919-1.355-1.324.895-.109-.101a4.3 4.3 0 0 0-1.195-.786l-.138-.06.304-1.572zm.141 3.57a2.353 2.353 0 1 0-.886 4.622 2.353 2.353 0 0 0 .886-4.622m.071-.369a2.73 2.73 0 1 0-1.028 5.36 2.73 2.73 0 0 0 1.028-5.36" clip-rule="evenodd"/><path fill="#d6e3f4" d="M269.004 131.32v-5.281a4.17 4.17 0 0 1 4.171-4.171h21.155a4.17 4.17 0 0 1 4.171 4.171v5.281a4.17 4.17 0 0 1-4.171 4.171h-21.155a4.173 4.173 0 0 1-4.171-4.171"/><path fill="#d6e3f4" d="m281.853 133.316-.612 5.786c-.112 1.059 1.187 1.66 1.92.891l6.249-6.534z"/><path fill="#fff" d="M275.334 130.74c.866 0 1.568-.662 1.568-1.477s-.702-1.477-1.568-1.477-1.569.661-1.569 1.477c0 .815.703 1.477 1.569 1.477m8.535 0c.867 0 1.569-.662 1.569-1.477s-.702-1.477-1.569-1.477c-.866 0-1.568.661-1.568 1.477 0 .815.702 1.477 1.568 1.477m8.301 0c.867 0 1.569-.662 1.569-1.477s-.702-1.477-1.569-1.477c-.866 0-1.568.661-1.568 1.477 0 .815.702 1.477 1.568 1.477"/><path fill="#d6e3f4" d="M155.828 56.086v-7.35a5.803 5.803 0 0 0-5.805-5.805h-29.441a5.803 5.803 0 0 0-5.806 5.806v7.349a5.803 5.803 0 0 0 5.806 5.805h29.441a5.803 5.803 0 0 0 5.805-5.805"/><path fill="#d6e3f4" d="m137.943 58.866.718 6.804c.199 1.884-2.103 2.949-3.412 1.579l-7.828-8.184z"/><path fill="#fff" d="M147.023 55.28c1.204 0 2.18-.92 2.18-2.057 0-1.136-.976-2.057-2.18-2.057s-2.18.921-2.18 2.057c0 1.137.976 2.058 2.18 2.058m-11.881-.001c1.204 0 2.18-.92 2.18-2.057 0-1.136-.976-2.057-2.18-2.057s-2.18.921-2.18 2.057c0 1.137.976 2.058 2.18 2.058m-11.561-.001c1.204 0 2.18-.92 2.18-2.057 0-1.136-.976-2.057-2.18-2.057-1.203 0-2.179.921-2.179 2.057 0 1.137.976 2.058 2.179 2.058"/><path fill="url(#c)" d="M262.617 205.063c17.245 0 31.224-13.98 31.224-31.224s-13.979-31.223-31.224-31.223c-17.244 0-31.223 13.979-31.223 31.223s13.979 31.224 31.223 31.224"/><path fill="#fff" d="M262.617 143.094c16.985 0 30.75 13.766 30.75 30.75s-13.765 30.75-30.75 30.75-30.749-13.766-30.749-30.75 13.765-30.75 30.749-30.75m0-.952c-17.478 0-31.697 14.219-31.697 31.697s14.219 31.697 31.697 31.697 31.697-14.219 31.697-31.697-14.218-31.697-31.697-31.697"/><mask id="d" width="63" height="75" x="231" y="130" maskUnits="userSpaceOnUse" style="mask-type:luminance"><path fill="#fff" d="M262.617 204.589c16.985 0 30.75-13.766 30.75-30.75v-43.176h-61.499v73.895h2.938z"/></mask><g mask="url(#d)"><path fill="#221110" d="M265.042 190.355c22.372.326 22.224-9.758 21.053-14.255-.504-1.945-.83-3.931-.917-5.943l-.458-10.516s-1.757-12.488-21.109-11.225c0 0-16.582-1.1-19.22 14.301l.346 11.27s-8.459 16.79 20.305 16.368"/><path fill="#c66" d="M233.584 200.729s.326.555.687.585c.362.026 2.389-2.022 2.389-2.022l-1.747.163z"/><path fill="#c66" d="M232.591 201.065s.326.555.687.585c.362.026 2.389-2.021 2.389-2.021l-1.747.163z"/><path fill="#c66" d="M231.725 201.233s.326.555.688.585c.361.031 2.388-2.021 2.388-2.021l-1.747.163z"/><path fill="#fcd7cc" d="M239.787 200.27c-.015-.993-.672-1.808-1.548-1.909l-2.414-.286q-.292-.03-.576.061l-2.286.739a1.37 1.37 0 0 0-.617.423l-1.196 1.431c-.168.203-.118.524.101.636a.89.89 0 0 0 1.024-.158c.596-.55.795-.743.963-1.028 0 0 2.189-.179 2.408-.072.214.102.739.387.739.387s-.932.362-1.161.484c-.148.077-.79.301-1.452.443-.366.082-.657.397-.733.81l-.005.015c-.051.275.132.525.377.515.759-.026 1.813-.077 1.813-.077l2.908-.321c.942-.107 1.67-1.028 1.655-2.093"/><path fill="#f1f2f2" d="M253.303 190.187c-.509 2.037-1.711 5.296-2.618 7.639q-.021.061-.051.122a3.006 3.006 0 0 1-5.612-2.139l2.913-8.968s1.146-3.494 3.697-3.499c1.08 0 1.701.601 1.992 1.569.392 1.309.178 3.274-.321 5.276"/><path fill="#c8c7cc" d="M252.799 191.979a85 85 0 0 1-2.312 6.341 82 82 0 0 1 2.312-6.341"/><path fill="#f1f2f2" d="m237.077 197.658 10.476-1.625a3.004 3.004 0 0 1 3.433 2.536 3.01 3.01 0 0 1-2.537 3.407l-10.348 1.528s-.901-.606-1.604-2.5c-.698-1.9.58-3.346.58-3.346"/><path fill="#c8c7cc" d="M240.994 203.071a84 84 0 0 1 6.743-.993 84 84 0 0 1-6.743.993"/><path fill="#f1f2f2" d="m263.916 182.176 3.397.392c4.986.738 5.047 2.587 5.047 2.587.275 4.92-.83 12.309-.693 14.723.138 2.414.301 2.46.397 3.988.326 5.036.54 12.192.576 12.854s-.372.529-.606.738-10.226 1.401-12.416.331c-.83-.407-1.07-1.726-1.07-1.726s-.066 1.324-.896 1.731c-1.166.576-2.679.459-3.932.336-.916-.086-1.843-.005-2.739-.224-.601-.142-1.941-.336-1.895-1.146.041-.662.28-7.817.627-12.859.106-1.527.264-1.573.412-3.987s-.57-10.349-.275-15.268c0 0 .015-1.054 4.395-2.246l2.801-.209c1.966-.234 4.894-.244 6.87-.015"/><path fill="#efb1ac" d="m255.472 187.024-1.227-5.357a1.79 1.79 0 0 1 1.665-2.374l5.246-.091a1.79 1.79 0 0 1 1.787 2.149l-1.095 5.373a1.786 1.786 0 0 1-1.695 1.431l-2.924.076a1.79 1.79 0 0 1-1.757-1.207"/><path fill="#f1f2f2" d="m254.194 182.206-.962.174s1.858 9.284 5.082 13.755c0 0 5.256-4.823 5.256-13.974l-.224.071-.662.983a8.9 8.9 0 0 1-2.491 2.47l-1.864.601-.789-.489a8.9 8.9 0 0 1-2.781-2.73z"/><path fill="#c8c7cc" d="M258.523 186.52s.392-.239.733.031c.341.269 1.92 3.463 1.92 3.463s-.132-2.44-.443-3.474c-.311-1.033-1.665-1.095-1.961-.738-.295.356-.249.718-.249.718"/><path fill="#f1f2f2" d="m258.187 186.601.422-.982s1.472-.23 2.608-1.493 1.207-1.808 1.207-1.808l.799-.162s.423.763.138 2.317c-.285 1.553-2.2 5.337-2.2 5.337s-1.426-2.857-1.574-3.168c-.147-.31-.315-.601-.59-.57-.275.03-.484.448-.484.448z"/><path fill="#c8c7cc" d="M258.11 186.276s-.376-.265-.524.127c-.545 1.405-1.65 2.648-1.65 2.648s.153-1.625.412-2.658c.26-1.034 1.396-1.095 1.645-.739.245.352.117.622.117.622"/><path fill="#f1f2f2" d="m258.421 186.433-.3-.972s-1.126-.214-2.078-1.477c-.953-1.263-1.126-1.823-1.126-1.823l-.672-.163s-.357.764-.117 2.317c.239 1.553 1.798 4.731 1.798 4.731s1.242-2.251 1.364-2.557c.123-.305.265-.601.494-.57.23.031.316.351.316.351z"/><path fill="#c8c7cc" d="M258.324 186.831c-.168 2.77-.183 5.551-.137 8.326-.148-2.775-.133-5.561.137-8.326m.56 1.828a.374.374 0 0 0 .377-.372.374.374 0 0 0-.377-.372.374.374 0 0 0-.376.372c0 .205.168.372.376.372"/><path fill="#e6e7e8" d="M258.961 188.623a.374.374 0 0 0 .377-.371.374.374 0 0 0-.377-.372.374.374 0 0 0-.377.372c0 .205.169.371.377.371"/><path fill="#c8c7cc" d="M258.65 192.993a.375.375 0 0 0 .377-.372.375.375 0 0 0-.377-.372.375.375 0 0 0-.377.372c0 .205.169.372.377.372"/><path fill="#e6e7e8" d="M258.721 192.962a.374.374 0 0 0 .377-.372.373.373 0 0 0-.377-.371.373.373 0 0 0-.376.371c0 .206.168.372.376.372"/><path fill="#c8c7cc" d="M265.316 185.527v1.278l-2.434.27 2.246-.545zm-1.064 3.351.52.621-6.101 6.463z"/><path fill="#e6e7e8" d="M263.56 181.331s-3.733 8.881-5.195 14.987l6.351-7.175-1.584-2.048 2.409-.478-.168-3.896a.46.46 0 0 0-.209-.362z"/><path fill="#c8c7cc" d="M253.41 185.527v1.278l1.971.27-1.813-.545zm.866 3.351-.423.621 4.12 6.132z"/><path fill="#e6e7e8" d="M254.836 181.331s2.348 8.881 3.529 14.987l-4.466-7.175 1.283-2.048-1.945-.478.132-3.85a.58.58 0 0 1 .204-.438z"/><path fill="#5dc3b1" d="M250.257 192.096a.057.057 0 0 1-.056-.056v-.524a.352.352 0 0 1 .703 0v.524a.056.056 0 0 1-.056.056z"/><path fill="#fff" d="M250.553 191.221c.163 0 .295.132.295.295v.524h-.591v-.524c0-.163.133-.295.296-.295m0-.112a.403.403 0 0 0-.402.402v.524c0 .062.05.112.112.112h.59c.061 0 .112-.05.112-.112v-.524a.415.415 0 0 0-.412-.402"/><path fill="#044d7c" d="M250.553 193.023a.35.35 0 0 1-.352-.351v-.525c0-.03.026-.056.056-.056h.591c.031 0 .056.026.056.056v.525a.35.35 0 0 1-.351.351"/><path fill="#fff" d="M250.848 192.147v.525a.295.295 0 1 1-.591 0v-.525zm0-.112h-.591a.113.113 0 0 0-.112.112v.525c0 .224.184.402.403.402a.406.406 0 0 0 .402-.402v-.525c.01-.061-.041-.112-.102-.112"/><path fill="#5dc3b1" d="M251.215 193.023a.35.35 0 0 1-.352-.351v-.525c0-.03.026-.056.056-.056h.591c.031 0 .056.026.056.056v.525a.35.35 0 0 1-.351.351"/><path fill="#fff" d="M251.51 192.147v.525a.295.295 0 1 1-.591 0v-.525zm0-.112h-.591a.113.113 0 0 0-.112.112v.525c0 .224.184.402.403.402a.406.406 0 0 0 .402-.402v-.525a.102.102 0 0 0-.102-.112"/><path fill="#044d7c" d="M250.919 192.096a.057.057 0 0 1-.056-.056v-.524a.352.352 0 0 1 .703 0v.524a.056.056 0 0 1-.056.056z"/><path fill="#fff" d="M251.215 191.221c.163 0 .295.132.295.295v.524h-.591v-.524c0-.163.133-.295.296-.295m0-.112a.404.404 0 0 0-.403.402v.524c0 .062.051.112.113.112h.59c.061 0 .112-.05.112-.112v-.524a.42.42 0 0 0-.412-.402"/><path fill="#5dc3b1" d="M250.848 192.04h-.591v-.524a.296.296 0 0 1 .591 0z"/><path fill="#044d7c" d="M250.257 192.147h.591v.525a.295.295 0 1 1-.591 0z"/><path fill="#5dc3b1" d="M250.919 192.147h.591v.525a.295.295 0 1 1-.591 0z"/><path fill="#044d7c" d="M251.51 192.04h-.591v-.524a.296.296 0 0 1 .591 0z"/><path fill="#e46587" d="M250.884 192.448a.2.2 0 0 1-.051-.015c-.01-.005-.209-.153-.265-.316a.33.33 0 0 1 .026-.26.19.19 0 0 1 .127-.102h.015q.09 0 .143.046a.2.2 0 0 1 .127-.051c.087.015.132.051.163.107a.36.36 0 0 1 .026.26c-.057.163-.255.311-.26.316a.2.2 0 0 1-.051.015"/><path fill="#fff" d="M251.011 191.801c.01 0 .015 0 .026.005.101.026.147.178.112.29-.051.148-.24.286-.24.286q-.007.006-.015.005c-.01 0-.02-.005-.02-.005s-.194-.138-.24-.286c-.035-.112.01-.264.112-.29.011 0 .016-.005.026-.005.046 0 .091.031.127.071.02-.035.061-.071.112-.071m0-.112a.24.24 0 0 0-.127.036.23.23 0 0 0-.127-.036c-.011 0-.041.005-.051.005a.24.24 0 0 0-.163.133.4.4 0 0 0-.031.305c.061.178.26.326.285.346a.2.2 0 0 0 .087.026q.047 0 .086-.031c.021-.015.219-.163.281-.341a.4.4 0 0 0-.031-.305.27.27 0 0 0-.163-.128.2.2 0 0 0-.046-.01"/><path fill="#5dc3b1" d="M251.719 192.361v-.056h.224v.056h-.087v.301h-.05v-.301zm.311-.051v.148h.137v-.148h.051v.357h-.051v-.153h-.137v.153h-.051v-.357zm.376 0 .112.357h-.056l-.03-.102h-.107c-.005.01-.005.015-.005.025s-.005.016-.005.026-.005.015-.005.025-.005.016-.005.026h-.051l.112-.357zm.011.199-.036-.132-.036.132zm.183-.199v.357h-.051v-.357zm.112 0v.301h.143v.051h-.194v-.357h.051zm.316 0 .112.357h-.056l-.031-.102h-.107c-.005.01-.005.015-.005.025s-.005.016-.005.026-.005.015-.005.025-.005.016-.005.026h-.051l.112-.357zm.01.199-.036-.132-.035.132zm.311.158-.128-.265v.265h-.051v-.357h.056l.128.265v-.265h.051v.357zm.214-.357a.2.2 0 0 1 .061.011q.022.007.045.03a.14.14 0 0 1 .026.051q.009.03.01.076-.001.045-.01.082a.13.13 0 0 1-.071.092c-.021.01-.041.01-.067.01h-.101v-.357h.107zm.005.301h.01q.008.001.015-.005.008-.006.015-.005.008-.001.016-.011l.015-.015a.04.04 0 0 0 .01-.02c.005-.01.005-.021.01-.031q.006-.016.005-.04.001-.03-.005-.051l-.015-.041c-.005-.015-.015-.02-.025-.026a.1.1 0 0 0-.041-.01h-.056v.25h.046z"/><path fill="#044d7c" d="M251.724 191.715v-.092h.306v.092h-.112v.381h-.082v-.381zm.632-.092v.086h-.204v.102h.188v.082h-.188v.117h.204v.086h-.286v-.473zm.132 0v.387h.183v.092h-.265v-.474h.082zm.504 0v.086h-.204v.102h.189v.082h-.189v.117h.204v.086h-.285v-.473zm.133 0v.188h.157v-.188h.082v.473h-.082v-.198h-.157v.198h-.082v-.473zm.595 0v.086h-.203v.102h.188v.082h-.188v.117h.203v.086h-.285v-.473zm.158 0h.092l.142.473h-.086l-.031-.107h-.142l-.031.107h-.086zm-.005.29h.102l-.051-.173zm.357-.29v.387h.183v.092h-.265v-.474h.082z"/><path fill="#5dc3b1" d="M254.398 191.715v-.092h.305v.092h-.112v.381h-.081v-.381zm.427-.092v.188h.158v-.188h.082v.473h-.082v-.198h-.158v.198h-.081v-.473z"/><path fill="#f1f2f2" d="M253.308 212.584c-.738.398-4.359.143-4.339-.315.132-2.674.26-5.348.392-8.026.005-.072.01-.153.046-.204.041-.056.107-.061.168-.056 1.339.066 2.684.127 4.023.193.072.005.148.011.199.077.061.081.061.219.056.336-.122 2.541-.25 5.082-.372 7.624-.005.102-.015.219-.071.29a.3.3 0 0 1-.102.081m11.565.021c1.029.392 6.096.107 6.066-.352q-.243-4.008-.494-8.026c-.005-.071-.01-.152-.066-.203-.056-.056-.153-.056-.235-.056-1.874.076-3.748.147-5.622.224-.097.005-.209.01-.28.081-.087.082-.087.219-.076.336.157 2.542.31 5.083.468 7.624.005.102.015.219.097.29a.4.4 0 0 0 .142.082"/><path fill="#c8c7cc" d="m264.527 204.197 5.622-.224s-2.811-.342-5.622.224m-11.219-.036-3.509-.168s1.945-.321 3.509.168m5.113-7.109c-.071 5.841-.331 11.698-.005 17.534-.428-5.831-.173-11.693.005-17.534m-8.5-7.441c.148 3.433.229 6.87.199 10.303a199 199 0 0 1-.199-10.303"/><path fill="url(#e)" d="M277.666 167.55s1.625-2.206 3.713-.795c.912.616 1.355 2.042 1.283 3.051-.214 2.887-2.444 5.316-5.459 4.838z"/><path fill="url(#f)" d="M281.348 168.471a1.45 1.45 0 0 0-.275-.672c-.183-.229-.494-.463-1.003-.463-1.024-.005-1.619 1.222-1.395 1.757s.606.794.555 1.497-.881 1.08-1.003 1.594c-.123.514.483 1.324 1.487.845.977-.473 1.965-2.459 1.634-4.558"/><path fill="#c66" d="M281.333 168.471c-.351-1.538-2.338-1.232-2.557.209-.152.535.668 1.07.556 1.834-.021.779-.836 1.049-1.121 1.665.138-.626.937-.998.891-1.67.021-.5-.336-.871-.55-1.309-.336-.866.489-1.93 1.381-1.971.728-.077 1.4.524 1.4 1.242"/><path fill="url(#g)" d="M245.012 168.466s-1.492-2.027-3.417-.733c-.841.565-1.248 1.879-1.182 2.806.199 2.658 2.251 4.894 5.022 4.451z"/><path fill="url(#h)" d="M241.625 169.312a1.3 1.3 0 0 1 .255-.622c.168-.213.453-.427.922-.427.942-.005 1.487 1.125 1.283 1.614s-.555.728-.514 1.375c.046.647.809.993.921 1.467.113.473-.443 1.217-1.369.774-.892-.423-1.803-2.251-1.498-4.181"/><path fill="#c66" d="M241.641 169.312c.01-1.116 1.466-1.528 2.169-.723.331.356.601.911.387 1.395-.188.402-.53.743-.509 1.202-.041.621.692.962.82 1.538-.117-.285-.372-.464-.591-.683-.525-.432-.57-1.237-.178-1.782.142-.25.31-.463.249-.759-.209-1.319-2.022-1.609-2.347-.188"/><path fill="#fcd7cc" d="M259.969 148.039c-15.207.831-17.106 12.452-17.106 12.452l.417 13.379s-.203 9.09 17.219 9.33h-.122c17.412-.642 16.999-9.728 16.999-9.728l.107-13.383s-2.154-11.479-17.198-12.044z"/><path fill="url(#i)" d="M230.197 134.969h79.935v79.935h-79.935z" opacity=".5"/><path fill="url(#j)" d="M206.608 134.969h78.957v79.08h-78.957z" opacity=".5"/><path fill="#efb1ac" d="M277.498 162.197s-19.026 1.778-25.901-9.757zm-25.901-9.024-8.322 12.722c.005 0-.825-5.989 8.322-12.722"/><path fill="#3c1513" d="M252.473 162.503v-.856a.14.14 0 0 0-.077-.127c-.545-.255-3.936-1.635-7.104 1.884-.066.077.01.199.097.148 1.115-.667 3.987-2.058 6.921-.917.076.026.163-.041.163-.132m9.584.504v-.896c0-.056.036-.112.092-.133.682-.265 4.93-1.711 8.902 1.971.087.076-.015.209-.122.153-1.401-.698-4.996-2.154-8.663-.963-.102.036-.209-.035-.209-.132"/><path fill="url(#k)" d="M254.897 174.099s.657-.84 1.304-.866c.646-.025 1.38.708 1.451 1.11s-.626.759-1.395.785c-.785.035-1.712-.291-1.36-1.029"/><path fill="#c66" d="M254.826 174.522s.336.55 1.354.519c.937-.031 1.452-.494 1.452-.494s-.51.794-1.396.805c-.677.005-1.039-.168-1.41-.83"/><path fill="#fff3f0" d="M260.942 171.517c-.571-1.721.453-4.232 2.011-5.332 1.482-1.044 3.336-.927 4.91-.122 2.643 1.349 3.789 5.647.438 6.875q-.376.136-.774.219c-.734.152-1.498.173-2.251.168-.672 0-1.35-.021-2.007-.153-.764-.153-1.548-.504-2.022-1.095a1.7 1.7 0 0 1-.305-.56"/><path fill="#090d0a" d="M262.948 166.19c1.482-1.044 3.336-.927 4.91-.122 1.874.957 2.989 3.391 2.291 5.169 1.233-1.783.046-4.64-2.082-5.694-1.62-.805-3.53-.922-5.058.122-1.369.937-2.332 2.893-2.225 4.518.102-1.503.978-3.158 2.164-3.993"/><path fill="#090d0a" d="M270.093 167.779c.932-.54 1.467-1.228 1.467-1.228s-.901.632-1.828.617m-.158-.087a4.6 4.6 0 0 0 1.182-1.054s-.724.54-1.472.529m.922 1.859c.687-.152 1.176-.489 1.176-.489s-.693.219-1.258.016m-1.176-1.426c.748-.464 1.181-1.054 1.181-1.054s-.723.539-1.472.529m-.529.051c.748-.463 1.181-1.054 1.181-1.054s-.723.54-1.472.53"/><path fill="#fff3f0" d="M252.468 171.451c.468-1.671-.372-4.105-1.666-5.175-1.227-1.013-2.755-.896-4.054-.117-2.184 1.309-3.132 5.48-.361 6.672.209.091.423.158.642.209.606.147 1.237.168 1.858.163.555 0 1.116-.021 1.656-.148.631-.153 1.278-.489 1.67-1.059a1.7 1.7 0 0 0 .255-.545"/><path fill="#090d0a" d="M250.807 166.276c-1.227-1.013-2.755-.896-4.053-.117-1.549.927-2.47 3.29-1.895 5.017-1.018-1.732-.041-4.502 1.721-5.526 1.34-.779 2.913-.896 4.176.117 1.131.907 1.925 2.806 1.839 4.385-.082-1.462-.805-3.061-1.788-3.876"/><path fill="#090d0a" d="M244.905 167.82c-.769-.525-1.212-1.192-1.212-1.192s.743.611 1.512.596m.133-.082c-.616-.448-.978-1.023-.978-1.023s.596.524 1.217.514m-.764 1.803c-.57-.148-.972-.474-.972-.474s.57.214 1.038.01m.973-1.375c-.616-.448-.978-1.023-.978-1.023s.596.524 1.218.514m.438.046c-.617-.448-.978-1.024-.978-1.024s.596.525 1.217.515"/><path fill="#331a0e" d="M266.289 173.401c2.158 0 3.906-1.799 3.906-4.018s-1.748-4.018-3.906-4.018c-2.157 0-3.906 1.799-3.906 4.018s1.749 4.018 3.906 4.018"/><path fill="url(#l)" d="M266.289 173.253c2.079 0 3.764-1.732 3.764-3.87s-1.685-3.87-3.764-3.87-3.763 1.732-3.763 3.87 1.685 3.87 3.763 3.87"/><path fill="#090d0a" d="M266.208 172.693c1.8 0 3.259-1.5 3.259-3.351s-1.459-3.351-3.259-3.351-3.26 1.501-3.26 3.351 1.46 3.351 3.26 3.351"/><path fill="#fff5f1" d="M268.062 168.904a.977.977 0 1 0 0-1.953.977.977 0 0 0 0 1.953"/><path fill="#331a0e" d="M249.276 173.087c1.782-.051 3.178-1.794 3.118-3.891s-1.555-3.756-3.338-3.704c-1.782.051-3.178 1.793-3.117 3.891s1.554 3.756 3.337 3.704"/><path fill="url(#m)" d="M249.061 165.62c1.716-.051 3.157 1.548 3.213 3.564.056 2.022-1.283 3.698-3.005 3.749-1.716.051-3.157-1.549-3.213-3.565-.056-2.022 1.288-3.698 3.005-3.748"/><path fill="#090d0a" d="M249.319 172.415c1.487-.043 2.652-1.495 2.601-3.244-.05-1.749-1.297-3.132-2.784-3.089-1.488.043-2.652 1.496-2.602 3.245.051 1.748 1.298 3.131 2.785 3.088"/><path fill="#fff5f1" d="M251.001 168.882c.444-.013.792-.436.777-.945-.014-.509-.386-.911-.831-.898s-.792.436-.777.945c.014.509.386.911.831.898"/><path fill="#2d1714" d="M241.905 162.167s-.458 7.506 1.426 10.424v-10.144z"/><path fill="#2d1714" d="M250.425 145.442s-1.466-.387-3.61.347c-2.873.977-5.088 3.305-6.035 6.187-1.314 4.003-2.837 11.377 1.767 15.808 0 0 4.426-9.401 5.597-10.608 0 0 2.21-3.937 4.145-4.181.006 0 .143-3.861-1.864-7.553"/><path fill="#633e36" d="M244.935 152.154c.051-.158.235-.453.5-.799-.571.473-.785-.107-.556-.922.163-.586 2.618-3.962 1.987-.912-.031.148-.123.321-.245.5 1.233-1.192 2.587-1.895 1.981.886-.173.758-1.614 1.894-2.19 2.408-1.324 1.177-1.899.209-1.477-1.161" opacity=".5"/><path fill="#24110a" d="M243.769 156.621c-1.115 3.152-1.436 6.59-.641 9.854-1.182-3.168-.841-6.845.641-9.854"/><path fill="#24110a" d="M243.586 154.472c-1.946 2.352-1.94 5.663-1.711 8.56-.545-2.867-.499-6.391 1.711-8.56m3.875-7.634c-2.765.723-4.715 3.071-6.101 5.444-.198.351-.382.713-.59 1.064.132-.382.29-.759.438-1.141 1.171-2.526 3.325-5.072 6.253-5.367"/><path fill="#2d1714" d="M284.343 160.832s-1.238 2.903-2.287 3.316c0 0-.916 3.356-2.353 4.405l-1.176-6.967z"/><path fill="#2d1714" d="M280.722 161.744s1.08 7.507-3.361 10.425v-10.145z"/><path fill="#2d1714" d="M252.213 153.387c2.898 2.113 16.714 10.537 30.098 8.912 3.336-.402 4.186-5.571 2.531-8.495q-.068-.122-.143-.244s.296-.784-1.12-2.032c0 0 .148-1.207-1.039-2.475 0 0-4.324-14.086-25.499-10.588 0 0-6.891.586-9.065 7.181l3.269 6.62c.219.428.55.815.968 1.121"/><path fill="#633e36" d="M273.877 141.607c.825.26 1.574.754 2.093 1.406.072.092.143.188.163.3.061.393-.499.571-.932.601l-1.619.123c-.163.01-.357.045-.413.183-.056.143.067.29.189.392.708.596 1.711.835 2.393 1.457.158.147.306.331.306.534-.005.23-.199.418-.413.53-.641.341-1.451.214-2.194.27-.744.051-1.6.479-1.538 1.166.045.469.494.81.875 1.136.382.326.739.804.54 1.232-.178.382-.702.494-1.156.54a23.4 23.4 0 0 1-4.695.031c-.571-.051-1.823.188-2.261-.265-.581-.611.713-.993 1.176-1.289.173-.107.351-.224.463-.387.158-.239.143-.54.184-.82a2.18 2.18 0 0 1 .983-1.502c.57-.372 1.426-.652 1.415-1.304-.005-.305-.224-.58-.305-.881-.133-.494.137-1.008.56-1.319s.968-.443 1.513-.509c.331-.041.672-.061.967-.194.296-.137.535-.432.464-.733-.041-.178-.184-.341-.163-.519.035-.321.514-.387.865-.326.179.046.362.091.54.147m-3.656 10.955c.458-.25 1.696-.168 2.225-.163 1.207.015.993.631.112 1.034-.565.259-5.108.652-2.337-.871" opacity=".5"/><path fill="#24110a" d="M250.507 144.449c1.981-2.562 5.47-3.534 8.591-3.463q.682.04 1.355.132c-.448.072-.896.107-1.339.163-3.056.398-6.142 1.233-8.607 3.168m32.14 10.511c-2.567-1.293-4.97-2.989-6.896-5.138 2.185 1.66 4.732 3.468 6.896 5.138m-.922 4.833c-4.268-1.14-8.337-3.055-12.146-5.281-4.395-2.363-9.549-3.397-14.494-2.607-.616.117-1.232.26-1.854.382.606-.178 1.207-.377 1.824-.53 4.98-1.146 10.338-.173 14.789 2.282 3.779 2.251 7.751 4.242 11.881 5.754m-30.75-13.857c3.744-3.402 9.417-3.371 14.041-2.098.667.224 1.334.438 1.991.677-.687-.152-1.359-.331-2.037-.489-4.649-.967-10.002-1.033-13.995 1.91"/><path fill="url(#n)" d="M254.469 176.722s.769 1.675 3.071 1.701c2.302.02 3.259-2.2 3.259-2.2s-.198.056-.545.137c-.977.224-3.137.621-5.454.397a7 7 0 0 1-.331-.035"/><path fill="#fff" d="M254.795 176.757c.102.092.219.189.311.245.214.122 1.797.27 2.673.147.876-.122 1.966-.392 2.099-.448.096-.041.275-.229.371-.341-.977.224-3.137.621-5.454.397"/><path fill="#f1f2f2" d="M272.141 190.558c-.51 2.038-3.071 7.884-3.978 10.232q-.021.06-.051.122a3.006 3.006 0 0 1-5.612-2.139l4.268-11.56s1.146-3.494 3.697-3.499c1.08 0 1.701.601 1.992 1.568.397 1.309.183 3.28-.316 5.276"/><path fill="#c8c7cc" d="M271.637 192.356c-1.151 3.005-2.358 5.989-3.672 8.928a179 179 0 0 1 3.672-8.928"/><path fill="#c66" d="M249.932 202.328s.04.051.106.117c.077.081.189.183.316.249a.5.5 0 0 0 .265.072c.178-.01.718-.611 1.176-1.172.393-.473.724-.911.724-.911l-1.538.346-.224.275-.077.097-.239.3z"/><path fill="#c66" d="M249.081 202.745s.168.214.377.347a.54.54 0 0 0 .305.096c.102-.005.326-.213.586-.494.316-.346.693-.804.958-1.14.208-.265.351-.454.351-.454l-.917.209-.626.143-.082.097-.219.275z"/><path fill="#c66" d="M248.327 202.995s.056.076.148.163c.132.132.341.29.54.28.086-.005.249-.143.448-.346.178-.179.377-.408.576-.647a32 32 0 0 0 .876-1.09l-.24.051-.626.143-.673.152z"/><path fill="#fcd7cc" d="M247.604 203.693a.76.76 0 0 0 .55-.006h.005a.8.8 0 0 0 .331-.244c.469-.56.622-.754.744-1.029 0 0 .102-.02.265-.056.158-.03.377-.076.611-.117l.239-.046c.229-.04.458-.081.642-.107.193-.025.341-.035.387-.02q.038.016.092.061s.168.163.254.28q.3.384.683.667c.382.28.84.443 1.319.479l.366-.02a1.2 1.2 0 0 0 1.044-.718l.117-.27a1.525 1.525 0 0 0-.845-2.037l-.794-.306c-.011 0-.021-.005-.036-.005l-2.277.025a1.3 1.3 0 0 0-.509.123l-1.955.921c-.204.097-.377.25-.499.449l-.902 1.415c-.122.204-.036.489.168.561"/><path fill="#c66" d="M253.588 200.199c-.402.036-2.307 0-2.653.132-.321.133-1.115.535-1.447.688-.494.234-.972.397-1.222.927-.178.316-.718 1.069-.815 1.344-.056.392.418.433.688.331.356-.183.84-.83 1.054-1.263.693-.102 1.558-.387 2.226-.315.397.351.672.814 1.13 1.094a2.4 2.4 0 0 0 1.538.398c-.993.147-1.92-.443-2.495-1.207-.178-.199-.214-.265-.494-.214-.55.051-1.441.305-1.813.316-.168.392-.484.718-.744 1.044-.285.427-1.303.519-1.227-.209.036-.184.188-.336.27-.489l.29-.448c.189-.265.382-.657.616-.886.235-.235.667-.362.953-.515.346-.147 1.12-.534 1.461-.672.372-.143 2.272-.025 2.684-.056"/><path fill="#f1f2f2" d="m253.466 198.819 11.352-1.94a3.005 3.005 0 1 1 .982 5.927l-11.224 1.839s-1.013-.229-1.635-2.475c-.539-1.946.525-3.351.525-3.351"/><path fill="#c8c7cc" d="M258.355 204.013a86 86 0 0 1 6.727-1.089 86 86 0 0 1-6.727 1.089"/></g><path fill="#89a4cb" d="M243.204 205.287h15.523a.706.706 0 0 0 .707-.708v-.041a.706.706 0 0 0-.707-.708h-15.523a.707.707 0 0 0-.708.708v.041c0 .392.316.708.708.708"/><path fill="#89a4cb" d="m224.325 204.854-6.727-18.421c-.163-.438.148-.911.596-.911h20.941c.265 0 .499.173.596.433l6.615 18.42c.158.438-.147.912-.596.912h-20.829a.64.64 0 0 1-.596-.433"/><path fill="url(#o)" d="m223.674 204.854-6.728-18.416c-.163-.437.148-.911.596-.911h20.941c.265 0 .499.173.596.433l6.615 18.42c.158.438-.147.912-.595.912h-20.83a.64.64 0 0 1-.595-.438"/><path fill="#9d8eab" d="M229.663 196.12h.494l.163.468c-.128-.066-.454-.254-.657-.468"/><path fill="#89a4cb" d="M229.382 196.12c.281.382.876.687.938.718q.05.024.101.041l.067.193c.142.418-.062.759-.459.759s-.835-.341-.983-.759l-.331-.952z"/><path fill="#9d8eab" d="m230.493 196.588-.163-.468h.494c-.056.214-.25.397-.331.468"/><path fill="#89a4cb" d="M230.666 196.843c.046-.036.428-.341.443-.723h.662l.331.952c.143.418-.061.759-.458.759-.398 0-.836-.341-.983-.759l-.067-.199c.036-.005.057-.02.072-.03"/><path fill="#9d8eab" d="M230.111 195.478a.27.27 0 0 1 .188-.076q.031-.001.061.005c.229.04.418.28.469.494h-.571z"/><path fill="#89a4cb" d="M230.854 195.483a.95.95 0 0 0-.535-.331 1 1 0 0 0-.106-.01.4.4 0 0 0-.199.046l-.082-.24c-.142-.417.062-.758.459-.758s.835.341.983.758l.331.953h-.617a1.2 1.2 0 0 0-.234-.418m-2.083-1.293c.398 0 .836.341.983.758l.082.24a.7.7 0 0 0-.235-.046c-.035 0-.066.005-.101.01-.168.036-.275.153-.306.331a.8.8 0 0 0 .061.423h-.616l-.331-.953c-.138-.422.066-.763.463-.763"/><path fill="#9d8eab" d="M229.637 195.412q.028-.006.056-.005c.077 0 .163.03.245.076l.147.423h-.575c-.102-.214-.072-.453.127-.494"/><path fill="#89a4cb" d="M230.437 196.69c.051 0 .081-.02.091-.025.036-.031.367-.296.377-.606a.72.72 0 0 0-.193-.474.7.7 0 0 0-.387-.239q-.038-.006-.077-.005a.34.34 0 0 0-.244.101.64.64 0 0 0-.311-.101q-.035-.001-.071.005c-.122.025-.199.112-.219.239a.64.64 0 0 0 .137.474c.229.31.739.575.795.606a.2.2 0 0 0 .102.025"/><path fill="url(#p)" fill-rule="evenodd" d="M116.151 166.893a4.35 4.35 0 0 1-4.344-4.339v-54.115a2.86 2.86 0 0 1 2.862-2.857h101.625a2.863 2.863 0 0 1 2.862 2.857v54.115a4.344 4.344 0 0 1-4.344 4.339z" clip-rule="evenodd"/><path fill="#fff" d="M216.294 106.05a2.39 2.39 0 0 1 2.389 2.389v54.115a3.87 3.87 0 0 1-3.871 3.87h-98.661a3.87 3.87 0 0 1-3.87-3.87v-54.115a2.39 2.39 0 0 1 2.388-2.389zm0-.942H114.669a3.335 3.335 0 0 0-3.33 3.331v54.115a4.82 4.82 0 0 0 4.812 4.812h98.661a4.82 4.82 0 0 0 4.813-4.812v-54.115a3.335 3.335 0 0 0-3.331-3.331"/><path fill="#4076bb" fill-rule="evenodd" d="M112.026 111.927v-3.488a2.65 2.65 0 0 1 2.643-2.644h101.625a2.647 2.647 0 0 1 2.643 2.644v3.488z" clip-rule="evenodd"/><path fill="#fff" d="M216.294 106.05a2.39 2.39 0 0 1 2.389 2.389v3.233H112.281v-3.233a2.39 2.39 0 0 1 2.388-2.389zm0-.509H114.669a2.9 2.9 0 0 0-2.898 2.898v3.743h107.426v-3.743c0-1.6-1.304-2.898-2.903-2.898"/><path fill="#fff" d="M213.086 110.043a.963.963 0 1 0-.001-1.925.963.963 0 0 0 .001 1.925m-4.141 0a.963.963 0 1 0 0-1.926.963.963 0 0 0 0 1.926m10.736 6.875a3.41 3.41 0 0 1-3.407-3.407V83.214a3.41 3.41 0 0 1 3.407-3.407h50.642a3.41 3.41 0 0 1 3.407 3.407v30.297a3.41 3.41 0 0 1-3.407 3.407z"/><path fill="#4076bb" d="M270.323 80.317a2.9 2.9 0 0 1 2.897 2.897v30.297a2.9 2.9 0 0 1-2.897 2.898h-50.642a2.9 2.9 0 0 1-2.898-2.898V83.214a2.9 2.9 0 0 1 2.898-2.897zm0-1.019h-50.642a3.92 3.92 0 0 0-3.916 3.916v30.297a3.92 3.92 0 0 0 3.916 3.916h50.642a3.92 3.92 0 0 0 3.916-3.916V83.214a3.92 3.92 0 0 0-3.916-3.916"/><path fill="url(#q)" d="M216.783 84.778v-1.564a2.9 2.9 0 0 1 2.898-2.897h50.642a2.9 2.9 0 0 1 2.897 2.897v1.564z"/><path fill="#b1cbe4" d="M234.959 109.121h-12.691a2.55 2.55 0 0 1-2.552-2.551V93.879a2.55 2.55 0 0 1 2.552-2.552h12.691a2.55 2.55 0 0 1 2.551 2.552v12.691a2.546 2.546 0 0 1-2.551 2.551"/><path fill="#d6e3f4" d="M246.036 108.576h-4.635a1.17 1.17 0 0 1-1.171-1.171v-4.635c0-.646.525-1.171 1.171-1.171h4.635c.646 0 1.171.525 1.171 1.171v4.635c0 .646-.525 1.171-1.171 1.171"/><path fill="#b1cbe4" d="M256.165 108.576h-4.634a1.17 1.17 0 0 1-1.172-1.171v-4.635c0-.646.525-1.171 1.172-1.171h4.634c.647 0 1.171.525 1.171 1.171v4.635a1.17 1.17 0 0 1-1.171 1.171"/><path fill="#d6e3f4" d="M266.987 108.576h-4.634a1.17 1.17 0 0 1-1.172-1.171v-4.635c0-.646.525-1.171 1.172-1.171h4.634c.647 0 1.171.525 1.171 1.171v4.635a1.17 1.17 0 0 1-1.171 1.171M254.474 93.14H241.04a.355.355 0 0 1-.357-.356v-.031c0-.199.158-.356.357-.356h13.434c.199 0 .357.157.357.356v.03a.355.355 0 0 1-.357.357m14.173 3.142H241.04a.355.355 0 0 1-.357-.356v-.03c0-.2.158-.357.357-.357h27.607c.199 0 .357.158.357.356v.03a.36.36 0 0 1-.357.357"/><path fill="#d5d8ed" d="M268.662 99.42h-27.638c-.188 0-.341-.169-.341-.372 0-.204.153-.372.341-.372h27.638c.189 0 .342.168.342.372 0 .208-.153.371-.342.371"/><path fill="#d6e3f4" d="M268.647 99.42H241.04a.355.355 0 0 1-.357-.357v-.03c0-.2.158-.357.357-.357h27.607c.199 0 .357.158.357.356v.03a.355.355 0 0 1-.357.357"/><path fill="#fff" d="M269.691 83.484a.688.688 0 1 0 0-1.375.688.688 0 0 0 0 1.375m-2.724 0a.688.688 0 1 0-.001-1.375.688.688 0 0 0 .001 1.375M97.914 136.377a1.706 1.706 0 0 1-1.706-1.706V123.35c0-.942.764-1.706 1.706-1.706h25.81c.942 0 1.706.764 1.706 1.706v11.321c0 .942-.764 1.706-1.706 1.706z"/><path fill="#4076bb" d="M123.724 121.878c.815 0 1.477.662 1.477 1.477v11.321c0 .815-.662 1.477-1.477 1.477h-25.81a1.48 1.48 0 0 1-1.477-1.477v-11.321c0-.815.662-1.477 1.477-1.477zm0-.458h-25.81a1.94 1.94 0 0 0-1.935 1.935v11.321c0 1.065.866 1.935 1.935 1.935h25.81a1.937 1.937 0 0 0 1.935-1.935v-11.321a1.935 1.935 0 0 0-1.935-1.935"/><path fill="url(#r)" d="M96.437 124.15v-.8c0-.815.662-1.477 1.477-1.477h25.81c.815 0 1.477.662 1.477 1.477v.8z"/><path fill="#b1cbe4" d="M105.136 132.817h-4.808a.967.967 0 0 1-.968-.967v-4.808c0-.534.433-.967.968-.967h4.808c.534 0 .967.433.967.967v4.808a.967.967 0 0 1-.967.967"/><path fill="#d6e3f4" d="M114.873 128.035h-6.845a.18.18 0 0 1-.183-.183v-.015c0-.102.081-.184.183-.184h6.845c.102 0 .183.082.183.184v.015a.18.18 0 0 1-.183.183m7.226 1.605h-14.071a.183.183 0 0 1-.183-.184v-.015c0-.102.081-.183.183-.183h14.071c.102 0 .184.081.184.183v.015a.19.19 0 0 1-.184.184"/><path fill="#d5d8ed" d="M122.104 131.239h-14.086c-.097 0-.173-.087-.173-.189 0-.107.076-.188.173-.188h14.086c.097 0 .174.086.174.188s-.077.189-.174.189"/><path fill="#d6e3f4" d="M122.099 131.239h-14.071a.183.183 0 0 1-.183-.184v-.015c0-.102.081-.183.183-.183h14.071c.102 0 .184.081.184.183v.015a.19.19 0 0 1-.184.184"/><path fill="#fff" d="M123.403 123.493a.352.352 0 1 0 0-.703.352.352 0 0 0 0 .703m-1.39 0a.352.352 0 1 0-.001-.703.352.352 0 0 0 .001.703"/><path fill="#b1cbe4" d="M101.077 116.409h-5.974a.92.92 0 0 1-.922-.922V95.941c0-.51.413-.922.922-.922h5.974c.509 0 .922.413.922.922v19.546a.92.92 0 0 1-.922.922"/><path fill="#fff" d="M99.355 107.084h-3.33a.376.376 0 0 1-.377-.377v-2.394c0-.208.168-.376.377-.376h3.33c.21 0 .377.168.377.376v2.394a.376.376 0 0 1-.377.377"/><path fill="#fff" d="M100.914 103.937v3.147l-1.268-1.07v-1.008z"/><path fill="#d1def2" d="M102.238 108.525h-.245v-6.794h.245c.341 0 .621.281.621.622v5.551a.614.614 0 0 1-.621.621"/><path fill="url(#s)" d="M98.108 114.983a2.623 2.623 0 1 0-.002-5.246 2.623 2.623 0 0 0 .002 5.246"/><path fill="#fff" d="M99.345 113.872a.26.26 0 0 1-.193-.081l-2.47-2.47a.273.273 0 1 1 .387-.387l2.47 2.47a.274.274 0 0 1-.194.468"/><path fill="#fff" d="M96.87 113.872a.26.26 0 0 1-.193-.081.273.273 0 0 1 0-.387l2.47-2.47a.274.274 0 1 1 .387.387l-2.47 2.47a.28.28 0 0 1-.194.081m1.1-13.658h-.168a.637.637 0 0 1-.637-.637v-2.485c0-.351.286-.637.637-.637h.168c.352 0 .637.286.637.637v2.485a.637.637 0 0 1-.637.637"/><path fill="#fff" d="M97.904 101.105h-.036a.13.13 0 0 1-.132-.132V99.47c0-.071.056-.132.132-.132h.036c.071 0 .132.056.132.132v1.503c-.005.076-.06.132-.132.132"/><path fill="#fff" d="M99.06 101.243h-2.348a.274.274 0 0 1-.275-.275v-.072c0-.153.123-.275.275-.275h2.348c.153 0 .275.122.275.275v.072a.274.274 0 0 1-.275.275m111.25 47.178h-3.178a.203.203 0 0 1 0-.407h3.178c.112 0 .204.092.204.204a.204.204 0 0 1-.204.203m3.056 1.757h-6.234a.203.203 0 0 1 0-.407h6.234c.112 0 .204.092.204.204a.2.2 0 0 1-.204.203m0 1.757h-6.234a.203.203 0 0 1 0-.407h6.234c.112 0 .204.092.204.204a.2.2 0 0 1-.204.203"/><path fill="url(#t)" d="M212.684 142.101c-.092 3.57-5.46 3.57-5.552 0a5 5 0 0 1 .036-.697c.107-.881.413-1.752.789-2.531a14.2 14.2 0 0 1 1.956-2.969s1.406 1.568 2.215 3.559c.25.617.443 1.273.525 1.936q.038.373.031.702"/><path fill="#fff" d="M211.558 140.594v1.176h-1.064v1.065h-1.172v-1.065h-1.064v-1.176h1.064v-1.064h1.172v1.064zm-87.177 12.233h-6.03a.33.33 0 1 1 0-.662h6.03a.33.33 0 1 1 0 .662m4.079 2.852h-10.109a.33.33 0 1 1 0-.663h10.109a.33.33 0 0 1 .331.332.33.33 0 0 1-.331.331m0 2.851h-10.109a.33.33 0 1 1 0-.662h10.109a.33.33 0 0 1 .331.331.33.33 0 0 1-.331.331m0 2.852h-10.109a.33.33 0 1 1 0-.662h10.109a.33.33 0 0 1 .331.331.33.33 0 0 1-.331.331m84.427-.438c-1.059.286-1.742-.697-1.777-1.278-.036-.58.351-.85.361-1.161q0-.085-.015-.178c-.25.081-.647.285-.749.748-.157.688-.091 1.1-.091 1.1h-.209s-.209-1.624.249-2.22h-.804c.458.596.249 2.22.249 2.22h-.208s.061-.417-.092-1.1c-.107-.463-.504-.662-.749-.748-.01.061-.02.117-.015.178.01.311.392.581.362 1.161s-.718 1.564-1.778 1.278c-1.059-.285-1.848-1.721-1.609-3.3s1.268-2.47 1.971-2.699c.708-.229 1.482-.071 1.762.779.28.851-.672 1.528-.672 1.528l.015.051a6 6 0 0 1 .321-.01h.005c.076 0 .132.061.132.132a.135.135 0 0 1-.132.133h-.27c.005.046.005.091.01.137.311-.01.83-.025 1.105-.01.27-.015.795 0 1.105.01q.001-.069.011-.137c-.082 0-.194 0-.311-.005a.14.14 0 0 1-.097-.041.13.13 0 0 1-.041-.097.13.13 0 0 1 .138-.132c.137.005.265.01.361.01.006-.015.011-.036.016-.051 0 0-.953-.672-.672-1.528.28-.85 1.059-1.008 1.762-.779.707.229 1.731 1.12 1.97 2.699.235 1.589-.555 3.025-1.614 3.31"/><path fill="#bed0eb" d="M231.338 148.233c0 1.793-1.472 3.244-3.29 3.244-1.813 0-3.29-1.451-3.29-3.244 0-.789.285-1.518.764-2.078.413-.484.963-.85 1.594-1.034V123.61c0-.51.418-.917.932-.917a.927.927 0 0 1 .932.922v21.511a3.28 3.28 0 0 1 2.231 2.211c.081.28.127.58.127.896"/><path fill="#cfddec" d="M231.338 148.233c0 1.793-1.472 3.244-3.29 3.244-1.813 0-3.29-1.451-3.29-3.244 0-.789.285-1.518.764-2.078q.19.024.413.087c.427.132.932.397 1.517.881 1.36 1.12 2.598.967 3.438.438q.17-.108.316-.229.13.427.132.901"/><path fill="#fff" d="M228.038 124.231h-.576q-.009 0-.01-.015v-.265q.001-.015.01-.015h.576q.009 0 .01.015v.265q-.001.015-.01.015m0 .957h-.576q-.009 0-.01-.015v-.265q.001-.015.01-.015h.576q.009 0 .01.015v.265c0 .005-.005.015-.01.015m0 .958h-.576q-.009 0-.01-.015v-.265q.001-.015.01-.015h.576q.009 0 .01.015v.265c0 .005-.005.015-.01.015m0 .952h-.576q-.009 0-.01-.015v-.265q.001-.015.01-.015h.576q.009 0 .01.015v.265q-.001.015-.01.015m0 .958h-.576q-.009 0-.01-.016v-.264q.001-.016.01-.016h.576q.009 0 .01.016v.264q-.001.016-.01.016m0 .957h-.576q-.009 0-.01-.015v-.265q.001-.015.01-.015h.576q.009 0 .01.015v.265q-.001.015-.01.015m0 .958h-.576q-.009 0-.01-.016v-.265q.001-.015.01-.015h.576q.009 0 .01.015v.265c0 .005-.005.016-.01.016m0 .957h-.576q-.009 0-.01-.015v-.265q.001-.015.01-.015h.576q.009 0 .01.015v.265c0 .005-.005.015-.01.015m0 .952h-.576q-.009 0-.01-.015v-.265q.001-.015.01-.015h.576q.009 0 .01.015v.265q-.001.015-.01.015"/><path fill="url(#u)" d="M230.971 148.233c0 1.594-1.309 2.888-2.923 2.888s-2.923-1.294-2.923-2.888c0-.759.305-1.467.81-1.991a2.95 2.95 0 0 1 1.283-.779l.26-.077v-12.757h1.13v12.757l.26.077a2.92 2.92 0 0 1 2.103 2.77"/><path fill="#c83e39" d="M230.971 148.233c0 1.594-1.309 2.888-2.923 2.888s-2.923-1.294-2.923-2.888c0-.759.305-1.467.81-1.991.427.132.932.397 1.512.881 1.36 1.12 2.597.967 3.438.438q.085.321.086.672"/><mask id="v" width="96" height="124" x="112" y="56" maskUnits="userSpaceOnUse" style="mask-type:luminance"><path fill="#fff" d="M207.693 56.01h-95.254v123.915h95.254z"/></mask><g mask="url(#v)"><path fill="#fcd7cc" d="m133.482 135.221-.774-1.849c-.932-1.909-1.936-1.807-2.465-1.563a.5.5 0 0 0-.26.616l1.029 2.99.305.718a1.18 1.18 0 0 0 1.482.646 1.18 1.18 0 0 0 .683-1.558"/><path fill="#fcd7cc" d="M132.03 134.931a1.143 1.143 0 0 1 1.569.585l.361.866.606 1.441a1.083 1.083 0 0 1-1.976.887l-1.079-2.256a1.15 1.15 0 0 1 .519-1.523"/><path fill="#fcd7cc" d="M134.765 137.686a1.87 1.87 0 0 1 1.686.117c.489.285 1.069.79 1.278 1.615.382 1.522-.662 3.58-1.299 4.043-.524.387-1.624 2.21-4.374 2.424-1.136.087-2.226-.489-2.832-1.456-.754-1.207-1.752-2.908-1.925-3.743-.285-1.375.071-2.032.55-2.776 0 0 .143-.962.571-1.314.422-.351 1.298-.519 1.298-.519s.336-.82 1.803-.484c0 0 2.444.53 2.434 2.562 0 .01.341-.265.81-.469"/><path fill="#c66" d="M135.458 137.467c-.596.204-1.34.387-1.615.998-.316.647.209 1.212.866 1.324.428.092.881.072 1.324-.01-.631.234-1.416.295-2.012-.087-.448-.244-.58-.86-.341-1.298.306-.662 1.136-.83 1.778-.927m-.128 2.592c-.046.555.255.988.494 1.477-.453-.29-.825-.973-.494-1.477"/><path fill="#c66" d="M131.399 135.588c1.171.239 2.623 1.044 2.648 2.419a.76.76 0 0 1-.321.575 1.24 1.24 0 0 1-.606.189c.199-.061.402-.128.545-.265a.65.65 0 0 0 .229-.504c-.112-1.273-1.431-1.971-2.495-2.414"/><path fill="#c66" d="M129.83 136.566c1.014.295 2.226.443 2.964 1.278.382.55.846 1.258.683 1.95-.336.515-1.146.825-1.666.398-.422-.372-.682-.881-.845-1.411-.397-.097-1.273-.591-1.828-.82.646.249 1.298.494 1.94.759.112.341.285.672.499.962.209.28.458.55.795.535.361-.015.85-.234.962-.606-.061-.917-.611-1.915-1.487-2.282a17 17 0 0 0-2.017-.763"/><path fill="#c66" d="M129.204 138.012c.682.265 1.701.402 2.032 1.151.3.733.993 3.305-.637 2.404-.565-.342-.911-.927-1.09-1.528.255.565.632 1.105 1.161 1.395.815.464.871-.224.739-.86-.117-.556-.178-1.284-.555-1.706-.484-.367-1.09-.601-1.65-.856"/><path fill="#c66" d="M128.007 139.28c.616.367 1.161.728 1.854.942-.724.061-1.431-.382-1.854-.942m7.517 2.46a18.8 18.8 0 0 0-4.08-.708c1.381-.189 2.837.076 4.08.708"/><path fill="#f1f2f2" d="M175.654 149.771c.785 3.137 2.638 8.164 4.034 11.774q.038.09.076.189a4.637 4.637 0 0 0 5.989 2.429 4.636 4.636 0 0 0 2.659-5.719l-4.492-13.822s-1.767-5.383-5.694-5.393c-1.665 0-2.617.932-3.066 2.414-.606 2.017-.27 5.052.494 8.128"/><path fill="#c8c7cc" d="M176.434 152.541a131 131 0 0 1 3.564 9.768 130 130 0 0 1-3.564-9.768"/><path fill="#f1f2f2" d="m159.006 136.841-5.24.606c-7.685 1.135-7.777 5.225-7.777 5.225-.422 7.578 1.284 17.733 1.07 21.455-.214 3.723-.464 3.794-.611 6.147-.499 7.767-.83 18.792-.886 19.811s.575.815.932 1.136c.356.32 15.761 2.159 19.138.514 1.278-.626 1.65-2.664 1.65-2.664s.102 2.043 1.385 2.669c1.803.886 4.13.703 6.06.514 1.416-.137 2.837-.01 4.227-.341.927-.224 2.995-.519 2.919-1.762-.062-1.018-.433-12.049-.963-19.816-.163-2.352-.412-2.424-.637-6.147-.224-3.722.876-15.945.428-23.528 0 0-.025-1.63-6.773-3.463l-4.319-.321c-3.045-.372-7.562-.387-10.603-.035"/><path fill="#efb1ac" d="m171.188 143.813 1.9-8.312c.616-1.787-.693-3.651-2.582-3.687l-8.139-.137a2.78 2.78 0 0 0-2.77 3.335l1.701 8.337a2.775 2.775 0 0 0 2.633 2.221l4.537.117a2.78 2.78 0 0 0 2.72-1.874"/><path fill="#f1f2f2" d="m173.989 136.897 1.487.27s-2.867 14.31-7.833 21.2c0 0-8.097-7.43-8.097-21.537l.346.107 1.019 1.513a13.7 13.7 0 0 0 3.84 3.804l2.872.927 1.212-.754a13.8 13.8 0 0 0 4.283-4.206z"/><path fill="#c8c7cc" d="M167.323 143.543s-.601-.367-1.131.051c-.53.417-2.959 5.337-2.959 5.337s.199-3.759.683-5.358c.483-1.599 2.566-1.691 3.02-1.141.453.55.387 1.111.387 1.111"/><path fill="#f1f2f2" d="m167.832 143.665-.652-1.518s-2.271-.351-4.018-2.302c-1.747-1.95-1.859-2.785-1.859-2.785l-1.232-.25s-.652 1.176-.214 3.57 3.391 8.23 3.391 8.23 2.195-4.405 2.425-4.884c.224-.474.488-.922.911-.881.423.046.744.687.744.687z"/><path fill="#c8c7cc" d="M167.949 143.161s.575-.408.81.193c.84 2.165 2.546 4.079 2.546 4.079s-.234-2.505-.637-4.099c-.402-1.594-2.154-1.691-2.536-1.141-.377.555-.183.968-.183.968"/><path fill="#f1f2f2" d="m167.47 143.41.464-1.497s1.731-.331 3.198-2.282c1.467-1.95 1.731-2.806 1.731-2.806l1.034-.249s.55 1.176.178 3.57c-.366 2.393-2.77 7.287-2.77 7.287s-1.915-3.468-2.108-3.941c-.189-.474-.408-.922-.764-.881-.352.045-.489.545-.489.545z"/><path fill="#c8c7cc" d="M167.623 144.016c.418 4.263.438 8.561.209 12.834.071-4.283.051-8.561-.209-12.834m-.866 2.822a.576.576 0 1 0 0-1.152.576.576 0 0 0 0 1.152"/><path fill="#e6e7e8" d="M166.645 146.782a.576.576 0 1 0 0-1.152.576.576 0 0 0 0 1.152"/><path fill="#c8c7cc" d="M167.124 153.519a.574.574 0 1 0 .001-1.149.574.574 0 0 0-.001 1.149"/><path fill="#e6e7e8" d="M167.012 153.468a.574.574 0 1 0 .001-1.149.574.574 0 0 0-.001 1.149"/><path fill="#c8c7cc" d="M156.847 142.005v1.976l3.753.412-3.458-.84zm1.645 5.164-.805.962 9.406 9.961z"/><path fill="#e6e7e8" d="M159.556 135.542s5.75 13.689 8.006 23.095l-9.788-11.056 2.444-3.157-3.707-.739.26-6.004a.7.7 0 0 1 .326-.56z"/><path fill="#c8c7cc" d="M175.196 142.005v1.976l-3.04.412 2.801-.84zm-1.334 5.164.652.962-6.351 9.452z"/><path fill="#e6e7e8" d="M173.001 135.542s-3.616 13.689-5.444 23.095l6.885-11.056-1.976-3.157 3-.739-.209-5.933a.9.9 0 0 0-.316-.672z"/><path fill="#5dc3b1" d="M151.296 152.144a.097.097 0 0 1-.097-.097v-.702a.658.658 0 0 1 1.314 0v.702a.097.097 0 0 1-.097.097z"/><path fill="#fff" d="M151.856 150.784c.311 0 .56.25.56.561v.702h-1.12v-.702c0-.311.249-.561.56-.561m0-.188a.75.75 0 0 0-.749.749v.702c0 .107.087.189.189.189h1.12a.19.19 0 0 0 .189-.189v-.702a.75.75 0 0 0-.749-.749"/><path fill="#044d7c" d="M151.856 153.57a.66.66 0 0 1-.657-.657v-.703c0-.051.041-.096.097-.096h1.12c.051 0 .097.04.097.096v.703a.66.66 0 0 1-.657.657"/><path fill="#fff" d="M152.416 152.21v.703c0 .311-.249.56-.56.56a.56.56 0 0 1-.56-.56v-.703zm0-.188h-1.12a.19.19 0 0 0-.189.188v.703a.75.75 0 0 0 1.498 0v-.703a.185.185 0 0 0-.189-.188"/><path fill="#5dc3b1" d="M153.114 153.57a.66.66 0 0 1-.657-.657v-.703c0-.051.041-.096.097-.096h1.12c.051 0 .097.04.097.096v.703a.66.66 0 0 1-.657.657"/><path fill="#fff" d="M153.674 152.21v.703c0 .311-.249.56-.56.56a.56.56 0 0 1-.56-.56v-.703zm0-.188h-1.12a.19.19 0 0 0-.189.188v.703a.75.75 0 0 0 1.498 0v-.703c.005-.107-.082-.188-.189-.188"/><path fill="#044d7c" d="M152.554 152.144a.097.097 0 0 1-.097-.097v-.702a.658.658 0 0 1 1.314 0v.702a.097.097 0 0 1-.097.097z"/><path fill="#fff" d="M153.114 150.784c.311 0 .56.25.56.561v.702h-1.12v-.702c0-.311.249-.561.56-.561m0-.188a.75.75 0 0 0-.749.749v.702c0 .107.087.189.189.189h1.12a.19.19 0 0 0 .189-.189v-.702a.747.747 0 0 0-.749-.749"/><path fill="#5dc3b1" d="M152.416 152.047h-1.12v-.702c0-.311.249-.561.56-.561s.56.25.56.561z"/><path fill="#044d7c" d="M151.296 152.21h1.12v.703c0 .311-.249.56-.56.56a.56.56 0 0 1-.56-.56z"/><path fill="#5dc3b1" d="M152.554 152.21h1.12v.703c0 .311-.249.56-.56.56a.56.56 0 0 1-.56-.56z"/><path fill="#044d7c" d="M153.674 152.047h-1.12v-.702c0-.311.249-.561.56-.561s.56.25.56.561z"/><path fill="#e46587" d="m152.488 152.684-.087-.02c-.041-.026-.397-.24-.504-.489a.45.45 0 0 1 .025-.387.36.36 0 0 1 .26-.194l.061-.005q.124-.001.24.082a.43.43 0 0 1 .239-.082l.061.005a.38.38 0 0 1 .26.194.47.47 0 0 1 .025.387c-.102.254-.458.468-.499.489z"/><path fill="#fff" d="M152.722 151.681q.022-.001.046.005c.193.036.285.275.214.448-.092.229-.459.443-.459.443a.1.1 0 0 1-.035.01c-.021 0-.036-.01-.036-.01s-.367-.214-.458-.443c-.072-.173.015-.412.213-.448q.024-.006.046-.005c.092 0 .173.051.24.107a.35.35 0 0 1 .229-.107m0-.194a.47.47 0 0 0-.24.066.5.5 0 0 0-.239-.066q-.037-.001-.081.005a.46.46 0 0 0-.326.245.54.54 0 0 0-.031.468c.117.286.499.515.54.54.02.01.071.036.132.036a.3.3 0 0 0 .138-.036c.041-.02.423-.249.54-.535a.54.54 0 0 0-.031-.468.46.46 0 0 0-.326-.245c-.02-.01-.046-.01-.076-.01"/><path fill="#5dc3b1" d="M154.082 152.546v-.081h.433v.081h-.168v.464h-.097v-.464zm.585-.086v.224h.26v-.224h.097v.545h-.097v-.24h-.26v.24h-.096v-.545zm.724 0 .213.545h-.106l-.056-.153h-.209l-.016.041-.015.035-.015.036-.015.041h-.102l.209-.545zm.015.311-.071-.199-.072.199zm.351-.311v.545h-.096v-.545zm.214 0v.463h.275v.082h-.366v-.545zm.601 0 .214.545h-.107l-.056-.153h-.209l-.015.041-.015.035-.016.036-.015.041h-.102l.209-.545zm.02.311-.071-.199-.071.199zm.591.239-.244-.402v.402h-.097v-.545h.112l.25.407v-.407h.096v.545zm.408-.55c.046 0 .081.005.117.015s.061.026.086.051c.026.02.041.051.051.082.011.03.021.071.021.112a.4.4 0 0 1-.016.122.21.21 0 0 1-.137.148.3.3 0 0 1-.122.02h-.194v-.545h.194zm.005.468h.02c.01 0 .015 0 .026-.005q.015-.001.03-.01l.031-.015a.06.06 0 0 0 .025-.026q.014-.014.021-.035l.015-.046q.006-.023.005-.061-.001-.045-.01-.082a.14.14 0 0 0-.031-.061c-.015-.015-.03-.03-.051-.035-.02-.011-.046-.011-.076-.011h-.107v.382h.102z"/><path fill="#044d7c" d="M154.082 151.543v-.137h.58v.137h-.214v.591h-.157v-.591zm1.202-.142v.132h-.382v.158h.356v.127h-.356v.178h.387v.133h-.545v-.733h.54zm.254 0v.595h.347v.138h-.505v-.733zm.963 0v.132h-.382v.158h.356v.127h-.356v.178h.387v.133h-.545v-.733h.54zm.254 0v.29h.301v-.29h.158v.733h-.158v-.311h-.301v.311h-.157v-.733zm1.131 0v.132h-.382v.158h.357v.127h-.357v.178h.387v.133h-.545v-.733h.54zm.306 0h.173l.275.733h-.168l-.056-.163h-.275l-.056.163h-.168zm-.011.448h.189l-.092-.27zm.683-.448v.595h.346v.138h-.504v-.733z"/><path fill="#5dc3b1" d="M159.185 151.543v-.137h.58v.137h-.214v.591h-.158v-.591zm.815-.142v.29h.3v-.29h.158v.733h-.158v-.311h-.3v.311h-.158v-.733z"/><path fill="#f1f2f2" d="M175.354 183.709c1.141.616 6.722.219 6.687-.489-.204-4.125-.403-8.245-.606-12.37-.005-.112-.016-.235-.072-.316-.066-.092-.168-.092-.254-.087-2.068.097-4.136.199-6.198.296-.107.005-.229.015-.306.122-.096.127-.091.336-.081.519l.575 11.749c.01.163.021.336.107.448a.3.3 0 0 0 .148.128"/><path fill="#c8c7cc" d="M174.544 172.001q.375 5.44.535 10.888a277 277 0 0 1-.535-10.888"/><path fill="#f1f2f2" d="M157.529 183.744c-1.589.606-9.391.163-9.35-.544.255-4.12.504-8.246.759-12.366.005-.112.02-.234.097-.315.091-.087.229-.092.356-.087 2.888.117 5.775.229 8.668.346.153.005.321.021.433.123.132.127.132.336.122.519-.239 3.916-.484 7.833-.723 11.749-.01.163-.026.336-.148.448a.6.6 0 0 1-.214.127"/><path fill="#c8c7cc" d="M158.573 172.036a209 209 0 0 1-.672 10.889q.2-5.449.672-10.889"/><path fill="#2d1714" d="M161.729 133.928c15.99-.939 28.216-14.262 27.306-29.759-.909-15.496-14.61-27.298-30.6-26.359s-28.217 14.262-27.307 29.758c.91 15.497 14.61 27.298 30.601 26.36"/><path fill="#fcd7cc" d="M186.705 114.076s3.143-4.023 6.962-1.283c1.666 1.197 2.419 3.886 2.226 5.755-.555 5.372-4.849 9.778-10.435 8.723z"/><path fill="#efb1ac" d="M193.52 115.991c-.056-.453-.199-.901-.474-1.268-.326-.443-.891-.891-1.849-.922-1.91-.061-3.081 2.19-2.694 3.198s1.085 1.513.958 2.817c-.128 1.309-1.701 1.965-1.956 2.918-.255.952.825 2.495 2.73 1.65 1.838-.81 3.789-4.461 3.285-8.393"/><path fill="#c66" d="M193.489 115.991c-.601-2.887-4.247-2.419-4.777.25-.148.595.188 1.044.458 1.553.754 1.151.657 2.714-.463 3.595-.453.428-.983.774-1.238 1.35.291-1.146 1.788-1.823 1.747-3.071.112-1.125-.962-1.91-1.09-3-.025-1.517 1.268-3.03 2.817-3.071 1.359-.112 2.582 1.06 2.546 2.394"/><path fill="#fcd7cc" d="M143.667 112.401s-3.132-4.528-7.415-1.813c-1.869 1.181-2.847 4.028-2.755 6.055.265 5.816 4.609 10.832 10.69 10.043z"/><path fill="#efb1ac" d="M136.216 114.035c.092-.488.275-.957.591-1.339.382-.453 1.019-.901 2.047-.876 2.058.056 3.178 2.552 2.7 3.611-.479 1.059-1.263 1.558-1.207 2.974s1.706 2.22 1.925 3.264c.214 1.044-1.044 2.633-3.041 1.61-1.935-.993-3.804-5.042-3.015-9.244"/><path fill="#c66" d="M136.247 114.036c.046-1.437 1.431-2.623 2.883-2.42 1.66.138 2.958 1.849 2.841 3.484-.208 1.176-1.395 1.92-1.359 3.162-.123 1.34 1.451 2.165 1.69 3.413-.234-.637-.784-1.039-1.247-1.528-1.62-1.599-.805-3.117.214-4.731.127-.255.142-.505.101-.81-.397-2.913-4.298-3.641-5.123-.57"/><path fill="#fcd7cc" d="M166.223 138.46c12.029-.474 18.201-4.247 21.318-7.507 1.925-2.011 2.969-4.705 2.979-7.491.025-5.851.611-16.801.611-16.801s-1.161-19.693-23.375-21.079h.005c-22.261.097-24.557 19.689-24.557 19.689s-.051 10.965-.362 16.806c-.148 2.78.738 5.531 2.541 7.654 2.924 3.433 8.872 7.558 20.85 8.724"/><path fill="#efb1ac" d="M176.495 90.757s11.947 1.675 14.616 15.583c0-.005-1.676-17.758-14.616-15.583"/><path fill="#efb1ac" d="M176.393 90.553c-.616.387-1.284.718-2.007.87-.922.194-1.879.103-2.826.067-2.098-.066-4.207.474-6.264.856-2.292.427-4.563 1.008-6.697 1.914-3.198 1.365-5.999 3.158-9.004 4.88-2.226 1.272-4.584 2.917-7.008 3.798-.377.138-.789.265-1.186.26.061.408.249.769.616.963.525.28 1.161.081 1.716-.128a42.7 42.7 0 0 0 6.728-3.269c2.892-1.732 5.597-3.815 8.678-5.19 2.052-.916 4.237-1.507 6.442-1.945 1.981-.392 3.993-.662 6.014-.601.907.025 1.829.117 2.715-.081.692-.158 1.339-.49 1.93-.876 1.986-1.31 3.468-3.407 3.977-5.714-.677 1.925-2.047 3.076-3.824 4.196"/><path fill="#2d1714" d="M179.178 104.089c1.589-.234 6.407-.692 9.234 1.686.081.066.178-.051.122-.148-.81-1.385-3.519-5.103-8.923-4.12a.5.5 0 0 0-.178.072c-.239.158-.866.687-.855 1.864 0 .397.285.692.6.646m-13.358-.239c-2.271-.346-9.197-1.161-13.449 1.054-.118.061-.25-.061-.163-.158 1.263-1.349 5.444-4.924 13.174-3.544a1 1 0 0 1 .25.086c.336.179 1.202.759 1.1 1.956-.031.392-.458.672-.912.606"/><path fill="#fff3f0" d="M166.437 118.97c.906-2.648-.469-6.579-2.7-8.347-2.118-1.68-4.822-1.573-7.155-.397-3.921 1.981-5.78 8.597-.942 10.644a8 8 0 0 0 1.12.372c1.065.264 2.175.331 3.275.356.983.026 1.971.026 2.933-.153 1.121-.208 2.287-.713 2.995-1.609.219-.275.372-.565.474-.866"/><path fill="#090d0a" d="M163.748 110.618c-2.119-1.68-4.823-1.573-7.156-.397-2.775 1.406-4.517 5.133-3.58 7.914-1.716-2.816.138-7.196 3.295-8.739 2.404-1.176 5.19-1.283 7.369.402 1.956 1.508 3.27 4.584 3.046 7.1-.082-2.333-1.279-4.93-2.974-6.28"/><path fill="#331a0e" d="M164.421 115.816c.093-3.219-2.384-5.902-5.533-5.993s-5.777 2.444-5.87 5.664 2.384 5.902 5.533 5.993 5.777-2.445 5.87-5.664"/><path fill="url(#w)" d="M158.884 110.048c3.035.086 5.419 2.674 5.327 5.77-.092 3.101-2.623 5.541-5.653 5.454-3.035-.086-5.419-2.673-5.327-5.77.092-3.101 2.623-5.546 5.653-5.454"/><path fill="#090d0a" d="M162.13 115.75c.056-1.926-1.426-3.531-3.31-3.586-1.883-.054-3.456 1.463-3.511 3.389s1.426 3.531 3.31 3.585c1.883.055 3.455-1.462 3.511-3.388"/><path fill="#fff5f1" d="M156.399 114.728a1.339 1.339 0 1 0 0-2.678 1.339 1.339 0 0 0 0 2.678"/><path fill="#2d1714" d="M183.935 77.088c-.377-.596-.881-1.126-1.4-1.63-5.883-5.653-14.881-8.174-23.33-7.328-8.454.845-16.307 4.828-22.296 10.333-1.849 1.696-3.58 3.62-4.273 5.938-.422 1.42-.626 3.117-1.665 4.37-1.075 1.293-1.625 2.785-.978 4.445-1.915 2.68-1.803 6.132-1.624 9.335.091 1.594.376 3.484 1.935 4.207-.326 1.08-.194 2.511.932 2.969.789.321 1.701 0 2.48-.336a63.4 63.4 0 0 0 9.406-5.016c4.008-2.593 7.7-5.628 12.024-7.762 2.877-1.426 5.984-2.424 9.141-3.218 2.832-.713 5.73-1.273 8.668-1.39 1.324-.051 2.674-.021 3.937-.372.993-.275 1.889-.78 2.709-1.36 3.422-2.424 5.567-6.407 5.205-10.364-.082-.891-.285-1.787-.733-2.582a2 2 0 0 0-.138-.24"/><path fill="#2d1714" d="M192.588 111.611c9.879-29.41-11.103-33.642-11.103-33.642l-1.889 2.383a4.67 4.67 0 0 0-.983 2.567c-.356 5.032-2.521 7.69-2.521 7.69s7.11-.173 11.164 5.5c.295.407.519.86.692 1.334l1.696 4.686a23.8 23.8 0 0 1 1.385 9.35l-.484 9.136c0 .066.097.066.102.005l1.07-6.809z"/><path fill="url(#x)" d="M175.573 123.055s-1.105-1.498-2.231-1.574c-1.13-.071-2.444 1.166-2.587 1.864-.142.698 1.049 1.355 2.399 1.441 1.365.092 2.989-.428 2.419-1.731"/><path fill="#c66" d="M175.675 123.798s-.611.942-2.389.835c-1.629-.096-2.51-.932-2.51-.932s.85 1.411 2.393 1.472c1.182.041 1.823-.244 2.506-1.375"/><path fill="#2d1714" d="m140.662 104.451 3.616 13.99c.082.305.54.254.55-.061l.29-15.992z"/><path fill="url(#y)" d="M113.472 86.324h80.302v80.301h-80.302z" opacity=".5"/><path fill="url(#z)" d="M146.718 85.101h80.179v80.18h-80.179z" opacity=".5"/><path fill="#fff3f0" d="M177.355 118.894c-.59-2.643.718-6.432 2.587-8.057 1.778-1.543 3.937-1.298 5.745-.02 3.03 2.149 4.181 8.739.204 10.501a5 5 0 0 1-.917.306c-.866.203-1.757.213-2.638.183-.784-.026-1.579-.076-2.338-.306-.886-.264-1.787-.82-2.312-1.736a3.6 3.6 0 0 1-.331-.871"/><path fill="#090d0a" d="M179.942 110.832c1.778-1.543 3.937-1.298 5.745-.02 2.149 1.522 3.346 5.271 2.455 7.955 1.517-2.679.259-7.074-2.185-8.755-1.859-1.278-4.084-1.528-5.913.016-1.64 1.38-2.852 4.333-2.801 6.814.178-2.282 1.273-4.772 2.699-6.01"/><path fill="#331a0e" d="M186.539 116.054c.092-3.166-1.878-5.792-4.4-5.864s-4.641 2.434-4.732 5.6 1.879 5.791 4.4 5.864 4.641-2.435 4.732-5.6"/><path fill="url(#A)" d="M182.137 110.409c-2.429-.071-4.471 2.343-4.558 5.394-.086 3.05 1.808 5.576 4.243 5.647 2.434.072 4.471-2.342 4.558-5.393s-1.813-5.576-4.243-5.648"/><path fill="#090d0a" d="M184.707 116.001c.055-1.895-1.125-3.467-2.635-3.51-1.509-.044-2.778 1.457-2.833 3.352-.054 1.895 1.125 3.466 2.635 3.51s2.778-1.457 2.833-3.352"/><path fill="#fff5f1" d="M181.358 113.774c.021-.728-.473-1.333-1.102-1.351s-1.158.557-1.179 1.285c-.021.729.472 1.334 1.102 1.352s1.158-.557 1.179-1.286"/><path fill="#24110a" d="M188.809 93.232c3.723 4.95 5.368 11.693 3.692 17.722.056-.758.209-1.543.209-2.307.305-5.372-1.278-10.755-3.901-15.415"/><path fill="#24110a" d="M188.676 89.275c2.756 1.64 4.309 4.746 5.108 7.756.072.341.26 1.222.321 1.553.046.336.143 1.222.184 1.574a26 26 0 0 1-.031 4.196c-.046-.697-.061-1.395-.097-2.088-.361-4.716-1.614-9.915-5.485-12.991m-6.365-7.935c5.607.698 10.175 5.24 12.034 10.42-.51-.856-1.044-1.813-1.625-2.628-2.47-3.651-6.126-6.595-10.409-7.792m-4.533-2.505c-2.694-3.188-6.509-5.113-10.461-6.234-.57-.163-1.156-.295-1.736-.478 4.777-.057 10.043 2.255 12.197 6.712m-46.181 13.893c3.209-2.312 6.448-4.462 9.676-6.758-2.724 2.877-6.09 5.108-9.676 6.758"/><path fill="#633e36" d="M140.005 76.115a6.03 6.03 0 0 0-2.077 2.995c-.051.168-.097.346-.067.52.112.615.942.636 1.528.498.733-.173 1.467-.341 2.205-.514.224-.051.494-.087.637.097.142.183.056.458-.056.667-.647 1.197-1.859 1.98-2.455 3.203-.142.285-.244.626-.142.927.117.341.463.535.804.616 1.014.234 2.022-.305 3.035-.545s2.353.026 2.608 1.075c.173.718-.26 1.42-.601 2.067s-.581 1.518-.112 2.068c.423.494 1.171.433 1.793.31a29.3 29.3 0 0 0 6.228-1.97c.728-.326 2.506-.5 2.862-1.37.474-1.156-1.431-1.177-2.19-1.41-.285-.087-.575-.184-.799-.383-.326-.29-.454-.743-.642-1.14-.407-.856-1.156-1.528-2.032-1.813-.937-.306-2.205-.357-2.511-1.335-.142-.458.016-.962-.025-1.441-.066-.79-.677-1.446-1.385-1.726s-1.498-.245-2.246-.107c-.459.081-.922.203-1.38.127-.459-.077-.917-.413-.973-.896-.031-.28.071-.586-.041-.84-.204-.464-.871-.357-1.304-.113a6 6 0 0 0-.662.433" opacity=".5"/><path fill="#24110a" d="M134.673 103.142c5.801-3.346 11.22-7.41 16.261-11.815 5.638-4.583 12.971-7.394 20.28-6.916 1.395.056 2.938.331 4.298.606-7.619-.983-15.35 1.146-21.654 5.409-1.625 1.039-2.99 2.291-4.497 3.524-4.523 3.616-9.396 6.844-14.688 9.192m42.764-22.688c-4.894-4.405-12.075-4.68-18.217-3.361-.896.209-1.787.453-2.694.652.866-.321 1.747-.616 2.628-.917 6.116-1.767 13.776-1.4 18.283 3.626"/><path fill="#633e36" d="M157.142 90.08c-1.12.03-3.183 1.588-4.094 2.194-2.088 1.39-.927 2.368 1.13 2.17 1.325-.127 9.758-4.497 2.964-4.365m30.383-1.375c-.081-.213-.381-.606-.799-1.064.906.616 1.207-.178.82-1.278-.275-.785-4.207-5.266-3.107-1.146.056.199.204.428.398.667-1.956-1.563-4.075-2.455-3.026 1.304.296 1.029 2.572 2.5 3.484 3.172 2.093 1.533 2.943.194 2.23-1.655" opacity=".5"/><path fill="#c8c7cc" d="m158.059 170.784-8.668-.347c.005 0 4.339-.529 8.668.347m17.295-.057 5.413-.259c-.005 0-3.004-.489-5.413.259m-7.879-10.954c.27 8.999.663 18.033.006 27.022.504-8.999.107-18.018-.006-27.022m13.104-11.469a310 310 0 0 1-.306 15.879 302 302 0 0 1 .306-15.879"/><path fill="#f1f2f2" d="M150.664 150.402c-1.13 3.133-3.539 8.078-5.332 11.627-.03.061-.066.122-.096.183-1.253 2.231-4.008 3.046-6.224 1.798-2.128-1.202-3.004-3.901-2.001-6.182l6.014-13.674s2.363-5.322 6.264-4.879c1.656.188 2.496 1.258 2.776 2.837.377 2.139-.295 5.22-1.401 8.29"/><path fill="#c8c7cc" d="M149.58 153.153a137 137 0 0 1-4.64 9.62 135 135 0 0 1 4.64-9.62"/><path fill="url(#B)" d="m195.2 168.395 6.066-25.856c.101-.438-.199-.865-.612-.865H179.01c-.285 0-.539.213-.611.519-2.022 8.627-4.038 17.702-6.06 26.345-.102.443.204.87.621.86l21.639-.484c.285-.005.53-.213.601-.519"/><path fill="#89a4cb" d="M173.195 168.558c1.96-8.469 3.921-17.361 5.882-25.815.071-.3.31-.509.59-.509h21.008c.259 0 .473.178.565.428.01-.041.02-.077.026-.118.101-.438-.199-.865-.612-.865H179.01c-.285 0-.539.214-.611.519-2.022 8.627-4.038 17.702-6.06 26.345-.102.443.204.871.621.86l.693-.015c-.326-.081-.55-.448-.458-.83"/><path fill="#89a4cb" d="M199.42 144.456c.302-.266.377-.674.168-.91-.208-.236-.621-.211-.923.055-.301.266-.377.673-.168.909.208.236.622.212.923-.054"/><path fill="#9d8eab" d="M188.712 155.841h-.8l-.198.719c.198-.107.692-.393.998-.719"/><path fill="#89a4cb" d="M189.17 155.841c-.402.586-1.324 1.055-1.415 1.101a1 1 0 0 1-.158.061l-.082.3c-.178.642.199 1.161.84 1.161.642 0 1.304-.519 1.482-1.161l.403-1.462z"/><path fill="#9d8eab" d="m187.429 156.56.198-.713h-.794c.122.32.458.606.596.713"/><path fill="#89a4cb" d="M187.194 156.952c-.076-.051-.733-.525-.814-1.105h-1.075l-.402 1.461c-.179.642.198 1.161.84 1.161s1.304-.519 1.482-1.161l.081-.3z"/><path fill="#9d8eab" d="M187.902 154.864a.5.5 0 0 0-.316-.117q-.044.001-.096.01c-.362.066-.642.428-.693.753h.922z"/><path fill="#89a4cb" d="M186.705 154.864c.225-.27.515-.454.82-.505a.9.9 0 0 1 .499.051l.102-.361c.179-.642-.198-1.161-.84-1.161s-1.304.519-1.482 1.161l-.402 1.461h.988c.046-.219.152-.448.315-.646m3.188-1.976c-.641 0-1.303.519-1.482 1.161l-.101.361a1.1 1.1 0 0 1 .371-.071 1 1 0 0 1 .163.015.67.67 0 0 1 .54.505 1.13 1.13 0 0 1-.041.646h.993l.403-1.461c.173-.637-.204-1.156-.846-1.156"/><path fill="#9d8eab" d="M188.661 154.757q-.046-.009-.092-.01a.9.9 0 0 0-.387.117l-.178.646h.932c.127-.325.051-.692-.275-.753"/><path fill="#89a4cb" d="M187.541 156.707a.26.26 0 0 1-.148-.041c-.066-.045-.632-.448-.693-.926-.03-.23.066-.505.25-.729a1 1 0 0 1 .591-.366 1 1 0 0 1 .122-.01c.147 0 .29.05.407.152a1 1 0 0 1 .494-.152c.041 0 .077.005.117.01a.49.49 0 0 1 .392.366c.062.224 0 .499-.152.729-.326.478-1.116.881-1.202.926a.5.5 0 0 1-.178.041"/><path fill="#fcd7cc" d="M198.74 165.141a1.16 1.16 0 0 1-1.589.387l-2.689-1.635a1.16 1.16 0 0 1-.387-1.589 1.16 1.16 0 0 1 1.589-.387l2.689 1.635c.544.331.718 1.044.387 1.589"/><path fill="#fcd7cc" d="M198.281 167.208a1.16 1.16 0 0 1-1.589.387l-2.689-1.634a1.16 1.16 0 0 1-.387-1.589 1.16 1.16 0 0 1 1.589-.387l2.689 1.635c.545.331.718 1.044.387 1.588"/><path fill="#fcd7cc" d="M197.181 168.965a1.16 1.16 0 0 1-1.589.387l-2.689-1.634a1.16 1.16 0 0 1-.387-1.589 1.16 1.16 0 0 1 1.589-.387l2.689 1.634a1.16 1.16 0 0 1 .387 1.589"/><path fill="#fcd7cc" d="M196.295 170.615c-.28.54-.947.749-1.482.474l-2.658-1.375a1.105 1.105 0 0 1-.474-1.482c.28-.54.947-.749 1.482-.474l2.658 1.375c.535.281.749.948.474 1.482"/><path fill="#f1f2f2" d="m129.835 147.27 7.196 14.667a4.627 4.627 0 0 0 6.234 2.099 4.63 4.63 0 0 0 2.062-6.208l-7.211-14.418s-1.563-.596-4.573.184c-3.005.784-3.708 3.676-3.708 3.676"/><path fill="#c8c7cc" d="M140.133 147.428a136 136 0 0 1 4.695 9.391 131 131 0 0 1-4.695-9.391"/><path fill="#c66" d="M195.21 163.98a25 25 0 0 1 2.689 1.634 23 23 0 0 1-2.689-1.634m-1.105 1.762a25 25 0 0 1 2.689 1.634 24 24 0 0 1-2.689-1.634m-.703 2.144a18 18 0 0 1 2.42 1.247 17 17 0 0 1-2.42-1.247"/><path fill="url(#C)" d="M177.549 127.72s-1.727 3.768-6.896 3.814c-5.169.051-7.318-4.94-7.318-4.94s.443.132 1.227.311c2.195.504 7.044 1.39 12.248.891q.373-.03.739-.076"/><path fill="#fff" d="M176.81 127.796a5 5 0 0 1-.692.545c-.479.28-4.039.606-6.005.336-1.965-.27-4.41-.881-4.715-1.003-.214-.087-.612-.515-.836-.764 2.195.499 7.044 1.39 12.248.886"/></g><defs><linearGradient id="a" x1="164.154" x2="164.154" y1="174.55" y2="127.686" gradientUnits="userSpaceOnUse"><stop stop-color="#dcebf8"/><stop offset="1" stop-color="#fff"/></linearGradient><linearGradient id="b" x1="164.154" x2="164.154" y1="193.207" y2="191.305" gradientUnits="userSpaceOnUse"><stop stop-color="#dcebf8"/><stop offset="1" stop-color="#fff"/></linearGradient><linearGradient id="c" x1="262.616" x2="262.616" y1="201.408" y2="102.242" gradientUnits="userSpaceOnUse"><stop stop-color="#0e868c"/><stop offset=".503" stop-color="#6bc7b9"/><stop offset="1" stop-color="#84cec3"/></linearGradient><linearGradient id="e" x1="296.763" x2="275.906" y1="178.295" y2="169.192" gradientUnits="userSpaceOnUse"><stop offset=".005" stop-color="#f58b81"/><stop offset=".256" stop-color="#fbcbc0"/><stop offset=".544" stop-color="#fcd7cc"/><stop offset=".78" stop-color="#fcd5cb"/><stop offset=".836" stop-color="#fbc5ba"/><stop offset=".95" stop-color="#f79d92"/><stop offset="1" stop-color="#f58b81"/></linearGradient><linearGradient id="f" x1="283.711" x2="278.32" y1="171.983" y2="169.685" gradientUnits="userSpaceOnUse"><stop stop-color="#fcd7cc" stop-opacity="0"/><stop offset=".221" stop-color="#fbc8bc" stop-opacity=".242"/><stop offset=".667" stop-color="#f7a196" stop-opacity=".731"/><stop offset=".913" stop-color="#f58b81"/></linearGradient><linearGradient id="g" x1="227.441" x2="246.636" y1="178.353" y2="169.975" gradientUnits="userSpaceOnUse"><stop offset=".005" stop-color="#f58b81"/><stop offset=".256" stop-color="#fbcbc0"/><stop offset=".544" stop-color="#fcd7cc"/><stop offset=".78" stop-color="#fcd5cb"/><stop offset=".836" stop-color="#fbc5ba"/><stop offset=".95" stop-color="#f79d92"/><stop offset="1" stop-color="#f58b81"/></linearGradient><linearGradient id="h" x1="239.452" x2="244.414" y1="172.544" y2="170.429" gradientUnits="userSpaceOnUse"><stop stop-color="#fcd7cc" stop-opacity="0"/><stop offset=".221" stop-color="#fbc8bc" stop-opacity=".242"/><stop offset=".667" stop-color="#f7a196" stop-opacity=".731"/><stop offset=".913" stop-color="#f58b81"/></linearGradient><linearGradient id="k" x1="256.239" x2="256.239" y1="173.483" y2="175.052" gradientUnits="userSpaceOnUse"><stop stop-color="#fcd7cc" stop-opacity="0"/><stop offset=".221" stop-color="#fbc8bc" stop-opacity=".242"/><stop offset=".667" stop-color="#f7a196" stop-opacity=".731"/><stop offset=".913" stop-color="#f58b81"/></linearGradient><linearGradient id="l" x1="265.238" x2="267.835" y1="166.3" y2="173.919" gradientUnits="userSpaceOnUse"><stop stop-color="#270a00"/><stop offset=".295" stop-color="#402217"/><stop offset=".394" stop-color="#583523"/><stop offset=".59" stop-color="#8d5932"/><stop offset=".682" stop-color="#a46836"/><stop offset=".691" stop-color="#a76b39"/><stop offset=".753" stop-color="#b87d4b"/><stop offset=".821" stop-color="#c48a59"/><stop offset=".897" stop-color="#cc9362"/><stop offset="1" stop-color="#cf9665"/></linearGradient><linearGradient id="m" x1="250.044" x2="247.88" y1="166.278" y2="173.485" gradientUnits="userSpaceOnUse"><stop stop-color="#270a00"/><stop offset=".295" stop-color="#402217"/><stop offset=".394" stop-color="#583523"/><stop offset=".59" stop-color="#8d5932"/><stop offset=".682" stop-color="#a46836"/><stop offset=".691" stop-color="#a76b39"/><stop offset=".753" stop-color="#b87d4b"/><stop offset=".821" stop-color="#c48a59"/><stop offset=".897" stop-color="#cc9362"/><stop offset="1" stop-color="#cf9665"/></linearGradient><linearGradient id="n" x1="257.482" x2="257.682" y1="175.873" y2="178.595" gradientUnits="userSpaceOnUse"><stop offset=".069" stop-color="#54211e"/><stop offset=".078" stop-color="#5a2321"/><stop offset=".101" stop-color="#682826"/><stop offset=".128" stop-color="#722c2a"/><stop offset=".16" stop-color="#782d2b"/><stop offset=".215" stop-color="#7a2e2c"/><stop offset=".409" stop-color="#7c2f2d"/><stop offset=".525" stop-color="#833432"/><stop offset=".619" stop-color="#8f3c3a"/><stop offset=".703" stop-color="#a04745"/><stop offset=".778" stop-color="#b75654"/><stop offset=".822" stop-color="#c8615f"/></linearGradient><linearGradient id="o" x1="233.103" x2="228.609" y1="205.007" y2="180.862" gradientUnits="userSpaceOnUse"><stop stop-color="#cae5f7"/><stop offset=".413" stop-color="#e8f2fb"/><stop offset="1" stop-color="#fff"/></linearGradient><linearGradient id="p" x1="165.483" x2="165.483" y1="165.56" y2="108.628" gradientUnits="userSpaceOnUse"><stop stop-color="#0e868c"/><stop offset=".503" stop-color="#6bc7b9"/><stop offset="1" stop-color="#84cec3"/></linearGradient><linearGradient id="q" x1="245.001" x2="245.001" y1="79.069" y2="85.861" gradientUnits="userSpaceOnUse"><stop stop-color="#ffc418"/><stop offset=".462" stop-color="#f99b22"/><stop offset="1" stop-color="#f37225"/></linearGradient><linearGradient id="r" x1="110.819" x2="110.819" y1="121.056" y2="125.934" gradientUnits="userSpaceOnUse"><stop stop-color="#ffc418"/><stop offset=".462" stop-color="#f99b22"/><stop offset="1" stop-color="#f37225"/></linearGradient><linearGradient id="s" x1="98.108" x2="98.108" y1="110.735" y2="114.462" gradientUnits="userSpaceOnUse"><stop stop-color="#f48271"/><stop offset="1" stop-color="#f15f55"/></linearGradient><linearGradient id="t" x1="209.908" x2="209.908" y1="136.96" y2="143.064" gradientUnits="userSpaceOnUse"><stop stop-color="#f48271"/><stop offset="1" stop-color="#f15f55"/></linearGradient><linearGradient id="u" x1="228.048" x2="228.048" y1="139.103" y2="146.046" gradientUnits="userSpaceOnUse"><stop stop-color="#f48271"/><stop offset="1" stop-color="#f15f55"/></linearGradient><linearGradient id="w" x1="160.37" x2="156.282" y1="111.254" y2="122.204" gradientUnits="userSpaceOnUse"><stop stop-color="#270a00"/><stop offset=".295" stop-color="#402217"/><stop offset=".394" stop-color="#583523"/><stop offset=".59" stop-color="#8d5932"/><stop offset=".682" stop-color="#a46836"/><stop offset=".691" stop-color="#a76b39"/><stop offset=".753" stop-color="#b87d4b"/><stop offset=".821" stop-color="#c48a59"/><stop offset=".897" stop-color="#cc9362"/><stop offset="1" stop-color="#cf9665"/></linearGradient><linearGradient id="x" x1="173.273" x2="173.194" y1="121.907" y2="124.642" gradientUnits="userSpaceOnUse"><stop stop-color="#fcd7cc" stop-opacity="0"/><stop offset=".221" stop-color="#fbc8bc" stop-opacity=".242"/><stop offset=".667" stop-color="#f7a196" stop-opacity=".731"/><stop offset=".913" stop-color="#f58b81"/></linearGradient><linearGradient id="A" x1="180.637" x2="183.972" y1="111.555" y2="122.351" gradientUnits="userSpaceOnUse"><stop stop-color="#270a00"/><stop offset=".295" stop-color="#402217"/><stop offset=".394" stop-color="#583523"/><stop offset=".59" stop-color="#8d5932"/><stop offset=".682" stop-color="#a46836"/><stop offset=".691" stop-color="#a76b39"/><stop offset=".753" stop-color="#b87d4b"/><stop offset=".821" stop-color="#c48a59"/><stop offset=".897" stop-color="#cc9362"/><stop offset="1" stop-color="#cf9665"/></linearGradient><linearGradient id="B" x1="185.071" x2="189.288" y1="167.746" y2="138.042" gradientUnits="userSpaceOnUse"><stop stop-color="#cae5f7"/><stop offset=".413" stop-color="#e8f2fb"/><stop offset="1" stop-color="#fff"/></linearGradient><linearGradient id="C" x1="170.555" x2="170.106" y1="125.588" y2="131.701" gradientUnits="userSpaceOnUse"><stop offset=".069" stop-color="#54211e"/><stop offset=".078" stop-color="#5a2321"/><stop offset=".101" stop-color="#682826"/><stop offset=".128" stop-color="#722c2a"/><stop offset=".16" stop-color="#782d2b"/><stop offset=".215" stop-color="#7a2e2c"/><stop offset=".409" stop-color="#7c2f2d"/><stop offset=".525" stop-color="#833432"/><stop offset=".619" stop-color="#8f3c3a"/><stop offset=".703" stop-color="#a04745"/><stop offset=".778" stop-color="#b75654"/><stop offset=".822" stop-color="#c8615f"/></linearGradient><pattern id="i" width="1" height="1" patternContentUnits="objectBoundingBox"><use xlink:href="#D" transform="scale(.00153)"/></pattern><pattern id="j" width="1" height="1" patternContentUnits="objectBoundingBox"><use xlink:href="#E" transform="scale(.00156 .00155)"/></pattern><pattern id="y" width="1" height="1" patternContentUnits="objectBoundingBox"><use xlink:href="#F" transform="scale(.00153 .00152)"/></pattern><pattern id="z" width="1" height="1" patternContentUnits="objectBoundingBox"><use xlink:href="#G" transform="scale(.00153)"/></pattern></defs></svg>