<svg xmlns="http://www.w3.org/2000/svg" fill="none" viewBox="0 0 24 24"><path fill="#376eb6" d="M10.062 17.573a.7.7 0 0 1-.385-.113c-8.26-5.273-8.217-9.637-8.17-10.233a5.57 5.57 0 0 1 1.467-3.764c.99-1.069 2.33-1.636 3.731-1.584 1.233.042 2.424.548 3.357 1.415.933-.867 2.123-1.373 3.356-1.415 1.41-.056 2.742.515 3.731 1.584a5.57 5.57 0 0 1 1.467 3.764c.047.596.09 4.955-8.17 10.233a.7.7 0 0 1-.384.113"/><path fill="#48b8b9" d="M16.995 21.3a.9.9 0 0 1-.47-.137c-4.879-3.117-4.926-5.78-4.888-6.281a3.6 3.6 0 0 1 .96-2.428c.633-.68 1.477-1.055 2.373-1.055h.117c.68.024 1.345.258 1.903.675a3.4 3.4 0 0 1 1.903-.675h.127c.895 0 1.734.375 2.362 1.06.614.665.956 1.537.96 2.465.038.469-.004 3.127-4.888 6.249a.9.9 0 0 1-.46.126"/><path fill="#fff" d="M19.024 11.854c.769 0 1.486.323 2.025.91.54.58.835 1.345.84 2.15.027.338.05 2.837-4.674 5.855a.4.4 0 0 1-.22.066.4.4 0 0 1-.22-.066c-4.73-3.018-4.702-5.517-4.674-5.854a3.18 3.18 0 0 1 .839-2.152 2.77 2.77 0 0 1 2.034-.91h.099a2.97 2.97 0 0 1 1.921.812 2.97 2.97 0 0 1 1.922-.811zm0-.924a3.87 3.87 0 0 0-2.03.581 3.8 3.8 0 0 0-1.889-.576h-.13c-1.032 0-1.993.427-2.715 1.205a4.1 4.1 0 0 0-1.083 2.742c-.051.816.202 3.539 5.1 6.67.216.136.464.211.717.211.254 0 .502-.07.718-.21 4.898-3.132 5.156-5.856 5.1-6.671a4.1 4.1 0 0 0-1.083-2.742c-.722-.778-1.678-1.21-2.705-1.21"/><path fill="#fff" d="M20.168 15.721h-1.336l-.825-1.134a.31.31 0 0 0-.263-.141.32.32 0 0 0-.267.136l-1.326 1.86-.38-.571a.32.32 0 0 0-.267-.14h-1.918a.324.324 0 0 0 0 .646h1.018c.005 0 .01-.005.019-.005h.712l.544.816c.056.09.155.14.262.14h.005a.31.31 0 0 0 .258-.135l1.326-1.861.675.895c.066.099.174.14.282.136.009 0 .018.005.028.005h1.453a.324.324 0 0 0 0-.647"/></svg>