<svg xmlns="http://www.w3.org/2000/svg" fill="none" viewBox="0 0 24 24"><path fill="#376eb5" d="m19.31 6.3-1.662.01a.8.8 0 0 1-.503-.181c-2.057-1.854-5.4-1.843-5.4-1.843s-3.343-.011-5.4 1.843a.8.8 0 0 1-.504.182L4.17 6.3a.73.73 0 0 0-.74.782l.761 12.322a.73.73 0 0 0 .729.685h13.629c.385 0 .707-.3.728-.685l.76-12.322a.724.724 0 0 0-.728-.782"/><path fill="#fff" d="M11.799 5.379h.064-.289.096C9.024 5.42 7.427 6.46 6.763 7.007a.507.507 0 0 0-.097.697l2.197 3.117c.15.215.45.29.686.15a4 4 0 0 1 .664-.332c.193-.075.386-.15.59-.193.16-.042.31-.075.47-.096a3 3 0 0 1 .622-.021c.182.01.364.032.536.064a4.2 4.2 0 0 1 1.168.407c.107.054.214.118.32.182.226.14.526.075.687-.15l2.196-3.118a.506.506 0 0 0-.096-.696c-.654-.557-2.261-1.597-4.907-1.64"/><path fill="#376eb5" fill-rule="evenodd" d="M8.046 6.006a.116.116 0 0 1 .158.045l.439.793a.116.116 0 0 1-.203.112L8 6.163a.116.116 0 0 1 .046-.157m1.855-.656a.116.116 0 0 1 .136.092l.183.932a.116.116 0 0 1-.228.045l-.182-.932a.116.116 0 0 1 .09-.137m5.576.656a.116.116 0 0 1 .045.157l-.439.793a.116.116 0 0 1-.203-.112l.44-.793a.116.116 0 0 1 .157-.045m-1.941-.656a.116.116 0 0 1 .092.137l-.182.932a.116.116 0 0 1-.228-.045l.182-.932a.116.116 0 0 1 .136-.092m-1.769-.238c.065 0 .117.052.117.117V6.62a.116.116 0 0 1-.233 0V5.23c0-.065.052-.117.116-.117" clip-rule="evenodd"/><path fill="#48b7b8" d="m11.327 10.029.343-1.758c.01-.064.182-.064.193 0l.353 1.758c.011.042-.042.075-.107.064h-.685c-.065 0-.108-.032-.097-.064"/><path fill="#fff" fill-rule="evenodd" d="M5.307 19.157c0-.064.052-.116.117-.116H6.57a.116.116 0 0 1 0 .232H5.424a.116.116 0 0 1-.117-.116m2.143 0c0-.064.052-.116.116-.116h2.925a.116.116 0 0 1 0 .232H7.566a.116.116 0 0 1-.116-.116" clip-rule="evenodd"/></svg>