<svg xmlns="http://www.w3.org/2000/svg" fill="none" viewBox="0 0 48 48"><path fill="#ecf3ff" d="M0 24C0 10.745 10.745 0 24 0s24 10.745 24 24-10.745 24-24 24S0 37.255 0 24"/><path fill="#376eb6" d="m17.463 33.413-4.338-4.338a.4.4 0 0 1-.125-.287c0-.113.038-.213.125-.288l4.5-4.487a.44.44 0 0 0 .125-.2l.438-1.588c.15-.55 3.137-3.75 3.687-4.375l4.275-4.2a1.16 1.16 0 0 1 1.625 0c.45.45.413 1.15 0 1.625l-1.775 2 3.825-3.938a1.147 1.147 0 0 1 1.625 0c.45.45.438 1.175 0 1.625L27.625 18.9l4.963-4.925c.45-.45 1.175-.45 1.625 0s.437 1.162 0 1.625l-4.85 5.038 4.412-4.413c.45-.45 1.175-.45 1.625 0s.45 1.175 0 1.625l-6.775 6.775 2.7-1.262c1.713-.625 2.713 1.5.8 2.3l-3.9 1.887c-.4.188-.762.3-1.187.425l-2.725.85c-.975.3-1.588.125-1.813.263-.212.125-3.375 3.262-4.45 4.337a.454.454 0 0 1-.587-.012"/><path fill="#48b8b9" fill-rule="evenodd" d="M30.713 32.438a.63.63 0 0 1-.887.012l-1.775-1.725a.63.63 0 0 1-.013-.887.63.63 0 0 1 .888-.013L30.7 31.55c.237.238.25.65.012.888" clip-rule="evenodd"/><path fill="#fff" fill-rule="evenodd" d="M27.438 22.513a.65.65 0 0 0-.913 0 .65.65 0 0 0 0 .912c.25.25.663.25.913 0s.25-.65 0-.912m-10.125 7.562a.65.65 0 0 0-.913 0 .65.65 0 0 0 0 .912c.25.25.663.25.913 0a.65.65 0 0 0 0-.912m-.05-3.363a.65.65 0 0 0-.913 0 .65.65 0 0 0 0 .913c.25.25.663.25.913 0a.65.65 0 0 0 0-.913m3.2.588a.65.65 0 0 0-.913 0 .65.65 0 0 0 0 .913c.25.25.663.25.913 0 .25-.238.25-.65 0-.913m.55-3.487a.65.65 0 0 0-.913 0 .65.65 0 0 0 0 .912c.25.25.663.25.913 0a.65.65 0 0 0 0-.912m3.213 2.45a.65.65 0 0 0-.913 0 .65.65 0 0 0 0 .912c.25.25.663.25.913 0a.65.65 0 0 0 0-.913m.212-3.412a.65.65 0 0 0-.913 0 .65.65 0 0 0 0 .913c.25.25.663.25.913 0a.65.65 0 0 0 0-.913m.112-3.312a.65.65 0 0 0-.912 0 .65.65 0 0 0 0 .912c.25.25.662.25.912 0 .25-.237.25-.65 0-.912" clip-rule="evenodd"/><path fill="#48b8b9" fill-rule="evenodd" d="M15.076 16.063a.63.63 0 0 1 .887-.013l1.775 1.725a.63.63 0 0 1 .013.888.63.63 0 0 1-.888.012l-1.775-1.725c-.25-.25-.262-.65-.012-.887m3.55-2.176a.63.63 0 0 0-.625.638l.037 2.462c0 .35.288.625.638.625a.63.63 0 0 0 .625-.637l-.038-2.475c-.012-.338-.3-.625-.637-.613m8.537 20.725a.63.63 0 0 0 .625-.637l-.037-2.475a.63.63 0 0 0-.638-.625.63.63 0 0 0-.625.637l.038 2.475c0 .35.287.638.637.625m5.613-5.775a.63.63 0 0 1-.625.638l-2.475.037a.63.63 0 0 1-.638-.625.63.63 0 0 1 .625-.637l2.475-.038a.63.63 0 0 1 .638.625M13 19.662a.63.63 0 0 1 .626-.637l2.475-.038a.63.63 0 0 1 .637.625.63.63 0 0 1-.625.638l-2.475.038a.63.63 0 0 1-.637-.626" clip-rule="evenodd"/></svg>