<svg xmlns="http://www.w3.org/2000/svg" fill="none" viewBox="0 0 24 24"><path fill="#3c6ce7" fill-rule="evenodd" d="M15.793 2.793a3.121 3.121 0 0 1 4.414 4.414L7.644 19.77l-.058.059c-.288.288-.541.542-.847.729a3 3 0 0 1-.867.36C5.524 21 5.165 21 4.758 21H3a1 1 0 0 1-1-1v-1.758c0-.407 0-.765.083-1.114a3 3 0 0 1 .36-.867c.186-.306.44-.56.728-.846l.06-.06zm3 1.414a1.12 1.12 0 0 0-1.586 0L4.644 16.77c-.38.38-.45.459-.497.536a1 1 0 0 0-.12.289c-.02.088-.027.194-.027.73V19h.675c.536 0 .642-.006.73-.028a1 1 0 0 0 .29-.12c.077-.047.156-.117.535-.496L18.793 5.793a1.12 1.12 0 0 0 0-1.586M11 20a1 1 0 0 1 1-1h9a1 1 0 1 1 0 2h-9a1 1 0 0 1-1-1" clip-rule="evenodd"/></svg>