<svg xmlns="http://www.w3.org/2000/svg" fill="none" viewBox="0 0 24 24"><path fill="#376eb6" d="M21.843 8.892a6.12 6.12 0 0 0-1.618-4.144c-1.092-1.176-2.554-1.809-4.106-1.743-1.36.047-2.667.604-3.694 1.56-1.026-.956-2.334-1.513-3.693-1.56-1.542-.057-3.019.567-4.107 1.743a6.13 6.13 0 0 0-1.617 4.144c-.018.216-.033.886.282 1.899h3.248c.187 0 .36.093.46.248l.665.994 2.306-3.23a.57.57 0 0 1 .46-.234.56.56 0 0 1 .454.248l1.435 1.974h2.015a1.39 1.39 0 0 1 1.313-.938 1.397 1.397 0 0 1 0 2.794c-.535 0-.994-.305-1.228-.745h-2.302c-.019 0-.033-.01-.051-.01a.55.55 0 0 1-.488-.239l-1.172-1.556-2.306 3.23a.56.56 0 0 1-.45.234h-.01a.56.56 0 0 1-.454-.248l-.947-1.416H5c-.009 0-.018.005-.032.005H3.71c.966 2.071 3.193 5.001 8.279 8.25a.77.77 0 0 0 .421.121.8.8 0 0 0 .422-.122c9.108-5.798 9.061-10.603 9.01-11.259"/></svg>