<svg xmlns="http://www.w3.org/2000/svg" fill="none" viewBox="0 0 24 24"><path fill="#48b7b8" d="M16.92 21.42H9.04c-.38 0-.68-.3-.68-.68V3.45c0-.38.3-.68.68-.68h7.88c.38 0 .68.3.68.68v17.29c0 .38-.31.68-.68.68"/><path fill="#0154a0" d="M7.96 21.56c-.45 0-.81-.36-.81-.81V3.45c0-.45.36-.81.81-.81h7.88c.45 0 .81.36.81.81v17.29c0 .45-.36.81-.81.81H7.96z"/><path fill="#fff" d="M15.83 2.77c.38 0 .68.3.68.68v17.29c0 .38-.3.68-.68.68H7.96c-.38 0-.68-.3-.68-.68V3.45c0-.38.3-.68.68-.68zm0-.27H7.96c-.52 0-.94.42-.94.94v17.29c0 .52.42.94.94.94h7.88c.52 0 .94-.42.94-.94V3.45a.95.95 0 0 0-.95-.95"/><path fill="#fff" d="M14.36 18.65H8.79c-.09 0-.17-.08-.17-.17s.08-.17.17-.17h5.57c.09 0 .17.08.17.17 0 .1-.08.17-.17.17m.68-3.09H8.76a.3.3 0 0 1-.3-.3V4.78c0-.16.13-.3.3-.3h6.28c.16 0 .3.13.3.3v10.48c-.01.17-.14.3-.3.3"/><path fill="#48b7b8" d="M10.57 17.24H8.73a.1.1 0 0 1-.1-.1v-.52c0-.06.05-.1.1-.1h1.84c.06 0 .1.05.1.1v.52a.1.1 0 0 1-.1.1m3.71 0h-1.84a.1.1 0 0 1-.1-.1v-.52c0-.06.05-.1.1-.1h1.84c.06 0 .1.05.1.1v.52c.01.05-.04.1-.1.1"/><path fill="#0154a0" d="M15.6 8.89H8.2v.63h7.4zm-8.79-.9c-1.2 0-2.18-.98-2.18-2.18s.98-2.18 2.18-2.18h4.39c1.2 0 2.18.98 2.18 2.18s-.98 2.18-2.18 2.18z"/><path fill="#fff" d="M11.19 3.77c1.13 0 2.05.92 2.05 2.05s-.92 2.04-2.05 2.04H6.81c-1.13 0-2.05-.92-2.05-2.05s.92-2.05 2.05-2.05h4.38m0-.26H6.81C5.54 3.5 4.5 4.54 4.5 5.81s1.04 2.31 2.31 2.31h4.39c1.27 0 2.31-1.04 2.31-2.31a2.32 2.32 0 0 0-2.32-2.31"/><path fill="#48b7b8" d="M6.81 7.86a2.05 2.05 0 1 0 0-4.1 2.05 2.05 0 0 0 0 4.1"/></svg>