<svg xmlns="http://www.w3.org/2000/svg" fill="none" viewBox="0 0 48 48"><path fill="#ecf3ff" d="M0 24C0 10.745 10.745 0 24 0s24 10.745 24 24-10.745 24-24 24S0 37.255 0 24"/><path fill="#376eb6" d="M22.953 12a3.462 3.462 0 1 1-3.463 3.463A3.446 3.446 0 0 1 22.953 12m-.175 7.913c1.012 0 1.95-.325 2.712-.875a.77.77 0 0 1 .638-.125c.537.137 1 .412 1.487 1l2.938 5.212c.725 1.663-.925 2.488-1.863 1.2l-2.237-3.437.225 4.787-.338 7.225c0 1.725-2.137 1.813-2.475.313l-.95-7.225h-.062l-.95 7.225c-.338 1.5-2.475 1.412-2.475-.313l-.338-7.225.225-4.787-2.275 3.45c-.925 1.275-2.587.462-1.862-1.2l2.937-5.213c.488-.587.95-.862 1.488-1a.73.73 0 0 1 .637.125c.763.55 1.7.875 2.713.875"/><path fill="#fff" fill-rule="evenodd" d="M20.978 22.062c.2 0 .375.163.375.375a.37.37 0 0 1-.375.375.376.376 0 0 1-.375-.375c0-.212.175-.375.375-.375m.062 3.388c.2 0 .376.162.376.375 0 .2-.163.375-.375.375a.376.376 0 0 1-.375-.375c0-.2.175-.375.375-.375m3.599-4.175a.376.376 0 0 1 0 .75.37.37 0 0 1-.375-.375c.013-.2.175-.375.375-.375m.7 3.937c.2 0 .376.163.376.375 0 .2-.163.375-.375.375a.37.37 0 0 1-.375-.375c0-.2.162-.375.375-.375m-2.451 0c.2 0 .376.163.376.375 0 .2-.163.375-.375.375a.376.376 0 0 1-.375-.375c.012-.2.175-.375.375-.375M24.34 23.9c.2 0 .375.163.375.375a.37.37 0 0 1-.375.375.376.376 0 0 1-.375-.375c0-.212.163-.375.375-.375m-.912-1.562a.376.376 0 0 1 0 .75.37.37 0 0 1-.375-.375c0-.2.175-.375.375-.375m-1.65 1.375a.376.376 0 0 1 0 .75.376.376 0 0 1-.375-.375c0-.213.162-.375.375-.375" clip-rule="evenodd"/><path fill="#48b8b9" d="M29.016 21.738a3.938 3.938 0 1 0 0-7.875 3.938 3.938 0 0 0 0 7.875"/><path fill="#fff" d="M29.016 14.1a3.7 3.7 0 0 1 3.7 3.7c0 2.05-1.65 3.7-3.7 3.7a3.7 3.7 0 0 1-3.7-3.7c0-2.05 1.65-3.7 3.7-3.7m0-.475A4.18 4.18 0 0 0 24.84 17.8c0 2.3 1.874 4.175 4.174 4.175S33.19 20.1 33.19 17.8s-1.876-4.175-4.176-4.175"/><path fill="#fff" fill-rule="evenodd" d="M30.34 18.488a.394.394 0 0 1 .538.112.1.1 0 0 1 .025.05.4.4 0 0 1 .525.138.42.42 0 0 1-.012.45c.024.025.062.05.075.087.1.15.05.363-.1.463a.34.34 0 0 1-.463-.1c-.062-.1-.075-.238-.012-.338a.32.32 0 0 1-.15-.137.1.1 0 0 1-.025-.05.4.4 0 0 1-.526-.138.416.416 0 0 1 .125-.537m-3-1.9a.29.29 0 0 0-.287-.288.29.29 0 0 0-.288.288c0 .15.125.287.288.287a.29.29 0 0 0 .287-.287m-.824 1.062a.34.34 0 0 1 .475-.05.34.34 0 0 1 .05.475s-.375.45.4.75c1.637.613.85 1.725.85 1.738a.355.355 0 0 1-.476.087.355.355 0 0 1-.087-.475s.287-.4-.525-.712c-1.675-.625-.687-1.813-.687-1.813m2.55-.487a.33.33 0 0 1 .45.15.33.33 0 0 1-.15.45s-.25.125-.213.25c.213.887-.812.737-.812.725a.34.34 0 0 1-.288-.388.34.34 0 0 1 .387-.287s.063.2.05.1c-.162-.65.576-1 .576-1m.237-1.363c.1.163.05.375-.113.463a.33.33 0 0 1-.462-.113s-.138-.237-.263-.187c-.862.287-.8-.725-.8-.738.013-.187.163-.337.35-.325.188.013.338.163.325.35 0 0-.187.088-.1.063.65-.225 1.063.475 1.063.487m1.5-.062c.175 0 .325.112.438.287.137-.025.325-.075.375-.075.125-.025.162.188.012.238-.075.025-.187.05-.275.075q.037.15.037.3c.138.037.3.075.35.1.113.037.063.237-.1.212a4 4 0 0 1-.287-.062c-.025.087-.05.162-.088.237l.263.263c.088.087-.062.237-.187.137a3 3 0 0 1-.213-.187.64.64 0 0 1-.325.112.45.45 0 0 1-.312-.137 4 4 0 0 0-.213.187c-.125.1-.275-.05-.187-.137l.262-.263a1.3 1.3 0 0 1-.088-.237c-.1.025-.2.05-.287.062-.163.025-.213-.175-.1-.212.05-.013.212-.063.35-.1q0-.17.037-.3c-.1-.025-.2-.05-.274-.075-.15-.05-.113-.25.012-.238.05.013.238.05.375.075.1-.162.25-.262.425-.262m-.75 4.375a.29.29 0 0 0-.288-.288.283.283 0 0 0-.287.288c0 .162.125.287.287.287a.283.283 0 0 0 .288-.287" clip-rule="evenodd"/></svg>