<svg xmlns="http://www.w3.org/2000/svg" fill="none" viewBox="0 0 25 24"><path fill="#376eb5" d="M13.523 21.24c-4.696.207-6.907-1.237-7.718-1.973a.62.62 0 0 1-.081-.825l.26-.359a2.5 2.5 0 0 0 .336-.646l4.844-14.059a.64.64 0 0 1 .547-.43c3.516-.319 6.112.735 7.144 1.25a.636.636 0 0 1 .318.777l-4.856 14.328a2.4 2.4 0 0 0-.126.749v.489a.7.7 0 0 1-.27.551.73.73 0 0 1-.398.148"/><path fill="#1f417f" d="M19.842 4.638c-.234-.117-.548-.26-.938-.413a.64.64 0 0 1 .27.749l-4.858 14.328c-.08.243-.125.494-.125.75v.488a.7.7 0 0 1-.27.552.7.7 0 0 1-.398.148c-3.745.166-5.907-.722-7.046-1.462a.6.6 0 0 0 .117.148c.825.744 3.067 2.21 7.835 2.004a.703.703 0 0 0 .677-.709v-.497c0-.26.04-.516.125-.758l4.929-14.54a.644.644 0 0 0-.319-.788"/><path fill="#376eb5" d="M12.42 20.352c-4.696.206-6.907-1.238-7.719-1.974a.62.62 0 0 1-.08-.825l.26-.358a2.5 2.5 0 0 0 .336-.646l4.844-14.06a.64.64 0 0 1 .547-.43c3.516-.319 6.112.735 7.144 1.251a.636.636 0 0 1 .318.776L13.21 18.41c-.08.242-.126.493-.126.749v.489a.7.7 0 0 1-.269.551.7.7 0 0 1-.394.153"/><path fill="#1f417f" d="M18.734 3.75c-.233-.117-.547-.26-.937-.413a.64.64 0 0 1 .27.749L13.208 18.41c-.08.242-.125.493-.125.749v.489a.7.7 0 0 1-.27.551.7.7 0 0 1-.399.148c-3.744.166-5.906-.722-7.045-1.462a.6.6 0 0 0 .117.148c.825.745 3.067 2.211 7.834 2.005a.703.703 0 0 0 .677-.709v-.497c0-.26.04-.516.126-.758l4.929-14.54a.636.636 0 0 0-.319-.784"/><path fill="#48b7b8" d="M13.383 15.074a.33.33 0 0 0 .157-.188l3.413-10.459a.5.5 0 0 0-.246-.605c-.808-.404-2.835-1.229-5.58-.978a.5.5 0 0 0-.43.337L7.213 13.294a.33.33 0 0 0 .3.435c.753.026 3.538.197 5.444 1.38a.33.33 0 0 0 .332.014z"/><path fill="#fff" d="m11.106 5.32-1.96 5.677a.425.425 0 0 0 .3.552l3.189.79a.423.423 0 0 0 .507-.283l1.91-5.826a.427.427 0 0 0-.318-.551l-3.144-.642a.43.43 0 0 0-.484.283M9.177 18.819a2.01 2.01 0 1 0 0-4.019 2.01 2.01 0 0 0 0 4.019"/><path stroke="#48b7b8" stroke-linecap="round" stroke-linejoin="round" stroke-miterlimit="10" stroke-width=".293" d="M9.98 16.195a1.034 1.034 0 0 1-.803 1.681A1.032 1.032 0 0 1 8.9 15.85m.677-.225-.516 1.39"/><path fill="#48b7b8" d="m18.33 5.907-2.838 8.113a.32.32 0 0 0 .09.34l1.076.947s.771.305 1.161-.803l2.435-7.153a.54.54 0 0 0-.179-.601L18.74 5.719a.31.31 0 0 0-.409.188"/><path fill="#329693" d="m16.878 15.307-1.077-.946a.315.315 0 0 1-.09-.34l2.84-8.114a.31.31 0 0 1 .188-.188.314.314 0 0 0-.409.188l-2.838 8.113a.315.315 0 0 0 .09.34l1.076.947s.148.059.35.032a1 1 0 0 1-.13-.032"/></svg>