<svg xmlns="http://www.w3.org/2000/svg" fill="none" viewBox="0 0 48 48"><path fill="#ecf3ff" d="M0 24C0 10.745 10.745 0 24 0s24 10.745 24 24-10.745 24-24 24S0 37.255 0 24"/><path fill="#376eb6" fill-rule="evenodd" d="M28.333 32.337h-8.837c-1.2 0-2.163-.975-2.163-2.163V19.063c0-1.2.975-2.162 2.163-2.162h8.837c1.2 0 2.163.975 2.163 2.162v11.112c.012 1.188-.963 2.163-2.163 2.163" clip-rule="evenodd"/><path fill="#376eb6" d="M27.346 15.3h-6.863v2.288h6.863z"/><path fill="#48b8b9" fill-rule="evenodd" d="M19.858 12h8.113c.425 0 .775.35.775.775v2.562c0 .425-.35.775-.775.775h-8.113a.78.78 0 0 1-.775-.775v-2.562c0-.425.35-.775.775-.775m8.025 23.388a2.62 2.62 0 0 1-1.887-.788c-.5-.5-.775-1.15-.788-1.85-.012-.7.25-1.35.738-1.837l4.137-4.138a2.52 2.52 0 0 1 1.8-.737c.713 0 1.388.275 1.888.787.5.5.775 1.15.787 1.85s-.25 1.35-.737 1.838l-4.15 4.137c-.45.475-1.1.738-1.788.738" clip-rule="evenodd"/><path fill="#fff" d="M31.896 26.313c.6 0 1.212.237 1.687.7.913.912.938 2.4.05 3.287l-2.037 2.038-2.1 2.1a2.24 2.24 0 0 1-1.6.65 2.43 2.43 0 0 1-1.688-.7c-.912-.913-.937-2.4-.05-3.288l2.038-2.037 2.1-2.1a2.3 2.3 0 0 1 1.6-.65m0-.575c-.763 0-1.475.287-2.013.825l-2.1 2.1-2.037 2.037a2.83 2.83 0 0 0-.825 2.05c.012.775.325 1.5.875 2.05a2.93 2.93 0 0 0 2.087.875c.763 0 1.475-.287 2.013-.825l2.1-2.1 2.037-2.037a2.83 2.83 0 0 0 .825-2.05 2.95 2.95 0 0 0-.875-2.05 2.9 2.9 0 0 0-2.087-.875"/><path fill="#376eb6" fill-rule="evenodd" d="M30.296 26.975c.887-.887 2.375-.875 3.287.05.913.913.938 2.4.05 3.288l-2.1 2.1-3.337-3.338z" clip-rule="evenodd"/><path fill="#fff" d="M23.908 28.513a3.975 3.975 0 1 0 0-7.95 3.975 3.975 0 0 0 0 7.95"/><path fill="#48b8b9" fill-rule="evenodd" d="M23.346 21.7h1.138c.087 0 .15.062.15.15v1.975h1.974c.088 0 .15.062.15.15v1.137c0 .088-.062.15-.15.15h-1.974v1.975c0 .088-.063.15-.15.15h-1.138a.144.144 0 0 1-.15-.15v-1.975h-1.975a.144.144 0 0 1-.15-.15v-1.137c0-.088.063-.15.15-.15h1.975V21.85c0-.088.063-.15.15-.15" clip-rule="evenodd"/><path fill="#fff" fill-rule="evenodd" d="M20.946 12.88c.08 0 .144.065.144.145v1.85a.144.144 0 0 1-.288 0v-1.85c0-.08.064-.144.144-.144m2.624-.001c.08 0 .145.065.145.145v1.85a.144.144 0 0 1-.288 0v-1.85c0-.08.064-.144.144-.144m2.725-.001c.08 0 .144.065.144.145v1.85a.144.144 0 1 1-.289 0v-1.85c0-.08.065-.144.145-.144m-5.369 4.006c0-.08.064-.144.144-.144h3.85a.144.144 0 1 1 0 .289h-3.85a.144.144 0 0 1-.145-.145m4.613 0c0-.08.064-.144.144-.144h.563a.144.144 0 1 1 0 .289h-.563a.144.144 0 0 1-.144-.145" clip-rule="evenodd"/></svg>