<svg xmlns="http://www.w3.org/2000/svg" fill="none" viewBox="0 0 25 24"><path fill="#48b7b8" d="m19.42 11.512.471-.204a.51.51 0 0 0 .268-.664l-2.957-6.847a.51.51 0 0 0-.664-.267l-.45.192s0 .011.01.011c.011.022.033.032.043.054.311.503 2.154 4.885 3.279 7.725m-6.321 1.21c-.568.75 1.167.483 2.067.29-.418-1.157-.964-2.057-1.575-2.657.054.439.118 1.575-.492 2.367M9.96 9.315l-.686-5.218-.13.022-.6.075c-.117.01-.203.128-.192.246l.61 4.747c.012.118.13.203.247.193l.718-.054z"/><path fill="#376eb5" d="M21.08 17.64c-.042-1.382-.406-2.743-.867-4.05-.15-.418-.44-1.168-.793-2.078-1.125-2.84-2.968-7.211-3.29-7.704a.2.2 0 0 0-.042-.053c-.16-.215-.365-.354-.632-.322l-6.182.664.675 5.218h-.033l2.807.525c.236.043.472.15.654.311.075.064.14.129.204.193.61.61 1.168 1.5 1.575 2.657.107.31.214.632.3.986.364 1.403.557 3.107.482 5.089-.01.396-.043.804-.075 1.232 0 .064-.01.129-.01.182-.087.857 2.1.632 2.506.632 1.372 0 2.54-1.05 2.668-2.442.054-.354.064-.697.054-1.04"/><path fill="#48b7b8" d="M5.716 11.051a4.06 4.06 0 0 1-2.614-3.268 4.07 4.07 0 0 1 1.693-3.825l.257.364a3.58 3.58 0 0 0-1.5 3.408 3.6 3.6 0 0 0 2.325 2.914z"/><path fill="#48b7b8" d="M6.455 9.7a2.51 2.51 0 0 1-1.843-2.11 2.51 2.51 0 0 1 1.243-2.518l.225.386a2.1 2.1 0 0 0-1.028 2.079 2.09 2.09 0 0 0 1.521 1.746z"/><path fill="#48b7b8" d="M7.109 8.5c-.611 0-1.147-.46-1.222-1.081a1.2 1.2 0 0 1 .247-.911c.203-.257.493-.429.825-.472l.053.44a.74.74 0 0 0-.525.3.83.83 0 0 0-.16.589.82.82 0 0 0 .3.525.83.83 0 0 0 .589.16l.053.44c-.053.01-.107.01-.16.01"/><path fill="#fff" fill-rule="evenodd" d="M20.011 14.683a.174.174 0 0 1-.163.184l-1.65.097a.174.174 0 0 1-.02-.348l1.65-.096a.174.174 0 0 1 .183.163m.225 1.201a.174.174 0 0 1-.163.183l-1.65.097a.174.174 0 1 1-.02-.348l1.65-.096a.174.174 0 0 1 .183.163m.214 1.211a.174.174 0 0 1-.163.184l-1.65.097a.174.174 0 1 1-.02-.348l1.65-.097a.174.174 0 0 1 .184.164" clip-rule="evenodd"/></svg>