<svg xmlns="http://www.w3.org/2000/svg" fill="none" viewBox="0 0 25 24"><path fill="#3c6ce7" fill-rule="evenodd" d="M8.5 1a1 1 0 0 1 1 1v1h6V2a1 1 0 1 1 2 0v1.002c.476.003.891.013 1.252.042.562.046 1.079.145 1.564.392a4 4 0 0 1 1.748 1.748c.247.485.346 1.002.392 1.564.044.541.044 1.206.044 2.01V11.5a1 1 0 1 1-2 0V11h-16v6.2c0 .857 0 1.439.038 1.889.035.438.1.663.18.819a2 2 0 0 0 .874.874c.156.08.38.145.819.18C6.861 21 7.443 21 8.3 21H13a1 1 0 1 1 0 2H8.259c-.805 0-1.47 0-2.01-.044-.563-.046-1.08-.145-1.565-.392a4 4 0 0 1-1.748-1.748c-.247-.485-.346-1.002-.392-1.564-.044-.541-.044-1.206-.044-2.01V8.758c0-.805 0-1.47.044-2.01.046-.563.145-1.08.392-1.565a4 4 0 0 1 1.748-1.748c.485-.247 1.002-.346 1.564-.392.361-.03.777-.04 1.252-.042V2a1 1 0 0 1 1-1m-1 4.002c-.446.003-.795.012-1.089.036-.438.035-.663.1-.819.18a2 2 0 0 0-.874.874c-.08.156-.145.38-.18.819C4.5 7.361 4.5 7.943 4.5 8.8V9h16v-.2c0-.857 0-1.439-.038-1.889-.035-.438-.1-.663-.18-.819a2 2 0 0 0-.874-.874c-.156-.08-.38-.145-.819-.18a15 15 0 0 0-1.089-.036V6a1 1 0 1 1-2 0V5h-6v1a1 1 0 1 1-2 0zM18.5 14a1 1 0 0 1 1 1v2h2a1 1 0 1 1 0 2h-2v2a1 1 0 1 1-2 0v-2h-2a1 1 0 1 1 0-2h2v-2a1 1 0 0 1 1-1" clip-rule="evenodd"/></svg>