<svg width="28" height="22" viewBox="0 0 28 22" fill="none" xmlns="http://www.w3.org/2000/svg">
<path fill-rule="evenodd" clip-rule="evenodd" d="M15.2234 0.884769C15.2303 0.884771 15.2372 0.884772 15.2441 0.884772L19.5447 0.884769C19.6422 0.884745 19.727 0.884724 19.8079 0.889626C20.8313 0.951608 21.7275 1.59754 22.11 2.54885C22.1402 2.62409 22.167 2.70457 22.1978 2.79708L22.2044 2.8167C22.2454 2.93982 22.2543 2.96529 22.2619 2.98411C22.3893 3.30121 22.6881 3.51652 23.0292 3.53718C23.0492 3.53839 23.0792 3.5388 23.218 3.5388C23.2347 3.5388 23.2512 3.5388 23.2674 3.53879C23.5459 3.53874 23.7506 3.53869 23.9257 3.55604C25.6041 3.72234 26.9319 5.05014 27.0982 6.7286C27.1156 6.90365 27.1155 7.10009 27.1155 7.36533C27.1155 7.3804 27.1155 7.3957 27.1155 7.41123V14.3684C27.1155 15.0805 27.1155 15.6683 27.0764 16.147C27.0357 16.6443 26.9486 17.1014 26.7298 17.5308C26.3905 18.1967 25.8492 18.738 25.1833 19.0773C24.7539 19.296 24.2968 19.3832 23.7996 19.4239C23.3208 19.463 22.733 19.463 22.0209 19.463H12.7472C12.035 19.463 11.4473 19.463 10.9685 19.4239C10.4712 19.3832 10.0141 19.296 9.58477 19.0773C8.91892 18.738 8.37756 18.1967 8.0383 17.5308C7.81952 17.1014 7.73233 16.6443 7.6917 16.147C7.65258 15.6683 7.65259 15.0805 7.6526 14.3684L7.6526 7.41123C7.6526 7.3957 7.6526 7.38041 7.65259 7.36533C7.65254 7.10009 7.6525 6.90365 7.66984 6.7286C7.83614 5.05014 9.16394 3.72234 10.8424 3.55604C11.0175 3.53869 11.2222 3.53874 11.5007 3.53879C11.5169 3.5388 11.5334 3.5388 11.5501 3.5388C11.6888 3.5388 11.7189 3.53839 11.7389 3.53718C12.08 3.51652 12.3787 3.30121 12.5062 2.98411C12.5138 2.96529 12.5227 2.93983 12.5637 2.8167C12.5659 2.81008 12.5681 2.80353 12.5703 2.79703C12.6011 2.70454 12.6279 2.62408 12.6581 2.54885C13.0406 1.59754 13.9367 0.951608 14.9602 0.889626C15.0411 0.884724 15.1259 0.884745 15.2234 0.884769ZM15.2441 2.65412C15.1143 2.65412 15.0874 2.65452 15.0671 2.65574C14.726 2.6764 14.4273 2.89171 14.2998 3.20882C14.2922 3.22763 14.2833 3.2531 14.2423 3.37622C14.2401 3.38284 14.2379 3.3894 14.2357 3.3959C14.2049 3.48838 14.1781 3.56885 14.1479 3.64408C13.7654 4.59538 12.8692 5.24132 11.8458 5.3033C11.7648 5.3082 11.676 5.30818 11.5728 5.30816C11.5653 5.30815 11.5578 5.30815 11.5501 5.30815C11.2009 5.30815 11.0926 5.30927 11.0169 5.31677C10.1776 5.39992 9.51372 6.06382 9.43057 6.90305C9.42304 6.9791 9.42195 7.08013 9.42195 7.41123V14.3318C9.42195 15.0896 9.42264 15.6048 9.45517 16.003C9.48686 16.3908 9.5443 16.5892 9.6148 16.7275C9.78443 17.0605 10.0551 17.3311 10.388 17.5008C10.5264 17.5713 10.7247 17.6287 11.1126 17.6604C11.5108 17.6929 12.0259 17.6936 12.7837 17.6936H21.9844C22.7422 17.6936 23.2573 17.6929 23.6555 17.6604C24.0433 17.6287 24.2417 17.5713 24.38 17.5008C24.713 17.3311 24.9836 17.0605 25.1533 16.7275C25.2238 16.5892 25.2812 16.3908 25.3129 16.003C25.3454 15.6048 25.3461 15.0896 25.3461 14.3318V7.41123C25.3461 7.08013 25.345 6.9791 25.3375 6.90305C25.2544 6.06382 24.5905 5.39992 23.7512 5.31677C23.6755 5.30927 23.5672 5.30815 23.218 5.30815L23.1953 5.30816C23.092 5.30818 23.0032 5.3082 22.9223 5.3033C21.8988 5.24132 21.0026 4.59538 20.6202 3.64408C20.59 3.56883 20.5632 3.48835 20.5323 3.39585L20.5258 3.37622C20.4848 3.2531 20.4759 3.22763 20.4683 3.20882C20.3408 2.89171 20.0421 2.6764 19.7009 2.65574C19.6807 2.65452 19.6537 2.65412 19.5239 2.65412H15.2441ZM17.384 8.40452C15.9183 8.40452 14.73 9.59277 14.73 11.0585C14.73 12.5243 15.9183 13.7126 17.384 13.7126C18.8498 13.7126 20.0381 12.5243 20.0381 11.0585C20.0381 9.59277 18.8498 8.40452 17.384 8.40452ZM12.9607 11.0585C12.9607 8.61558 14.9411 6.63517 17.384 6.63517C19.827 6.63517 21.8074 8.61558 21.8074 11.0585C21.8074 13.5015 19.827 15.4819 17.384 15.4819C14.9411 15.4819 12.9607 13.5015 12.9607 11.0585Z" fill="white"/>
<g clip-path="url(#clip0_1890_158033)">
<path d="M13.4473 9.05469C14.1142 9.05474 14.6553 9.59571 14.6553 10.2627V11.6777C14.6553 14.4254 12.8569 16.7529 10.373 17.5479H11.3242C11.991 17.548 12.5311 18.0881 12.5312 18.7549C12.5312 19.4218 11.9911 19.9627 11.3242 19.9629H5.66211C4.99509 19.9629 4.4541 19.4219 4.4541 18.7549C4.45424 18.088 4.99518 17.5479 5.66211 17.5479H6.61328C4.12924 16.753 2.33106 14.4256 2.33105 11.6777V10.2627C2.33105 9.59568 2.87205 9.05469 3.53906 9.05469C4.20596 9.05483 4.74609 9.59577 4.74609 10.2627V11.6777C4.7461 13.7468 6.42406 15.4238 8.49316 15.4238C10.5622 15.4237 12.2393 13.7468 12.2393 11.6777V10.2627C12.2393 9.59568 12.7802 9.05469 13.4473 9.05469ZM8.49316 3.39258C10.3327 3.39268 11.8242 4.88405 11.8242 6.72363V11.6777C11.8242 13.5173 10.3327 15.0087 8.49316 15.0088C6.65353 15.0088 5.16211 13.5174 5.16211 11.6777V6.72363C5.16211 4.88399 6.65352 3.39258 8.49316 3.39258ZM8.49316 5.80762C7.98756 5.80762 7.57715 6.21803 7.57715 6.72363V11.6777C7.57715 12.1833 7.98756 12.5928 8.49316 12.5928C8.99869 12.5927 9.4082 12.1833 9.4082 11.6777V6.72363C9.4082 6.21809 8.99869 5.80772 8.49316 5.80762Z" fill="white" stroke="#464646" stroke-linecap="round" stroke-linejoin="round"/>
</g>
<defs>
<clipPath id="clip0_1890_158033">
<rect width="16.9858" height="16.9858" fill="white" transform="translate(0 3.18481)"/>
</clipPath>
</defs>
</svg>
