<svg xmlns="http://www.w3.org/2000/svg" fill="none" viewBox="0 0 24 26"><path fill="#fff" fill-rule="evenodd" d="M7.218.167h7.563c.94 0 1.715 0 2.346.051.656.054 1.259.169 1.825.457a4.67 4.67 0 0 1 2.04 2.04c.288.566.403 1.169.456 1.825.052.63.052 1.406.052 2.345v4.365a1.167 1.167 0 0 1-2.333 0V6.933c0-.999-.001-1.678-.044-2.203-.042-.512-.118-.774-.21-.956a2.33 2.33 0 0 0-1.02-1.02c-.183-.093-.444-.168-.956-.21-.525-.043-1.204-.044-2.204-.044H7.267c-1 0-1.679 0-2.204.044-.512.042-.773.117-.956.21-.439.224-.796.58-1.02 1.02-.092.182-.168.444-.21.955-.043.526-.044 1.205-.044 2.204v12.134c0 .999.001 1.678.044 2.203.042.512.118.774.21.956.224.439.581.796 1.02 1.02.183.093.444.168.956.21.525.043 1.204.044 2.204.044h3.15a1.167 1.167 0 1 1 0 2.333H7.218c-.939 0-1.714 0-2.345-.051-.656-.054-1.259-.169-1.825-.457a4.67 4.67 0 0 1-2.04-2.04C.72 22.72.606 22.116.553 21.46.5 20.83.5 20.054.5 19.115V6.885c0-.939 0-1.714.052-2.345.053-.656.168-1.26.457-1.825a4.67 4.67 0 0 1 2.04-2.04C3.613.387 4.216.272 4.872.218 5.504.167 6.279.167 7.218.167m-2.051 7C5.167 6.522 5.689 6 6.333 6h9.334a1.167 1.167 0 0 1 0 2.333H6.333a1.167 1.167 0 0 1-1.166-1.166m0 4.666c0-.644.522-1.166 1.166-1.166h7a1.167 1.167 0 0 1 0 2.333h-7a1.167 1.167 0 0 1-1.166-1.167M18 17.083a2.917 2.917 0 1 0 0 5.834 2.917 2.917 0 0 0 0-5.834M12.75 20a5.25 5.25 0 1 1 9.695 2.795l1.047 1.047a1.167 1.167 0 0 1-1.65 1.65l-1.047-1.047A5.25 5.25 0 0 1 12.75 20m-7.583-3.5c0-.644.522-1.167 1.166-1.167h2.334a1.167 1.167 0 1 1 0 2.334H6.333A1.167 1.167 0 0 1 5.167 16.5" clip-rule="evenodd"/></svg>