<svg xmlns="http://www.w3.org/2000/svg" fill="none" viewBox="0 0 17 20"><path fill="#24262d" fill-rule="evenodd" d="M8.25 6.5A1.751 1.751 0 1 0 10 8.251C10 7.285 9.216 6.5 8.25 6.5m0 5A3.253 3.253 0 0 1 5 8.251 3.254 3.254 0 0 1 8.25 5a3.254 3.254 0 0 1 3.25 3.251A3.253 3.253 0 0 1 8.25 11.5" clip-rule="evenodd"/><mask id="a" width="17" height="20" x="0" y="0" maskUnits="userSpaceOnUse" style="mask-type:luminance"><path fill="#fff" fill-rule="evenodd" d="M0 0h16.5v19.5H0z" clip-rule="evenodd"/></mask><g mask="url(#a)"><path fill="#24262d" fill-rule="evenodd" d="M8.25 1.5C4.528 1.5 1.5 4.557 1.5 8.313c0 4.779 5.624 9.435 6.75 9.683C9.376 17.747 15 13.091 15 8.313 15 4.557 11.971 1.5 8.25 1.5m0 18C6.456 19.5 0 13.948 0 8.313 0 3.729 3.7 0 8.25 0s8.25 3.729 8.25 8.313c0 5.635-6.456 11.187-8.25 11.187" clip-rule="evenodd"/></g></svg>