<svg xmlns="http://www.w3.org/2000/svg" fill="none" viewBox="0 0 49 48"><path fill="#464646" d="M.5 24c0-13.255 10.745-24 24-24s24 10.745 24 24-10.745 24-24 24S.5 37.255.5 24"/><path fill="#fff" fill-rule="evenodd" d="M24.5 13.5a5.833 5.833 0 0 0-5.833 5.833c0 1.892 1.028 3.355 2.518 4.908.357.37.726.734 1.108 1.11l.041.04c.392.385.795.783 1.18 1.189a17 17 0 0 1 .986 1.124c.313-.395.648-.768.986-1.124a49 49 0 0 1 1.18-1.189l.041-.04a55 55 0 0 0 1.108-1.11c1.49-1.553 2.518-3.016 2.518-4.908A5.833 5.833 0 0 0 24.5 13.5m-8.167 5.833a8.167 8.167 0 1 1 16.334 0c0 2.849-1.597 4.886-3.17 6.524-.379.395-.77.78-1.145 1.149l-.05.049c-.395.388-.77.759-1.124 1.13-.71.75-1.274 1.449-1.634 2.17a1.167 1.167 0 0 1-2.087 0c-.36-.721-.924-1.42-1.635-2.17a47 47 0 0 0-1.124-1.13l-.05-.05a57 57 0 0 1-1.146-1.148c-1.572-1.638-3.169-3.675-3.169-6.524m5.834 0a2.333 2.333 0 1 1 4.667 0 2.333 2.333 0 0 1-4.667 0M17.4 26.196c.26.59-.007 1.279-.597 1.539-.99.436-1.72.929-2.186 1.419-.461.483-.618.908-.618 1.262 0 .705.691 1.732 2.73 2.649 1.928.868 4.674 1.435 7.77 1.435s5.842-.567 7.77-1.435c2.04-.917 2.73-1.944 2.73-2.648 0-.355-.157-.78-.618-1.264-.466-.489-1.196-.982-2.186-1.418a1.167 1.167 0 0 1 .942-2.135c1.17.516 2.19 1.164 2.933 1.943.75.786 1.262 1.76 1.262 2.874 0 2.194-1.92 3.793-4.105 4.776-2.293 1.032-5.38 1.64-8.728 1.64s-6.434-.608-8.728-1.64c-2.184-.983-4.105-2.582-4.105-4.776 0-1.115.513-2.088 1.262-2.874.743-.78 1.764-1.427 2.934-1.943a1.167 1.167 0 0 1 1.538.596" clip-rule="evenodd"/></svg>