<svg xmlns="http://www.w3.org/2000/svg" fill="none" viewBox="0 0 20 20"><g clip-path="url(#a)"><path fill="#3c6ce7" fill-rule="evenodd" d="M10.88 1.575a.833.833 0 0 1 .92-.736 8.334 8.334 0 0 1 7.36 7.352.833.833 0 1 1-1.655.186 6.67 6.67 0 0 0-5.89-5.882.833.833 0 0 1-.735-.92m-5.96 2.31a.83.83 0 0 0-.752 0c-.089.045-.2.141-.689.63l-.131.132c-.467.467-.593.602-.693.78a2 2 0 0 0-.214.822c0 .212.032.34.17.825a15.03 15.03 0 0 0 3.848 6.541 15.03 15.03 0 0 0 6.542 3.849c.485.138.613.169.825.17a2 2 0 0 0 .82-.214c.18-.1.315-.226.782-.693l.131-.132c.49-.489.585-.6.63-.689a.83.83 0 0 0 0-.752c-.045-.089-.14-.2-.63-.689l-.162-.162c-.322-.322-.394-.388-.449-.423a.83.83 0 0 0-.908 0c-.055.035-.127.101-.449.423l-.02.02c-.074.074-.169.17-.282.25l-.486-.677.486.678c-.406.29-.958.385-1.437.245a2 2 0 0 1-.33-.134l-.02-.009a13 13 0 0 1-3.57-2.534 13 13 0 0 1-2.543-3.59 2 2 0 0 1-.133-.33l.8-.232-.8.233a1.7 1.7 0 0 1 .245-1.437c.081-.114.176-.208.251-.283l.02-.02c.321-.321.387-.393.423-.448a.83.83 0 0 0 0-.908l.698-.455-.698.455c-.036-.055-.102-.128-.423-.449l-.162-.162c-.49-.49-.6-.586-.69-.63M3.417 2.398a2.5 2.5 0 0 1 2.257 0c.36.183.673.496 1.035.86l.08.08.162.162.053.052c.239.239.445.444.59.666l-.665.432.664-.432a2.5 2.5 0 0 1 0 2.725c-.144.223-.35.428-.589.666l-.142.144-.002.01.042.088a11.3 11.3 0 0 0 2.21 3.113c.934.933 1.989 1.67 3.113 2.21l-.36.75.36-.75.063.03.025.011h.006l.004-.001.09-.09.053-.052c.239-.24.444-.445.666-.59a2.5 2.5 0 0 1 2.726 0c.222.145.427.35.666.59l.052.052.163.163.08.08c.362.361.676.674.858 1.035a2.5 2.5 0 0 1 0 2.257c-.182.36-.496.673-.859 1.035l-.08.08-.13.131-.057.057c-.388.388-.685.685-1.087.911a3.64 3.64 0 0 1-1.642.427c-.46-.001-.796-.096-1.228-.22l-.047-.013a16.7 16.7 0 0 1-7.265-4.273 16.7 16.7 0 0 1-4.274-7.265l-.013-.047c-.123-.433-.218-.768-.22-1.228a3.64 3.64 0 0 1 .428-1.642c.225-.402.523-.7.911-1.087l.056-.057.132-.13.08-.08c.362-.364.675-.677 1.035-.86l.376.744zm7.474 2.443a.833.833 0 0 1 .977-.659 5 5 0 0 1 3.95 3.95.833.833 0 0 1-1.636.32 3.33 3.33 0 0 0-2.633-2.634.833.833 0 0 1-.658-.977" clip-rule="evenodd"/></g><defs><clipPath id="a"><path fill="#fff" d="M0 0h20v20H0z"/></clipPath></defs></svg>