<svg xmlns="http://www.w3.org/2000/svg" fill="none" viewBox="0 0 29 29"><path fill="currentColor" d="M15.423 4.725c.411.21.744.557.947.985l1.96 4.132 4.384.663c1.14.172 1.93 1.273 1.764 2.458-.066.473-.28.909-.608 1.242l-3.172 3.217.749 4.541c.194 1.181-.568 2.303-1.703 2.505a2 2 0 0 1-1.323-.218L14.5 22.106l-3.921 2.144c-1.02.558-2.28.15-2.816-.91a2.25 2.25 0 0 1-.21-1.376l.749-4.542-3.172-3.217a2.23 2.23 0 0 1-.038-3.068c.32-.341.74-.564 1.194-.632l4.383-.663 1.96-4.132c.51-1.075 1.761-1.516 2.794-.985"/></svg>