<svg xmlns="http://www.w3.org/2000/svg" fill="none" viewBox="0 0 23 22"><path fill="#3c6ce7" fill-rule="evenodd" d="M4 0a1 1 0 0 1 1 1v1.5h1.5a1 1 0 0 1 0 2H5V6a1 1 0 0 1-2 0V4.5H1.5a1 1 0 0 1 0-2H3V1a1 1 0 0 1 1-1m8.5 1a1 1 0 0 1 .933.641l1.735 4.509c.3.78.394 1.006.523 1.188.13.182.29.341.471.47.182.13.407.224 1.188.524l4.509 1.735a1 1 0 0 1 0 1.866l-4.509 1.735c-.78.3-1.006.394-1.188.523a2 2 0 0 0-.47.471c-.13.182-.224.407-.524 1.188l-1.735 4.509a1 1 0 0 1-1.866 0L9.832 15.85c-.3-.78-.394-1.006-.523-1.188a2 2 0 0 0-.471-.47c-.182-.13-.407-.224-1.188-.524l-4.51-1.735a1 1 0 0 1 0-1.866l4.51-1.735c.78-.3 1.006-.394 1.188-.523a2 2 0 0 0 .47-.471c.13-.182.224-.407.524-1.188l1.735-4.509A1 1 0 0 1 12.5 1m0 3.786-.8 2.082-.04.102c-.244.634-.428 1.113-.722 1.527a4 4 0 0 1-.941.942c-.414.293-.893.477-1.527.72l-.102.04L6.286 11l2.082.8.102.04c.634.244 1.113.428 1.527.722a4 4 0 0 1 .941.941c.294.414.478.893.722 1.527l.04.102.8 2.082.8-2.082.04-.102c.244-.634.428-1.113.722-1.527a4 4 0 0 1 .941-.941c.414-.294.893-.478 1.527-.722l.102-.04 2.082-.8-2.082-.8-.102-.04c-.634-.244-1.113-.428-1.527-.721a4 4 0 0 1-.941-.942c-.294-.414-.478-.893-.722-1.527l-.04-.102zM4 15a1 1 0 0 1 1 1v1.5h1.5a1 1 0 1 1 0 2H5V21a1 1 0 1 1-2 0v-1.5H1.5a1 1 0 1 1 0-2H3V16a1 1 0 0 1 1-1" clip-rule="evenodd"/></svg>