<svg xmlns="http://www.w3.org/2000/svg" fill="none" viewBox="0 0 237 284"><path fill="#e26584" d="M118.321 101.223c1.875-1.303 3.658-2.759 5.661-3.897 11.669-6.633 24.23-.788 28.027 9.949 2.709 7.662.972 14.843-3.415 21.563-2.524 3.853-5.812 7.082-9.493 9.928-4.596 3.546-9.215 7.082-14.031 10.354-5.36 3.634-7.386 3.842-12.827.154-7.142-4.838-14.32-9.72-20.247-15.959-4.19-4.411-7.073-9.446-7.965-15.379-.96-6.425.336-12.335 5.001-17.261 6.495-6.863 16.092-7.98 24.357-2.955 1.76 1.073 3.369 2.375 4.955 3.503z"/><path fill="#53c8b1" d="M66.353 113.349c-1.435-9.457.498-18.147 7.502-25.393 9.747-10.092 24.149-11.745 36.559-4.346 1.088.646 2.118 1.358 3.137 2.069v-12.97c0-19.166-16.798-34.71-37.52-34.71s-37.52 15.544-37.52 34.71v45.654h29.011c-.486-1.631-.903-3.295-1.169-5.024z"/><path fill="#034b7b" d="M38.512 173.638c0 19.231 16.797 34.817 37.52 34.817 20.722 0 37.519-15.586 37.519-34.817v-7.356c-1.435-.657-3.01-1.576-4.85-2.802-10.732-7.147-21.498-14.339-30.4-23.544-3.578-3.711-6.507-7.728-8.625-12.106H38.5v45.808z"/><path fill="#53c8b1" d="M164.083 133.325c-3.774 5.681-8.706 10.453-14.228 14.656-6.888 5.232-13.811 10.453-21.023 15.28-2.003 1.346-3.704 2.364-5.244 3.065v7.312c0 19.231 16.763 34.817 37.45 34.817s37.451-15.586 37.451-34.817V127.83h-31.223c-.914 1.861-1.991 3.689-3.183 5.495"/><path fill="#034b7b" d="M198.5 72.708C198.5 53.543 181.737 38 161.05 38s-37.451 15.543-37.451 34.708V85.34c1.181-.821 2.374-1.61 3.624-2.31 17.492-9.763 36.292-1.16 41.988 14.634 2.593 7.181 2.466 14.076.336 20.699H198.5zM44.184 229.92H38.51v-2.846h14.75v2.846h-5.673v16.068h-3.415V229.92zm11.241-2.834h12.71v2.846H58.84v5.188h6.911v2.846H58.84v5.199h9.296V246H55.425zm15.119 0h3.415v16.068h9.03v2.835H70.544zm14.193 0h12.711v2.846h-9.296v5.188h6.912v2.846h-6.912v5.199h9.296V246h-12.71zm15.129 0h3.415v7.848h9.03v-7.848h3.392v18.903h-3.392v-8.22h-9.03v8.22h-3.415zm19.056 0h12.711v2.846h-9.296v5.188h6.911v2.846h-6.911v5.199h9.296V246h-12.711zm22.111 0h3.311l7.501 18.903h-3.461l-1.725-4.356h-7.953l-1.69 4.356h-3.496l7.524-18.903zm4.677 11.712-3.033-8.034-3.033 8.034h6.077zm8.821-11.712h3.415v16.068h9.03v2.835h-12.445z"/><path fill="#53c8b1" d="M171.434 229.92h-5.672v-2.846h14.748v2.846h-5.672v16.068h-3.415V229.92zm11.23-2.834h3.415v7.848h9.029v-7.848h3.381v18.903h-3.381v-8.22h-9.029v8.22h-3.415z"/></svg>