<svg xmlns="http://www.w3.org/2000/svg" fill="none" viewBox="0 0 16 16"><path fill="#2b2c2d" fill-rule="evenodd" d="M8 2.333A5.673 5.673 0 0 0 2.333 8 5.673 5.673 0 0 0 8 13.667 5.673 5.673 0 0 0 13.667 8 5.673 5.673 0 0 0 8 2.333m0 12.334A6.674 6.674 0 0 1 1.333 8 6.674 6.674 0 0 1 8 1.333 6.674 6.674 0 0 1 14.667 8 6.674 6.674 0 0 1 8 14.667" clip-rule="evenodd"/><path fill="#2b2c2d" fill-rule="evenodd" d="M10.288 10.462a.5.5 0 0 1-.257-.07l-2.513-1.5a.5.5 0 0 1-.244-.43V5.23a.5.5 0 0 1 1 0v2.948l2.27 1.354a.501.501 0 0 1-.257.93" clip-rule="evenodd"/></svg>