<svg xmlns="http://www.w3.org/2000/svg" fill="none" viewBox="0 0 20 20"><path fill="#3c6ce7" fill-rule="evenodd" d="M5.632 3.334H10.2c.67 0 1.224 0 1.675.036.469.039.9.12 1.304.327.627.32 1.137.83 1.456 1.457.206.404.289.835.327 1.303.034.418.037.925.037 1.531l1.628-1.628c.159-.159.316-.316.453-.43.122-.103.38-.309.737-.337a1.25 1.25 0 0 1 1.049.435c.232.272.27.6.284.759.015.178.015.4.015.625v5.176c0 .226 0 .447-.015.626-.014.159-.052.486-.284.759a1.25 1.25 0 0 1-1.049.434c-.357-.028-.615-.234-.737-.336a8 8 0 0 1-.453-.431L15 12.012c0 .606-.003 1.113-.037 1.531-.038.469-.12.9-.327 1.304a3.33 3.33 0 0 1-1.456 1.457c-.405.206-.835.288-1.304.326-.45.037-1.004.037-1.675.037H5.63c-.67 0-1.224 0-1.675-.037-.468-.038-.899-.12-1.303-.326a3.33 3.33 0 0 1-1.457-1.457c-.206-.405-.288-.835-.326-1.304-.037-.45-.037-1.004-.037-1.675V8.132c0-.67 0-1.224.037-1.675.038-.468.12-.899.326-1.303a3.33 3.33 0 0 1 1.457-1.457c.404-.206.835-.288 1.303-.327.451-.037 1.005-.037 1.676-.037m7.701 4.833c0-.714 0-1.2-.031-1.574-.03-.366-.084-.552-.15-.683a1.67 1.67 0 0 0-.729-.728c-.13-.067-.317-.12-.682-.15C11.365 5 10.88 5 10.166 5h-4.5c-.713 0-1.199 0-1.574.031-.365.03-.552.084-.682.15a1.67 1.67 0 0 0-.729.73c-.066.13-.12.316-.15.682-.03.375-.031.86-.031 1.574v3.667c0 .713 0 1.199.031 1.574.03.365.084.552.15.682.16.314.415.569.729.729.13.066.317.12.682.15.375.03.86.031 1.574.031h4.5c.714 0 1.2 0 1.575-.031.365-.03.552-.084.682-.15a1.66 1.66 0 0 0 .728-.729c.067-.13.12-.317.15-.682.031-.375.032-.86.032-1.574zM15.345 10l2.155 2.155v-4.31z" clip-rule="evenodd"/></svg>